<?xml version="1.0" encoding="UTF-8"?>
<svg width="265px" height="40px" viewBox="0 0 265 40" version="1.1" xmlns="http://www.w3.org/2000/svg" xmlns:xlink="http://www.w3.org/1999/xlink">
    <!-- Generator: Sketch 52.6 (67491) - http://www.bohemiancoding.com/sketch -->
    <title>Group</title>
    <desc>Created with Sketch.</desc>
    <g id="Page-1" stroke="none" stroke-width="1" fill="none" fill-rule="evenodd">
        <g id="Group">
            <path d="M264.866539,2.00122917 C264.198162,2.1390304 263.456074,2.19297908 262.722273,2.15711409 C260.909595,2.19442425 259.092263,2.19442425 257.273768,2.18369119 C248.395368,2.11980393 247.733356,2.38813043 237.601905,2.06511643 C230.575954,1.74718902 223.49726,1.72220409 216.460586,1.99049611 C205.819537,2.24962284 198.213967,2.70603344 187.572918,2.5823477 C176.931869,2.45866197 154.879557,2.70398905 150.316448,2.61659128 C145.752176,2.51897154 126.232727,2.6380574 114.830772,2.70398905 C103.428817,2.76992071 56.8285612,2.62732434 30.7983632,3.05869113 C22.2360379,3.19498396 13.7039626,3.44678495 5.20213751,3.81409412 C4.73675158,3.83504914 3.68963326,3.97304562 3.36619005,3.81971619 C3.24436008,3.58921007 3.24436008,3.34950683 3.36619005,3.11900071 C3.31267067,2.88951766 3.21610309,2.66207901 3.20214151,2.43259596 C3.05728091,2.02833548 3.61889682,1.63976942 4.51336634,1.52539684 C6.58317023,1.27700317 17.5930377,1.52539684 19.7233417,1.52539684 C29.8454855,1.52539684 42.2852512,1.09198566 51.3218823,1.13696229 C53.5708597,1.14718425 55.8256545,1.15791731 58.1037186,1.17938343 L73.1240492,1.17938343 C75.1019394,1.28722513 77.1077527,1.36184545 79.1193833,1.40682209 C81.131014,1.45179872 83.163587,1.4834868 85.2333909,1.49370876 C87.3276275,1.44924323 89.5219221,1.41704405 91.7383226,1.38586706 C93.9884635,1.35366788 96.270018,1.32964627 98.5841495,1.29795819 C102.895376,1.07047649 107.231203,0.944396113 111.573071,0.920256699 C113.734788,0.909523639 115.894179,0.909523639 118.051243,0.930989759 C138.579416,1.16916147 157.011025,1.70734777 179.577588,0.360093186 C181.647392,0.370826246 183.561292,0.455157432 185.659019,0.444424372 C191.92544,0.402514328 197.975457,0.143898692 203.878878,0.00334671533 C204.717196,-0.0100270271 205.556338,0.0167073891 206.38149,0.0830780182 C207.250599,0.143898692 208.092947,0.134187828 208.957401,0.175586773 C211.656771,0.273102369 214.366282,0.305520582 217.073732,0.272695412 C228.846832,0.748527738 249.619333,0.206763757 262.027685,0.714284166 C262.905515,0.743463566 263.718794,0.927906214 264.281316,1.22538226 C264.554974,1.37673334 264.772506,1.54611899 264.925876,1.72728059 C265.042013,1.81477893 265.020109,1.92492489 264.871193,2.00225137 M261.345895,30.2542208 C261.505537,30.9083075 261.466412,31.5688165 261.229548,32.2183708 C261.14761,32.4561013 261.118387,32.696764 261.142288,32.9369747 C261.293579,33.2547529 261.336709,33.5806332 261.270269,33.9039723 C260.718787,34.2954734 257.489009,33.9995476 256.564054,34.0061919 C243.300555,34.0879676 228.509427,34.4764022 211.430928,34.7728391 C194.380351,35.0687648 182.501375,35.0953419 167.976681,34.8392818 C153.451986,34.5832217 125.723129,34.6542643 100.911079,34.7334845 C76.1036826,34.8254822 75.5335848,34.2366971 60.9763132,34.6246206 C46.4190416,35.0253215 47.2590632,35.4577105 33.9699682,35.4158005 C29.7652064,35.4025119 25.5697523,35.3600908 21.3684809,35.2568489 C14.853078,35.0984085 8.32953089,34.9476346 1.80598375,34.8234378 C1.32489027,34.898347 0.788735169,34.847283 0.421460632,34.6915745 C-0.0893004165,34.2448747 0.605288071,33.443984 0.527335929,32.9415746 C-0.768763861,24.7266949 0.4621819,16.6998993 2.71814015,7.96165516 C2.79609229,7.41222471 2.83448663,6.86177206 2.96246776,6.3148971 C3.09044889,5.76802213 5.01365621,5.94997306 5.87112977,5.9371956 C7.74275681,5.90755191 9.61632297,5.87569347 11.4918282,5.84162026 C15.894379,5.75422249 20.2980933,5.64586969 24.7006441,5.5349614 C32.6005701,5.33052216 40.5004962,5.11228328 48.3992587,4.92675467 C65.4219122,4.52094278 77.3008879,4.42587854 91.8535056,4.58636334 C106.3782,4.74787034 134.107057,4.52094278 158.914453,4.27970448 C183.72185,4.03846618 184.323361,4.62878448 198.849219,4.14477458 C213.375077,3.66076469 212.531565,3.23042009 225.827641,3.19055444 C239.09114,3.16397734 235.447168,3.31219579 259.505293,3.59483303 C260.334689,3.55485544 261.170196,3.54511129 262.003252,3.56570044 C263.217909,3.66792006 262.960784,4.33490307 262.886322,4.72384872 C262.81484,5.50423537 262.871999,6.28587135 263.057351,7.06263361 C263.566949,10.6520755 262.725764,13.3956501 263.024774,16.6094349 C263.442458,21.1924516 260.439555,25.7258917 261.341241,30.2557541 M261.301683,35.6606164 C262.189407,35.9509202 260.740893,37.0088932 260.230132,37.2066882 C259.144619,37.6242553 257.824087,37.6508324 256.226649,37.9866239 C254.630376,38.3351928 250.903798,37.9355141 248.801417,38.216618 C246.256207,38.5624886 243.611902,38.7474866 240.94803,38.7660485 C225.493727,39.1018399 210.307021,39.7882447 195.151728,39.6671144 C193.017934,39.6410484 190.846908,39.6277599 188.752672,39.6277599 C167.097101,39.6671144 149.05758,39.6671144 129.509044,39.7887558 C127.466,39.706469 125.418302,39.6277599 123.403181,39.5720502 C103.941905,41.0051692 85.8977293,38.3198598 69.0914802,39.0307973 C67.2555328,39.1258615 65.4521623,39.2209258 63.6162148,39.3027015 C50.6335066,39.8741259 37.5613782,39.9415112 24.5517206,39.5040741 C22.390003,39.4217873 20.2224681,39.3292786 18.0560966,39.2076372 C13.8420271,38.7900701 2.87288097,39.9609958 0.825182918,38.0919101 C0.45761996,37.7085688 0.283373769,37.2948098 0.31442187,36.8790743 C0.295806433,36.4666181 1.01250075,36.398131 1.77689713,36.4267525 C2.97293894,36.4742846 4.15967304,36.4778623 5.36618604,36.4952396 C14.1491818,36.627614 14.8111933,36.2908004 24.7960482,36.7625439 C34.8018455,37.2194656 35.16601,37.2327542 45.6930396,36.9792495 C56.2514826,36.7237005 63.7697922,36.2126024 74.2910044,36.4267525 C84.8122166,36.6409026 106.620201,36.4686625 111.12979,36.6143255 C115.64287,36.7492554 134.948242,36.7226783 146.224543,36.7093897 C157.500844,36.7093897 203.572886,37.1668225 229.313382,36.7886099 C237.815982,36.6618576 246.299968,36.4078419 254.75603,35.9800528 C256.255736,35.9028769 257.760096,35.8369453 259.255148,35.746992 C259.846537,35.6508421 260.474803,35.6060587 261.105057,35.6151287 C261.176725,35.6246478 261.243777,35.6398954 261.302846,35.6601053" id="Artikel" fill="#F2F2F2"></path>
            <text id="article-text-copy-2" font-family="LunchBox" font-size="24" font-weight="normal" letter-spacing="3.75" fill="#FFFFFF">
                <tspan x="15.124" y="28">RESEP UNTUK SI KECIL</tspan>
            </text>
        </g>
    </g>
</svg>