<?xml version="1.0" encoding="UTF-8"?>
<svg width="94px" height="103px" viewBox="0 0 94 103" version="1.1" xmlns="http://www.w3.org/2000/svg" xmlns:xlink="http://www.w3.org/1999/xlink">
    <!-- Generator: Sketch 52.6 (67491) - http://www.bohemiancoding.com/sketch -->
    <title>figure-label-input-newsletter</title>
    <desc>Created with Sketch.</desc>
    <defs>
        <polygon id="path-1" points="4.76754493e-06 0.229365741 93.8530355 0.229365741 93.8530355 102.522877 4.76754493e-06 102.522877"></polygon>
    </defs>
    <g id="Page-1" stroke="none" stroke-width="1" fill="none" fill-rule="evenodd">
        <g id="figure-label-input-newsletter">
            <g id="stroke-shape" transform="translate(0.000000, 0.247486)">
                <mask id="mask-2" fill="white">
                    <use xlink:href="#path-1"></use>
                </mask>
                <g id="Clip-2"></g>
                <path d="M4.76837665,27.522363 L21.1219909,27.522363 C21.1219909,27.522363 18.3005594,23.2259278 19.3755949,21.8835898 C20.4501533,20.540775 32.9445188,20.4067796 32.9445188,20.4067796 C32.9445188,20.4067796 30.9294832,2.28116389 32.1386,1.0728213 C33.3477168,-0.135521296 49.4694325,-0.155549074 51.887666,1.73421481 C54.3058995,3.6239787 56.5900518,11.5454417 54.1718183,18.1240898 L53.6345391,19.4664278 C53.6345391,19.4664278 72.1744883,22.420525 72.0399299,25.1061546 C71.9058487,27.7908306 71.2340112,28.4627148 71.2340112,28.4627148 C71.2340112,28.4627148 86.5498081,27.3883676 87.4902853,29.5365852 C88.4302853,31.6848028 96.2227421,86.0344694 93.1326711,93.1634046 C90.0426,100.29234 80.239402,100.964701 73.8559909,100.561284 C67.4721025,100.158344 30.7949249,101.366687 23.2715848,101.903622 C15.7482447,102.440557 1.29610254,103.850608 1.40155431,99.1188074 C1.50748325,94.3850991 0.567006091,52.0921546 0.163808122,46.8563213 C-0.239389848,41.6200111 0.163808122,35.4438259 0.70108731,33.6985481 C1.23884365,31.9532704 -1.37502437,26.7169602 4.76837665,27.522363" id="Fill-1" fill="#FEFEFE" mask="url(#mask-2)"></path>
            </g>
            <g id="shadow-shape" transform="translate(1.000000, 37.000000)" fill="#E7E7E7">
                <path d="M20.0243168,13.5828231 C24.1445706,16.0743741 28.1922964,18.6007352 32.0300731,21.5157306 C34.0837584,23.0750361 37.2640122,25.148388 38.4354335,27.5483833 C40.3225909,31.415175 48.136997,27.2975593 50.2374437,26.1554991 C57.7517178,22.0703093 65.6505807,17.493962 72.4328954,12.273388 C73.5966822,11.3778602 72.1117685,9.79232778 70.9503675,10.5924852 C65.9912711,14.0091287 60.7945503,16.9718093 55.626936,20.049888 C54.2703777,20.857675 40.7878193,29.776712 40.5411289,25.4798 C40.5148853,25.0296519 40.1021442,24.7111148 39.7333015,24.5451704 C36.9581543,23.2962954 34.1581949,20.1514574 31.702266,18.3484806 C28.933799,16.3166148 25.9453624,14.5904111 22.9841239,12.8618231 C20.0448345,11.1475407 17.1002964,9.45805463 14.2254234,7.63695741 C12.2385401,6.37902222 5.77639797,0.528526852 4.96952487,1.14175833 C5.59603249,0.721175 4.89461117,-0.241588889 4.25140305,0.0655037037 C4.24090558,0.0702722222 4.23088528,0.0750407407 4.22086497,0.0798092593 C4.17601218,0.101267593 4.14547411,0.13655463 4.10825584,0.165642593 C4.10730152,0.164688889 4.10634721,0.163735185 4.10539289,0.16230463 L4.08248934,0.185193519 C4.04908832,0.215235185 4.01711878,0.243369444 3.99039797,0.279610185 C3.98658071,0.283425 3.98228629,0.287716667 3.97799188,0.292485185 C3.61439797,0.662522222 3.76899695,1.11076296 4.09728122,1.29196667 C5.07115939,3.20605 6.75027614,4.94894352 8.74193096,6.52732315 C6.9096467,8.18342963 5.51014416,10.3335546 4.29721015,12.4522074 C3.76899695,13.3744389 5.10837766,14.2966704 5.68478376,13.3763463 C6.99792081,11.2805824 8.40839797,9.34599444 10.0340731,7.50296204 C10.7650782,8.02892963 11.5199411,8.53582315 12.2843472,9.02364259 C9.61799188,12.3463463 6.16671269,14.9509111 4.00423553,18.6765546 C3.47315939,19.592587 4.81015431,20.5081426 5.38417462,19.5954481 C7.66641827,15.9708972 11.0217888,13.2366287 13.5898497,9.83524444 C14.6438904,10.4751796 15.6907736,11.0803046 16.6923269,11.6525269 C11.9555858,16.3156611 7.91644873,21.5004713 4.57014416,27.2493972 C4.01664162,28.2007167 5.4123269,29.1553741 6.00400203,28.2050083 C9.48915939,22.6091519 13.3240731,17.3227722 17.9687228,12.6229204 C18.0226416,12.5680824 18.0488853,12.5070454 18.0841949,12.4483926 C18.7736873,12.8432259 19.4278701,13.2218463 20.0243168,13.5828231" id="Fill-4"></path>
                <path d="M6.38501218,35.7056972 C8.24115431,31.4731602 10.7409817,27.5915861 13.7036518,24.0528685 C14.4122305,23.2064565 12.991733,22.2885167 12.2855401,23.1072713 C9.14679898,26.7475583 6.57348934,30.6877852 4.78224061,35.1544565 C4.37188528,36.1777806 5.9517533,36.694688 6.38501218,35.7056972" id="Fill-6"></path>
                <path d="M14.5123381,29.7617866 C9.89965787,34.6037403 5.84238883,40.3703097 5.2989066,47.2150412 C5.2082467,48.3571014 6.89786091,48.458194 7.05436853,47.3466523 C7.9375868,41.0569764 11.4117695,35.6356477 15.627932,31.025444 C16.3484396,30.2376847 15.2681553,28.9678282 14.5123381,29.7617866" id="Fill-8"></path>
                <path d="M13.0454132,42.5180505 C9.85466193,46.1392634 7.07665178,50.5782773 6.79512893,55.510356 C6.73071269,56.6357264 8.36974822,56.7372958 8.52243858,55.6410134 C9.15705787,51.0889856 11.3071289,47.0529116 14.269799,43.5871523 C14.8710173,42.8852264 13.6580832,41.8228005 13.0454132,42.5180505" id="Fill-10"></path>
                <path d="M13.2427655,51.4208269 C13.6989279,50.3579241 12.0331716,49.8171741 11.5612629,50.8424056 C10.7801563,52.540475 9.2341665,54.5976139 10.4618924,56.4606741 C10.6718416,56.7792111 11.0311411,57.0805815 11.4515168,56.9585074 C11.7225421,56.8798269 11.9935675,56.8016231 12.2645929,56.7229426 C13.3205421,56.4177574 13.0657401,54.8293639 11.9463289,55.0205815 C11.940603,55.0224889 11.9353543,55.0229657 11.9301056,55.0239194 C11.8012731,53.8079472 12.7951919,52.4641787 13.2427655,51.4208269" id="Fill-12"></path>
                <path d="M16.3130822,53.2155542 C15.8965239,54.645156 15.2141888,56.335119 16.0449198,57.7446931 C16.5330518,58.5715542 17.967864,58.2253597 17.7278538,57.1891606 C17.6047472,56.6579477 17.5045442,56.1906329 17.5522599,55.6432069 C17.607133,55.0156699 17.8266254,54.3976699 17.9774071,53.7877764 C18.2460467,52.7034153 16.633732,52.1135495 16.3130822,53.2155542" id="Fill-14"></path>
                <path d="M87.2168528,56.0598801 C72.4545584,57.5776995 57.5977868,57.7331532 42.8111574,58.9820282 C35.0349239,59.6391301 27.2691878,60.0463616 19.4695736,60.2685745 C16.2287208,60.3615606 13.0036142,60.2981394 9.76944162,60.0787875 C8.2019797,59.9719727 6.54719797,59.3482505 4.93536041,59.198519 C3.62651777,51.7119449 4.97973604,43.6254912 4.70871066,36.0607134 C4.37470051,26.763056 3.29393909,17.5216671 1.86580711,8.33463935 C1.71788832,7.38331991 0.291187817,7.66800046 0.408568528,8.60644491 C1.73029442,19.2078153 2.64405076,29.8344588 2.78099492,40.5211856 C2.86020305,46.6735282 1.2593401,53.3876023 2.67363452,59.4693708 C2.66552284,59.4760468 2.65741117,59.4827227 2.64977665,59.4884449 C2.15448731,59.8804171 2.42217259,60.7897736 3.05106599,60.8398431 C3.40368528,61.8622134 4.76215228,61.8426625 5.10284264,61.0572875 C6.63022335,61.3319542 8.24396954,61.8016532 9.6253401,61.9919171 C12.8199086,62.4325282 16.0965482,62.3686301 19.3121117,62.352894 C26.5434315,62.3171301 33.7456447,61.9356486 40.9540609,61.3886995 C56.4172995,60.215644 72.2732386,60.589019 87.5895127,58.0540745 C88.8978782,57.8375838 88.4975431,55.9292227 87.2168528,56.0598801" id="Fill-16"></path>
            </g>
            <path d="M86.2098812,91.5432051 C85.1615665,95.9464551 74.2189168,94.9207468 70.9632721,94.8606634 C64.276866,94.7366819 57.6792112,94.7772144 50.9908964,95.1815847 C42.4125614,95.7008764 34.0728051,95.1901681 25.5259624,95.0308995 C22.2707949,94.9703394 13.2362975,95.7819412 9.36034822,93.5106958 C9.45291675,93.3027884 9.49681523,93.0686542 9.42190152,92.7973255 C7.03850051,84.2139921 8.12689645,75.3407329 7.93078477,66.5480616 C7.70031777,56.259506 5.32121117,46.1988856 4.56730254,35.9475245 C6.99698782,38.6221866 10.7550792,40.9468394 12.5773431,42.2615199 C19.268998,47.0901218 26.0909168,51.6235523 32.7334244,56.5351264 C35.9766629,58.9332144 40.2510386,62.3059875 44.4385716,62.7828394 C48.5993838,63.2563532 52.7764193,60.2936727 56.5077898,58.8082792 C62.627333,56.3691819 67.9533635,52.4222792 72.9654244,48.2326588 C77.0680234,44.8036171 81.3404904,41.4484875 84.3112721,36.9794319 C84.3160437,37.0604968 84.3212924,37.1410847 84.3289269,37.2235801 C84.9167848,43.7311773 85.8019117,50.2130245 86.5710893,56.7015477 C87.8021553,67.0830894 90.7777086,80.6461866 86.7834244,90.7673671 C86.5162162,90.9161449 86.2995868,91.163631 86.2098812,91.5432051 M29.4190893,32.7364042 C31.4560741,34.2051079 33.5756071,35.5789181 35.6970487,36.9574968 C39.606399,39.4981634 42.9340944,42.924344 47.1454853,44.9605014 C50.3238305,46.4969181 53.2077695,43.9300245 55.4065107,41.945844 C58.6025107,39.0632745 61.6878102,36.0118995 64.7941046,32.9924736 C64.9673127,33.1679551 65.1963482,33.3005199 65.516998,33.319594 C68.3016883,33.4841079 71.029597,33.3486819 73.8047442,33.1412514 C76.4066832,32.9471727 78.7962873,32.8703995 81.3762772,33.0692468 C82.1239827,33.126469 82.667465,33.2585569 83.0754345,33.448344 C82.9418305,33.5537282 82.8168152,33.6839088 82.7089777,33.8579597 C77.5012822,42.2996681 67.3292416,49.7490477 58.712734,54.3611588 C54.9241046,56.3892097 50.371069,58.4921264 46.2427036,59.7305106 C42.2059523,60.9407606 36.0205614,55.4088023 33.0268761,53.2734597 C28.4180132,49.9879505 23.9546832,46.7692005 19.1492315,43.7774319 C16.3201655,42.0159412 7.00843959,37.3785569 4.39838883,33.0797375 C4.39409442,32.959094 4.3898,32.8379736 4.38598274,32.7168532 C12.7343279,32.4660292 21.0697898,32.4383718 29.4190893,32.7364042 M89.9894447,66.4188347 C88.9874142,55.1174458 87.134135,43.9042745 86.3172416,32.5847653 C86.2876579,32.1837329 85.9025919,31.7984366 85.5370893,31.6820847 C79.3793736,29.7231773 73.1629675,31.1599319 66.8611503,31.0030477 C67.7162162,30.1823856 68.5708051,29.3607699 69.4368457,28.5563208 C70.1010487,27.9387977 70.0671706,26.8286866 69.2851096,26.3151171 C64.070734,22.8884597 57.6682365,21.7955153 51.492866,21.4655338 C52.8413127,16.5758949 54.7938406,9.6214875 51.6708457,5.62308472 C48.2577391,1.25226065 41.0416883,1.84117269 36.1250589,2.28559861 C34.7465513,2.4105338 34.8854041,4.69083935 36.2572315,4.69703843 C40.2906426,4.71468194 44.7554041,4.20826528 48.4600538,6.13713102 C52.9057289,8.45176991 49.2325716,18.9539551 48.3421959,22.3310199 C48.1198406,23.1760014 48.6070183,24.1597468 49.5713533,24.1978949 C55.1765208,24.4167699 61.0966122,25.0619505 66.1015157,27.741381 C63.258135,30.2753718 60.3307746,32.6720292 57.7283584,35.4754412 C54.7079523,38.7299551 51.0061655,44.1884782 46.1148254,41.2114921 C42.9927848,39.3107606 40.3140234,36.6561264 37.2392213,34.645719 C32.8966122,31.8065431 28.5683178,29.0937329 25.0330589,25.3490153 C28.7138508,25.2331403 32.395597,25.3876403 36.0792518,25.2364782 C36.8446122,25.205006 37.4410589,24.7839458 37.5364904,23.9847421 C38.3877391,16.8190894 35.3926223,10.1140755 35.085333,3.0304412 C35.0433431,2.04383472 33.5636782,1.87455231 33.514531,2.91218194 C33.2058102,9.52802454 35.8597594,15.9364366 35.0266426,22.527006 C30.633932,22.5241449 26.2483787,22.3729829 21.8642569,22.7396819 C20.7286223,22.8350523 20.4900437,24.2746681 21.0769472,25.0266634 C22.6133939,26.9970153 24.3650386,28.7112977 26.240267,30.2806171 C18.9182873,30.0936912 11.6025107,30.136131 4.27719086,30.3602514 C4.09825685,29.9072421 3.54236853,29.7613255 3.17018579,29.9658949 C2.86671371,29.9110569 2.53699797,30.0297931 2.44108934,30.3869551 C2.41723147,30.4780338 2.4191401,30.5695894 2.40148528,30.6606681 C1.70388122,31.2033255 1.70149543,32.4121449 2.53842944,32.685381 C2.5971198,32.8756449 2.65915025,33.0644782 2.74026701,33.2537884 C2.60809442,44.8226912 5.3880132,56.2122977 5.49346497,67.7778625 C5.56360711,75.459469 3.87017563,84.6059644 6.4802264,92.1049366 C6.34662234,92.3118903 6.29318071,92.5774968 6.41485584,92.8822051 C8.14693706,97.2201264 16.6808964,96.9783625 20.3530995,97.227756 C30.6301147,97.9258671 40.8422365,98.4785384 51.1431096,97.948756 C59.7448254,97.5048069 68.2539726,98.0798903 76.8332619,97.8090384 C80.8132315,97.6821958 88.5193228,97.4347097 88.9635563,92.1106588 C88.9726223,92.0028903 88.9420843,91.9108579 88.9272924,91.8126264 C92.0956173,84.0757051 90.706135,74.5038579 89.9894447,66.4188347" id="primary-shape" fill="#F2F2F2"></path>
        </g>
    </g>
</svg>