<?xml version="1.0" encoding="UTF-8"?>
<svg width="289px" height="48px" viewBox="0 0 289 48" version="1.1" xmlns="http://www.w3.org/2000/svg" xmlns:xlink="http://www.w3.org/1999/xlink">
    <!-- Generator: Sketch 52.6 (67491) - http://www.bohemiancoding.com/sketch -->
    <title>figure-input-bg</title>
    <desc>Created with Sketch.</desc>
    <g id="Page-1" stroke="none" stroke-width="1" fill="none" fill-rule="evenodd">
        <g id="figure-input-bg">
            <path d="M238.379105,44.151 C237.81342,44.15 237.247736,44.149 236.682051,44.147 C232.613062,44.135 21.3277895,44.101 17.2588009,44.046 C14.6003293,44.01 11.9426787,44.209 9.2842071,44.152 C8.04282074,44.128 6.75463608,43.843 5.52310199,43.915 C4.65528097,43.966 3.99353665,44.378 3.41717869,43.131 C3.03950824,42.314 3.04443438,41.328 3.05921278,40.393 C3.13720994,35.366 3.32111903,22.699 3.33507642,17.673 C3.3416446,15.243 3.19139744,12.806 3.21684915,10.38 C3.23409063,8.754 3.22423835,6.719 4.37613324,5.601 C5.2127554,4.789 6.37039744,4.743 7.43936903,4.732 C23.5790338,4.582 246.91692,4.539 263.048375,4.468 C269.409659,4.439 275.770122,4.411 282.131406,4.383 C282.858832,4.38 283.628951,4.39 284.252929,4.847 C285.615005,5.846 284.991849,9.064 284.947514,10.614 C284.947514,18.326 284.900716,33.66 284.941767,41.391 C284.950798,43.302 284.161795,43.35 282.817781,43.397 C275.578003,43.655 268.336582,43.85 261.095162,43.976 C253.52369,44.106 245.950576,44.166 238.379105,44.151 M277.995914,45.552 C280.162593,45.515 282.330093,45.47 284.497593,45.414 C285.26525,45.395 286.085451,45.354 286.711071,44.811 C287.712718,43.94 287.80221,42.202 287.797284,40.704 C287.775937,35.173 287.755412,21.996 287.734886,16.465 C287.725034,13.699 287.714361,10.934 287.703687,8.168 C287.698761,6.697 288.445892,3.357 287.167559,2.415 C286.184795,1.689 283.550954,2.199 282.394954,2.156 C278.990173,2.032 275.58375,1.929 272.178147,1.847 C265.365301,1.682 258.550812,1.603 251.737966,1.607 C243.599167,1.614 28.244906,1.741 20.1093918,1.99 C14.6463065,2.157 9.18404233,2.327 3.72752528,2.542 C3.25379517,2.561 2.75132926,2.59 2.35970142,2.916 C1.96725256,3.243 1.75789176,3.824 1.70288324,4.399 C1.07069574,11.023 1.39664176,18.078 1.23736335,24.772 C1.16429233,27.845 1.06084347,38.563 1.01815028,41.635 C0.988593466,43.745 1.26035199,45.912 3.38433778,45.754 C5.85890028,45.57 8.35891449,45.63 10.8186986,45.772 C15.3351446,46.034 227.075264,45.952 231.578574,45.98 C233.108139,45.98 234.636883,45.973 236.163986,45.944 C250.104951,45.697 264.049201,45.791 277.995914,45.552 M8.44101676,0.913 C22.1077611,0.208 243.005568,-0.088 256.68627,0.022 C263.199443,0.077 269.712616,0.223 276.221684,0.461 C279.477861,0.58 282.733216,0.723 285.986929,0.888 C287.399909,0.959 288.323559,0.612 288.68563,2.441 C289.091216,4.492 288.838341,6.898 288.867897,8.999 C288.98202,17.071 288.901559,32.848 288.963136,40.941 C288.97463,42.521 288.988588,44.862 288.100241,46.15 C287.124045,47.565 285.081341,47.196 283.759494,47.207 C274.715108,47.272 265.670721,47.336 256.625514,47.399 C248.476863,47.459 240.329034,47.517 232.181204,47.573 C228.599903,47.6 17.8392639,47.089 14.2218378,47.071 C10.2661503,47.054 6.31046278,47.087 2.35559631,47.053 C0.230789489,47.034 0.0148605114,44.428 0.00254517045,42.425 C-0.0204434659,38.856 0.13472983,27.63 0.20123267,24.064 C0.276766761,19.945 0.389246875,15.829 0.480380398,11.711 C0.527178693,9.652 0.567408807,7.594 0.596144602,5.535 C0.61338608,4.342 0.155255398,2.334 1.07972699,1.508 C1.79647983,0.866 3.49107074,1.186 4.33754517,1.137 C5.70536903,1.058 7.07237188,0.983 8.44101676,0.913" id="input-border" fill="#F2F2F2"></path>
            <path d="M3.96562188,38.335 C3.68647415,41.67 4.12818438,42.366 6.36382926,42.733 C6.74232074,42.796 7.13148551,42.792 7.51572415,42.775 C23.4591645,42.146 246.731369,42.473 262.710934,42.436 C266.463829,42.427 270.216724,42.55 273.967156,42.472 C275.878497,42.433 277.790659,42.344 279.696253,42.156 C280.610051,42.067 283.424517,42.501 283.794798,41.273 C284.324358,39.521 283.876079,29.041 283.871974,27.187 C283.867869,24.943 283.882647,22.702 283.8769,20.46 C283.867869,17.385 284.252929,14.322 284.014832,11.23 C283.910562,9.873 284.252108,7.218 283.262775,6.322 C282.147005,5.313 279.335003,5.529 277.980315,5.538 C264.397315,5.628 250.780653,5.894 237.223105,5.894 C233.153295,5.834 21.8680224,5.795 17.7982128,5.777 C14.1816077,5.762 10.3589259,5.384 6.78747699,5.982 C6.11095426,6.096 5.43607358,6.435 4.99682642,7.07 C4.47711903,7.823 4.36053381,8.862 4.29485199,9.843 C4.07235483,13.168 4.15363608,16.559 4.21439176,19.885 C4.28335767,23.702 3.86381506,35.121 3.96562188,38.335" id="input-field" fill="#FFFFFF"></path>
        </g>
    </g>
</svg>