<?xml version="1.0" standalone="no"?>
<!DOCTYPE svg PUBLIC "-//W3C//DTD SVG 1.1//EN" "http://www.w3.org/Graphics/SVG/1.1/DTD/svg11.dtd" >
<svg xmlns="http://www.w3.org/2000/svg" xmlns:xlink="http://www.w3.org/1999/xlink" version="1.1">
<metadata>
Created by FontForge 20170731 at Wed Aug 13 05:58:32 2014
 By Aleksey,,,
Copyright (c) 2013 by Kimmy Design. All rights reserved.
</metadata>
<defs>
<font id="LunchBoxW01-Light" horiz-adv-x="462" >
  <font-face 
    font-family="LunchBoxW01-Light"
    font-weight="300"
    font-stretch="normal"
    units-per-em="1000"
    panose-1="2 0 5 6 0 0 0 2 0 3"
    ascent="800"
    descent="-200"
    x-height="550"
    cap-height="792"
    bbox="-94 -286 1009 1037.55"
    underline-thickness="50"
    underline-position="-225"
    unicode-range="U+000D-2122"
  />
<missing-glyph horiz-adv-x="396" 
 />
    <glyph glyph-name=".notdef" horiz-adv-x="396" 
 />
    <glyph glyph-name="glyph1" horiz-adv-x="0" 
 />
    <glyph glyph-name="glyph1" horiz-adv-x="0" 
 />
    <glyph glyph-name="uni000D" unicode="&#xd;" horiz-adv-x="286" 
 />
    <glyph glyph-name="space" unicode=" " horiz-adv-x="286" 
 />
    <glyph glyph-name="exclam" unicode="!" horiz-adv-x="207" 
d="M138 250q0 -5 0.5 -11t0.5 -11q1 -15 1 -30t-6 -23q-5 -8 -21 -9t-24 -1h-5q-5 0 -7 2q0 8 0.5 21t2.5 21q3 18 3 37q0 13 -1 41t-2 64.5t-3 79t-3 84.5q-2 39 -3 75.5t-2 65.5t-1.5 48.5t-0.5 25.5v7q1 15 2 32.5t6 29.5q9 2 21 1t22 -4q2 -23 4.5 -69t5 -102
t4.5 -116.5t3 -113.5t2 -92t1 -53zM100 100q24 3 35 -12.5t10.5 -34.5t-13.5 -33t-37 -6q-17 5 -24.5 18.5t-6.5 28t10.5 26.5t26.5 14q-1 -1 -4 -1h3z" />
    <glyph glyph-name="quotedbl" unicode="&#x22;" horiz-adv-x="133" 
d="M21 727q-1 10 -2.5 24.5t-2.5 28t-2 23l-1 9.5q1 2 5.5 2t10 -0.5t10 -2t5.5 -2.5l-2 1q4 -4 4 -24q0 -5 1.5 -14t2 -18t-0.5 -16.5t-5 -8.5q-6 -2 -13 -2.5t-10 0.5zM65 810q0 5 11.5 3.5t19.5 -1.5q-5 -15 -4 -36.5t2 -35.5q1 -6 1 -8.5v-4.5q-4 -2 -8.5 1t-13.5 0
q-2 -1 -3.5 9t-2.5 23.5t-1.5 27.5t-0.5 22z" />
    <glyph glyph-name="numbersign" unicode="#" horiz-adv-x="660" 
d="M187 -2q-1 3 -1 10.5t-0.5 26t-1.5 52t-3 89.5q0 17 -0.5 40t-1.5 40q-8 2 -23 2t-31.5 -1t-31.5 -1.5t-22 0.5q-4 11 -5.5 17t-2.5 20v8q1 6 13.5 9.5t30.5 5t38 1.5h36v68q0 25 0.5 58t1.5 58q-9 2 -28 -0.5t-39.5 -4t-36.5 -0.5t-17 10v45q5 5 3.5 3t3.5 -2
q4 0 28.5 1.5t86.5 3.5q1 12 2 32t1 33q1 27 1.5 54.5t0.5 54.5v21q0 13 0.5 25.5t-0.5 25.5q13 2 27 0h15h7t8 1q6 1 11.5 1.5t8.5 -0.5q0 -60 -4.5 -123t-9.5 -123q14 -1 36 -1.5t36 -0.5q20 0 48 -1t48 -2v18v37.5t0.5 69.5t1.5 113q4 2 16 2h23h8q8 0 16 -0.5t8 -3.5
q0 -11 -1 -25t-2 -35.5t-2.5 -54.5t-1.5 -82q0 -7 -0.5 -15t-2.5 -27q10 0 21 -0.5t25.5 -0.5h34t46.5 -1q2 -4 2 -4.5t-0.5 -0.5t-1 -1t-0.5 -7l2 -54h-31.5h-35.5t-35.5 0.5t-32.5 2.5l3 -19q0 -10 -0.5 -21t-0.5 -27v-40v-59l121 3q3 -12 3.5 -23t0.5 -22v-9v-10t1 -3
l-122 -3q-1 -5 -1 -24v-44t0.5 -53.5t0 -53.5t-1.5 -43t-2 -23l-2.5 -5t-8.5 -9t-18 -4t-32 9q-4 7 -5 28t0.5 48.5t4 58t4.5 56t2.5 43t-1.5 19.5q-14 1 -36 2.5t-47.5 1.5t-52 -0.5t-50.5 -1.5q0 -13 0.5 -46.5t2 -73t2.5 -78t2 -61.5l-7 0.5t-16.5 0.5h-19t-14.5 -1
q-5 0 -6 1zM312 314q24 0 56 0.5t56 1.5v57v58t-1 58q-30 4 -67.5 7t-66.5 5q-6 0 -13.5 0.5t-28.5 2.5q-3 -38 -6 -85t-4 -85v-20h75z" />
    <glyph glyph-name="dollar" unicode="$" horiz-adv-x="480" 
d="M337 363q28 -28 52 -62t33 -72q4 -17 4 -35q0 -20 -4 -39q-5 -24 -10 -47t-22 -44h1q-15 -17 -41.5 -33.5t-51.5 -23.5h1q-8 -2 -15 -3l-14 -2l-3 -19q-11 -6 -27 -7.5t-31 -2.5h-3q-5 5 -6 13t-1 17l-12 3h1q-24 8 -48.5 26t-38.5 38q-6 8 -12 20t-10.5 24.5t-7 25
t-0.5 21.5t8.5 11.5t14.5 3.5q2 0 3.5 0.5t4.5 0.5q11 1 21.5 1t19.5 -2q2 -32 18 -60t43 -42q4 46 5 92.5t2 93.5v88v52l-23 21l-23 19q-25 20 -46.5 41.5t-35.5 50.5q-9 20 -14.5 46.5t-5.5 51.5q0 23 7 50.5t16 45.5q19 29 50 49.5t66 29.5q0 3 0.5 5.5t0.5 4.5t-0.5 7
t-0.5 9q-1 10 -2 21t0 12q10 4 23.5 4.5t24.5 0.5h8q7 0 14.5 -0.5t9.5 -2.5l-3 -49l-2 -10q26 -5 47 -15h-1q12 -8 29 -22t24 -28l10 -18h-1q5 -10 10.5 -21.5t9.5 -22.5t6 -19t0 -11v1q-5 -5 -22.5 -9.5t-34.5 -4.5h-15q-4 4 -5 8.5t-1 9.5q-1 6 -2 11.5t-4 11.5
q-13 28 -32 44q-10 7 -20 11v-168q0 -25 -1 -48.5t-3 -46.5l-3 -43q19 -15 36.5 -31t34.5 -33zM331 259q-14 24 -31 45.5t-35 41.5q0 -19 0.5 -38t1.5 -37q1 -22 2 -43t1 -43v-17t-1 -17q-1 -13 -1.5 -25.5t-0.5 -24.5q0 -9 0.5 -17.5t0.5 -16.5v-1q7 1 16 5h-1
q38 14 55 42.5t17 61.5q0 21 -6.5 42.5t-17.5 41.5zM182 503q13 -15 28 -28l-4 144t-4 126q-14 -5 -26 -13t-20 -18q-21 -25 -30.5 -58t-3.5 -65q5 -25 19.5 -43.5t31.5 -34.5l-1 3z" />
    <glyph glyph-name="percent" unicode="%" horiz-adv-x="863" 
d="M183 372q-31 6 -52.5 25.5t-36 46t-22 57t-10.5 58.5q-2 11 -2 19.5v18.5q0 36 8 69.5t23 60t36.5 43t48.5 18.5q8 1 14 1h12q34 2 63 -20.5t50 -59.5t32.5 -83t11.5 -91q0 -33 -7.5 -63.5t-23 -54t-40.5 -37t-60 -13.5q-9 0 -20.5 1t-24.5 4zM361 -12q-2 -6 -15.5 -8
t-30.5 -2t-31.5 -1t-15.5 -3q-1 23 5 39t14 33q2 6 6.5 16.5t7.5 19.5q4 12 16.5 46.5t30 83.5t38.5 108t42.5 120t41.5 119t36 105t25.5 78.5t10.5 39.5q2 11 5 22.5t11 13.5q7 1 17 1.5t19 0.5q10 0 18.5 -0.5t15.5 -2.5l-12 -36.5t-31.5 -96.5t-44.5 -137t-51 -158z
M188 426q36 -8 59.5 5.5t37 37.5t18.5 53.5t2 54.5q-2 22 -8 47t-17.5 46.5t-30 37.5t-45.5 20q-26 -1 -44 -17t-29 -40t-16 -51.5t-6 -49.5h-1v-11q0 -4 0.5 -7t0.5 -6h1q2 -15 6.5 -34t13.5 -36.5t23 -31t35 -18.5zM722 398q25 -13 41 -32t25 -42t12.5 -48.5t3.5 -51.5
t-2.5 -51.5t-5.5 -50.5q-3 -29 -14.5 -53.5t-28.5 -42t-39.5 -27.5t-46.5 -10q-18 0 -36.5 5.5t-36.5 18.5q-17 11 -30 33t-23 51.5t-15 63.5t-5 69q0 36 6.5 69.5t21 60t37.5 42t55 15.5q37 0 81 -19zM678 51q21 0 35 12.5t23 32t13 43.5t4 47q0 27 -5.5 56t-17.5 54
t-30 41t-42 16q-15 0 -29 -8.5t-24.5 -22.5t-17.5 -31.5t-9 -35.5q-2 -16 -3.5 -32.5t-1.5 -32.5q0 -20 7 -44.5t20 -45.5t32.5 -35t45.5 -14z" />
    <glyph glyph-name="ampersand" unicode="&#x26;" horiz-adv-x="628" 
d="M70 139q-4 14 -6.5 29.5t-2.5 31.5q0 37 11 76t29 76.5t39.5 72t42.5 63.5q-6 14 -15 33t-16 33q-16 30 -28.5 59t-12.5 64q0 13 3 30q5 24 20 44.5t36 35t46 22.5t49 6q50 -8 71.5 -41.5t21.5 -76.5q0 -27 -7 -55.5t-20 -55.5t-30 -50.5t-36 -40.5q7 -13 17.5 -32
t23 -41.5t26 -46.5t26.5 -48q31 -55 66 -118q13 28 17.5 57t4.5 55q0 37 -3 75.5t-7 61.5q5 1 13.5 1.5t17.5 0.5t16.5 -1.5t10.5 -4.5h-1q6 -11 11.5 -48.5t5.5 -88.5q0 -48 -7.5 -98t-25.5 -91q8 -11 18 -28.5t19 -32.5q14 -26 27.5 -48.5t24.5 -36.5l2 -2q5 -6 5.5 -10
t-10.5 -10l-7 -2q-7 -3 -15.5 -6t-13.5 -3q-10 0 -21 15l-14 17q-7 9 -13.5 17t-12.5 18t-11.5 22.5t-11.5 29.5q-22 -10 -34.5 -17t-22.5 -15v1l-26 -15h1q-39 -22 -81 -22q-81 0 -134 39t-76 100zM308 714q-5 10 -16 20.5t-25 17t-30 6.5t-29 -10q-19 -14 -27.5 -35
t-8.5 -45q0 -16 3 -35.5t9 -38.5t16.5 -35t25.5 -25q4 1 20 22t32.5 49.5t26.5 58.5t3 50zM136 146q7 -26 23 -45t37.5 -30.5t46 -15t48.5 2.5h-1q28 7 56.5 28t46.5 44q-35 74 -67 135q-14 26 -28 51.5t-27.5 46.5t-25 36.5t-19.5 20.5q-4 -4 -13.5 -21t-21 -41.5
t-23.5 -54t-20.5 -58.5t-12.5 -55t1 -44z" />
    <glyph glyph-name="quotesingle" unicode="'" horiz-adv-x="17" 
d="M-18 705q1 -1 3 -1v-1zM29 703q0 -2 -5 -2.5t-12 0t-15 1.5t-12 2q1 1 -1 17.5t-4 34.5q-1 14 -3 28t-4 24q8 0 14 0.5t12 1.5q4 0 10.5 0.5t10.5 0.5q1 -7 0.5 -8.5t-0.5 -9.5v-13q0 -15 3 -35t5 -35q0 -2 0.5 -4t0.5 -3z" />
    <glyph glyph-name="parenleft" unicode="(" horiz-adv-x="303" 
d="M186 783q-22 -70 -33 -140q-8 -51 -13.5 -102t-5.5 -103q0 -27 1.5 -55.5t6.5 -54.5q9 -70 22 -140t39 -136v1q3 -7 6 -13.5t8 -14.5q5 -9 10.5 -18t10 -17.5t6 -15t-0.5 -9.5t-8 -4t-14.5 -1.5t-17.5 0t-16 0.5h-9q-6 1 -12 8.5t-11 18.5t-9.5 23.5t-8.5 22.5v-1
q-2 7 -3.5 12t-3.5 9l1 -1q-14 32 -25 66t-19 67q-10 54 -15.5 116.5t-5.5 116.5v34.5t1 34.5q1 36 6 74t12 76.5t16 75.5t18 70q4 14 5.5 23.5t3.5 19.5q2 14 5 28t10 28q1 2 6 2h13q11 0 22 -1t21 -3q8 -2 15 -3t12 0q-4 -6 -11 -18.5t-13.5 -27t-12.5 -27.5t-9 -21z" />
    <glyph glyph-name="parenright" unicode=")" horiz-adv-x="297" 
d="M66 881q15 3 34.5 4t39.5 0q8 -23 14.5 -38t14.5 -31l20 -48q13 -30 19.5 -63.5t12.5 -66.5q8 -53 12 -106t4 -106q0 -24 -1 -49.5t-3 -51.5q-7 -70 -22 -141.5t-42 -138.5l-6 -15v-1q-6 -17 -14 -34t-22 -19q-9 -1 -24 -0.5t-26 2.5q-2 0 -1.5 3.5t1.5 6.5
q10 34 16.5 55t12 39.5t11 38.5t14.5 53q17 63 24.5 125t12.5 124q3 49 -4 95.5t-16 94.5l-12 62q-5 28 -13 60t-19 60q-2 8 -6.5 16.5t-8.5 16.5q-8 14 -14.5 27t-8.5 26z" />
    <glyph glyph-name="asterisk" unicode="*" horiz-adv-x="375" 
d="M170 766q-12 -7 -20 -14t-14.5 -13t-13 -11t-16.5 -8q-2 -4 -4 1v-1l-20 29l-17 21q-1 0 -1 1v2l5 3l70 57l-66 12h-1v2q2 14 5 26.5t9 23.5l-2 1q2 0 3 1q-1 -1 -1 -2l9 -3q26 -7 39 -9t18 -2q4 14 0 28.5t-4 25.5l1 1t6.5 2.5t18 3t35.5 4.5q1 0 1.5 0.5t2.5 0.5
q5 -21 10.5 -39.5t11.5 -29.5l46 31l20.5 -20.5t16.5 -19.5q1 -1 0 -2q-14 -12 -22.5 -19t-13.5 -12t-7.5 -8.5t-4.5 -7.5q17 -14 26.5 -20t14 -7.5t5.5 -1t2 0.5q-8 -20 -12.5 -31t-9.5 -17q0 -1 -3 -0.5t-10 3.5t-19.5 9.5t-32.5 16.5q-2 -32 1 -46t3 -23q0 -1 -1 -2v-1
q-2 0 -3.5 -0.5t-3.5 -0.5q-17 -2 -29 -4t-19.5 0t-10.5 9t-3 23zM281 912q2 2 2 1.5t-2 -2.5v1z" />
    <glyph glyph-name="plus" unicode="+" horiz-adv-x="432" 
d="M114 334h-24.5t-23.5 -1q-2 13 -2.5 26t0.5 27q0 7 16 8.5t29 1.5h11q11 0 24 0.5t24 1.5l24 2l-4 34q-2 14 -3 30.5t-1 30.5v20t1 9v-1q9 5 16 7t12 2q9 0 14.5 -2.5t8.5 -4.5q1 -23 2 -43q1 -17 1.5 -33.5t-0.5 -22.5l-1 -26q0 -3 20 -1t49 2q17 0 33 0.5t29 0.5h4
q3 -14 3 -36v-18t1 -7q-26 -5 -64 -5.5t-71 0.5q5 -30 6 -46.5t1 -30.5v-20t1 -20q0 -16 -11 -16h-8.5t-10.5 -1q-5 0 -7 -0.5t-4 -1.5q-5 -1 -8.5 0t-3.5 6q0 14 -1 28.5t-1 29.5q0 16 -0.5 32.5t-2.5 39.5q-15 -2 -25.5 -2h-18.5h-34v0z" />
    <glyph glyph-name="comma" unicode="," horiz-adv-x="194" 
d="M82 -8q4 2 7 3t11 4q13 6 15 24q-11 -7 -22.5 -6.5t-21 6.5t-15.5 15.5t-5 21.5q1 10 7.5 18t16 12.5t20.5 5t21 -5.5q8 -7 16.5 -17.5t10.5 -28.5q1 -15 -4 -31.5t-19 -25.5q-4 -2 -14 -8t-18 -4l-4.5 9t-1.5 8z" />
    <glyph glyph-name="hyphen" unicode="-" horiz-adv-x="432" 
d="M94 377q8 0 17 -0.5t19 -0.5h216q1 0 1.5 -11t0 -24t-1.5 -24l-1 -11q-8 2 -30.5 1t-58.5 1l-70 4q-9 0 -26.5 1t-36 1.5t-34.5 1t-22 0.5q-4 0 -6.5 10t-3 22.5t1.5 23t8 9.5l27 -4v0z" />
    <glyph glyph-name="period" unicode="." horiz-adv-x="182" 
d="M86 98q24 3 35 -12.5t10.5 -34.5t-13.5 -33t-37 -6q-17 5 -24.5 18.5t-6.5 28t10.5 26.5t26.5 14q-1 -1 -4 -1h3v0z" />
    <glyph glyph-name="slash" unicode="/" horiz-adv-x="483" 
d="M377 836q14 -1 26 -6t5 -20v-5q-3 -6 -3 -11q-4 -12 -18 -52t-34.5 -97.5t-45.5 -126.5t-51 -139.5t-50.5 -137t-44 -118t-32 -82.5t-14.5 -32q-17 -2 -33.5 -1.5t-33.5 -2.5q4 16 18.5 60.5t35.5 105.5t47 133.5t52.5 145.5t52 142t46 122t33.5 85.5t15 33.5
q6 3 13.5 3.5t15.5 -0.5z" />
    <glyph glyph-name="zero" unicode="0" horiz-adv-x="518" 
d="M444 603q5 -35 6.5 -70.5t2.5 -70.5q2 -37 5 -74.5t6 -73.5q1 -14 1.5 -26t0.5 -26q0 -26 -1.5 -52t-3.5 -53q-3 -35 -13 -59t-33 -49q-10 -10 -24.5 -18t-31 -14t-34 -9.5t-32.5 -5.5q-29 -4 -60 0.5t-58 17.5t-48 34t-29 51q-5 19 -7.5 41t-4.5 45q-1 10 -1.5 21.5
t-2.5 21.5l-4 33q-3 27 -5.5 53.5t-3.5 52.5q0 18 -0.5 37t-1.5 38q-2 29 -3 56.5t-1 55.5t1.5 55.5t5.5 56.5q2 26 11.5 43t23.5 39q15 23 44.5 31t58.5 11q3 0 6 1t6 1q11 1 23 2t23 1q15 0 29.5 -2.5t26.5 -10.5l17 -9q11 -5 21 -11t15 -11q19 -16 31.5 -36t20 -40.5
t11.5 -41t6 -36.5zM131 531q-1 -32 0.5 -66t3.5 -67q2 -20 2.5 -40.5t1.5 -41.5q1 -11 1.5 -22.5t0.5 -24.5l2 -46t3 -44.5t5.5 -39t10.5 -29.5l18 -12q11 -9 21.5 -15.5t28.5 -9.5q12 -3 25.5 -5t29.5 -2q11 0 22 1t23 6q39 17 51 51.5t12 72.5q0 44 -0.5 88t-5.5 87
q-3 26 -3.5 51t-0.5 51q0 20 -0.5 43.5t-2.5 45.5q-1 15 -3.5 31.5t-4.5 30.5l-5 30q-3 18 -11.5 30.5t-16.5 20.5q-10 9 -21 15q-41 2 -77.5 -4t-68.5 -16q-14 -14 -22 -35t-12.5 -44.5t-5.5 -47.5t-1 -43z" />
    <glyph glyph-name="one" unicode="1" horiz-adv-x="233" 
d="M172 721q-5 -78 -6 -144.5t-1 -126.5q0 -50 0.5 -106t1.5 -105q1 -54 1.5 -111t0.5 -124q-5 -1 -12 -1.5t-13 -0.5h-11t-9 1q-1 41 -2 76.5t-1.5 67.5t-0.5 62.5v62.5t0.5 63t0.5 63l2 323l-27 -46q-3 -5 -8.5 -13.5t-6.5 -8.5q-9 4 -19.5 11t-20.5 15q3 7 13.5 24
t23.5 36q11 17 20.5 32t14.5 29q6 2 17 2t22.5 -1.5t19.5 -4.5v-75z" />
    <glyph glyph-name="two" unicode="2" horiz-adv-x="466" 
d="M397 19v-16.5t2 -19.5q-1 1 -19.5 2.5t-46 3t-60.5 2t-63 0.5q-26 0 -49.5 0.5t-42 2t-30 3t-12.5 4.5q-2 13 -3 25t-1 23q0 6 0.5 14t1.5 16q5 48 18 87t31 72.5t40.5 64t46.5 61.5l52 69q12 16 23.5 34.5t20.5 39t15 41t6 40.5q0 31 -9.5 58t-25.5 47.5t-36 32.5
t-41 12q-26 0 -50 -21.5t-39 -72.5q0 -4 -1 -8t-1 -7q-1 -8 -2.5 -17t-5.5 -11q-4 0 -12.5 -0.5t-19.5 -0.5h-19t-11 -1q-1 6 -2 14.5t-1 13.5q0 25 8 49.5t20.5 44.5t28.5 35t31 21h-1q14 5 34.5 10.5t46.5 5.5q31 0 67.5 -14.5t71.5 -52.5q20 -23 28.5 -54t8.5 -63
q0 -45 -13.5 -88t-28.5 -69q-17 -42 -42.5 -76t-52.5 -67q-21 -26 -41.5 -52t-37.5 -57l1 1l-8 -12q-14 -23 -26 -51t-6 -64q26 -6 48 -8t42 -2q17 0 33 1t31 2q30 3 57 3q22 0 42 -3q3 -7 3.5 -20.5t0.5 -27.5z" />
    <glyph glyph-name="three" unicode="3" horiz-adv-x="498" 
d="M76 186q14 4 29.5 4.5t29.5 3.5l4 -5v-1q1 -20 6.5 -40.5t16.5 -38t27.5 -28.5t39.5 -11q34 0 59 21t41 51.5t23.5 65.5t7.5 63q0 121 -53.5 175t-174.5 54q2 6 6.5 10.5t9.5 8.5q18 27 35 50t32.5 45.5t29 47.5t24.5 56q-54 1 -101.5 -1.5t-101.5 -2.5q-1 17 -4.5 37.5
t3.5 34.5q58 -2 116 -2h117q26 0 52.5 1t52.5 4l-4 -41q-4 -2 -14.5 -15.5t-24 -33t-29 -43t-29.5 -45t-24.5 -38t-14.5 -23.5q53 -9 88 -37t56 -67t29.5 -86t8.5 -94q0 -24 -6 -52t-16 -55t-22.5 -51t-25.5 -41q-12 -12 -26.5 -24.5t-31.5 -22.5t-35 -15.5t-37 -3.5
q-51 5 -83 25.5t-50.5 47.5t-26 57.5t-9.5 54.5z" />
    <glyph glyph-name="four" unicode="4" horiz-adv-x="521" 
d="M393 323q12 2 25 3t16 -3v-46q-1 -7 -14 -5t-25 2q-14 0 -27 1t-17 -9q-2 -6 -3.5 -24.5t-3 -44t-2 -55t-1 -55.5t-0.5 -46.5v-27.5q0 -6 -2.5 -7.5t-8.5 -3.5h1l-40 -2q0 36 3 74.5t5 74.5t2 66.5t-6 51.5h-24h-43t-53.5 0.5t-55 0t-47 -1t-29.5 -1.5q40 80 77 155.5
t66 137.5t48.5 106t25.5 62q1 4 4.5 12.5t8 17t9 14.5t8.5 6l54 -2l8 -216q0 -15 0.5 -28t0.5 -23v-37v-57v-56v-33q18 -2 25 -2t15 1zM305 485q0 24 1 55t1 62t-1.5 58.5t-6.5 45.5q-12 -28 -29 -67.5t-34.5 -82.5l-35 -86t-30.5 -77t-21 -55.5t-7 -22.5h28q29 0 60 0.5
t65 3.5q3 11 4.5 29t3 40t2 47t0.5 50z" />
    <glyph glyph-name="five" unicode="5" horiz-adv-x="469" 
d="M377 750q2 -20 -10 -21.5t-31 -1.5h-28.5t-29.5 1q-17 1 -33.5 1h-32.5h-19.5t-19.5 -2q-24 -3 -27 -14t0 -25q2 -5 3 -9t1 -5l5 -42l7 -53q5 0 15.5 -0.5t15.5 -0.5q31 -1 58 -3.5t51.5 -13t46 -31.5t40.5 -59q12 -23 16.5 -50.5t6.5 -56.5q0 -4 0.5 -7.5t0.5 -7.5
q1 -11 1.5 -23t0.5 -26q0 -45 -6.5 -97.5t-24 -97.5t-48 -75t-79.5 -30q-42 0 -72.5 10.5t-52.5 31t-37 49t-25 64.5q0 4 -3 10q-2 5 -3 6t0 5q0 4 14 7.5t32 5.5t35 2t23 -2q-1 -11 -0.5 -20.5t1.5 -20.5q2 -37 22 -58t57 -15h-1q35 3 53.5 24.5t26.5 51t9 61.5t1 55v12
q0 21 -3 47.5t-9.5 53.5t-17 51.5t-25.5 41.5q-22 23 -51.5 33t-59.5 10q-31 0 -62 -11q-11 -4 -11 -6q-2 7 -3.5 32t-3.5 57.5t-4 67.5t-3 61q0 8 -0.5 12.5t-0.5 9.5v7q-1 16 2.5 26.5t17.5 10.5q10 -1 33.5 -1h53t62 0.5t60 0.5t46 0.5t20.5 0.5q-1 -2 -2 -9.5t1 -24.5z
M378 784v1h1q0 -1 1 -1h-2z" />
    <glyph glyph-name="six" unicode="6" horiz-adv-x="466" 
d="M369 445q15 -35 22.5 -74t7.5 -79q0 -41 -8 -82.5t-24 -79.5t-38.5 -70.5t-50.5 -55.5q-8 -6 -24 -10t-36 -4q-22 0 -45 6t-42 22l1 -1q-29 26 -43.5 56t-19.5 67q-7 53 -12.5 127.5t-5.5 154.5q0 43 2.5 85.5t8.5 81.5t16 73t25 60q17 27 43.5 40.5t57.5 13.5
q15 0 37 -5h-1q34 -9 68 -30t49 -53q7 -14 10 -31t5 -33q0 -5 2 -7q-5 -1 -21 -2.5t-32 -1.5h-16t-8 -2q1 32 -14 58.5t-48 37.5q-22 7 -38.5 -2.5t-28 -29.5t-18.5 -47t-11.5 -54t-5.5 -50.5t-1 -37.5q23 19 47 34t50 15q24 0 49 -7q12 -4 25.5 -13t26.5 -20.5t23.5 -24.5
t15.5 -25zM238 71q24 8 41 31t27.5 53t15.5 64t5 64q0 36 -8 65h1q-14 54 -38 77.5t-50 23.5q-21 0 -40.5 -14.5t-34.5 -39.5t-24 -57.5t-7 -69.5v-28q0 -29 1.5 -63.5t12 -62.5t33.5 -42t65 -1z" />
    <glyph glyph-name="seven" unicode="7" horiz-adv-x="513" 
d="M421 781q2 -6 -5 -11.5t-13 -10.5l-115 -130q-7 -10 -13.5 -21t-11.5 -23q-28 -59 -40.5 -119t-21.5 -122q0 -3 -1 -6.5t-1 -6.5q-6 -45 -10.5 -86.5t-6 -81t0 -77.5t7.5 -77q-3 0 -13 -2q-5 -1 -12 -2t-16 -6q-3 -2 -9.5 -1.5t-14.5 1.5q-3 3 -4.5 9t-0.5 11q-1 49 1 99
t5 96t7 84t8 62q8 43 13.5 70.5t9.5 45t7 28.5t6 20l14 42q11 25 20 40q23 44 57.5 86t66.5 70q-94 0 -153.5 -0.5t-91.5 1.5h-12h-24t-20 2q-1 0 -1.5 3.5t-1.5 7.5v-1q0 1 -0.5 2t-0.5 2q0 9 -2 15l-2 15q21 1 54 2.5t70 2t75 0.5t69.5 0.5t52.5 0t25 -0.5h15h14.5t9.5 -2
q1 -1 2 -5t2 -9l7 -18z" />
    <glyph glyph-name="eight" unicode="8" horiz-adv-x="508" 
d="M365 493q27 -14 44 -34t27.5 -44t14.5 -51.5t4 -55.5q0 -29 -4 -66.5t-13.5 -74.5t-24.5 -70.5t-37 -55.5q-13 -13 -31.5 -27t-36.5 -14q-30 0 -55.5 -2t-48 1t-42 13.5t-36.5 34.5q-37 38 -49.5 86.5t-12.5 99.5q0 29 5 57t12 56h-1q6 25 11.5 47.5t14.5 43t23.5 38
t38.5 31.5q-27 21 -45 51.5t-18 65.5q0 32 9 61t26.5 51t43.5 35t61 13q24 0 54 -6.5t51 -17.5q11 -6 21.5 -19t19 -29t13.5 -32t5 -28q0 -15 -5 -36.5t-13.5 -44t-20 -41.5t-24.5 -28zM160 646q0 -19 8.5 -37.5t22 -33.5t31.5 -24t37 -9q20 0 36 9.5t27 25t16.5 34
t5.5 36.5q0 37 -23 64.5t-62 27.5q-18 0 -36 -7t-32 -19.5t-22.5 -29.5t-8.5 -37zM392 276q0 13 -2.5 33.5t-7 41.5t-11.5 40t-15 30v-1q-17 21 -41.5 34t-51.5 13q-46 0 -73.5 -27t-41.5 -66.5t-18.5 -84t-4.5 -78.5q0 -29 5.5 -57.5t19 -51t36.5 -36.5t58 -14
q52 0 79.5 22t41 55.5t18 73t9.5 73.5z" />
    <glyph glyph-name="nine" unicode="9" horiz-adv-x="456" 
d="M87 378q-10 25 -13 49t-5 50q-2 23 -3.5 47t-1.5 47q0 31 2.5 61.5t10.5 56.5q4 18 14.5 35.5t25 31.5t32 24.5t36.5 13.5q33 9 62 9q26 0 51 -9.5t45 -28.5q15 -19 26 -51.5t18 -74t10.5 -90t3.5 -98.5q0 -48 -2.5 -96t-6.5 -92t-9 -82t-10 -66q-5 -26 -18.5 -47.5
t-33 -37t-43.5 -24t-50 -8.5q-34 0 -65 16q-16 10 -31.5 23.5t-23.5 30.5q-14 21 -24.5 41t-11.5 43q8 2 23.5 5t28.5 5l11 2q2 -4 4.5 -11t4.5 -14q5 -13 10 -27t12 -24q13 -14 30 -23t34 -9q23 0 43 14q13 9 23.5 30.5t17.5 48.5t10.5 55.5t3.5 51.5q0 28 -10 58
q-18 -3 -29.5 -6.5t-19.5 -7.5h1q-15 -5 -30.5 -9t-32.5 1q-45 11 -75.5 33t-44.5 53zM169 391q18 -20 45 -27t52 1q11 5 21.5 12.5t18.5 19.5v-1q9 12 14.5 37.5t8 53t3 52.5t0.5 37q0 26 -2.5 55t-11.5 54t-28 42t-52 20q-31 0 -53 -16t-36 -42.5t-20.5 -60t-6.5 -69.5
q0 -50 12 -96t35 -72z" />
    <glyph glyph-name="colon" unicode=":" horiz-adv-x="190" 
d="M139 24q0 -2 -1.5 -6.5t-2.5 -5.5q-7 -14 -25 -18t-31 3q-14 8 -18.5 28t4.5 34q8 14 25 18t29 -8q7 -7 13 -20t5 -26l2 2v-1zM92 391q10 2 19.5 -5t13.5 -15q5 -11 2.5 -24.5t-11.5 -21.5q-3 -4 -10 -8.5t-12 -5.5q-19 -1 -33 13.5t-9 34.5q5 13 15 21t23 11q1 0 1 -0.5
t1 -0.5q-1 0 -1 1h1zM92 391h-3h3z" />
    <glyph glyph-name="semicolon" unicode=";" horiz-adv-x="186" 
d="M92 -40q-1 9 3 15.5t9 12.5t9 12.5t2 17.5q-7 -5 -15 -11t-22 -4q-10 2 -16.5 9t-9 16t-1 18.5t6.5 17.5q8 13 20 15.5t23.5 -2t20.5 -14.5t12 -23q2 -11 0.5 -24.5t-5.5 -23.5q-4 -11 -11 -20q-5 -7 -11.5 -12.5t-14.5 0.5zM74 310q-7 2 -13 10.5t-6 10.5l-3 10
q-2 8 2 21t11 19q8 5 20 6t20 -1q15 -5 21 -19.5t1 -28.5q-5 -16 -20 -24q-6 -3 -16 -5t-17 1z" />
    <glyph glyph-name="less" unicode="&#x3c;" horiz-adv-x="375" 
d="M315 695q-5 -11 -26.5 -42t-47.5 -69q-18 -26 -35.5 -51.5t-31.5 -47.5t-22 -38.5t-8 -23.5q0 -6 9.5 -25.5t24.5 -46t33 -56.5t35.5 -57.5t32.5 -50t23 -32.5q-4 -8 -13.5 -20.5t-14.5 -19.5q-6 -4 -14 0t-14 12q-15 17 -38 52t-46.5 73t-42.5 70.5t-26 44.5l-7 11h1
q-5 7 -10 16t-8 17.5t-4 16t3 13.5q36 50 71.5 101t69.5 104l-1 -1l4 6q2 2 3 4.5t3 4.5q9 16 19.5 31t21.5 25z" />
    <glyph glyph-name="equal" unicode="=" horiz-adv-x="663" 
d="M599 229v-14.5t1 -8.5h-77t-93.5 0.5t-102 1.5t-102 2.5t-93.5 4t-77 5.5h1q-1 0 -1 10v24v14.5t2 11.5q8 2 32.5 3t57.5 1t70 -0.5t71 -0.5h59.5t35.5 1q41 0 79 0.5t67.5 1.5t47 2.5t17.5 4.5q4 -15 4.5 -29.5t0.5 -25.5v-9zM595 489q7 -2 10 -9.5t3 -16.5t-1 -17.5
t-2 -12.5q-35 0 -75.5 0.5t-84.5 1.5q-75 1 -171.5 2.5t-225.5 1.5q-5 0 -5.5 10t1.5 22.5t6 23t10 11.5q17 1 31.5 1h29.5q31 0 64.5 -1t62.5 -2q63 -3 134 -3q9 0 29 1t48 1t62.5 -3t73.5 -11z" />
    <glyph glyph-name="greater" unicode="&#x3e;" horiz-adv-x="364" 
d="M65 697q5 5 20.5 11t25.5 7q2 1 18 -21t39 -56.5t49 -75.5t47 -76.5t33 -60t8 -25.5q-14 -21 -36.5 -57.5t-45.5 -74.5t-42.5 -70t-26.5 -44q-2 -2 -4.5 -9t-4.5 -10q-2 -4 -3.5 -8t-3.5 -5q-10 -5 -23.5 2t-25.5 15h1q-2 2 -8 4q1 4 12.5 25t28.5 49.5t36 59.5t35 57
q14 22 23 37.5t10 19.5l-1 -1q4 10 -10 43t-35.5 72t-45.5 76t-42 56l-12 22q-5 9 -9.5 18t-6.5 20z" />
    <glyph glyph-name="question" unicode="?" 
d="M348 743q25 -23 41 -56t18 -68q1 -57 -10.5 -102t-29.5 -80.5t-39.5 -62t-40.5 -45.5q-17 -17 -33 -34t-24 -34l1 1q-4 -7 -5 -17t-1 -21q0 -15 1.5 -32.5t2.5 -28.5q0 -2 0.5 -3.5t0.5 -2.5q2 -13 -11 -14.5t-28 -1.5h-13q-15 0 -21 14.5t-6 32.5q0 17 3 33t6 26
q14 48 48 92t70 78q23 22 41 44.5t26 52.5q2 9 3 19.5t1 21.5q0 21 -4.5 43.5t-12.5 42.5q-5 13 -10.5 26.5t-14 25.5t-19.5 20.5t-26 12.5v-1q-27 7 -55 0.5t-46 -29.5v1q-17 -21 -19.5 -45t-0.5 -47q0 -3 0.5 -6.5t0.5 -6.5q1 -6 -8 -9.5t-21 -4.5t-23.5 -0.5t-16.5 2.5
t-7 9.5t-2 16.5q0 14 3.5 30t8 30.5t9.5 26t8 17.5q23 42 58.5 63t76.5 21q30 0 60.5 -12.5t59.5 -38.5zM190 86q24 3 35 -12.5t10.5 -34.5t-13.5 -33t-37 -6q-16 5 -23.5 17.5t-7.5 26.5t8.5 26t23.5 16h1h-1q1 0 2 0.5t3 0.5q-1 -1 -4 -1h3z" />
    <glyph glyph-name="at" unicode="@" horiz-adv-x="708" 
d="M259 445q7 16 18.5 31t26 26.5t30.5 18t33 5.5q21 -4 39 -7t31 -20l2 10q1 4 1.5 8t2.5 6q6 6 15.5 7t18.5 -0.5t16 -3.5t7 -3l-2 -86q-1 -23 -1 -50v-55q0 -41 -1.5 -73.5t-2 -61.5t0.5 -55.5t7 -54.5q10 -17 22 -20.5t24.5 1t23 15t17.5 21.5q9 15 15 49t9 71.5
t3.5 70.5t-0.5 48q-4 35 -12.5 72.5t-23.5 71t-38.5 61.5t-57.5 45q-23 10 -50 16t-55 6q-44 0 -84.5 -14.5t-69.5 -46.5q-26 -28 -39.5 -57t-20 -60.5t-8.5 -65.5t-5 -71q-1 -9 -1.5 -22t-1 -26.5t-0.5 -27.5v-24q0 -54 15 -105.5t52 -88.5q25 -25 59.5 -43.5t71.5 -21.5
q15 -1 26.5 -2.5t19.5 -6t12.5 -13t5.5 -23.5q1 -8 -2.5 -9.5t-11.5 -1.5h-15q-13 -1 -28.5 2.5t-32 9t-33 12.5t-30.5 13l-16 6h1q-40 18 -67 45.5t-43.5 62t-23.5 74.5t-7 82q0 64 1 128t14 122.5t44.5 108t91.5 83.5q28 14 62 21.5t68 7.5q29 0 58 -6t55 -18l-1 2
q28 -14 53 -36.5t44.5 -49.5t33.5 -57.5t21 -61.5q8 -33 12 -68.5t4 -70.5q0 -38 -4 -75t-10 -72q-3 -21 -12 -45.5t-23 -46t-33 -37t-42 -16.5q-32 -2 -47.5 0t-23 8.5t-11.5 18t-14 28.5q-17 -11 -35.5 -19.5t-31.5 -8.5q-16 0 -31 6t-29 15q-22 15 -37.5 40t-25.5 55.5
t-14.5 65.5t-4.5 71q0 46 7.5 88.5t18.5 71.5zM430 416q-10 14 -24 23.5t-39 5.5q-17 -3 -29.5 -19t-20.5 -40.5t-12.5 -56t-4.5 -65.5q0 -27 9 -64t25.5 -62.5t40.5 -27t53 42.5z" />
    <glyph glyph-name="A" unicode="A" horiz-adv-x="476" 
d="M338 435q4 -21 12 -59t17.5 -83.5t19.5 -93.5t17.5 -88.5t12.5 -68t5 -32.5q0 -4 -4 -9q-5 1 -6.5 0.5t-8.5 -0.5h-20.5t-16.5 2q-3 15 -10 48.5t-14.5 68.5t-13 63.5t-6.5 34.5q-40 3 -78 5.5t-75 -5.5q-13 -41 -22 -79t-15.5 -67.5t-10 -48.5t-6.5 -23
q-12 -2 -26.5 -1.5t-25.5 2.5q-2 32 6.5 65t19.5 65q5 18 10.5 37t10.5 36q28 145 54.5 293t68.5 291q3 8 13 7.5t22 -2.5q5 -1 9 -2t9 -1zM177 274q39 -2 71 0.5t63 0.5q-1 6 -4 34.5t-8.5 67t-12.5 82.5t-13.5 80.5t-13.5 60t-12 22.5q-1 -2 -3.5 -15.5t-6.5 -29.5
q-4 -18 -9 -42q-1 -5 -7 -34.5t-14 -70t-16.5 -83.5t-13.5 -73z" />
    <glyph glyph-name="B" unicode="B" horiz-adv-x="417" 
d="M288 502q28 -29 44 -52.5t24 -47.5t10 -51t2 -64q0 -42 -4 -78t-10 -72q-8 -38 -28.5 -68t-59.5 -42v1q-15 -11 -39.5 -17t-48 -9t-39.5 -3.5t-13 1.5h-56q-3 8 -3.5 21t-0.5 26v17q-2 14 -2 27v26q0 14 -0.5 27t-0.5 27v105.5t1 106.5v194q0 52 0.5 102.5t4.5 102.5
q9 2 14.5 3t14.5 3l30 6q12 2 23.5 3t21.5 1h16t17 -2q38 -3 76 -14q12 -5 24.5 -18t21.5 -26q10 -18 16 -40.5t6 -43.5q0 -43 -16.5 -84.5t-45.5 -67.5zM236 535q30 14 41 44t9 62t-14.5 59.5t-29.5 36.5q-11 7 -23 9.5t-23 2.5q-20 0 -36 -3l-32 -3l2 -78q1 -32 2 -67
t3 -58q10 -5 23.5 -8.5t27.5 -4t27 1t23 6.5zM309 290q0 17 -0.5 38t-4.5 42t-12 39.5t-24 29.5q-37 13 -71 13q-31 0 -68 -9v-49.5t-1 -46.5q-1 -22 -1 -43v-41q0 -41 2 -84t10 -98l41 2q28 2 52 7t40 24v-1q3 3 10 13.5t13.5 31.5t11 53.5t2.5 78.5z" />
    <glyph glyph-name="C" unicode="C" horiz-adv-x="457" 
d="M377 131q6 -1 13 -2t9 -3q1 -1 -3.5 -8t-9.5 -12q-11 -18 -24 -35.5t-28 -32t-32.5 -24.5t-38.5 -13q-38 -5 -75.5 9.5t-65.5 40.5q-38 36 -48.5 83t-10.5 98v28.5t1 28.5q0 4 0.5 10.5t0.5 11.5q1 22 1 44v44q0 60 3 122.5t17 122.5q7 27 20 54.5t31.5 50t42.5 37.5
t54 19q25 0 53 -10t53 -26.5t42 -39t19 -48.5l-17 -7l1 1q-13 -6 -25 -11.5t-25 -4.5l-6 16q-5 16 -12 29.5t-22 23.5q-12 7 -23.5 11t-25.5 4q-12 0 -24.5 -4.5t-23.5 -12.5q-21 -18 -34 -41t-20 -48t-9.5 -50.5t-3.5 -49.5q-2 -51 -3.5 -100.5t-1.5 -99.5v-67v-47t4 -48
t12.5 -45.5t25.5 -37.5q17 -17 41 -26.5t47 -2.5q23 9 38 28t24 37q4 8 14.5 8t21.5 -2l17 -3h6z" />
    <glyph glyph-name="D" unicode="D" horiz-adv-x="443" 
d="M75 809q16 5 33 6t34 0q23 -1 47 -2t47 -4q15 -2 32.5 -5.5t34 -9t30.5 -14.5t22 -21q19 -28 24 -65t7 -72q0 -4 0.5 -9t0.5 -8q2 -69 1.5 -134.5t-2 -121t-3.5 -98t-2 -66.5q0 -16 -1 -32t-5 -29v1q-6 -18 -17.5 -35.5t-23.5 -33.5q-23 -29 -56.5 -37.5t-68.5 -12.5
q-9 -1 -28 -2t-40 -2t-41 -1.5t-33 -0.5zM127 272q1 -37 -2.5 -74.5t-3.5 -75.5q0 -13 1 -31.5t3 -31.5q37 -5 67 -0.5t56 11.5h-1q2 0 3 0.5t3 0.5q35 8 48 31t19 55q5 25 6 52t2 55q0 36 1 80t2 86t2.5 76.5t2.5 52.5q1 29 -2 59.5t-11 59.5q-13 42 -47.5 56.5t-71.5 14.5
q-32 0 -69 -8z" />
    <glyph glyph-name="E" unicode="E" horiz-adv-x="419" 
d="M140 65q30 -6 61 -2.5t57 2.5q14 -1 29.5 -1h31.5h14q7 1 14.5 1.5t14.5 -0.5q4 -11 2.5 -20t-1.5 -25v-18q-14 -2 -38 -2h-63h-61.5h-58.5h-46.5h-24.5q-2 18 -3.5 60t-2.5 98t-1.5 122t-0.5 133v130t1 114t2 84.5t2 40.5l-1 11q88 5 140 7.5t80 3.5t39.5 0t18.5 -4
q2 -13 3.5 -23.5t4.5 -22.5h-1q2 -5 -5.5 -6t-22.5 -1q-45 -1 -97 -3.5t-97 -5.5q-1 -61 -4 -148t-1 -179q29 0 47 1.5t33.5 3.5t31.5 3.5t40 1.5h10.5t10.5 -1q8 -38 10.5 -50.5t3.5 -13.5q-37 -3 -60 -4.5t-41.5 -2t-37.5 -1t-47 -2.5z" />
    <glyph glyph-name="F" unicode="F" horiz-adv-x="367" 
d="M279 385v-12t1 -11q2 -15 0 -29q-18 -2 -30.5 -1t-25 1.5t-27.5 -1t-37 -6.5v-131t-0.5 -83.5t-1 -51t-0.5 -33.5q0 -11 1 -16v2q1 -3 1 -10q-9 -1 -27.5 -1.5t-29.5 -0.5q-2 69 -3 118t-1.5 85t-1 63.5t-0.5 52.5q0 62 0.5 124t1.5 124v145v41t4 41q4 1 20.5 2t39 2
t48.5 1.5t48 1.5t38 2t19 2h-1q14 1 19.5 0.5t6.5 -4.5t0 -12t1 -21v-10q1 -3 1 -10v-10q-65 1 -114 1t-72 -6v-205q0 -30 1 -69t3 -76q13 -5 30 -4t34 3.5t31.5 4t22.5 -2.5z" />
    <glyph glyph-name="G" unicode="G" horiz-adv-x="467" 
d="M348 300q-18 0 -32 -1t-26.5 -1.5t-25 0.5t-28.5 5q-6 1 -7 11.5t-1 21.5v10.5t-1 10.5q43 0 72 1t48.5 2.5t32.5 2t25 -2.5q4 -17 5 -34.5t1 -35.5v-33q0 -11 0.5 -20.5t0.5 -20.5q0 -13 -1 -27.5t-3 -29.5q-3 -21 -8.5 -42.5t-15 -41t-23.5 -35.5t-33 -25l1 1
q-33 -16 -75 -16q-23 0 -44.5 4.5t-40.5 13.5t-33.5 26t-25.5 38t-18.5 44t-11.5 43q-7 32 -9 64.5t-2 63.5v97l-3 60q-3 40 -3 79q0 19 1 38.5t5 39.5q0 2 0.5 6.5t0.5 6.5q2 15 6.5 32t12.5 28q24 38 65 57q23 11 44.5 17t43.5 6t45.5 -6.5t44.5 -17.5q14 -8 30 -20
t27 -24l-1 1q5 -5 8.5 -12t5.5 -13q-18 -17 -26 -23.5t-16 -10.5q2 2 -1 3t-5 3l3 -1l-5 3q-9 5 -18 11t-15 11q-13 9 -28 18.5t-32 14.5q-23 5 -48.5 -1t-44.5 -21q-23 -19 -30.5 -47t-6.5 -53q2 -27 0.5 -54.5t-2.5 -53.5t-1.5 -53t-0.5 -53q0 -29 2 -58.5t5 -57.5l2 -47
q1 -15 1.5 -30.5t2.5 -29.5q2 -22 10.5 -43t31.5 -33h-1q26 -16 56 -16q4 0 12 0.5t16.5 1.5t16.5 2.5t12 3.5q18 9 28 23t16 31t9 35t5 35q1 5 2 13.5t1 6.5q6 23 1.5 46t-6.5 52z" />
    <glyph glyph-name="H" unicode="H" horiz-adv-x="465" 
d="M337 373l17 355v16q-1 8 -1 22.5v21.5q20 2 37.5 2t18.5 -3q3 -25 2 -55t-2 -49l-31 -679q-13 -2 -24.5 -3.5t-22.5 -0.5q-5 36 -5.5 79.5t1 87t3 84t1.5 70.5q-22 -1 -40.5 0t-36 2.5l-35 3t-37.5 1.5q-12 0 -25.5 -1.5t-25.5 -2.5q-5 -155 -8 -237.5t-4 -86.5
q-6 0 -15.5 -0.5t-18.5 -0.5t-16 0.5t-8 0.5q15 351 18 541t3 202q-2 14 -1.5 29t6.5 18q9 2 20 2.5t21 0.5q11 -2 12 -7q0 -15 -0.5 -41t-1.5 -57t-1.5 -64.5t-1 -62.5t-1 -51.5t-0.5 -31.5q0 -21 0.5 -49.5t1.5 -50.5q16 0 43 -1.5t55 -2.5t51.5 -1.5t33.5 1.5z" />
    <glyph glyph-name="I" unicode="I" horiz-adv-x="208" 
d="M135 9q-11 -5 -28.5 -6.5t-33.5 -2.5q-5 5 -6 14t-1 19q0 8 0.5 15.5t1.5 14.5q0 4 0.5 7t0.5 5v264.5v180.5v113.5v63t0.5 29t0.5 12.5q0 2 -0.5 7t-0.5 9q-1 10 -2 21t0 12q10 4 23.5 4.5t24.5 0.5h8q7 0 14.5 -0.5t9.5 -2.5l-3 -48q-2 -11 -3 -23.5t-1 -23.5
q0 -50 -0.5 -82.5t-1 -54t-1 -34.5t-1.5 -25q-1 -7 -1.5 -38.5t-0.5 -75.5v-94t0.5 -92.5t0.5 -72v-31.5q0 -5 0.5 -9.5t0.5 -9.5q0 -9 0.5 -18t0.5 -17v-15.5t-2 -15.5z" />
    <glyph glyph-name="J" unicode="J" horiz-adv-x="473" 
d="M381 806h21t17 -10q6 -13 6 -28t-2 -30.5t-5.5 -31.5t-4.5 -31q-3 -36 -2.5 -86.5t1.5 -107t1 -116t-4 -113t-13.5 -98.5t-27.5 -73q-8 -14 -22 -28.5t-31 -26t-35 -19t-35 -7.5q-18 0 -37.5 4.5t-37.5 13t-33.5 21t-24.5 28.5q-19 32 -29 64t-15 69v-2l-1 8v7
q0 3 -0.5 6.5t-0.5 7.5q-1 16 -1.5 39t-1 45t-1.5 38.5t-4 19.5q2 0 9.5 0.5t17 0.5h19h16.5q2 -20 2.5 -40t0.5 -39q0 -26 0.5 -52t5 -51.5t13.5 -49.5t26 -46q11 -13 24 -19.5t30 -6.5q20 0 39.5 9.5t35.5 26.5q14 15 20.5 32.5t10.5 33.5l-2 -4l5 16h-1q7 13 10.5 48
t4 83t-0.5 104.5t-3 113.5t-3.5 109t-2.5 92q0 14 1 28t4 28q1 7 2.5 10.5t7.5 5.5q5 2 11.5 3t13.5 1h6zM58 369q-1 1 -2 0h2z" />
    <glyph glyph-name="K" unicode="K" horiz-adv-x="439" 
d="M100 489q6 4 23.5 25t41 50t49 62t48 61.5t37.5 48t17 22.5l9 15v-1q4 6 7.5 10.5t8.5 4.5q4 0 11 1t14 1.5t12.5 0t5.5 -2.5q1 -7 -3.5 -15t-9.5 -15q-11 -16 -27.5 -38l-34.5 -46t-37 -48.5t-35 -45.5q-20 -26 -34.5 -44.5t-21.5 -29.5q12 -19 22 -47l8 -17l35 -85
q11 -27 24 -58t25 -59.5t21.5 -53t15.5 -39.5q8 -20 15 -38t14 -38l8 -16l-1 1q5 -13 10 -26.5t6 -24.5h-37q-12 0 -20.5 0.5t-9.5 1.5v-1q-4 5 -16 33.5t-28 71t-34 93t-34.5 98.5t-30 88t-20.5 62q-20 -14 -24 -19.5t-8 -10.5q-3 -4 -7 -8.5t-12 -9.5q-1 -38 -3 -94.5
t-4 -115t-3 -111t0 -80.5q-11 0 -20 -2t-16 -1t-10.5 6.5t-3.5 19.5v16q-1 166 -1 298.5t0.5 227.5t2 151t3.5 70h10.5t9.5 1q8 1 17.5 2t16.5 0q1 -14 1 -25.5v-29.5q0 -31 -1 -64.5t-2 -62.5q-1 -32 -1.5 -55t0.5 -27z" />
    <glyph glyph-name="L" unicode="L" horiz-adv-x="380" 
d="M317 55q2 -9 3.5 -25.5t0.5 -24.5q0 -1 -5.5 -1h-10.5h-6q-10 0 -18 -0.5t-16 -1.5q-9 -1 -16.5 -1h-15.5h-25q-12 0 -25.5 0.5t-26.5 -0.5q-7 -1 -12.5 -1h-10.5h-26q-12 -1 -19 1t-10 11q-3 11 -4 22t-1 22v15q-1 3 -1 9.5v28v63.5v116.5t0.5 187t0.5 275.5
q-1 11 -0.5 26t5.5 24l49 2v-19v-27.5v-27.5v-19q-1 -10 -1 -69t0.5 -149t3 -201t7.5 -225q13 -5 25.5 -6.5t25.5 -0.5l26 2t26 1q21 -1 40.5 -2t36.5 -5z" />
    <glyph glyph-name="M" unicode="M" horiz-adv-x="517" 
d="M398 794q16 2 25.5 3t15 2t8 1h4.5q0 -31 1.5 -88t3.5 -129q1 -53 2.5 -112.5t2.5 -118.5t2 -114.5t1 -100.5q0 -48 -0.5 -83t-2.5 -52q-7 -2 -14.5 -2h-19.5q-11 0 -21 1.5t-10 5.5q0 17 0.5 35t0.5 35q0 22 -0.5 48.5t-1.5 48.5q0 31 -0.5 83t-1.5 108t-1.5 106
t-0.5 76q-11 -41 -24 -86t-26 -86t-26 -73.5t-25 -47.5q-7 -9 -15 -9.5t-16 1.5q-5 1 -8 1h-10q-9 20 -22 58t-28 79.5t-31.5 78t-32.5 54.5q2 -102 4 -186q1 -36 1.5 -71t0.5 -65v-51.5t-1 -28.5q-2 -12 -2 -25v-27q0 -16 -0.5 -31.5t-3.5 -29.5q-5 -1 -9 -1h-9
q-11 0 -23 1.5t-22 5.5q-1 20 -0.5 36t0.5 36q0 28 -1 64t1 64v194v69.5t0.5 81.5l1 84t1.5 76.5t2 58t3 30.5q3 0 13 4q7 2 14 3.5t12 0.5q2 -2 5.5 -8.5t5.5 -12.5l-1 6l2 -9q4 -10 14.5 -41t22.5 -70q13 -38 27 -80.5t27.5 -80t25.5 -66t20 -39.5q2 3 6.5 12.5t10 20.5
t9.5 20t4 11l-1 -2z" />
    <glyph glyph-name="N" unicode="N" horiz-adv-x="489" 
d="M370 -1q-9 0 -15.5 -1t-11 -1t-7.5 3t-6 11q-17 71 -32 121t-28.5 89.5t-27 74.5t-27 75t-28 91t-30.5 124l-22 -449q0 -7 -0.5 -15t-1.5 -16q-1 -15 -1.5 -30t-0.5 -29v-23t2 -22q-5 -1 -12.5 -1h-14.5h-10q-9 -1 -18 -1.5t-13 3.5q3 10 3 16.5v14.5v6q0 10 0.5 19.5
t1.5 19.5q0 4 0.5 10t0.5 10q2 29 3 60.5t0 59.5q-1 36 0 71.5t3 71.5l2 52t1 52t1 52t3 53q2 35 3.5 70.5t0.5 70.5v22t1 23v9q0 13 3 21q7 6 22 7t29 1h8l7 -23v1l7 -22v1q21 -79 44 -156t46.5 -145.5t47 -125t44.5 -94.5q7 72 13 137.5t10.5 129.5t7 128t2.5 133
q0 6 -0.5 12t-1.5 12q-1 7 -1.5 14t-0.5 13q7 -2 8 -1t8 1q11 0 20.5 -1t19.5 -4q5 -1 3 -14v2q-2 -12 -2.5 -26.5t-0.5 -28.5q0 -4 -0.5 -9.5t-0.5 -10.5q-1 -16 -2.5 -50t-4 -77t-4.5 -90t-3.5 -87.5t-3 -69.5t-1.5 -37q0 -10 -1 -33.5t-2.5 -53.5t-3 -63t-3 -62.5t-2 -53
t-0.5 -33.5q-2 -7 -11.5 -8t-18.5 -1z" />
    <glyph glyph-name="O" unicode="O" 
d="M388 640q2 -20 3 -37.5t1 -35.5q0 -13 -0.5 -33t-0.5 -34q-1 -20 -1 -39v-39v-58v-71.5t-1 -70.5v-36v-37t-2.5 -37t-8.5 -33.5t-17 -25.5l-4 -3h1q-16 -14 -32.5 -27t-35.5 -18h1q-14 -3 -27.5 -5t-27.5 -2q-11 0 -22 1t-25 5q-7 1 -15 3.5t-16 9.5l-17 10q-8 3 -12 7
q-17 13 -25.5 28.5t-15.5 32.5l-4 9l1 -1q-16 41 -21 82t-8 84q-2 28 -3 55l-2 54q0 6 -0.5 11.5t-0.5 11.5q-1 18 -1.5 36t0.5 35v51q0 39 2.5 78.5t16.5 74.5q10 24 26 45.5t35 37.5q22 19 51.5 26t58.5 8t52.5 -12t42.5 -33q3 -3 6 -7q5 -7 9 -9q12 -11 19 -24
q5 -10 9 -24t7 -26q1 -5 1.5 -8.5t2.5 -8.5v1l1 -2h-1zM339 275q2 23 3.5 46t1.5 48q0 22 -1 45l-2 46q0 4 -0.5 7.5t-0.5 7.5q-1 11 -0.5 25.5t1.5 25.5q1 9 1 20v20q0 26 -3 50.5t-14 49.5q-9 21 -28 34.5t-39 17.5q-36 7 -60 0t-38.5 -23.5t-21.5 -40t-10 -48.5
t-3.5 -49.5t-0.5 -43.5q0 -6 -0.5 -13.5t-0.5 -12.5q-3 -41 -3 -80q0 -52 3 -101q1 -9 1.5 -17t0.5 -16v-12q1 -22 2.5 -46.5t6.5 -48.5t15.5 -46t28.5 -38q11 -9 30.5 -15t39.5 -6q22 0 39.5 8.5t25.5 26.5q6 14 8 30l4 32q0 5 1 10t1 10q2 13 4 27t2 29q0 12 3 26z" />
    <glyph glyph-name="P" unicode="P" horiz-adv-x="442" 
d="M125 301q-5 -25 -4.5 -42.5t0.5 -33.5v-28q2 -17 2 -34.5t-1 -34.5q0 -9 -0.5 -17.5t-0.5 -16.5q0 -21 -0.5 -42.5t-2.5 -43.5q0 -5 -1 -6q-11 1 -23.5 1.5t-24.5 0.5q-5 0 -5 8.5t2 16.5v-1q1 5 1 17v28t1 29q0 11 0.5 29.5t0.5 29.5q1 20 1 41.5v41.5l5 137q6 96 6 191
v38v27.5t-1 26.5q0 13 -0.5 25.5t-0.5 24.5v18v26.5t2 26.5q2 2 11 3t17 3q2 0 3 0.5t3 0.5q21 2 41.5 4.5t40.5 2.5q42 1 83.5 -10t66.5 -46q20 -28 27 -64.5t10 -71.5q2 -16 2.5 -30.5t0.5 -29.5q0 -42 -3 -84q0 -8 -0.5 -16.5t-0.5 -16.5q0 -18 -3.5 -35.5t-11 -33
t-19 -27.5t-29.5 -18q-20 -6 -41 -11t-41 -3q-29 2 -56.5 1.5t-56.5 -2.5zM315 362q9 17 13.5 38t6.5 43.5t2 45.5v44v18t-1 17l-4 23l-4 22t-1 22v8q0 20 -3 36.5t-22 32.5t-47.5 23t-57.5 7q-14 0 -33.5 -3.5t-40.5 -9.5q2 -32 2 -68v-67v-231q16 -7 39 -9.5t49 -2
t52.5 3.5t49.5 7z" />
    <glyph glyph-name="Q" unicode="Q" horiz-adv-x="490" 
d="M376 80q17 -18 28 -29t17.5 -17t9.5 -9t4 -5q-13 -8 -22.5 -22t-21.5 -20q-2 -1 -10.5 8.5t-18.5 20.5t-18.5 20t-11.5 6l-24 -21q-17 -6 -35 -8.5t-35 -2.5q-31 0 -63 13q-35 17 -62 52.5t-35 73.5q-2 12 -3 23.5t-3 23.5l-6 49q-3 21 -3 37q0 11 0.5 20t1.5 20
q1 8 1 15.5v15.5q2 57 4.5 113.5t9.5 113.5q3 21 4 28.5t1.5 14t2 18t6.5 41.5q4 21 17 41.5t27 35.5q29 31 73.5 46.5t86.5 9.5q33 -8 56 -32.5t38 -53.5q6 -13 9 -29t5 -32q0 -3 0.5 -6.5t0.5 -5.5q3 -22 5 -44.5t2 -42.5q-1 -21 -0.5 -42.5t0.5 -42.5v-84
q-1 -24 -3.5 -53t-5.5 -56q-2 -12 -3 -24l-2 -24q0 -4 -1 -9t-1 -9q-4 -30 -8.5 -60.5t-16.5 -58.5zM358 362q1 25 1.5 50t0.5 51q0 25 -0.5 50.5t-0.5 51.5q0 19 -1 40t-6.5 41t-16 38t-28.5 32q-7 5 -18.5 10.5t-24.5 8.5t-25.5 2.5t-21.5 -7.5q-29 -21 -45 -48.5
t-24 -56.5t-11 -57.5t-4 -51.5q0 -7 -1 -14t-1 -13q-3 -32 -4 -65.5t-1 -65.5v-42t-1 -41q0 -19 0.5 -40t3.5 -43t9 -42.5t16 -38.5q12 -19 29 -29.5t36.5 -14t40 0.5t40.5 15q-3 2 -12.5 11.5t-19.5 20.5t-18 20.5t-8 10.5q23 23 30.5 31t9.5 9q0 -3 7.5 -11t17 -17
t18.5 -17t12 -12q2 6 5.5 36.5t6.5 68.5t6 74t3 54z" />
    <glyph glyph-name="R" unicode="R" horiz-adv-x="448" 
d="M111 0q-17 3 -30.5 4t-14.5 4q0 1 -0.5 16t-1 39.5t-0.5 56.5v67q0 57 0.5 125l1 136t2 132t3 114t4 81t5.5 33q5 4 13 4h8t7 1h-2q17 2 34 3.5t32 1.5h16t16 -1q36 -2 60.5 -7t40.5 -11.5t25 -12.5t14 -10q11 -10 19 -32.5t13.5 -50.5t9 -59t5.5 -59t2.5 -49t0.5 -29
q0 -45 -7 -75t-17.5 -49t-22 -30.5t-19.5 -18.5q21 -33 33.5 -60.5t18.5 -55t8 -58t2 -69.5v-79q-8 -3 -9.5 -0.5t-9.5 4.5h-14h-14.5t-10.5 1q-1 8 -1.5 14t-0.5 13q0 8 0.5 15.5t0.5 15.5v33q0 8 0.5 20t0.5 25q0 34 -11 70.5t-24 65.5q-14 14 -35.5 20t-44.5 6
q-20 0 -43 -4t-44 -9q1 -13 1 -39.5t-1.5 -59t-3.5 -67t-3.5 -63t-3 -46.5t-0.5 -17h-8zM332 664q-2 18 -6.5 30.5t-12.5 22.5t-22 17t-36 14h2q-33 10 -67 10q-23 0 -61 -8v-29t-0.5 -32.5t-1 -32.5t-0.5 -29q-1 -26 -1 -51.5v-51.5q0 -38 1 -78t5 -84h72q18 0 38 1t38 5
t32 11t21 19q5 4 6.5 18t1.5 34q0 22 -0.5 53t-2 62.5t-3 58.5t-3.5 40z" />
    <glyph glyph-name="S" unicode="S" horiz-adv-x="480" 
d="M337 363q28 -28 52 -62t33 -72q4 -17 4 -35q0 -20 -4 -39q-5 -24 -10 -47t-22 -44h1q-15 -17 -41.5 -33.5t-51.5 -23.5h1q-15 -3 -31 -5t-30 -2t-27 1.5t-24 4.5h1q-24 8 -48.5 26t-38.5 38q-6 8 -12 20t-10.5 24.5t-7 25t-0.5 21.5t8.5 11.5t14.5 3.5q2 0 3.5 0.5
t4.5 0.5q11 1 21.5 1t19.5 -2q1 -21 9 -41t22 -36t32.5 -25.5t40.5 -9.5q8 0 18 1.5t19 5.5h-1q38 14 55 42.5t17 61.5q0 21 -6.5 42.5t-17.5 41.5q-28 48 -65 86.5t-78 75.5l-23 19q-25 20 -46.5 41.5t-35.5 50.5q-9 20 -14.5 46.5t-5.5 51.5q0 23 7 50.5t16 45.5
q13 20 32.5 36t42 27.5t47.5 16.5t49 4q18 -2 34.5 -6t30.5 -12h-1q12 -8 29 -22t24 -28l10 -18h-1q5 -10 10.5 -21.5t9.5 -22.5t6 -19t0 -11v1q-5 -5 -22.5 -9.5t-34.5 -4.5h-15q-4 4 -5 8.5t-1 9.5q-1 6 -2 11.5t-4 11.5q-13 28 -32 44q-14 10 -35 18t-38 8
q-20 -1 -36.5 -11t-27.5 -23q-21 -25 -30.5 -58t-3.5 -65q5 -25 19.5 -43.5t31.5 -34.5l-1 3l10 -13q18 -19 38 -36.5t41 -34.5q20 -17 39.5 -34t36.5 -35z" />
    <glyph glyph-name="T" unicode="T" horiz-adv-x="417" 
d="M172 773h-15t-33.5 -1t-35.5 -1.5t-21 -0.5q2 12 -1 27.5t-2 25.5q34 5 81 5t92.5 -0.5t81 -0.5t46.5 5q-2 -21 -2 -32.5t-1 -18t-3 -8.5t-7 -3q-33 -3 -53 2t-39 2q0 -11 -0.5 -25.5t-0.5 -30.5t-0.5 -31t-0.5 -25q0 -13 -1 -48t-2.5 -81t-3 -97t-3 -95t-2.5 -74.5
t-1 -35.5q0 -7 -0.5 -23t-0.5 -37v-44.5v-43.5t-0.5 -34.5t-0.5 -18.5v-30q-14 -1 -26 0t-26 3q-2 0 -4.5 0.5t-5.5 0.5q-1 8 -0.5 8.5t0.5 8.5q0 13 1 26.5t2 26.5q2 17 3 36.5t-1 38.5q-1 8 -1 15v15q1 23 1 62.5v86t-0.5 95.5t-0.5 90.5t-0.5 70.5t-0.5 37v43t1 43
q0 13 0.5 33.5t0.5 33.5z" />
    <glyph glyph-name="U" unicode="U" horiz-adv-x="482" 
d="M104 77q-7 11 -11 27.5t-7 33.5q0 2 -0.5 4t-0.5 4q-11 62 -15 124t-6 123v31q0 35 1 73t3 73q2 32 3 65l2 66v52q0 5 -0.5 9t-1.5 8q-2 8 -2.5 14.5t2.5 11.5q12 3 25 3q10 0 19.5 -1t17.5 -4q1 -8 0.5 -11t-0.5 -11q0 -26 -2 -52.5t-4 -52.5v1q-4 -46 -6 -92
q-1 -26 -1.5 -52.5t-0.5 -52.5q0 -33 1 -69t3 -68q2 -29 4.5 -58.5t5.5 -58.5q0 -2 0.5 -4.5t0.5 -4.5q3 -22 6.5 -45t14.5 -46h-1q14 -28 40.5 -41.5t56.5 -13.5q18 0 35.5 5t31.5 13q18 10 29 26.5t18 35.5t9.5 39t3.5 38v38q0 25 -0.5 50.5t-1.5 51.5q-2 76 -5.5 152.5
t-6.5 151.5q-1 18 -1.5 38t-2.5 38q0 5 -0.5 10t-1.5 10q-2 10 -4 19.5t0 15.5q7 3 17.5 4.5t18.5 2.5q3 0 6 0.5t4 0.5q2 0 3 0.5t2 0.5h7q3 0 5 1q5 -14 6.5 -29.5t2.5 -30.5v-11.5t1 -10.5v1q5 -61 8 -122.5t4 -123.5q0 -11 0.5 -23t0.5 -24q0 -17 0.5 -35.5t0.5 -36.5
q0 -33 -1 -66t-5 -66q-3 -28 -9 -56t-16.5 -54t-27 -48t-40.5 -38q-29 -19 -63 -26t-67 -1.5t-61.5 24.5t-46.5 51v-1z" />
    <glyph glyph-name="V" unicode="V" horiz-adv-x="479" 
d="M374 811q8 1 15.5 1.5t16.5 -0.5q0 -9 -3 -19.5t-8 -21.5q-33 -191 -55.5 -322t-37 -216.5t-22.5 -132.5t-11.5 -69.5t-4.5 -27.5t-1 -6l-34 2q-1 3 -4.5 17t-8.5 34.5t-10.5 45t-10.5 48.5l-16 66q-6 28 -14 55t-16 53q-7 23 -13.5 48t-12.5 48q-19 93 -32 157
t-21.5 106.5t-13.5 66t-7.5 35t-3 13.5t-0.5 1q-1 3 1 10q9 0 17.5 1t15.5 3l31 5q4 -46 14 -111.5t22 -136t26 -139.5t26.5 -122.5t22 -84t14.5 -24.5q9 30 19.5 87t22 125.5t22 140t19.5 130t15 95.5t8 38h16t17 1zM110 812q0 2 1 0h-1z" />
    <glyph glyph-name="W" unicode="W" horiz-adv-x="757" 
d="M568 10q-3 -5 -16.5 -7.5t-27.5 -2.5q-8 0 -14 0.5t-11 1.5q-3 9 -10 44.5t-16 84.5t-20 105t-22 105t-22 84.5t-20 43.5q-7 -11 -16.5 -47t-19.5 -84.5t-20.5 -103t-19 -102t-14.5 -81.5t-7 -41q-3 -3 -9 -5q-3 -1 -9.5 -1.5t-14 -0.5t-14.5 0.5t-10 1.5q-4 3 -12.5 30
t-19.5 67t-23.5 87.5t-23.5 93t-20 82.5t-13 56q-3 17 -8.5 48.5t-12.5 70t-13.5 79t-12.5 76t-10.5 62t-5.5 36.5q1 3 11.5 2t24.5 -3t29 -5t26 -4q2 -8 2 -17.5v-19.5v-31t2 -31q4 -38 13.5 -98t22 -129t26.5 -138.5t27 -126.5q1 -12 5.5 2t11 45.5t15 76t18 93t18.5 97
t17 87.5t14.5 65t10.5 30t12 4.5t17 -0.5t17 -4t11 -6q9 -8 17 -43t16.5 -84.5t16.5 -105.5t17.5 -106t19.5 -87t22 -47q9 7 17.5 39.5t17.5 80t17.5 105.5t16.5 117q7 49 13.5 95t11.5 82t7.5 58.5t2.5 25.5h11.5t11.5 1q14 1 35 0.5t38 -5.5l-6.5 -25.5t-16 -69t-21 -101
t-23.5 -122.5q-15 -83 -30 -168.5t-27.5 -155.5t-20.5 -113.5t-7 -42.5z" />
    <glyph glyph-name="X" unicode="X" horiz-adv-x="483" 
d="M427 788q-38 -105 -64 -178t-43.5 -122l-27.5 -77t-14.5 -43.5t-5.5 -21t0 -9.5t9.5 -27.5t21.5 -55.5q12 -32 26 -70t27 -73.5t23.5 -65t14.5 -44.5h-17q-5 0 -10 -0.5t-9 -0.5h-23q-7 16 -20.5 53t-29.5 80l-44 131q-19 -29 -30 -64t-25 -73q-12 -37 -25 -72t-22 -53
q-9 -2 -12.5 -1t-11.5 1h-21q-4 0 -8.5 -0.5t-4.5 -1.5q12 33 23.5 62t22.5 60q11 28 23.5 61t24 64t20 55t11.5 34q1 5 -4.5 27.5t-16 56t-23.5 75t-27 85.5l-69 224q4 1 13 2.5t18.5 1.5t17.5 -2t11 -7l-1 1q22 -60 39.5 -107.5t31.5 -88t25 -77t22 -75.5q6 3 13.5 21.5
t14.5 40.5t12 41.5t7 25.5l19 57t20 59.5t20 55t18 43.5q6 1 16.5 2.5t21 1.5t17.5 -2.5t5 -9.5z" />
    <glyph glyph-name="Y" unicode="Y" horiz-adv-x="468" 
d="M292 335q0 -17 0.5 -56t0.5 -86v-64v-58t-0.5 -42t-1.5 -17h-1q-2 0 -3 1q-3 0 -6.5 0.5t-5.5 0.5q-3 0 -16 -2t-18 -3q-2 -1 -7 -1v46q0 14 0.5 29t0.5 29v47q0 11 -0.5 40t-1 61.5t-1 61.5t-1.5 40q-2 19 -16 55t-32 77.5t-36 84t-28 74.5q-4 14 -8.5 27t-10.5 27v-2
l-25 70l-4 8q-2 3 -3.5 9t-3.5 12q0 4 9.5 7t20.5 4.5t21.5 0.5t13.5 -5l14 -42q7 -22 17 -50t21 -58.5t23 -59.5t22.5 -53t18.5 -40t13 -18q2 2 9.5 23t17.5 52.5t21.5 68.5t22 72t18 62.5t10.5 40.5q2 2 7.5 1t11.5 -2h20h12t11 -2q-2 -2 -5 -10t-7 -18.5t-8.5 -22
t-7.5 -20.5q-1 -4 -2.5 -7t-2.5 -7l1 1q-5 -20 -11.5 -41t-12.5 -42q-12 -41 -24 -80t-22 -72t-17 -56t-7 -31z" />
    <glyph glyph-name="Z" unicode="Z" horiz-adv-x="466" 
d="M404 775q6 -4 4.5 -3.5t-4.5 2.5v1zM294 782q35 0 65 -2t45 -6q-3 -20 -10 -41.5t-15.5 -44t-17 -44.5t-15.5 -41q-9 -20 -17 -44.5t-16 -51.5q-6 -20 -12.5 -40.5t-14.5 -40.5l-17 -45v1q-14 -33 -32 -80t-36 -95t-32.5 -90t-20.5 -64q10 -3 30 -5t43.5 -3t49 -1t47 0.5
t37 1t20.5 1.5q2 0 3.5 0.5t3.5 0.5q12 2 20 0.5t9 -7.5q-1 -5 -1 -10.5v-9.5q0 -8 -1 -12.5t-8 -6.5h1q-24 -4 -68 -5.5t-92 -1.5q-24 0 -47.5 0.5t-44.5 0.5h-77q-9 0 -9 7q2 18 8.5 36t15.5 35l-1 -1l6 13q7 17 21.5 61.5t33.5 101.5t41 122.5t44.5 129.5t45.5 120.5
t43 95.5q-20 4 -52.5 4.5t-65 -1t-58.5 -3.5t-32 -2q-11 0 -16 1.5t-7 11.5q-1 4 -1.5 10t-1 12.5t0.5 11.5t3 7q3 3 22 5t47.5 4t63.5 3t69 1z" />
    <glyph glyph-name="bracketleft" unicode="[" horiz-adv-x="364" 
d="M297 801q1 -2 1.5 -5t-1.5 -3q-11 -2 -21.5 -1.5t-21.5 1.5h1q-6 1 -13 1h-15q-20 -1 -50 -1.5t-49 -0.5q3 -7 6 -39.5t5.5 -80t4.5 -107.5t3.5 -122.5t2 -124t0.5 -112.5q0 -48 -0.5 -90t-1.5 -61q26 -5 45.5 -5.5t39.5 -0.5h10t9 1q11 2 23 2.5t20 -3.5q5 -3 8.5 -12
t3.5 -19t-2 -13q-12 2 -29 2h-35q-11 0 -21.5 -0.5t-21.5 -0.5h-48h-48.5t-25.5 1q-2 14 -1.5 28.5t0.5 26.5v38q-1 26 -1.5 69t-1.5 96t-1.5 112t-0.5 117.5t-0.5 113t-0.5 97.5v71v34q0 10 -2 18q-2 9 -3 18.5t2 12.5h33q21 0 48 -1t54 -2.5t51 -3t39 -2.5q2 -5 2 -8.5
v-8.5q0 -19 4 -32z" />
    <glyph glyph-name="backslash" unicode="\" horiz-adv-x="500" 
d="M180 548q0 -3 2 -5q3 -9 7 -19q3 -9 8 -20t10 -25q15 -37 36 -89.5t44.5 -110.5t47.5 -118.5t45 -114t37.5 -96t24.5 -64.5q-16 0 -26.5 0.5t-24.5 2.5h-7q-8 16 -24.5 55t-39.5 92.5t-49.5 116.5t-53.5 127.5t-52 125.5t-45 109t-32.5 79.5t-13.5 37.5h1l-6 16l1 -2
q-2 8 -4 14.5t-2 11.5q4 1 9 2.5t9 3.5l12 4q5 1 7.5 1h4.5h7t9 2q4 -4 12 -22t17 -40t17 -43.5t12 -31.5z" />
    <glyph glyph-name="bracketright" unicode="]" horiz-adv-x="369" 
d="M303 5q-10 -2 -28.5 -2.5t-28.5 0.5q-17 0 -40 -0.5t-46 -0.5t-43 1.5t-30 5.5q-2 6 -2 11.5v13.5q0 16 -3 15q14 5 31 5q41 -2 66.5 -2.5t40 1.5t20 7.5t7.5 14.5l4 671q-2 21 -5.5 31.5t-8.5 14.5t-12 4h-16q-8 0 -19.5 -0.5t-24.5 -0.5q-17 0 -34 -0.5t-32 -0.5
q-13 0 -22.5 -0.5t-11.5 0.5q-2 2 -1.5 6t0.5 8v10t0.5 13.5t1 12t2.5 7.5h-1q4 1 14.5 1h24.5t30.5 -0.5t32.5 -1.5q23 -2 43 -2.5t31 -0.5q2 0 5 0.5t6 0.5q14 2 32 1.5t23 -5.5z" />
    <glyph glyph-name="asciicircum" unicode="^" horiz-adv-x="324" 
d="M284 699q1 1 -5 6.5t-16.5 13.5t-23 17.5t-23.5 18.5q-12 8 -25 19t-22 16q-34 -19 -55 -33.5t-34 -25.5t-21 -18.5t-17 -13.5q2 4 -3.5 15.5t-10.5 22.5l-4 6q34 25 63 46q25 18 48.5 35.5t33.5 23.5q60 -46 92 -70.5t49 -36.5z" />
    <glyph glyph-name="underscore" unicode="_" horiz-adv-x="598" 
d="M543 3q2 -11 3.5 -23.5t0.5 -24.5q-15 -2 -56 -3t-93 -1.5t-108 -1t-101 -0.5h-61t-32 1q-8 0 -15.5 0.5t-14.5 2.5l-2 20q-2 11 -2 21t2 15q2 1 7.5 1h10.5h10q44 4 87 5.5t86 2.5q13 0 28.5 0.5t28.5 1.5q16 1 32 1.5t33 0.5q14 0 26 -0.5t26 -1.5q5 -1 14.5 -1
t20.5 -1q16 -1 36.5 -1t31.5 -1l1 -13v0z" />
    <glyph glyph-name="grave" unicode="`" horiz-adv-x="187" 
d="M109 814q8 0 12.5 -7.5t7 -18t3 -21t1.5 -15.5q1 -10 3 -21t0 -20q-4 -16 -16.5 -16t-20.5 11q-9 12 -15 26t-14 27q-2 3 -6 8t-7.5 10.5t-5.5 10.5t1 9q9 11 27 13.5t30 3.5z" />
    <glyph glyph-name="a" unicode="a" horiz-adv-x="411" 
d="M295 40q-24 -12 -35 -20t-18 -12t-16 -5.5t-29 -0.5q-23 -2 -41 11.5t-32 27.5q-35 42 -48.5 90.5t-11.5 101.5q3 48 24.5 89t65.5 64q26 14 46 17t37 -0.5t32 -10t32 -12.5q3 5 3.5 14t0.5 18.5t-1 18.5t-1 15q0 26 -12 50t-38 35q-19 7 -31.5 5t-20.5 -10t-12.5 -20
t-8.5 -25q-2 -6 -4.5 -13t-4.5 -12q-12 -2 -26 -1t-22 5q-6 28 5.5 55.5t34 48t51.5 31t57 4.5q29 -11 49.5 -36.5t28.5 -57.5q4 -24 8.5 -54t4.5 -53q-3 -125 -3.5 -203t-1 -121.5t-2.5 -58.5t-8 -15h-9h-15.5h-15.5h-8zM129 199q0 -30 6 -57.5t19 -47t31.5 -27.5t44.5 1
q20 9 33.5 25t22 35.5t12 40.5t3.5 41q0 16 -1.5 37t-7.5 41.5t-18 37t-34 25.5q-36 -1 -57.5 -13.5t-33.5 -33t-16 -48t-4 -57.5z" />
    <glyph glyph-name="b" unicode="b" horiz-adv-x="400" 
d="M132 0q-3 -3 -11.5 -3.5t-17.5 0.5t-17.5 2.5t-11.5 3.5q-1 72 -2 153.5t-1 163t0.5 158t1 140.5t1 109.5t0.5 65.5q10 5 25 5.5t24 -2.5q11 -6 13 -22t0.5 -44.5t-4.5 -70t-2 -98.5q15 4 36 12.5t35 8.5q36 0 68 -14t51 -48q18 -30 24 -65t6 -71q0 -11 -0.5 -24
t-1.5 -24q-3 -38 -9 -79l-3 -23q-2 -11 -2.5 -21t-1.5 -20q-7 -73 -40.5 -119t-91.5 -48q-11 0 -26 4t-40 15zM124 484v-189t1 -104.5t3.5 -47.5t6.5 -19q12 -20 24.5 -25.5t33.5 -10.5q36 -5 57 12t27 52q7 42 11.5 85t5.5 88q0 20 0.5 42t1.5 42q0 15 -2 31t-7.5 31.5
t-15.5 28.5t-25 21q-22 11 -41 11q-24 0 -46 -12.5t-35 -35.5z" />
    <glyph glyph-name="c" unicode="c" horiz-adv-x="379" 
d="M242 515q-23 10 -40.5 5.5t-30.5 -18.5t-22.5 -35t-16 -43t-10 -41.5t-5.5 -31.5q0 -2 -1 -6.5t-1 -7.5q-4 -27 -6.5 -67.5t2 -81.5t19.5 -75.5t47 -50.5l-1 1q35 -17 58.5 -4.5t40.5 38.5q5 7 12.5 0.5t14.5 -14.5q13 -13 13 -23q0 -11 -15 -26q-18 -17 -42 -25.5
t-49 -8.5q-19 0 -36.5 4t-32.5 13q-44 24 -62 67.5t-19 90.5q0 54 1 106.5t8 106.5q4 29 12.5 61.5t24.5 61t39 48t56 23.5q35 4 71 -13q6 -3 16 -7.5t19 -10t15.5 -12t5.5 -12.5q-1 -7 -10.5 -15.5t-20.5 -16.5h1l-18 -15q0 2 -6 7.5t-11 11.5h1q-5 5 -10.5 9.5t-10.5 6.5z
" />
    <glyph glyph-name="d" unicode="d" horiz-adv-x="386" 
d="M341 803q1 -70 0.5 -150t-2 -160t-3 -155.5t-2.5 -135.5t-0.5 -100t3.5 -50v-50q-11 -2 -19.5 -2h-17.5q-2 0 -5.5 -0.5t-6.5 -0.5q-4 -1 -9.5 -1h-8.5q0 1 0.5 0t-0.5 1q-1 1 -2.5 5t3.5 27q-25 -9 -42.5 -13.5t-30 -5.5t-21 0.5t-15.5 3.5q-17 6 -33 13t-23 18
q-32 42 -45.5 97t-14.5 107q0 45 0.5 74.5t2.5 56.5q3 29 8 62.5t20 58.5q13 21 30.5 37.5t40.5 23.5q12 3 26 3q27 0 51.5 -8.5t49.5 -10.5q-1 17 -1 48.5v64t0.5 59.5t0.5 35v24.5t-1 27.5q18 2 33.5 4.5t34.5 0.5q1 -2 -1 -9zM275 96q-1 26 -0.5 61.5t1.5 75t2 79.5
t1.5 73.5t0 57.5t-2.5 33q-35 24 -74.5 25.5t-68.5 -29.5q-15 -21 -23 -54t-11.5 -68.5t-4 -69.5t0.5 -58q0 -15 2.5 -32.5t7 -34.5t12.5 -33t20 -27q14 -12 29 -20t31 -8q5 0 18 3t26 7t23 9t10 10z" />
    <glyph glyph-name="e" unicode="e" horiz-adv-x="421" 
d="M356 294q-41 -1 -81.5 -1.5t-73 -1.5t-52 -2.5t-19.5 -4.5q0 -40 0.5 -74t6 -60.5t16.5 -46t31 -29.5q20 -11 44 -7.5t41 17.5h-1q20 15 26.5 36t9.5 41q0 2 0.5 4.5t0.5 4.5q17 -2 35 -10t34 -16l-1 -5t-3 -11.5l-4 -13t-3 -9.5q-9 -41 -43.5 -66.5t-75.5 -34.5
q-16 -4 -32 -4q-32 0 -60 16t-45 48q-14 26 -24 67t-14.5 88.5t-2.5 99t12 98t28 84.5t46 60q34 26 81 26q13 0 30 -5t29 -11q17 -11 27.5 -28.5t17 -38t9.5 -42t5 -41.5q2 -24 4 -48.5t2 -48.5v-15t-1 -15zM303 437q-5 19 -13 39t-20.5 33.5t-31.5 16.5t-44 -10
q-20 -11 -32 -29.5t-19 -40.5t-10 -45t-6 -44q46 -8 87.5 -6t88.5 10q7 25 5.5 42t-4.5 31v-2q-1 1 -1 5z" />
    <glyph glyph-name="f" unicode="f" horiz-adv-x="433" 
d="M328 812q6 -1 16 -3.5t19 -6.5t14 -9t1 -11v1q-8 -12 -18.5 -25.5t-21.5 -21.5q3 4 2.5 4.5l-2.5 2.5v-1q-4 5 -7.5 8t-8.5 5q-14 6 -30 4.5t-29 -6.5q-19 -8 -30.5 -22.5t-18 -32.5t-9.5 -38t-5 -38l-5 -45q12 1 21.5 1t18.5 -0.5t17.5 -0.5t19.5 2q9 -2 14.5 -3.5t8 -4
t3.5 -7.5t1 -14q0 -10 -1 -18t-3 -12q-50 2 -74.5 5t-24.5 -5q1 -83 3 -141.5t3.5 -102t3.5 -76.5t3 -63.5t2 -63t1 -75.5q-9 -2 -17.5 -2t-15.5 -1q-8 -1 -16 -1q-1 78 -3.5 155t-5 141t-4.5 108.5t-2 56.5q0 13 -1 34.5t-2 34.5q-18 -3 -42.5 -2t-39.5 3q-2 8 -0.5 22.5
t4.5 26.5h16q15 0 32.5 0.5t31.5 2.5q0 28 3.5 58.5t11.5 59.5t21 53.5t33 40.5q24 18 53 23t59 0z" />
    <glyph glyph-name="g" unicode="g" horiz-adv-x="402" 
d="M350 583q-1 -8 -1 -15v-15q3 -44 4.5 -99t1.5 -111t-0.5 -109.5t-1 -95t-1.5 -67l-1 -25.5q-1 -35 -7 -70.5t-22 -65.5q-17 -31 -48 -52.5t-67 -23.5q-8 0 -24.5 1t-32 5t-25.5 10t-5 16l20 22l17 18q4 5 9.5 1.5t11.5 -8.5l15 -10q13 -6 25 -4.5t22 7.5t18.5 14.5
t14.5 17.5v-1q8 11 12 25.5t5.5 30t1 31t-2.5 28.5q-19 -17 -34 -27.5t-35 -10.5q-28 -2 -54.5 16t-45.5 38t-29.5 44.5t-16 51.5t-7 55t-1.5 54v24t-1 24q0 14 -0.5 27t-0.5 26q0 14 1 28.5t3 28.5q5 32 14 64.5t30 57.5q16 20 37.5 31.5t46.5 13.5q14 1 30.5 -1.5
t29.5 -7.5q3 -1 9.5 -4.5t13.5 -7t13.5 -6t9.5 -1.5q-2 2 0 14t4 26q10 4 29 2h14q1 -2 1 -5.5v-5.5v-4zM206 529q-19 -2 -32.5 -12t-23 -23.5t-15.5 -29.5t-10 -31q-14 -70 -14 -139v-19t1 -19q2 -31 5.5 -64.5t16.5 -62.5q11 -23 34 -40t49 -17q21 0 41 15q23 18 27.5 45
t4.5 53v13l7 195q0 23 -1.5 48.5t-10 46t-27 33t-52.5 8.5z" />
    <glyph glyph-name="h" unicode="h" horiz-adv-x="395" 
d="M130 804q0 -63 0.5 -123.5t4.5 -120.5h38.5t38 -2.5t35 -8t29.5 -16.5v1q14 -12 24 -28.5t17 -33.5q18 -42 21.5 -92t4.5 -98q1 -17 1 -34v-34q0 -35 -1 -69t-4 -68q-1 -15 -1.5 -28t-2.5 -27q0 -7 -8 -21q0 -1 -6.5 -1h-15.5q-14 0 -19 2q-3 12 -3 29q0 7 0.5 14t0.5 15
q1 5 1 12.5v12.5v228q0 17 -0.5 35.5t-2.5 34.5q-2 26 -8 50.5t-23 44.5q-11 13 -32.5 22.5t-38.5 9.5q-12 0 -25 -5t-24 -18v-48q0 -91 -3 -182l-3 -111q0 -30 -1 -59.5t-2 -58.5v-5v-6.5t-1 -5.5q-5 -6 -15.5 -6.5t-21.5 2.5l-14 4q-3 75 -4.5 143.5t-1.5 144.5v55t1 56
q0 17 1 50t1.5 73.5t1.5 84t2 81.5t2 65.5t2 36.5h1q14 2 27.5 4t26.5 -1z" />
    <glyph glyph-name="i" unicode="i" horiz-adv-x="207" 
d="M142 587q-5 -114 -8 -185t-4.5 -115t-1.5 -68.5v-45.5q0 -38 -0.5 -63t0 -41.5t1 -27t1.5 -18.5q0 -1 0.5 -2.5t0.5 -2.5q1 -5 2 -11t0 -6h1q-12 0 -26 -0.5t-25.5 0.5t-19 2t-7.5 4l14 570q-2 0 -0.5 0.5t0.5 0.5v-1l2 1q9 1 21 2.5t23 3t18.5 2.5zM110 722q7 0 15 -4
t15 -12q5 -13 3.5 -24.5t-7.5 -20t-16 -13.5t-20 -5q-9 0 -19 5q-14 17 -14 32q0 17 13 29.5t30 12.5zM143 704q1 0 -3 2v1z" />
    <glyph glyph-name="j" unicode="j" horiz-adv-x="185" 
d="M135 709q-2 -14 -10 -22q-10 -7 -19 -7q-12 0 -21 10q-6 10 -6 25q0 7 2.5 13.5t8.5 9.5h-1q7 4 16.5 4t17.5 -3.5t12 -10.5t1 -16zM-32 -154q-17 2 -35 11.5t-27 24.5q1 -1 3.5 2t4.5 5v-1q5 7 9 12.5t6 10.5q1 4 6 9q6 0 8 -2.5t7 -4.5q25 -13 45 -7.5t34.5 23.5
t24 44.5t15 56t6.5 58.5t-1 52v174.5t0.5 124t1 91t2.5 75.5q14 3 27.5 4t27.5 0q3 0 5 -15t2.5 -37.5t0.5 -50v-52t-0.5 -43t-0.5 -23.5q0 -47 2 -107t0 -122.5t-9.5 -121.5t-26.5 -103.5t-52.5 -69t-85.5 -18.5z" />
    <glyph glyph-name="k" unicode="k" horiz-adv-x="436" 
d="M126 359q24 28 51.5 58t53.5 57.5t47.5 50.5t34.5 38q1 1 5 1h9h9q8 0 16 0.5t16 0.5h9t10 -1q-45 -57 -76 -93t-50 -57.5t-27 -33t-5 -18.5l48 -119l96 -227q2 -4 3.5 -7.5t1.5 -5.5q-20 -1 -31.5 -1.5t-17 -1t-6.5 -1l-1 -0.5q-11 17 -19 38.5t-15 41.5l-23 57.5
t-27.5 66t-30 67t-30.5 62.5q-19 -13 -29.5 -28.5t-18.5 -29.5v-271q-4 -4 -14 -4t-23 2q-5 0 -14 0.5t-14 0.5q-2 10 -1.5 23t1.5 24q3 163 3.5 282t0 202.5t-1.5 135.5t-0.5 81t3 39.5t8.5 10.5q10 0 22.5 -0.5t19.5 -1.5q2 0 3.5 -0.5t2.5 -0.5h2q-1 -31 -1.5 -70.5
t-1 -82l-1 -85t-0.5 -79.5q0 -48 0.5 -80.5t2.5 -40.5z" />
    <glyph glyph-name="l" unicode="l" horiz-adv-x="202" 
d="M144 736q-3 -6 -4.5 -37.5t-3 -79.5t-2 -107.5t-1 -121.5t-0.5 -122v-109.5t-0.5 -83t-0.5 -42.5v-4q0 -6 0.5 -11t-1.5 -10q-18 -2 -28.5 -4t-30.5 -4q-3 8 -2.5 20.5t1.5 22.5v5q2 29 3 60t2 61q2 132 3 229t1.5 162.5t1 102.5t1.5 50v-1q1 32 1.5 50.5t1 27.5
t0.5 12.5v5.5l53 5q5 -13 6 -36.5t-1 -40.5z" />
    <glyph glyph-name="m" unicode="m" horiz-adv-x="646" 
d="M296 11q0 18 1 38q0 17 0.5 38.5t0.5 44.5v28.5t-1 24.5q-3 32 -4 64t-1 64v51q0 15 -0.5 31.5t-3 33.5t-8 32.5t-16.5 28.5q-26 30 -62 30q-21 0 -41 -11.5t-33 -34.5q-5 -49 -6 -102.5t0 -100.5t3 -80.5t2 -42.5q0 -11 0.5 -25t1.5 -25q0 -7 0.5 -12t0.5 -12v-11t1 -12
v1q1 -9 1.5 -25.5t0.5 -24.5q-4 -1 -12 -1.5t-16.5 -0.5h-16.5h-13q-2 5 -1.5 17.5t1.5 23.5q0 5 0.5 9t0.5 7l-3 93q1 9 0.5 42t-2 77.5t-3.5 94.5t-4 94.5t-3.5 77.5t-1.5 43q4 2 4 1t5 -2q3 -1 9.5 -0.5t13.5 1t12 1t7 -0.5l2 -2h-0.5t-1 -1t-0.5 -4q0 -5 0.5 -12
t4.5 -27q17 8 26 13.5t14 8.5q4 4 8.5 7t9.5 5q14 5 28.5 9t31.5 4q17 -1 30.5 -6.5t25.5 -14.5q21 -16 35 -27.5t14 -10.5q11 6 18.5 13t15.5 13.5t17.5 13.5t24.5 13q20 9 44 8t53 -15q26 -12 41 -35t23 -51t11 -57t6 -53q1 -8 1.5 -20.5t2.5 -21.5q2 -15 4 -43.5
t3.5 -60.5t3 -62t1.5 -46l3 -111q-9 1 -19 2t-19 2t-14.5 3t-5.5 7q4 45 4.5 86.5t-1.5 82.5t-7.5 84.5t-13.5 93.5q-5 33 -12.5 69t-22.5 65q-7 9 -20.5 14t-28.5 5.5t-29.5 -4.5t-23.5 -15q-3 -4 -10.5 -12t-15.5 -17t-14.5 -18t-7.5 -15q-1 -10 -2.5 -24t-2 -29t-1 -29
t-0.5 -24l6 -144q6 -87 9 -174z" />
    <glyph glyph-name="n" unicode="n" horiz-adv-x="403" 
d="M170 544q16 9 33 14.5t34 5.5q35 0 62 -21q28 -21 40.5 -52.5t16 -75t1 -99.5t-5.5 -126q2 -48 2 -93.5t-5 -87.5l-49 3q4 70 6.5 124.5t4.5 107.5v16q0 28 -0.5 67t-6 76t-18 65.5t-36.5 35.5q-18 5 -33 2.5t-28.5 -9.5t-25 -15.5t-22.5 -14.5l-8 -48l-17 -312
q0 -10 0.5 -20t0.5 -21v-33t-2 -33q-7 1 -6 0.5t-6 -0.5q-11 0 -20.5 0.5t-16.5 2.5q-2 11 -2 21.5v21.5q1 20 2.5 63.5t4 98t4.5 113.5t4 111t3.5 90t2.5 50q5 3 12 4t15 2q6 1 11 2t11 3q4 0 6 -7.5t2.5 -17.5t0.5 -20v-14z" />
    <glyph glyph-name="o" unicode="o" horiz-adv-x="430" 
d="M371 306q1 -10 1.5 -19t1 -20t0 -25t-1.5 -33q-3 -23 -8 -49t-11 -49.5t-13 -43t-14 -29.5q-18 -23 -39.5 -31.5t-44.5 -8.5q-8 0 -21.5 2t-27.5 5t-24.5 6.5t-10.5 7.5q-40 17 -59.5 53t-24.5 79q-4 31 -6.5 62t-2.5 63q0 60 12 118t44 108h-1q33 48 88 48q20 0 41 -7
q35 -13 58 -35.5t37 -57.5q16 -38 20 -70.5t7 -73.5zM321 195q1 20 1 40v40v29.5t-1 30.5q0 3 -0.5 6t-0.5 6q-2 17 -6.5 42t-14.5 48.5t-26 41t-40 20.5q-37 4 -62 -21q-13 -13 -21 -30.5t-11 -34.5l-18 -69q-5 -20 -7.5 -43.5t0.5 -43.5q2 -10 2 -19.5v-18.5q0 -17 3 -35
q1 -12 3.5 -28t7 -32t12 -31t18.5 -25t31.5 -16.5t39.5 -6.5q13 0 25 3t20 11h-1q12 10 20.5 25t14 32.5t8.5 35t3 31.5v12z" />
    <glyph glyph-name="p" unicode="p" horiz-adv-x="423" 
d="M326 539q20 -39 29.5 -85.5t9.5 -92.5q0 -14 -0.5 -30.5t-1.5 -30.5q-1 -11 -1 -23.5v-23.5q0 -21 -0.5 -43t-4.5 -43q-5 -28 -15.5 -53.5t-27.5 -46.5q-21 -27 -51.5 -44t-65.5 -15q-16 2 -29 8q-4 1 -5 2.5t-4.5 2.5t-11.5 2.5t-25 3.5q0 -5 -0.5 -9.5t-0.5 -8.5
l-4 -203q-7 -1 -15.5 -1h-16.5h-11t-11 1q-2 399 1 607t20 209h41q2 0 4 -0.5t3 -0.5v-1q0 -6 -3 -15.5t2 -20.5q22 5 50 11t46 6t31 -5q20 -7 38.5 -22.5t29.5 -34.5zM302 186q6 33 8 68.5t2 70.5q0 22 -0.5 46.5t-2.5 46.5q-3 24 -13 49.5t-25 45.5q-11 17 -24.5 23.5
t-28.5 6.5q-21 0 -42 -12q-14 -7 -23 -17.5t-14.5 -22.5t-8 -25.5t-3.5 -26.5q-6 -38 -7 -78t-1 -78v-33t-1 -32v-16q0 -21 1 -42t10 -41q9 -10 21.5 -20.5t27 -17.5t32 -9t37.5 6q23 17 36.5 45t18.5 63z" />
    <glyph glyph-name="q" unicode="q" horiz-adv-x="420" 
d="M400 -180q-6 0 -14.5 1.5t-17.5 4t-17 5.5t-12 7q-15 13 -24.5 33.5t-15 44.5t-6.5 49.5t2 49.5q-22 -7 -44.5 -12t-36.5 -6l-18 3l-25 4q-6 3 -15 9.5t-18 14t-15.5 14l-7.5 7.5q-2 2 -7.5 10t-11.5 17.5t-11.5 20t-6.5 17.5q-16 65 -16 134q0 64 7.5 131t33.5 125
q11 24 29 39t42 23q10 3 24 3q22 0 51.5 -14t61.5 -34q-4 20 -6.5 37t-2.5 21v3q8 2 16 2.5t16 0.5q19 0 33 -3q1 -10 1 -20v-18q0 -13 -0.5 -29t-1.5 -30t-1.5 -29.5t-0.5 -29.5q-3 -144 -4.5 -228.5t-1.5 -129.5t0.5 -62.5t1.5 -27.5q0 -5 0.5 -9.5t0.5 -9.5
q0 -9 0.5 -24.5t3.5 -29.5t10.5 -24.5t22.5 -10.5h2v-50zM287 459q-12 18 -32 35t-42 17q-13 0 -25 -7.5t-22 -24.5q-8 -15 -12 -29t-7 -28l-2 -10q-8 -26 -13.5 -52.5t-7.5 -49.5q-3 -32 -3 -62q0 -29 3.5 -61t11.5 -61q6 -20 19 -38t34 -24q24 -7 41.5 -1t28.5 16t17 21
t7 15q2 7 3.5 36.5t3 69t2 82.5t0.5 78q0 29 -1.5 49.5t-2.5 24.5z" />
    <glyph glyph-name="r" unicode="r" horiz-adv-x="355" 
d="M325 538q2 -4 -1 -10.5t-9 -12.5h1q-7 -7 -16.5 -14.5t-12.5 -5.5q-2 0 -5 3l-8 8t-8.5 9t-16.5 10q-16 7 -31.5 10.5t-30.5 1.5q-15 -3 -26.5 -12.5t-20 -22.5t-13 -27.5t-6.5 -27.5q-2 -20 -3 -65.5t-1 -95.5q0 -42 0.5 -79.5t0.5 -54.5q1 -11 1 -20.5v-18.5
q0 -24 -1 -47.5t-2 -47.5q0 -4 -0.5 -8t-0.5 -8q-7 -2 -6.5 -1t-7.5 1h-25q-13 -2 -19 0h1q-2 1 -1 11l2 20q1 3 1 8.5v7.5q1 59 1 121.5t-0.5 121.5t-1 112.5t-1 95t-1.5 68t-1 33.5q0 2 -0.5 4.5t-0.5 4.5q-1 3 -1 7.5v6.5q2 2 7.5 1.5t10.5 -1.5q25 0 29 1q3 0 6 1t7 1
q1 -10 1.5 -23t2.5 -21q16 12 30 18t28.5 8.5t30 2t34.5 -3.5q28 -5 48 -26t36 -44z" />
    <glyph glyph-name="s" unicode="s" horiz-adv-x="411" 
d="M345 550q-4 -6 -11 -15t-14.5 -17.5t-13.5 -14.5t-8 -6q-14 16 -36 26.5t-45 10.5q-21 0 -39 -12.5t-26 -36.5q-5 -26 0.5 -48t18 -41t29.5 -35.5t35 -30.5q-2 2 0 0.5t5 -4t6.5 -6t5.5 -4.5q36 -29 65.5 -63t40.5 -79v2q3 -13 2.5 -29t-3.5 -32.5t-8.5 -31.5t-12.5 -26
q-8 -10 -16.5 -18.5t-30.5 -22.5q-14 -8 -34 -12t-38 -4q-20 0 -36.5 3t-26.5 8q-32 11 -58 33q-3 1 -8.5 5l-11 8t-9.5 7.5t-4 4.5q0 2 6.5 10.5t15 17.5t17 15t13.5 2q10 -9 23 -19t27 -19t29 -14.5t29 -5.5q23 0 39.5 15.5t24.5 54.5q6 30 -3 55.5t-27 48t-41.5 42.5
t-47.5 38q-17 14 -36 29t-30 28q-14 20 -21 43.5t-7 46.5q0 25 12 54t32 48q23 20 49 29t51 9q17 0 32 -4q50 -13 71 -29t20 -18z" />
    <glyph glyph-name="t" unicode="t" horiz-adv-x="373" 
d="M192 558q9 -2 21.5 -2.5t26.5 -0.5t28.5 -0.5t28.5 -3.5q1 0 6 -8.5t-6 -33.5q-23 -1 -37.5 -1t-25.5 -0.5t-20 -1.5t-22 -4q-2 -23 -1.5 -44.5t0.5 -44.5q0 -18 0.5 -36t0.5 -36t0.5 -36t0.5 -36q-1 -28 1 -56.5t4 -55.5q1 -10 3 -26.5t7 -32.5t13.5 -28.5t23.5 -14.5
q9 0 15.5 3t11.5 7l5 4q4 -1 11.5 -4.5t15 -8t13 -9t5.5 -6.5q0 -4 -4.5 -10.5t-8.5 -11.5q-11 -13 -31 -16.5t-36 -1.5h1q-13 3 -26.5 9t-26.5 11h-1q-15 10 -23.5 28.5t-13 41t-6.5 46.5t-2 45v19t-1 17q0 8 -0.5 21.5t-1 27.5t-1 27.5t-0.5 21.5q-1 42 -3 92.5t-9 95.5
q-14 4 -32.5 1t-35.5 3q-2 11 -3 23.5t-1 23.5q6 0 15.5 0.5t20.5 0.5h21h16l-5 154q10 4 25.5 3.5t38.5 -1.5z" />
    <glyph glyph-name="u" unicode="u" horiz-adv-x="464" 
d="M367 597q3 0 5 0.5t6 0.5q20 -2 24 -7t4 -12q0 -11 -0.5 -24.5t-0.5 -27.5v-129t0.5 -113.5t2 -89t3.5 -56.5q2 -30 1.5 -67t0.5 -68q-2 -2 -2 -4q1 1 2 1l-3 -4q0 2 1 3q-7 -2 -15 -2h-16h-18q-7 -1 -11 7l-4 34q-19 -5 -35 -12t-32 -13.5t-32 -11t-34 -2.5t-36 8
t-34 14q-13 7 -24 19t-19 23t-12.5 24t-9.5 30q-5 14 -8.5 46.5t-5 73.5t-2 86t-0.5 86q0 44 0.5 75.5t0.5 38.5v13v27.5t2 28.5q7 2 14.5 2h16.5q13 0 22 -1.5t18 -4.5q-2 -1 -0.5 -3.5t0.5 -4.5q0 -3 -1.5 -26.5t-3 -57.5t-3.5 -74t-3.5 -75.5t-2.5 -62t-1 -33.5v-26
q-1 -23 0.5 -45t11.5 -45q5 -9 8.5 -16.5t8.5 -12.5q6 -5 26.5 -15t50.5 -10q14 0 28.5 2.5t29.5 10.5q12 6 21.5 18.5t13.5 24.5q8 19 11.5 41t4.5 41q1 14 1 29.5v29.5v39.5t-1 40.5q0 11 -0.5 22t-0.5 22q-1 46 -3.5 92t-7.5 89q0 9 14 11q8 0 15.5 0.5t12.5 1.5z" />
    <glyph glyph-name="v" unicode="v" horiz-adv-x="370" 
d="M184 0q1 7 -10 53t-27 112t-35 141t-33 139.5t-20 108t2 46.5q4 1 14 0t21.5 -2.5t21 -3t11.5 -1.5q2 -14 6.5 -40.5t11 -58.5t13.5 -66.5t13.5 -64t11.5 -52t8 -30.5q9 37 19.5 86t19.5 96.5t15.5 84.5t8.5 50q6 3 20 3h28h9q7 -2 6 -9t-3 -16q-1 -4 -4.5 -26
t-8.5 -55.5t-11 -76t-12 -88.5t-12.5 -92t-11.5 -87l-20 -142q-2 -9 -3 -9h-49v0z" />
    <glyph glyph-name="w" unicode="w" horiz-adv-x="612" 
d="M389 63q-8 34 -18.5 81t-22 95.5t-23 92.5t-19.5 72q-26 -91 -39 -169.5t-23 -151.5q-5 -32 -6.5 -53.5t-3.5 -29.5q-5 -1 -15 0t-15 1h-26q0 4 -5 28.5t-13 62.5t-18 86t-20.5 98.5t-21 99t-18.5 87.5l-21 92q-1 3 3 4.5t6 2.5q22 3 31.5 4.5t15.5 1.5q13 0 17 -9v1
q8 -35 15 -80.5t14.5 -96t16.5 -103.5t20 -102q4 12 12 45t14 75q6 40 13.5 86t14 85t11.5 65t6 26q3 0 9 -0.5t12 -0.5l39 -4q0 -2 1 -6.5t2 -9.5l18 -70q8 -30 19.5 -72.5t23.5 -84.5t22 -77.5t16 -52.5q4 7 10.5 34t14 64t15.5 80t14.5 83.5t11.5 73.5t7 51h22
q16 0 30 -1t19 -4q2 -1 -3.5 -38t-16 -93.5t-23.5 -124t-25.5 -130t-22.5 -111t-14 -66.5q-2 0 -13 0.5t-23.5 1.5t-23 2.5t-10.5 3.5z" />
    <glyph glyph-name="x" unicode="x" horiz-adv-x="454" 
d="M281 254q36 -77 58 -123t34 -72t15 -37t2 -18q-2 -2 -12 -2.5t-22 -0.5t-23.5 0.5t-15.5 0.5l-35 70q-14 29 -29.5 57.5t-24.5 45.5q-28 -59 -47 -93.5t-31.5 -52.5t-20.5 -23.5t-15 -5.5q-10 0 -23.5 -1.5t-24.5 1.5q-3 4 1 17t13 31t21.5 40t25.5 45q31 52 73 116
q-14 44 -31 84t-36 80.5t-40.5 84t-44.5 95.5l1 -1q7 3 15 3t15.5 -0.5t14 -0.5t11.5 2q13 0 17 -13h-1q12 -31 25.5 -59.5t27.5 -58.5t29.5 -61.5t32.5 -68.5q13 26 27.5 58t29 65t28 64t22.5 56q3 7 10.5 8.5t17 1l19 -1t17.5 1.5q4 -3 2 -9z" />
    <glyph glyph-name="y" unicode="y" horiz-adv-x="413" 
d="M328 -60q-14 -34 -34 -52.5t-40 -27t-36 -10t-20 -1.5q-3 0 -11 3t-16.5 7t-16.5 8t-12 7l-8 6l-2 4q0 1 0.5 1.5t0.5 1.5t1 2q5 5 6 7.5t3 6.5q5 8 10.5 17.5t10.5 14.5l4 -3h1q14 -10 30 -17t35 -2q15 5 25.5 20t17 34.5t10 41t3.5 38.5q-47 -29 -72 -29q-23 0 -43.5 9
t-37.5 23t-27.5 33t-17.5 40.5t-10.5 44.5t-6.5 46q-5 34 -6.5 66.5t-1.5 66.5q0 16 0.5 31t0.5 32v16q0 9 -0.5 27.5t-1.5 40.5q-1 21 -1.5 42.5t-0.5 39.5v20q6 -1 9.5 -0.5t14.5 0.5h27q4 -12 4.5 -23.5t0.5 -24.5q0 -11 -0.5 -23t-1.5 -23q0 -5 -0.5 -9.5t-0.5 -9.5
q0 -14 1 -45.5t3.5 -67t5 -67.5t4.5 -48l2 -21q2 -18 5 -36.5t13 -35.5q8 -17 25.5 -32.5t37.5 -15.5q34 0 52.5 22t26 52.5t8.5 62.5t1 52q0 15 -0.5 40.5t-1.5 56t-2.5 63t-3 60t-3 47t-2.5 25.5q0 4 4.5 5t10.5 1t12.5 -0.5t10.5 -0.5h14.5t13.5 -1q5 -25 6.5 -50.5
t1.5 -50.5v-28.5t-2 -29.5q1 -9 1.5 -34.5t0.5 -59t-1 -71t-2 -70t-1.5 -56t-0.5 -29.5q0 -15 -0.5 -33t-1.5 -33q-2 -28 -9.5 -56.5t-18.5 -57.5z" />
    <glyph glyph-name="z" unicode="z" horiz-adv-x="394" 
d="M162 49q11 -3 30.5 -3t42.5 1q14 1 27 1.5t27 0.5q23 0 39 -2t14 -9q1 -8 1.5 -21t-1.5 -21h-50h-56.5h-63t-58.5 -0.5t-42 -0.5q-9 0 -9 7q0 15 6 35t14.5 41t17.5 40.5t14 34.5q13 35 28 76t29 81.5t26 79t19.5 69t8 49.5t-7.5 22h1q-6 2 -23 2.5t-36.5 0t-37.5 -2
t-26 -3.5h1q-8 -2 -18 -2t-10 7v15q0 10 -0.5 17.5t1.5 15.5q32 4 80 5t93 1h51.5t36.5 1q-2 -12 -10.5 -38.5t-21.5 -61.5t-28.5 -76t-31.5 -83q-17 -44 -34 -89t-31 -83.5t-23 -67t-9 -39.5h20z" />
    <glyph glyph-name="braceleft" unicode="{" horiz-adv-x="357" 
d="M258 818q6 1 13.5 2t8.5 4q2 -5 3 -15.5t1 -23.5v-17q-9 0 -17 -1q-7 -1 -14 -2.5t-12 -3.5q-19 -11 -25.5 -31t-6.5 -43q0 -12 1 -24t3 -22q0 -2 0.5 -3.5t0.5 -3.5q4 -42 -6.5 -83.5t-35.5 -74.5q-2 -1 -3 -2q-2 -1 -2.5 -2t-2.5 -3q-11 -11 -20.5 -22.5t-6.5 -22.5
l-1 1q2 -9 5.5 -14.5t8.5 -11.5q2 -2 4.5 -4t3.5 -4q6 -3 14.5 -14.5t16.5 -25t14.5 -25t7.5 -14.5q9 -21 12 -44t5 -48q1 -5 1 -17.5v-25.5v-26t2 -18q8 -20 18 -35t35 -20l-3 1q3 -1 6 -1h9q3 0 3 1q1 -8 0.5 -21.5t-2.5 -19.5q-1 0 0.5 0t-2.5 -1q-3 0 -11.5 -1t-16 -1.5
t-11.5 -1t2 -0.5q-17 0 -36 7t-30 27q-14 26 -20 51t-8 56q-1 10 -1 21v22q1 27 -0.5 54t-15.5 50q-10 16 -23 26.5t-27 19.5h1q-13 11 -23.5 30.5t-9.5 36.5q1 11 6 23.5t13 20.5q5 8 10.5 13t12.5 10v-1q14 12 26 28t18 36q6 17 7 39t0 40q0 5 -0.5 8.5t-0.5 8.5
q-1 11 -1 20.5v20.5q0 19 3 37.5t11 34.5v-1q7 13 21 24t28 16q7 3 15.5 4t16.5 2h7v0z" />
    <glyph glyph-name="bar" unicode="|" horiz-adv-x="208" 
d="M137 12q0 -13 -3 -29q-11 -6 -27 -7.5t-31 -2.5h-3q-5 5 -6 13.5t-1 19.5q0 8 0.5 15.5t1.5 15.5q0 3 0.5 6t0.5 6q5 51 6.5 104.5t2.5 106.5v88q0 46 -0.5 101.5t-2 111t-3 107t-3.5 90.5v12v16.5t0.5 16.5t0.5 12q0 2 -0.5 7t-0.5 9q-1 10 -2 21t0 12q10 4 23.5 4.5
t24.5 0.5h8q7 0 14.5 -0.5t9.5 -2.5l-3 -49q-2 -12 -3 -24.5t-1 -24.5v-203q0 -25 -1 -48.5t-3 -46.5q-2 -27 -3 -55t-1 -55q0 -22 0.5 -44.5t1.5 -44.5t2 -43t1 -43v-17t-1 -17q-1 -13 -1.5 -25.5t-0.5 -24.5q0 -9 0.5 -17.5t0.5 -16.5q0 -5 0.5 -9.5t0.5 -9.5
q0 -9 0.5 -18t0.5 -18z" />
    <glyph glyph-name="braceright" unicode="}" horiz-adv-x="352" 
d="M95 27q-3 0 -7 -2q-3 13 -3 31q0 8 0.5 14.5t1.5 13.5q20 3 40 14t30 34q4 23 4 48v51q-1 43 2.5 84t25.5 74q1 2 13 14q8 9 15.5 17.5t9.5 17.5t-2 18.5t-18 20.5q-25 19 -35 45t-14 58q-3 25 -3 49q-1 21 -2 41.5t-6 38.5q-7 25 -22 34.5t-34 14.5v-1q-4 2 -8 2.5
t-15 4.5h1q-7 3 -5 14.5t4 19.5q2 6 6.5 7t12.5 0h8q23 -1 47.5 -10t37.5 -31q14 -24 18 -50t6 -53q3 -34 9 -66t30 -64l16 -18q13 -16 25 -34t10 -37q-2 -18 -13 -34.5t-22 -30.5q-8 -9 -16 -19t-15 -21q-11 -20 -14.5 -40.5t-3.5 -42.5q0 -13 0.5 -27t2.5 -25q1 -14 2 -26
t1 -25q0 -20 -4 -39t-17 -36t-30 -27.5t-36 -16.5v1q-10 -2 -18.5 -4t-15.5 -2z" />
    <glyph glyph-name="asciitilde" unicode="~" horiz-adv-x="525" 
d="M432 346q-16 -17 -37 -23.5t-44 -6.5q-31 0 -64.5 12t-56.5 27q-33 21 -61 21q-35 0 -72 -31l-4 -4t0 -4q-8 8 -19 20.5t-11 18.5q5 7 16.5 16t22.5 15h-1q41 23 76 29t72 -19l4 -3q18 -13 44 -27.5t53 -14.5q17 0 32 8t26 27q4 9 20 9q11 0 21.5 -3.5t15.5 -8.5
q5 -4 4 -10.5t-6 -13t-11.5 -13l-11.5 -11.5l-8 -10v0z" />
    <glyph glyph-name="exclamdown" unicode="&#xa1;" horiz-adv-x="207" 
d="M99 471q-10 -3 -17 0t-10.5 9t-5 13.5t0.5 12.5v-1q3 10 14 15t22 7q5 0 12.5 -8.5t7.5 -19.5q0 -16 -24 -28zM73 278q0 5 -0.5 10t-0.5 10q-1 16 -1 31t5 23t21.5 9t24.5 1h5q5 0 7 -2q0 -8 -1 -20.5t-2 -21.5q-2 -8 -2.5 -18.5t-0.5 -18.5q0 -13 1 -41t2 -64.5t2.5 -79
t3.5 -84.5q1 -39 2.5 -75.5t3 -65.5t2 -48.5t0.5 -25.5v-7q-1 -15 -2.5 -32.5t-6.5 -28.5q-9 -3 -20.5 -1.5t-20.5 3.5q-3 21 -5.5 66.5t-5 101.5t-4.5 117t-3.5 114.5t-2.5 93.5t-1 54z" />
    <glyph glyph-name="cent" unicode="&#xa2;" horiz-adv-x="416" 
d="M360 550q-11 -8 -20 -12t-26 -6v-1q-18 27 -33 33.5t-26 6.5q-9 -72 -11.5 -136t-1.5 -120t5 -106t8 -95q12 4 23.5 19t19.5 25q14 -5 29 -10.5t29 -8.5v-3q0 -17 -11.5 -32.5t-27.5 -28t-34.5 -22t-31.5 -13.5q-2 -14 -3.5 -30t-5.5 -30q-16 1 -32.5 0.5t-32.5 -2.5
q-2 16 -1.5 32t0.5 33q-10 9 -20 15.5t-19.5 13t-19 14t-17.5 18.5t-14.5 20t-9.5 22v-1q-5 13 -7 35t-3.5 46t-1.5 47.5v38.5q0 21 0.5 52.5t3 65.5t7 64.5t12.5 49.5l-1 -1q12 19 22 34t22 25.5t28.5 17t40.5 8.5q4 15 4 30v30q0 12 0.5 24.5t3.5 23.5l50 7
q5 -25 2.5 -54.5t-2.5 -55.5q34 -9 64 -27.5t39 -55.5zM144 539q-7 -13 -11 -36.5t-6 -50.5t-2.5 -53t-0.5 -42q0 -11 -0.5 -32.5t1 -47t4.5 -53t9.5 -49t18 -35t28.5 -12.5q6 51 5.5 112t-0.5 112q0 40 3.5 79t3.5 78q0 13 -1 29.5t-3 29.5q-14 0 -22.5 -6.5t-19.5 -15.5z
" />
    <glyph glyph-name="sterling" unicode="&#xa3;" horiz-adv-x="539" 
d="M88 4q-2 13 0.5 32t2.5 30q22 17 34 34.5t17 37.5q4 9 5 29t0.5 40.5t-1.5 37.5t-1 22q0 1 -0.5 1.5t-0.5 2.5q0 5 -1.5 11.5t-9.5 17.5q-41 0 -52.5 -0.5t-15.5 -0.5v1q-2 5 -2 7.5v5.5q-1 9 -1 18v18q0 10 10 10q12 0 34 0.5t34 1.5q-1 49 -2 98.5t-1.5 87t-1 55.5
t-0.5 5q-1 6 -1 11v10q1 40 10.5 77.5t38.5 63.5q17 17 40 31q21 11 49.5 13t51.5 -1q12 -2 23.5 -4.5t22.5 -6.5q22 -11 37 -26q4 -5 1 -8q-10 -11 -20 -20t-21 -19q-6 -6 -13 -3l-18 9q-17 10 -37.5 13.5t-37.5 -10.5l1 1q-15 -9 -24.5 -22.5t-14.5 -30.5v1
q-8 -22 -12 -43t-4 -42q-2 -66 -2.5 -104t-0.5 -58t0.5 -28t0.5 -12v-9q0 -2 0.5 -10t0.5 -10l102 -12h18q5 0 5 -5q1 -6 1 -15t-1 -14l-5 -30q0 -2 -6 -2q-1 0 -2.5 0.5t-2.5 0.5q-22 -1 -39.5 0t-31.5 3q-16 2 -29 4l-4 -37q-3 -32 -2 -67.5t-9 -68.5q-1 -5 -4 -12.5
t-6 -15.5t-5.5 -15.5t-2.5 -11.5q41 2 69 1t60 -1q19 -1 36 3.5t34 9.5q21 8 29 23t15 38l1 1v-1q5 0 16.5 -1t23 -3.5t20 -5t8.5 -4.5q-4 -27 -21 -51.5t-41 -43t-51 -29t-52 -8.5z" />
    <glyph glyph-name="currency" unicode="&#xa4;" horiz-adv-x="455" 
d="M89 31v-1l9 14q8 9 14.5 20.5t8.5 19.5q-17 66 -19 133t15 129q3 13 6 25.5t5 20.5q3 15 0.5 23.5t-10.5 23.5l-10 19q-4 6 -9 14t-9 14t-7.5 9.5t-4.5 2.5q4 7 11.5 13.5t15.5 11.5l10 7q6 -6 11 -14t12 -18q5 -8 9.5 -15.5t14.5 -17.5q17 6 29 10.5t26.5 5t33.5 -4.5
t51 -19q19 32 33 49t20 28q6 0 14.5 -3.5t15.5 -7.5q12 -4 7 -17t-15.5 -29t-21 -31.5t-8.5 -24.5l16 -30q20 -63 20.5 -138t-22.5 -143v1q-4 -8 -6 -18.5t-1 -19.5q2 -14 9 -26.5t15 -23.5q4 -6 7.5 -11t9.5 -13q0 -1 0.5 -1.5t0.5 -1.5q5 -8 -7.5 -13t-39.5 -11l-5 9
q-6 9 -12 18.5t-17 21.5q-23 -13 -45 -17t-41.5 -1t-35.5 11.5t-27 19.5q-20 -26 -31.5 -44.5t-21.5 -32.5l-2 2l-52 37zM194 385q-21 -23 -25.5 -51t-3.5 -53q1 -29 0.5 -54.5t4.5 -52.5q5 -20 15.5 -46t27.5 -41q12 -9 24 -10.5t22.5 3.5t19 14t14.5 21q12 26 17.5 58.5
t6.5 65.5t-3.5 64.5t-12.5 56.5q-6 15 -16.5 26t-23 16.5t-27.5 4t-30 -12.5h1z" />
    <glyph glyph-name="yen" unicode="&#xa5;" horiz-adv-x="471" 
d="M254 213q1 -15 1.5 -48t1 -68.5t2 -65.5t4.5 -39q-2 -1 -4 -1h-6q-23 -2 -30.5 -2.5t-11.5 -0.5q-2 5 -1.5 11t1.5 13q-1 21 -1.5 51.5t-2 60.5t-3 53t-4.5 29l-11 5h-24.5t-29 -0.5t-26.5 -1t-17 0.5q-3 11 -3.5 21.5t-1.5 26.5q27 2 53 4.5t50 1.5q4 10 2 23.5t0 38.5
h-45h-29.5t-18.5 -0.5t-12 -1.5q-2 8 -2.5 16.5t-0.5 18.5v12h2q2 0 4 -0.5t4 -0.5q21 -2 40 1.5t39 3.5q-26 101 -44 168t-30.5 113.5t-22.5 78.5t-21 63q5 7 11.5 10t14.5 4.5t18.5 2.5t23.5 5q36 -129 57.5 -206.5t32.5 -118.5q13 -48 18 -67l104 312q1 9 4.5 20
t7.5 22.5t8.5 21t9.5 14.5q11 -6 24.5 -7t26.5 -2l-145 -434q11 3 30 3.5t37.5 -0.5t32 -3.5t13.5 -4.5q1 -5 1 -12.5v-15v-13.5t-1 -7q-32 -1 -67 2t-61 1q-5 -5 -5 -11.5t1 -14.5l2 -16t0 -15q6 -4 24 -5t39 -1.5t39.5 -0.5t24.5 -3v-40q-1 0 -1 -0.5t-1 -0.5q-29 0 -58 2
t-67 -6z" />
    <glyph glyph-name="brokenbar" unicode="&#xa6;" horiz-adv-x="206" 
d="M79 234q0 1 1 1l4 1q14 1 28 1h28q4 -48 4 -72v-43v-40q0 -18 -1 -36t-1 -35v-91q0 -1 -0.5 -1t-0.5 -1v-1l-51 -6q-1 0 -3 0.5t-3 0.5t-1 1v-2q0 -5 -1 -1.5t1 3.5q-1 7 -1 13.5v13.5zM136 460q0 -18 0.5 -36t0.5 -36v-36.5t1 -37.5v-20h-2l-25 -4h-26q-3 0 -3 2v19
q-2 61 -4 104t-3.5 72.5t-2.5 48t-1.5 31.5t-0.5 22.5v21.5h4h15t14 1q14 0 26 3v-13.5t1 -12.5v1q2 -27 3 -54.5t2 -55.5q1 -5 1 -10v-10zM70 611l-1 -1z" />
    <glyph glyph-name="section" unicode="&#xa7;" horiz-adv-x="560" 
d="M533 196q0 -20 -4 -39q-5 -24 -10 -47t-22 -44h1q-15 -17 -41.5 -33.5t-51.5 -23.5h1q-15 -3 -31 -5t-30 -2h-2q14 -25 22.5 -51t8.5 -52q0 -31 -14 -58q-12 -21 -29 -39t-37 -32t-43 -22.5t-45 -9.5q-26 -2 -50.5 5t-45.5 20.5t-38.5 32t-29.5 39.5q-5 6 -11.5 16
t-12 20.5t-8 19.5t1.5 15q2 4 11 6.5t20 3.5t21.5 1h16.5q3 0 6 -10l6 -20q11 -35 39 -54.5t64 -19.5q15 1 30.5 5.5t29.5 12.5t23.5 20.5t12.5 29.5q5 35 -8 70t-36 69t-53 66.5t-59 63.5t-53.5 61t-35.5 58q-9 23 -13.5 55t-4.5 57q0 26 7 50.5t23 47.5l-1 -1
q12 19 35.5 33t44.5 22h-1q10 3 22 5t24 2q1 0 2 -0.5t2 -0.5q-8 20 -12.5 45t-4.5 48t7 50.5t16 45.5q13 20 32.5 36t42 27.5t47.5 16.5t49 4q18 -2 34.5 -6t30.5 -12h-1q12 -8 29 -22t24 -28l10 -18h-1q5 -10 10.5 -21.5t9.5 -22.5t6 -19t0 -11v1q-5 -5 -22.5 -9.5
t-34.5 -4.5h-15q-4 4 -5 8.5t-1 9.5q-1 6 -2 11.5t-4 11.5q-13 28 -32 44q-14 10 -35 18t-38 8q-20 -1 -36.5 -11t-27.5 -23q-21 -25 -30.5 -58t-3.5 -65q5 -25 19.5 -43.5t31.5 -34.5l-1 3l10 -13q0 -2 2 -2q12 -11 23 -23q13 -12 26.5 -23.5t27.5 -22.5q20 -17 39.5 -34
t36.5 -35q28 -28 52 -62t33 -72q4 -17 4 -35zM390 73q38 14 55 42.5t17 61.5q0 21 -6.5 42.5t-17.5 41.5q-22 37 -49 67.5t-57 59.5q-8 5 -17.5 13.5t-20.5 21.5l-5 4l-17 15q-6 4 -11.5 8t-10.5 9q-8 6 -15 10.5t-12 7.5h1q-18 12 -38 7t-37 -13t-28.5 -22t-18.5 -31
t-9.5 -35.5t0.5 -36.5q6 -30 19.5 -56.5t31.5 -51t38.5 -46.5t41.5 -43v1l17 -20q11 -11 22.5 -22t24.5 -20.5t29 -15.5t37 -6q8 0 18 1.5t19 5.5h-1z" />
    <glyph glyph-name="dieresis" unicode="&#xa8;" horiz-adv-x="273" 
d="M209 722q-13 -8 -30.5 -5.5t-25.5 16.5t-1 26.5t19.5 18t26.5 1.5t22 -22q5 -12 1.5 -21t-12.5 -14zM78 782q17 7 34 -9q6 -6 6.5 -14.5t-3 -16.5t-9 -15t-10.5 -11q-24 -6 -34.5 1.5t-11 20.5t7.5 26t20 18z" />
    <glyph glyph-name="copyright" unicode="&#xa9;" horiz-adv-x="675" 
d="M378 938q21 0 45.5 -6.5t43.5 -15.5l-1 1q27 -14 54.5 -38.5t39.5 -50.5q24 -51 39 -102.5t20 -107.5q2 -23 1.5 -45t3.5 -44v1q2 -11 2.5 -23t0.5 -23q0 -41 -5 -90.5t-18.5 -97.5t-37.5 -89.5t-61 -65.5q-80 -49 -161 -49q-5 0 -9.5 0.5t-9.5 1.5l-18 3h1
q-42 6 -77.5 20.5t-65.5 44.5v-1q-39 43 -59.5 84t-30.5 83.5t-11.5 89t-1.5 101.5q0 23 3 62t8.5 80t13.5 78t19 56v-1l19 26v-1q13 13 24.5 26t25.5 24q45 32 98.5 50.5t104.5 18.5zM529 749q-29 54 -70.5 87t-105.5 33q-29 0 -60 -7t-55 -26q-14 -9 -28 -20t-26 -25
q-21 -23 -32.5 -56t-18 -69.5t-9 -72.5t-4.5 -66v1q-1 -7 -1.5 -13.5t-0.5 -13.5v-25t0.5 -37t1 -35.5t2.5 -20.5q2 -11 5.5 -22t7.5 -22q14 -39 30 -69.5t38 -53.5t50 -38.5t66 -24.5l-1 1q12 -5 23 -5q17 0 33.5 6t31.5 13q54 25 84.5 58.5t45.5 75t19 89t4 100.5
q0 25 -0.5 60.5t-3.5 72.5t-9.5 70.5t-17.5 55.5zM426 699l-10 11l2 -2q-23 29 -59 29q-25 0 -42.5 -15t-29.5 -38.5t-19.5 -53t-11 -59t-4.5 -56t-1 -43.5q0 -21 5.5 -47.5t17.5 -50t30.5 -40t44.5 -16.5q13 0 20 2.5t12 6t10 9t14 11.5q4 -3 12 -9.5t16 -14t15 -14.5
t9 -11q-13 -16 -28.5 -28t-34.5 -20h1q-14 -5 -28.5 -7t-28.5 -2q-11 0 -19.5 2.5t-15.5 6t-14 7.5t-16 7l1 -1q-13 7 -26 26t-20 32q-12 26 -19.5 47.5t-11 41t-4.5 39t-1 40.5q0 36 0.5 75t7.5 76.5t24 70.5t50 56q34 25 77 25q37 0 66.5 -17t49.5 -47zM467 728l1 1v-2z
" />
    <glyph glyph-name="ordfeminine" unicode="&#xaa;" horiz-adv-x="273" 
d="M193 518q-14 -7 -20 -11.5t-10 -7t-9 -3t-16 -0.5q-13 -1 -23 6.5t-18 15.5q-20 24 -28 51.5t-6 56.5q2 27 14 50t37 36q15 8 26 9.5t20.5 0t18 -5.5t17.5 -7q4 6 3 18t-1 19q0 15 -7 28.5t-22 19.5q-21 8 -29 -3t-12 -25q-2 -9 -5 -14q-7 -1 -14.5 -0.5t-12.5 2.5
q-3 16 3.5 31.5t19.5 27t29 17t32 2.5q16 -5 27.5 -20t15.5 -33q2 -14 5 -30t3 -30q-2 -71 -2.5 -114.5t-0.5 -68t-1.5 -33t-4.5 -8.5q-2 0 -14 -0.5t-13 0.5zM100 607q0 -17 3.5 -32.5t10.5 -26.5t17.5 -15.5t24.5 0.5q23 11 31.5 34t8.5 46q0 9 -0.5 21t-4 23.5t-10.5 21
t-19 14.5q-20 0 -32 -7t-19 -19t-9 -27.5t-2 -32.5z" />
    <glyph glyph-name="guillemotleft" unicode="&#xab;" horiz-adv-x="440" 
d="M347 556l34 -29q4 -3 -3 -17t-19.5 -34t-27.5 -42t-28 -40.5t-21 -31.5t-5 -13q24 -37 40.5 -62.5t28 -43.5t18.5 -30t13 -21q2 -2 -1 -2l-24 -10h1q-5 -2 -9.5 -3.5t-10.5 -4.5v2q-6 4 -10 10l-114 181q-1 1 -1 2v1zM242 189q-13 -17 -31 -28l-2.5 2.5t-3.5 5.5l-1 2
l1 -3l-141 193q39 56 64.5 95.5t45.5 74.5l15 23h1h2l32 -24q-41 -62 -63 -96t-31 -53t-6.5 -29t11.5 -23z" />
    <glyph glyph-name="logicalnot" unicode="&#xac;" horiz-adv-x="625" 
d="M62 374q-1 14 -1 25.5v22.5q0 2 1 3q5 0 12 0.5t24 0.5h47.5h83.5h132h192q5 0 11 -0.5t11 -1.5q0 -7 -0.5 -16.5t-0.5 -15.5q0 -4 -0.5 -10t-0.5 -20.5v-40.5v-68q0 -6 -0.5 -12t-0.5 -11q0 -1 -1 -1l1 1q-3 -1 -12 -1.5t-18 -0.5t-16.5 1t-8.5 3v-3l-0.5 6.5t-0.5 23
v44.5v72q0 2 -10 1.5t-27 -0.5q-57 0 -117.5 -1t-141.5 -3h-45h-43t-34.5 0.5t-19.5 0.5h-7.5t-8.5 1l-3 1q2 0 3 -1zM574 232l-2 -2z" />
    <glyph glyph-name="uni00AD" unicode="&#xad;" horiz-adv-x="431" 
d="M55 380q4 0 14.5 -0.5t22.5 -1.5t22.5 -1.5t15.5 -0.5q85 -2 133 -2.5t72 -1.5t31 -1h11q-1 -18 -0.5 -34.5t0.5 -32.5q0 -2 -12.5 -2t-30.5 1t-39 2.5t-39 2.5l-70 4q-9 0 -28.5 1t-40.5 1.5t-39 1t-24 0.5l1 64v0z" />
    <glyph glyph-name="registered" unicode="&#xae;" horiz-adv-x="585" 
d="M203 88q-17 6 -32 14t-29 20q-23 19 -37.5 42.5t-23 50.5t-12.5 55.5t-4 57.5q-1 38 -1.5 76t-0.5 76v38q0 10 -0.5 20t-0.5 19q0 21 2 42t7 44l4 17q4 20 9.5 38t19.5 35q27 31 62 45.5t73 25.5q30 8 64 8q26 0 51 -4t48 -12q45 -14 71.5 -46.5t37.5 -77.5v1
q5 -21 6 -44.5t3 -43.5q1 -13 1.5 -26t2.5 -27v1q5 -48 7.5 -94.5t2.5 -94.5v-31t-1 -31q0 -5 -0.5 -10.5t-0.5 -10.5q-1 -25 -3 -49.5t-13 -44.5q-14 -25 -27 -42.5t-36 -28.5q-21 -9 -50 -11.5t-55 -4.5q-10 0 -18 -0.5t-15 -1.5q-3 0 -17.5 0.5t-32 1.5t-35 3t-27.5 5z
M471 559q-2 35 -8 68t-18 57q-10 20 -25.5 40t-35.5 29l1 -1q-15 8 -30 10t-31 2q-20 0 -39 -2.5t-36 -5.5q-30 -6 -59.5 -21t-46.5 -45v1q-14 -22 -18.5 -51t-7.5 -63q0 -2 -0.5 -3t-0.5 -3q-1 -12 -1.5 -24t-0.5 -24q0 -20 1 -40.5t2 -40.5q1 -15 1.5 -29t0.5 -27
q1 -16 1.5 -30.5t0.5 -31.5q0 -14 0.5 -30t2.5 -30l3 -22v1q2 -11 2.5 -20t2.5 -16q8 -29 25.5 -48.5t47.5 -24.5h-1q18 -3 39 -3q13 0 26 1t27 2q6 1 12.5 1.5t12.5 0.5q4 0 8 0.5t9 0.5q20 1 45 3t47 11t38 27t19 50v-1q2 13 2 27.5v29.5q0 39 -3 80t-6 83q-2 29 -5 57.5
t-4 54.5zM265 223v12t2 18q2 25 2 58.5t5 57.5q19 4 32 1.5t21.5 -9t14 -16t8.5 -19.5q2 -8 4 -22t3.5 -30t2.5 -30t1 -20q5 -4 13 -3t17 3q8 1 10.5 2.5t9.5 0.5q2 8 3 15t0 15q0 4 -0.5 9t-0.5 11q-1 14 -2 30.5t-4.5 32t-9.5 28t-17 18.5q7 10 11 21.5t7 28t4 38.5t2 54
q2 32 -13 65t-41 53q-20 13 -45.5 16.5t-49.5 -0.5q-5 0 -11.5 -1t-10.5 -2q-8 -3 -10 -11t-3 -22q-2 -26 -2 -49.5t-1 -47.5q0 -6 -0.5 -15.5t-0.5 -15.5v-45q0 -29 1 -63.5t2 -68t2 -61t2 -42.5zM275 615q20 0 34 -9.5t23 -25t13 -34.5t4 -37q0 -25 -6 -45t-20 -28
q-8 -5 -19 -7.5t-31 -2.5q0 16 0.5 38.5t1.5 36.5q1 23 2 47.5t-1 44.5z" />
    <glyph glyph-name="macron" unicode="&#xaf;" horiz-adv-x="411" 
d="M383 849q0 -3 1.5 -12.5t2.5 -20t0.5 -18.5t-3.5 -8q-91 2 -152 1t-100 -1.5t-60 -0.5t-31 3q-3 1 0 19t3 44z" />
    <glyph glyph-name="degree" unicode="&#xb0;" horiz-adv-x="312" 
d="M105 652q-6 5 -11.5 9.5t-8.5 9.5q-7 9 -12 19.5t-7 21.5q-1 16 1.5 33.5t10.5 31.5q12 20 34.5 30t45.5 11q13 1 30.5 -7t26.5 -16q12 -8 25 -29.5t13 -43.5q-1 -9 -4.5 -22t-7.5 -19q-7 -11 -18.5 -21t-25.5 -16.5t-29 -8.5t-29 1q-8 2 -17 6.5t-17 9.5zM156 765
q-11 -1 -21.5 -6t-16.5 -12.5t-7.5 -17t5.5 -19.5h-1q8 -11 20 -14.5t20 -3.5q6 0 15.5 2.5t18 8t14 13.5t2.5 19l1 -1q-4 18 -18.5 25.5t-31.5 5.5z" />
    <glyph glyph-name="plusminus" unicode="&#xb1;" horiz-adv-x="432" 
d="M114 334h-24.5t-23.5 -1q-2 13 -2.5 26t0.5 27q0 7 16 8.5t29 1.5h11q11 0 24 0.5t24 1.5l24 2l-4 34q-2 14 -3 30.5t-1 30.5v20t1 9v-1q9 5 16 7t12 2q9 0 14.5 -2.5t8.5 -4.5q1 -23 2 -43q1 -17 1.5 -33.5t-0.5 -22.5l-1 -26q0 -3 20 -1t49 2q17 0 33 0.5t29 0.5h4
q3 -14 3 -36v-18t1 -7q-26 -5 -64 -5.5t-71 0.5q5 -30 6 -46.5t1 -30.5v-20t1 -20q0 -16 -11 -16h-8.5t-10.5 -1q-5 0 -7 -0.5t-4 -1.5q-5 -1 -8.5 0t-3.5 6q0 14 -1 28.5t-1 29.5q0 16 -0.5 32.5t-2.5 39.5q-15 -2 -25.5 -2h-18.5h-34zM377 125q0 -3 1.5 -13.5t2 -22
t0.5 -20t-3 -8.5q-84 2 -141 1.5t-93 -1.5t-55 -1t-29 3q-2 1 0.5 21t2.5 47z" />
    <glyph glyph-name="uni00B2" unicode="&#xb2;" horiz-adv-x="249" 
d="M118 748q-14 -7 -22 -15.5t-12 -17.5t-5.5 -18t-1.5 -17q0 -4 -6 -4.5t-13 0t-13 3t-6 4.5q-2 10 0.5 23t7.5 23q5 9 12.5 20.5t16.5 16.5q11 8 25.5 12.5t28.5 3.5q38 -2 61 -26q7 -8 13 -18t10 -24q3 -12 5.5 -25.5t2.5 -27.5q-1 -50 -32 -96q-7 -12 -14.5 -22.5
t-15.5 -19.5q-8 -11 -16.5 -21.5t-16.5 -23.5t-16 -29.5t-15 -38.5q19 -3 28.5 -4t15 -1t8.5 0.5t8 0.5q13 1 25.5 0t20.5 -5v-18t-1 -18v-6h-38.5t-56 1t-51.5 2t-25 3v10v15t1 15.5t2 10.5q42 66 68 106.5t41 65.5t21 38.5t8 26.5l2 16t1 22q0 13 -2 24.5t-8 19.5t-16 12
t-26 2z" />
    <glyph glyph-name="uni00B3" unicode="&#xb3;" horiz-adv-x="253" 
d="M197 793q-7 -13 -18.5 -32t-23.5 -38.5t-22 -36.5t-13 -24q32 -10 49.5 -25.5t28.5 -36.5q10 -22 13.5 -53t3.5 -54q1 -21 -3 -50t-16 -55t-32.5 -43.5t-52.5 -15.5q-14 1 -29 10t-24 20q-8 9 -13.5 24t-8.5 29q-5 28 -6 34.5t-1 8.5q-1 4 -1 6t-1 4q5 5 17 2.5t21 0.5
q3 -8 5 -24q5 -32 12.5 -47.5t21.5 -19.5q3 -1 10.5 1.5t15 6t14 7.5t8.5 6q11 16 16.5 43.5t3.5 57.5t-13 56.5t-34 41.5q-12 8 -35 10t-43 4q-7 1 -12 1h-7q-1 1 -2.5 3t-1.5 4q1 -1 8.5 7.5t18.5 19.5q17 18 36.5 42t27.5 43q-28 1 -44 3t-35 -4q-1 14 -3 29.5t-4 29.5
q6 -3 30.5 -2.5t52.5 2t52 3t29 1.5h4zM29 792q-2 -2 0 -3v3z" />
    <glyph glyph-name="acute" unicode="&#xb4;" horiz-adv-x="203" 
d="M151 783q4 -4 -1.5 -24t-14.5 -42t-17.5 -40t-10.5 -18q-16 -2 -31 0.5t-25 9.5q-1 10 3 27t10 34.5t12 32.5t10 20q14 2 31 2.5t34 -2.5z" />
    <glyph glyph-name="mu" unicode="&#xb5;" horiz-adv-x="421" 
d="M306 -18q-1 0 -2 7t-3 17q-17 -5 -25 -7.5t-12 -3.5q-42 -20 -80 -11.5t-67 34.5v-18v-22t0.5 -22t1.5 -18q1 -13 1 -24.5v-24.5v-14.5t-1 -14.5l-40.5 -3t-14.5 -1h-2q0 4 1 7q3 58 5 116t3.5 107t1.5 85.5v51.5q-1 21 -1.5 42t-0.5 41q0 10 -0.5 19t-0.5 20
q3 79 4.5 123.5t2 67t1.5 28.5t2 8q14 -4 28.5 -3.5t27.5 -7.5q-5 -42 -8 -70.5t-4.5 -48t-1.5 -32.5v-25v-33q0 1 -0.5 -16t-0.5 -44t0.5 -58.5t1 -60t2 -49t4.5 -24.5q15 -25 42.5 -38.5t56.5 -13.5q19 0 32.5 4.5t27.5 17.5q12 11 18 25.5t6 26.5v8l8 450q7 1 8.5 0
t7.5 -2t14.5 -1.5t14.5 0.5q4 -25 4.5 -50t0.5 -48q1 -21 0.5 -57.5t-2 -81.5t-3.5 -95t-3.5 -98t-2.5 -89.5t-1 -69.5z" />
    <glyph glyph-name="paragraph" unicode="&#xb6;" horiz-adv-x="589" 
d="M462 719q-12 3 -21 3.5t-16 -0.5t-12 -2t-10 0q-13 0 -15 -12.5t-2 -34.5l7 -624q1 -13 1.5 -24t-2.5 -22q-2 -1 -6.5 -1h-7.5h-13h-7.5t-7.5 -1q-8 -1 -14 -2t-8 1q-1 1 -1.5 6.5t-1 13t-0.5 16v14.5v5q0 14 -0.5 32.5t-1.5 33.5q-1 20 -1.5 40.5t-0.5 40.5q0 17 1 40.5
t2 38.5q-21 0 -48 2.5t-53.5 8t-50 13.5t-36.5 19q-19 17 -32.5 41.5t-22.5 52t-13.5 55.5t-4.5 52q0 22 0.5 47t4 49.5t9.5 48t16 42.5l-1 -3q3 4 5.5 7.5t5.5 10.5v-1q19 32 51.5 45.5t69.5 18.5l18 2q16 2 37 4.5t35 2.5q14 -1 28 -1h28q15 0 42.5 -2.5t54.5 -5.5
t47 -6.5t20 -6.5q-2 -12 -1 -30.5t1 -32.5v-26.5t1 -27.5q0 -27 -1 -69t-2.5 -83.5t-3 -75.5t-1.5 -46q-3 -56 -3 -109v-58t1 -58q2 -22 2 -43.5v-44.5v-47q-2 -13 -2.5 -21.5t-4.5 -10.5t-13 -2t-18 1t-16.5 3t-9.5 4q-2 4 -1 10.5t3 13.5v-1l1 370v15t1 16q3 46 3 95
q0 44 -2.5 100t-5.5 100z" />
    <glyph glyph-name="periodcentered" unicode="&#xb7;" horiz-adv-x="256" 
d="M201 343q-19 -11 -42 -15.5t-45 -2.5q-24 1 -44.5 18t-24.5 39q-5 16 -0.5 39.5t9.5 37.5q7 15 16 25.5t21 15.5q23 9 51 5.5t48 -19.5q14 -11 25.5 -28t15.5 -38q2 -29 -6.5 -47t-23.5 -30z" />
    <glyph glyph-name="cedilla" unicode="&#xb8;" horiz-adv-x="271" 
d="M192 -53q7 -5 14 -12.5t11.5 -16.5t4.5 -18.5t-6 -18.5q-11 -14 -29 -29t-35 -21q-18 -8 -40 -7t-47 0q-6 11 -4.5 27t-1.5 29h1v2v1l29 -4h14t12 1q10 3 17 8t12 16v-1q5 11 2 20.5t-18 17.5l-27 9q0 11 -1.5 19t-3 15t-2.5 14t-1 17q7 -2 17.5 -3.5t21.5 -2t21 0.5
t15 4v-9t-1 -7q-2 -16 4 -29.5t21 -21.5z" />
    <glyph glyph-name="uni00B9" unicode="&#xb9;" horiz-adv-x="165" 
d="M100 821q8 0 16 -1l16 -2q2 -26 2 -52v-52v-197v-26.5t-2 -25.5q-1 -18 -1 -34.5v-33.5q-4 -2 -10 -4t-12 -3.5l-10 -2.5t-4 0v52v59t0.5 69t0.5 69.5v61.5q0 16 -1 32t-3.5 27.5t-5.5 16.5t-7 0q-7 -8 -14 -14.5t-14 -8.5t-13.5 1.5t-13.5 16.5q2 1 15.5 13.5t23.5 22.5
q6 6 10 9.5t7.5 5t7.5 1.5h12z" />
    <glyph glyph-name="ordmasculine" unicode="&#xba;" horiz-adv-x="312" 
d="M105 652q-6 5 -11.5 9.5t-8.5 9.5q-7 9 -12 19.5t-7 21.5q-1 16 1.5 33.5t10.5 31.5q12 20 34.5 30t45.5 11q13 1 30.5 -7t26.5 -16q12 -8 25 -29.5t13 -43.5q-1 -9 -4.5 -22t-7.5 -19q-7 -11 -18.5 -21t-25.5 -16.5t-29 -8.5t-29 1q-8 2 -17 6.5t-17 9.5zM156 765
q-11 -1 -21.5 -6t-16.5 -12.5t-7.5 -17t5.5 -19.5h-1q8 -11 20 -14.5t20 -3.5q6 0 15.5 2.5t18 8t14 13.5t2.5 19l1 -1q-4 18 -18.5 25.5t-31.5 5.5z" />
    <glyph glyph-name="guillemotright" unicode="&#xbb;" horiz-adv-x="442" 
d="M246 380q-44 -82 -68.5 -127.5t-37 -67.5t-16.5 -26.5t-5 -3.5q-11 5 -21.5 10t-21.5 11v-1q-12 7 -10 10l49 79l48 77h-1l20 34q-11 19 -21.5 32t-23 27t-28.5 31.5t-37 45.5q1 1 7.5 9.5t14 17.5t14 15.5t8.5 4.5q45 -59 70 -93t37.5 -52t16.5 -24zM322 376
q-43 69 -72 110t-29 53l38 32l120 -168q8 -12 8 -23q0 -2 -8.5 -18t-21 -38.5t-27 -48.5t-27.5 -48.5t-22.5 -38t-10.5 -17.5q-2 0 -8.5 4t-13.5 9.5t-12.5 10.5l-5.5 5l40 68l14 24.5t11 21t10.5 22t13.5 28.5q0 1 0.5 3t2.5 9z" />
    <glyph glyph-name="onequarter" unicode="&#xbc;" horiz-adv-x="532" 
d="M322 639q0 1 1 3q1 1 1 2t1 2q4 10 12 31t17 43t17 40.5t12 23.5q5 -2 8.5 -2h7.5h4.5t7.5 -2h-1l13 -4q4 -2 8.5 -3.5t9.5 -2.5q0 -5 -2 -11.5t-4 -13.5q-5 -10 -5 -14h1q-2 -6 -14 -37.5t-32 -80t-45 -109.5t-52 -125t-53.5 -127.5t-49.5 -117t-40 -92.5t-24 -55
q-5 -1 -4 -0.5t-3 0.5q-14 -2 -24.5 -2.5t-26.5 -0.5q3 12 17.5 49.5t35 90.5t45.5 115.5t50.5 124.5t48 118.5t38.5 95.5q11 29 18 46t6 15zM408 116q-5 10 -31.5 14t-58.5 4h-40q7 15 18 40.5t24.5 56.5t28 63.5t28 61.5t24.5 52t18 33q1 0 6 1t10.5 2t10.5 2t7 1
q0 -2 0.5 -19t1 -42t1 -55t1 -58.5t0.5 -52v-36.5q6 -3 14.5 -2t15.5 2.5t11 2.5t3 -2q-3 -5 -3 -14t1 -18t1.5 -15.5t-1.5 -7.5q-8 -3 -17.5 -3t-23.5 -2q-1 -9 0 -30t3.5 -43.5t4.5 -39.5t3 -18q-8 0 -19 -2.5t-20.5 -4.5t-16.5 -1.5t-7 6.5zM150 833q2 -26 1.5 -59.5
t-0.5 -59.5v-197v-26.5t-2 -25.5q-1 -18 -1 -34.5v-33.5q-4 -2 -10 -4t-12 -3.5l-10 -2.5t-4 0v52v59t0.5 69t0.5 69.5v61.5v32v28.5t-0.5 20t-1.5 6.5q-3 -2 -10 -6t-15 -9t-15 -10t-8 -8q-6 7 -11.5 10.5t-10.5 6.5q6 4 15 11.5t18.5 16t17.5 17t11 15.5q17 -1 26.5 2.5
t20.5 1.5zM64 750l-1 2q-2 -2 1 -2z" />
    <glyph glyph-name="onehalf" unicode="&#xbd;" horiz-adv-x="551" 
d="M322 639q0 1 1 3q1 1 1 2t1 2q4 10 12 31t17 43t17 40.5t12 23.5q5 -2 8.5 -2h7.5h4.5t7.5 -2h-1l13 -4q4 -2 8.5 -3.5t9.5 -2.5q0 -5 -2 -11.5t-4 -13.5q-5 -10 -5 -14h1q-2 -6 -14 -37.5t-32 -80t-45 -109.5t-52 -125t-53.5 -127.5t-49.5 -117t-40 -92.5t-24 -55
q-5 -1 -4 -0.5t-3 0.5q-14 -2 -24.5 -2.5t-26.5 -0.5q3 12 17.5 49.5t35 90.5t45.5 115.5t50.5 124.5t48 118t38.5 96q11 29 18 46t6 15zM417 386q-15 -7 -21.5 -15t-8.5 -16.5t-1.5 -17t0.5 -16.5q0 -4 -7.5 -5t-16.5 -1t-16.5 2t-7.5 4q-2 10 0.5 23.5t7.5 22.5
q4 10 12 21t16 16q12 8 26 12.5t28 3.5q18 -1 34 -7.5t27 -18.5q16 -16 23 -42q4 -12 6.5 -25.5t2.5 -27.5q-1 -49 -33 -96q-13 -21 -26.5 -39t-26 -36.5t-23 -38t-17.5 -41.5q19 -3 28.5 -4t15 -1t8 0.5t7.5 0.5q14 1 26.5 0t20.5 -4v-19t-1 -18v-6h-38.5t-56 1t-51.5 2
t-26 3v10v15t1 15.5t2 10.5q31 54 51.5 86.5t33.5 52t20.5 30t12.5 19.5t8.5 21t10.5 34q3 12 2 28.5t-6.5 31t-16 23.5t-26.5 7zM151 835q1 1 1 -12t-0.5 -32t-1 -40t-0.5 -37q0 -89 -0.5 -144t-1 -88.5t-0.5 -51.5v-33q-4 -2 -10 -4t-12 -3.5l-10 -2.5t-4 0v52v59t0.5 69
t0.5 69.5v61.5q0 16 -1 32.5t-2 29.5t-2 21t-2 8q-2 0 -8.5 -4.5t-13.5 -11t-13.5 -12.5t-7.5 -9q-6 7 -12.5 14t-11.5 10q12 9 29 24t28 29q3 1 10.5 1h16.5t17 1t11 4z" />
    <glyph glyph-name="threequarters" unicode="&#xbe;" horiz-adv-x="562" 
d="M364 639q0 1 1 3q1 1 1 2t1 2q4 10 12 31t17 43t17 40.5t12 23.5q5 -2 8.5 -2h7.5h4.5t7.5 -2h-1l13 -4q4 -2 8.5 -3.5t9.5 -2.5q0 -5 -2 -11.5t-4 -13.5q-5 -10 -5 -14h1q-2 -6 -14 -37.5t-32 -80t-45 -109.5t-52 -125t-53.5 -127.5t-49.5 -117t-40 -92.5t-24 -55
q-5 -1 -4 -0.5t-3 0.5q-14 -2 -24.5 -2.5t-26.5 -0.5q3 12 17.5 49.5t35 90.5t45.5 115.5t50.5 124.5t48 118.5t38.5 95.5q11 29 18 46t6 15zM419 9v9v10t1 12q0 6 0.5 18t1 25t1 24.5t0.5 17.5q-31 0 -66.5 2t-67.5 -2q1 0 10 21t20.5 48t22.5 53.5t16 37.5q11 25 23 52.5
t22.5 50.5t18 38t9.5 15q1 0 6 1t10.5 2l11 2t7.5 1q0 -2 0.5 -19t0.5 -41.5v-54.5v-58.5v-52v-36.5q8 -3 17.5 -1t18 4t15 1t8.5 -11q5 -27 5 -37.5t-20 -10.5q-8 0 -17 -1.5t-23 -3.5q-1 -9 0 -30t3 -43.5t4 -39.5t3 -18q-7 -1 -17.5 -3.5t-20.5 -4t-17 -0.5t-7 6v17z
M194 793q-1 -7 -4 -13t-7 -11q-23 -26 -40.5 -51.5t-30.5 -43.5l26 -19l12 -10q5 -4 9 -7.5t6 -4.5q8 -8 15.5 -19t12.5 -22q10 -22 14.5 -49t4.5 -50q1 -21 -3 -50t-16 -55t-32.5 -43.5t-52.5 -15.5q-22 1 -37.5 8.5t-25.5 23t-15 40t-7 59.5q7 5 10.5 5.5t14.5 1.5
q9 0 14 1q1 -32 8.5 -54t19.5 -32t27.5 -6.5t31.5 22.5q15 23 18 45q3 16 1 38t-8.5 44t-16 41.5t-21.5 30.5q-8 12 -19.5 18t-25 8t-28.5 0.5t-28 -4.5q12 10 26 25.5t27.5 33.5t25 35.5t17.5 31.5q-9 2 -20.5 3t-23.5 1t-23 -1t-18 -4q-1 15 -2.5 24.5t-3.5 23.5h40
t38.5 -0.5t41 -0.5t48.5 2z" />
    <glyph glyph-name="questiondown" unicode="&#xbf;" 
d="M114 -235q-25 23 -41 56t-18 68q-1 57 10.5 102t29.5 80.5t39.5 62t40.5 45.5q17 17 33 34t24 34l-1 -1q4 7 5 17t1 21q0 15 -1.5 32.5t-2.5 28.5q0 2 -0.5 3.5t-0.5 2.5q-2 13 11 14.5t28 1.5h13q15 0 21 -14.5t6 -32.5q0 -17 -3 -33t-6 -26q-14 -48 -48 -92t-70 -78
q-23 -22 -41 -44.5t-26 -52.5q-2 -9 -3 -19.5t-1 -21.5q0 -21 4.5 -43.5t12.5 -42.5q4 -13 10 -26.5t14.5 -25.5t19.5 -20.5t26 -12.5v1q27 -7 55 -0.5t46 29.5v-1q17 21 19.5 45t0.5 47q0 3 -0.5 6.5t-0.5 6.5q-1 6 8 9.5t21 4.5t23.5 0.5t16.5 -2.5t7 -9.5t2 -16.5
q0 -14 -3.5 -30t-8 -30.5t-9.5 -26t-8 -17.5q-23 -42 -58.5 -63t-76.5 -21q-30 0 -60.5 12.5t-59.5 38.5zM272 422q-24 -3 -35 12.5t-10.5 34.5t13.5 32.5t37 6.5q16 -5 24 -18.5t7 -28t-10.5 -26.5t-26.5 -14q1 0 1.5 0.5t1.5 0.5h-2z" />
    <glyph glyph-name="Agrave" unicode="&#xc0;" horiz-adv-x="476" 
d="M338 435q4 -21 12 -59t17.5 -83.5t19.5 -93.5t17.5 -88.5t12.5 -68t5 -32.5q0 -4 -4 -9q-5 1 -6.5 0.5t-8.5 -0.5h-20.5t-16.5 2q-3 15 -10 48.5t-14.5 68.5t-13 63.5t-6.5 34.5q-40 3 -78 5.5t-75 -5.5q-13 -41 -22 -79t-15.5 -67.5t-10 -48.5t-6.5 -23
q-12 -2 -26.5 -1.5t-25.5 2.5q-2 32 6.5 65t19.5 65q5 18 10.5 37t10.5 36q28 145 54.5 293t68.5 291q3 8 13 7.5t22 -2.5q5 -1 9 -2t9 -1zM177 274q39 -2 71 0.5t63 0.5q-1 6 -4 34.5t-8.5 67t-12.5 82.5t-13.5 80.5t-13.5 60t-12 22.5q-1 -2 -3.5 -15.5t-6.5 -29.5
q-4 -18 -9 -42q-1 -5 -7 -34.5t-14 -70t-16.5 -83.5t-13.5 -73zM245 962q8 0 12.5 -7.5t7 -18t3 -21t1.5 -15.5q1 -10 3 -21t0 -20q-4 -16 -16.5 -16t-20.5 11q-9 12 -15 26t-14 27q-2 3 -6 8t-7.5 10.5t-5.5 10.5t1 9q9 11 27 13.5t30 3.5z" />
    <glyph glyph-name="Aacute" unicode="&#xc1;" horiz-adv-x="476" 
d="M338 435q4 -21 12 -59t17.5 -83.5t19.5 -93.5t17.5 -88.5t12.5 -68t5 -32.5q0 -4 -4 -9q-5 1 -6.5 0.5t-8.5 -0.5h-20.5t-16.5 2q-3 15 -10 48.5t-14.5 68.5t-13 63.5t-6.5 34.5q-40 3 -78 5.5t-75 -5.5q-13 -41 -22 -79t-15.5 -67.5t-10 -48.5t-6.5 -23
q-12 -2 -26.5 -1.5t-25.5 2.5q-2 32 6.5 65t19.5 65q5 18 10.5 37t10.5 36q28 145 54.5 293t68.5 291q3 8 13 7.5t22 -2.5q5 -1 9 -2t9 -1zM177 274q39 -2 71 0.5t63 0.5q-1 6 -4 34.5t-8.5 67t-12.5 82.5t-13.5 80.5t-13.5 60t-12 22.5q-1 -2 -3.5 -15.5t-6.5 -29.5
q-4 -18 -9 -42q-1 -5 -7 -34.5t-14 -70t-16.5 -83.5t-13.5 -73zM326 968q4 -4 -1.5 -24t-14.5 -42t-17.5 -40t-10.5 -18q-16 -2 -31 0.5t-25 9.5q-1 10 3 27t10 34.5t12 32.5t10 20q14 2 31 2.5t34 -2.5z" />
    <glyph glyph-name="Acircumflex" unicode="&#xc2;" horiz-adv-x="476" 
d="M338 435q4 -21 12 -59t17.5 -83.5t19.5 -93.5t17.5 -88.5t12.5 -68t5 -32.5q0 -4 -4 -9q-5 1 -6.5 0.5t-8.5 -0.5h-20.5t-16.5 2q-3 15 -10 48.5t-14.5 68.5t-13 63.5t-6.5 34.5q-40 3 -78 5.5t-75 -5.5q-13 -41 -22 -79t-15.5 -67.5t-10 -48.5t-6.5 -23
q-12 -2 -26.5 -1.5t-25.5 2.5q-2 32 6.5 65t19.5 65q5 18 10.5 37t10.5 36q28 145 54.5 293t68.5 291q3 8 13 7.5t22 -2.5q5 -1 9 -2t9 -1zM177 274q39 -2 71 0.5t63 0.5q-1 6 -4 34.5t-8.5 67t-12.5 82.5t-13.5 80.5t-13.5 60t-12 22.5q-1 -2 -3.5 -15.5t-6.5 -29.5
q-4 -18 -9 -42q-1 -5 -7 -34.5t-14 -70t-16.5 -83.5t-13.5 -73zM154 848q-11 10 -20 19.5t-13 14.5q-1 1 0 3v-1l41 41l87 76q31 -30 64.5 -59.5t70.5 -55.5l7 -5l-41 -36l-9 8q-25 23 -40 38.5t-24.5 25.5t-15 15t-10.5 7zM249 1001q-3 5 1 4.5t0 -3.5z" />
    <glyph glyph-name="Atilde" unicode="&#xc3;" horiz-adv-x="476" 
d="M338 435q4 -21 12 -59t17.5 -83.5t19.5 -93.5t17.5 -88.5t12.5 -68t5 -32.5q0 -4 -4 -9q-5 1 -6.5 0.5t-8.5 -0.5h-20.5t-16.5 2q-3 15 -10 48.5t-14.5 68.5t-13 63.5t-6.5 34.5q-40 3 -78 5.5t-75 -5.5q-13 -41 -22 -79t-15.5 -67.5t-10 -48.5t-6.5 -23
q-12 -2 -26.5 -1.5t-25.5 2.5q-2 32 6.5 65t19.5 65q5 18 10.5 37t10.5 36q28 145 54.5 293t68.5 291q3 8 13 7.5t22 -2.5q5 -1 9 -2t9 -1zM177 274q39 -2 71 0.5t63 0.5q-1 6 -4 34.5t-8.5 67t-12.5 82.5t-13.5 80.5t-13.5 60t-12 22.5q-1 -2 -3.5 -15.5t-6.5 -29.5
q-4 -18 -9 -42q-1 -5 -7 -34.5t-14 -70t-16.5 -83.5t-13.5 -73zM382 925q6 -9 11 -18.5t9 -17.5l-5 -5q-8 -8 -17 -14t-18 -11l1 1q-14 -6 -28 -6q-13 1 -24 2.5t-22 5.5q-5 1 -9 4l-8 4t-6 4l-12 6q-10 5 -13.5 7t-5.5 4q-17 9 -32.5 10t-31.5 -4v1q-9 -2 -15.5 -7
t-13.5 -12q-2 -4 -6 -5l-7 9l-10 13v-1q-2 4 1 7l12 13l10 7q15 10 30 14q2 0 3 0.5t3 0.5t4 1t4 1q14 -1 30 -4t29 -11v1q25 -17 56 -25h-3q6 -2 10 -3t9 -2q14 -2 25.5 1t22.5 14v-1zM405 885q-3 1 -3 4q0 2 0.5 2.5t0.5 1.5zM377 930l5 -3q1 -1 2 0l2 1l-4 -3z" />
    <glyph glyph-name="Adieresis" unicode="&#xc4;" horiz-adv-x="476" 
d="M338 435q4 -21 12 -59t17.5 -83.5t19.5 -93.5t17.5 -88.5t12.5 -68t5 -32.5q0 -4 -4 -9q-5 1 -6.5 0.5t-8.5 -0.5h-20.5t-16.5 2q-3 15 -10 48.5t-14.5 68.5t-13 63.5t-6.5 34.5q-40 3 -78 5.5t-75 -5.5q-13 -41 -22 -79t-15.5 -67.5t-10 -48.5t-6.5 -23
q-12 -2 -26.5 -1.5t-25.5 2.5q-2 32 6.5 65t19.5 65q5 18 10.5 37t10.5 36q28 145 54.5 293t68.5 291q3 8 13 7.5t22 -2.5q5 -1 9 -2t9 -1zM177 274q39 -2 71 0.5t63 0.5q-1 6 -4 34.5t-8.5 67t-12.5 82.5t-13.5 80.5t-13.5 60t-12 22.5q-1 -2 -3.5 -15.5t-6.5 -29.5
q-4 -18 -9 -42q-1 -5 -7 -34.5t-14 -70t-16.5 -83.5t-13.5 -73zM330 854q-13 -8 -30.5 -5.5t-25.5 16.5t-1 26.5t19.5 18t26.5 1.5t22 -22q5 -12 1.5 -21t-12.5 -14zM199 914q17 7 34 -9q6 -6 6.5 -14.5t-3 -16.5t-9 -15t-10.5 -11q-24 -6 -34.5 1.5t-11 20.5t7.5 26t20 18z
" />
    <glyph glyph-name="Aring" unicode="&#xc5;" horiz-adv-x="476" 
d="M336 860q1 -36 -22 -67q-9 -15 -25 -23l49 -335q4 -21 12 -59t17.5 -83.5t19.5 -93.5t17.5 -88.5t12.5 -68t5 -32.5q0 -4 -4 -9q-5 1 -6.5 0.5t-8.5 -0.5h-20.5t-16.5 2q-3 15 -10 48.5t-14.5 68.5t-13 63.5t-6.5 34.5q-40 3 -78 5.5t-75 -5.5q-13 -41 -22 -79
t-15.5 -67.5t-10 -48.5t-6.5 -23q-12 -2 -26.5 -1.5t-25.5 2.5q-2 32 6.5 65t19.5 65q5 18 10.5 37t10.5 36q27 141 52.5 282.5t64.5 280.5q-20 8 -32.5 23.5t-20.5 35.5q-6 18 -2 33t4 30q4 19 17.5 32.5t32.5 19.5h-1q6 2 13 3t15 1q22 0 41.5 -10.5t32.5 -32.5
q5 -10 7 -19.5t2 -22.5zM177 274q39 -2 71 0.5t63 0.5q-1 6 -4 34.5t-8.5 67t-12.5 82.5t-13.5 80.5t-13.5 60t-12 22.5q-1 -2 -3.5 -15.5t-6.5 -29.5q-4 -18 -9 -42q-1 -5 -7 -34.5t-14 -70t-16.5 -83.5t-13.5 -73zM213 834q6 -13 14.5 -18t24.5 -4q1 0 5 1t15 6
q14 8 20.5 19.5t3.5 22.5q-2 5 -7 11.5t-11.5 12t-13.5 9.5t-12 4q-14 0 -23.5 -6t-14.5 -16t-5 -21.5t5 -21.5z" />
    <glyph glyph-name="AE" unicode="&#xc6;" horiz-adv-x="701" 
d="M451 321q-1 -23 -2.5 -54.5t-2 -63.5t0.5 -60.5t4 -44.5q3 -17 11.5 -23.5t25.5 -6.5h81l83 -2v-1q0 -2 1 -2q-1 5 -0.5 5t0.5 -1v-35q0 -8 0.5 -15.5t0.5 -15.5v-1h-9q-24 -1 -47.5 -1.5t-48.5 -0.5h-33q-8 0 -17 0.5t-17 0.5h-16.5t-15.5 -1q-13 -2 -29.5 -1t-29.5 2
h-11v33q0 11 1 39t2 60t1.5 61t-1.5 41l-159 2l-15 -41q-18 -62 -29 -97t-17.5 -54t-9.5 -26t-6 -12l-80 2q96 239 157 396.5t95.5 249t46.5 124.5t10 24q3 6 11 7q32 1 70 1.5t73.5 0.5t64.5 -0.5t43 -1.5h7l2 -15l4 -40q1 -5 0 -5q-6 -2 -11.5 -3t-11.5 -1
q-54 -2 -85.5 -1t-48.5 2t-24 2t-13 -1q-7 -21 -7 -44v-38v-150q0 -14 0.5 -27.5t0.5 -26.5q0 -14 -1 -35.5t0 -35.5q4 -6 9.5 -8t10.5 -2t10.5 1t9.5 1l99 -4q4 -15 4 -30v-10.5t1 -10.5q0 -3 -4 -3h-93q-8 0 -14.5 -0.5t-13.5 -1.5h-18zM389 635q-48 -113 -75 -177
t-40 -97.5t-16.5 -46.5t-4.5 -23l101 -3q30 0 30 32zM67 6v1v-1z" />
    <glyph glyph-name="Ccedilla" unicode="&#xc7;" horiz-adv-x="457" 
d="M255 -53q7 -5 14 -12.5t11.5 -16.5t4.5 -18.5t-6 -18.5q-11 -14 -29 -29t-35 -21q-18 -8 -40 -7t-47 0q-6 11 -4.5 27t-1.5 29h1v2v1l29 -4h14t12 1q10 3 17 8t12 16v-1q5 11 2 20.5t-18 17.5l-27 9q0 11 -1.5 19t-3 15t-2.5 14t-1 17q6 -2 14.5 -3.5t18.5 -2.5
q-37 13 -67 42q-38 36 -48.5 83t-10.5 98v28.5t1 28.5q0 4 0.5 10.5t0.5 11.5q1 22 1 44v44q0 60 3 122.5t17 122.5q7 27 20 54.5t31.5 50t42.5 37.5t54 19q25 0 53 -10t53 -26.5t42 -39t19 -48.5l-17 -7l1 1q-13 -6 -25 -11.5t-25 -4.5l-6 16q-5 16 -12 29.5t-22 23.5
q-12 7 -23.5 11t-25.5 4q-12 0 -24.5 -4.5t-23.5 -12.5q-21 -18 -34 -41t-20 -48t-9.5 -50.5t-3.5 -49.5q-2 -51 -3.5 -100.5t-1.5 -99.5v-67v-47t4 -48t12.5 -45.5t25.5 -37.5q17 -17 41 -26.5t47 -2.5q23 9 38 28t24 37q4 8 14.5 8t21.5 -2l17 -3h6q6 -1 13 -2t9 -3
q1 -1 -3.5 -8t-9.5 -12q-11 -18 -24 -35.5t-28 -32t-32.5 -24.5t-38.5 -13q-8 -1 -16.5 -1h-16.5v-2q-2 -16 4 -29.5t21 -21.5z" />
    <glyph glyph-name="Egrave" unicode="&#xc8;" horiz-adv-x="417" 
d="M138 65q30 -6 61 -2.5t57 2.5q14 -1 29.5 -1h31.5h14q7 1 14.5 1.5t14.5 -0.5q4 -11 2.5 -20t-1.5 -25v-18q-14 -2 -38 -2h-63h-61.5h-58.5h-46.5h-24.5q-2 18 -3.5 60t-2.5 98t-1.5 122t-0.5 133v130t1 114t2 84.5t2 40.5l-1 11q88 5 140 7.5t80 3.5t39.5 0t18.5 -4
q2 -13 3.5 -23.5t4.5 -22.5h-1q2 -5 -5.5 -6t-22.5 -1q-45 -1 -97 -3.5t-97 -5.5q-1 -61 -4 -148t-1 -179q29 0 47 1.5t33.5 3.5t31.5 3.5t40 1.5h10.5t10.5 -1q8 -38 10.5 -50.5t3.5 -13.5q-37 -3 -60 -4.5t-41.5 -2t-37.5 -1t-47 -2.5zM245 962q8 0 12.5 -7.5t7 -18t3 -21
t1.5 -15.5q1 -10 3 -21t0 -20q-4 -16 -16.5 -16t-20.5 11q-9 12 -15 26t-14 27q-2 3 -6 8t-7.5 10.5t-5.5 10.5t1 9q9 11 27 13.5t30 3.5z" />
    <glyph glyph-name="Eacute" unicode="&#xc9;" horiz-adv-x="417" 
d="M138 65q30 -6 61 -2.5t57 2.5q14 -1 29.5 -1h31.5h14q7 1 14.5 1.5t14.5 -0.5q4 -11 2.5 -20t-1.5 -25v-18q-14 -2 -38 -2h-63h-61.5h-58.5h-46.5h-24.5q-2 18 -3.5 60t-2.5 98t-1.5 122t-0.5 133v130t1 114t2 84.5t2 40.5l-1 11q88 5 140 7.5t80 3.5t39.5 0t18.5 -4
q2 -13 3.5 -23.5t4.5 -22.5h-1q2 -5 -5.5 -6t-22.5 -1q-45 -1 -97 -3.5t-97 -5.5q-1 -61 -4 -148t-1 -179q29 0 47 1.5t33.5 3.5t31.5 3.5t40 1.5h10.5t10.5 -1q8 -38 10.5 -50.5t3.5 -13.5q-37 -3 -60 -4.5t-41.5 -2t-37.5 -1t-47 -2.5zM262 976q4 -4 -1.5 -24t-14.5 -42
t-17.5 -40t-10.5 -18q-16 -2 -31 0.5t-25 9.5q-1 10 3 27t10 34.5t12 32.5t10 20q14 2 31 2.5t34 -2.5z" />
    <glyph glyph-name="Ecircumflex" unicode="&#xca;" horiz-adv-x="417" 
d="M138 65q30 -6 61 -2.5t57 2.5q14 -1 29.5 -1h31.5h14q7 1 14.5 1.5t14.5 -0.5q4 -11 2.5 -20t-1.5 -25v-18q-14 -2 -38 -2h-63h-61.5h-58.5h-46.5h-24.5q-2 18 -3.5 60t-2.5 98t-1.5 122t-0.5 133v130t1 114t2 84.5t2 40.5l-1 11q88 5 140 7.5t80 3.5t39.5 0t18.5 -4
q2 -13 3.5 -23.5t4.5 -22.5h-1q2 -5 -5.5 -6t-22.5 -1q-45 -1 -97 -3.5t-97 -5.5q-1 -61 -4 -148t-1 -179q29 0 47 1.5t33.5 3.5t31.5 3.5t40 1.5h10.5t10.5 -1q8 -40 10.5 -52t3.5 -12q-37 -3 -60 -4.5t-41.5 -2t-37.5 -1t-47 -2.5zM115 880q-11 10 -20 19.5t-13 14.5
q-1 1 0 3v-1l41 41l87 76q31 -30 64.5 -59.5t70.5 -55.5l7 -5l-41 -36l-9 8q-25 23 -40 38.5t-24.5 25.5t-15 15t-10.5 7zM210 1033q-3 5 1 4.5t0 -3.5z" />
    <glyph glyph-name="Edieresis" unicode="&#xcb;" horiz-adv-x="417" 
d="M138 65q30 -6 61 -2.5t57 2.5q14 -1 29.5 -1h31.5h14q7 1 14.5 1.5t14.5 -0.5q4 -11 2.5 -20t-1.5 -25v-18q-14 -2 -38 -2h-63h-61.5h-58.5h-46.5h-24.5q-2 18 -3.5 60t-2.5 98t-1.5 122t-0.5 133v130t1 114t2 84.5t2 40.5l-1 11q88 5 140 7.5t80 3.5t39.5 0t18.5 -4
q2 -13 3.5 -23.5t4.5 -22.5h-1q2 -5 -5.5 -6t-22.5 -1q-45 -1 -97 -3.5t-97 -5.5q-1 -61 -4 -148t-1 -179q29 0 47 1.5t33.5 3.5t31.5 3.5t40 1.5h10.5t10.5 -1q8 -38 10.5 -50.5t3.5 -13.5q-37 -3 -60 -4.5t-41.5 -2t-37.5 -1t-47 -2.5zM275 866q-13 -8 -30.5 -5.5
t-25.5 16.5t-1 26.5t19.5 18t26.5 1.5t22 -22q5 -12 1.5 -21t-12.5 -14zM144 926q17 7 34 -9q6 -6 6.5 -14.5t-3 -16.5t-9 -15t-10.5 -11q-24 -6 -34.5 1.5t-11 20.5t7.5 26t20 18z" />
    <glyph glyph-name="Igrave" unicode="&#xcc;" horiz-adv-x="226" 
d="M153 9q-11 -5 -28.5 -6.5t-33.5 -2.5q-5 5 -6 14t-1 19q0 8 0.5 15.5t1.5 14.5q0 4 0.5 7t0.5 5v264.5v180.5v113.5v63t0.5 29t0.5 12.5q0 2 -0.5 7t-0.5 9q-1 10 -2 21t0 12q10 4 23.5 4.5t24.5 0.5h8q7 0 14.5 -0.5t9.5 -2.5l-3 -48q-2 -11 -3 -24t-1 -25
q0 -50 -0.5 -82t-1 -53t-1 -34t-1.5 -25q-1 -7 -1.5 -38.5t-0.5 -75.5v-94t0.5 -92.5t0.5 -72v-31.5q0 -5 0.5 -9.5t0.5 -9.5q0 -9 0.5 -18t0.5 -17v-15.5t-2 -15.5zM109 956q8 0 12.5 -7.5t7 -18t3 -21t1.5 -15.5q1 -10 3 -21t0 -20q-4 -16 -16.5 -16t-20.5 11
q-9 12 -15 26t-14 27q-2 3 -6 8t-7.5 10.5t-5.5 10.5t1 9q9 11 27 13.5t30 3.5z" />
    <glyph glyph-name="Iacute" unicode="&#xcd;" horiz-adv-x="217" 
d="M135 9q-11 -5 -28.5 -6.5t-33.5 -2.5q-5 5 -6 14t-1 19q0 8 0.5 15.5t1.5 14.5q0 4 0.5 7t0.5 5v264.5v180.5v113.5v63t0.5 29t0.5 12.5q0 2 -0.5 7t-0.5 9q-1 10 -2 21t0 12q10 4 23.5 4.5t24.5 0.5h8q7 0 14.5 -0.5t9.5 -2.5l-3 -48q-2 -11 -3 -23.5t-1 -23.5
q0 -50 -0.5 -82.5t-1 -54t-1 -34.5t-1.5 -25q-1 -7 -1.5 -38.5t-0.5 -75.5v-94t0.5 -92.5t0.5 -72v-31.5q0 -5 0.5 -9.5t0.5 -9.5q0 -9 0.5 -18t0.5 -17v-15.5t-2 -15.5zM165 972q4 -4 -1.5 -24t-14.5 -42t-17.5 -40t-10.5 -18q-16 -2 -31 0.5t-25 9.5q-1 10 3 27t10 34.5
t12 32.5t10 20q14 2 31 2.5t34 -2.5z" />
    <glyph glyph-name="Icircumflex" unicode="&#xce;" horiz-adv-x="395" 
d="M208 9q-11 -5 -28.5 -6.5t-33.5 -2.5q-5 5 -6 14t-1 19q0 8 0.5 15.5t1.5 14.5q0 4 0.5 7t0.5 5v264.5v180.5v113.5v63t0.5 29t0.5 12.5q0 2 -0.5 7t-0.5 9q-1 10 -2 21t0 12q10 4 23.5 4.5t24.5 0.5h8q7 0 14.5 -0.5t9.5 -2.5l-3 -48q-2 -11 -3 -24t-1 -25
q0 -50 -0.5 -82t-1 -53t-1 -34t-1.5 -25q-1 -7 -1.5 -38.5t-0.5 -75.5v-94t0.5 -92.5t0.5 -72v-31.5q0 -5 0.5 -9.5t0.5 -9.5q0 -9 0.5 -18t0.5 -17v-15.5t-2 -15.5zM99 862q-11 10 -20 19.5t-13 14.5q-1 1 0 3v-1l41 41l87 76q31 -30 64.5 -59.5t70.5 -55.5l7 -5l-41 -36
l-9 8q-25 23 -40 38.5t-24.5 25.5t-15 15t-10.5 7zM194 1015q-3 5 1 4.5t0 -3.5z" />
    <glyph glyph-name="Idieresis" unicode="&#xcf;" horiz-adv-x="273" 
d="M158 9q-11 -5 -28.5 -6.5t-33.5 -2.5q-5 5 -6 14t-1 19q0 8 0.5 15.5t1.5 14.5q0 4 0.5 7t0.5 5v264.5v180.5v113.5v63t0.5 29t0.5 12.5q0 2 -0.5 7t-0.5 9q-1 10 -2 21t0 12q10 4 23.5 4.5t24.5 0.5h8q7 0 14.5 -0.5t9.5 -2.5l-3 -48q-2 -11 -3 -23.5t-1 -23.5
q0 -50 -0.5 -82.5t-1 -54t-1 -34.5t-1.5 -25q-1 -7 -1.5 -38.5t-0.5 -75.5v-94t0.5 -92.5t0.5 -72v-31.5q0 -5 0.5 -9.5t0.5 -9.5q0 -9 0.5 -18t0.5 -17v-15.5t-2 -15.5zM209 861q-13 -8 -30.5 -5.5t-25.5 16.5t-1 26.5t19.5 18t26.5 1.5t22 -22q5 -12 1.5 -21t-12.5 -14z
M78 921q17 7 34 -9q6 -6 6.5 -14.5t-3 -16.5t-9 -15t-10.5 -11q-24 -6 -34.5 1.5t-11 20.5t7.5 26t20 18z" />
    <glyph glyph-name="Eth" unicode="&#xd0;" horiz-adv-x="461" 
d="M148 440l-59 1l4 368q16 5 33 6t34 0q23 -1 47 -2t47 -4q15 -2 32.5 -5.5t34 -9t30.5 -14.5t22 -21q19 -28 24 -65t7 -72q0 -4 0.5 -9t0.5 -8q2 -69 1.5 -134.5t-2 -121t-3.5 -98t-2 -66.5q0 -16 -1 -32t-5 -29v1q-6 -18 -17.5 -35.5t-23.5 -33.5q-23 -29 -56.5 -37.5
t-68.5 -12.5q-9 -1 -28 -2t-40 -2t-41 -1.5t-33 -0.5l4 380q11 0 26 0.5t32 0.5l-2 -109q1 -37 -2.5 -74.5t-3.5 -75.5q0 -13 1 -31.5t3 -31.5q37 -5 67 -0.5t56 11.5h-1q2 0 3 0.5t3 0.5q35 8 48 31t19 55q5 25 6 52t2 55q0 36 1 80t2 86t2.5 76.5t2.5 52.5q1 29 -2 59.5
t-11 59.5q-13 42 -47.5 56.5t-71.5 14.5q-32 0 -69 -8zM267 437q0 -3 1 -12.5t1.5 -19t0 -17.5t-2.5 -8q-38 2 -67.5 2t-52.5 -1l1 59zM31 382q-2 1 0 19t2 42l56 -2v-61q-25 -1 -38 -1t-20 3z" />
    <glyph glyph-name="Ntilde" unicode="&#xd1;" horiz-adv-x="489" 
d="M370 -1q-9 0 -15.5 -1t-11 -1t-7.5 3t-6 11q-17 71 -32 121t-28.5 89.5t-27 74.5t-27 75t-28 91t-30.5 124l-22 -449q0 -7 -0.5 -15t-1.5 -16q-1 -15 -1.5 -30t-0.5 -29v-23t2 -22q-5 -1 -12.5 -1h-14.5h-10q-9 -1 -18 -1.5t-13 3.5q3 10 3 16.5v14.5v6q0 10 0.5 19.5
t1.5 19.5q0 4 0.5 10t0.5 10q2 29 3 60.5t0 59.5q-1 36 0 71.5t3 71.5l2 52t1 52t1 52t3 53q2 35 3.5 70.5t0.5 70.5v22t1 23v9q0 13 3 21q7 6 22 7t29 1h8l7 -23v1l7 -22v1q21 -79 44 -156t46.5 -145.5t47 -125t44.5 -94.5q7 72 13 137.5t10.5 129.5t7 128t2.5 133
q0 6 -0.5 12t-1.5 12q-1 7 -1.5 14t-0.5 13q7 -2 8 -1t8 1q11 0 20.5 -1t19.5 -4q5 -1 3 -14v2q-2 -12 -2.5 -26.5t-0.5 -28.5q0 -4 -0.5 -9.5t-0.5 -10.5q-1 -16 -2.5 -50t-4 -77t-4.5 -90t-3.5 -87.5t-3 -69.5t-1.5 -37q0 -10 -1 -33.5t-2.5 -53.5t-3 -63t-3 -62.5t-2 -53
t-0.5 -33.5q-2 -7 -11.5 -8t-18.5 -1zM369 932q6 -9 11 -18.5t9 -17.5l-5 -5q-8 -8 -17 -14t-18 -11l1 1q-14 -6 -28 -6q-13 1 -24 2.5t-22 5.5q-5 1 -9 4l-8 4t-6 4l-12 6q-10 5 -13.5 7t-5.5 4q-17 9 -32.5 10t-31.5 -4v1q-9 -2 -15.5 -7t-13.5 -12q-2 -4 -6 -5l-7 9
l-10 13v-1q-2 4 1 7l12 13l10 7q15 10 30 14q2 0 3 0.5t3 0.5t4 1t4 1q14 -1 30 -4t29 -11v1q25 -17 56 -25h-3q6 -2 10 -3t9 -2q14 -2 25.5 1t22.5 14v-1zM392 892q-3 1 -3 4q0 2 0.5 2.5t0.5 1.5zM364 937l5 -3q1 -1 2 0l2 1l-4 -3z" />
    <glyph glyph-name="Ograve" unicode="&#xd2;" 
d="M388 640q2 -20 3 -37.5t1 -35.5q0 -13 -0.5 -33t-0.5 -34q-1 -20 -1 -39v-39v-58v-71.5t-1 -70.5v-36v-37t-2.5 -37t-8.5 -33.5t-17 -25.5l-4 -3h1q-16 -14 -32.5 -27t-35.5 -18h1q-14 -3 -27.5 -5t-27.5 -2q-11 0 -22 1t-25 5q-7 1 -15 3.5t-16 9.5l-17 10q-8 3 -12 7
q-17 13 -25.5 28.5t-15.5 32.5l-4 9l1 -1q-16 41 -21 82t-8 84q-2 28 -3 55l-2 54q0 6 -0.5 11.5t-0.5 11.5q-1 18 -1.5 36t0.5 35v51q0 39 2.5 78.5t16.5 74.5q10 24 26 45.5t35 37.5q22 19 51.5 26t58.5 8t53 -12.5t43 -33.5l-1 1q3 -3 6 -7q5 -7 9 -9q12 -11 19 -24
q5 -10 9 -24t7 -26q1 -5 1.5 -8.5t2.5 -8.5v1l1 -2h-1zM339 275q2 23 3.5 46t1.5 48q0 22 -1 45l-2 46q0 4 -0.5 7.5t-0.5 7.5q-1 11 -0.5 25.5t1.5 25.5q1 9 1 20v20q0 26 -3 50.5t-14 49.5q-9 21 -28 34.5t-39 17.5q-36 7 -60 0t-38.5 -23.5t-21.5 -40t-10 -48.5
t-3.5 -49.5t-0.5 -43.5q0 -6 -0.5 -13.5t-0.5 -12.5q-3 -41 -3 -80q0 -52 3 -101q1 -9 1.5 -17t0.5 -16v-12q1 -22 2.5 -46.5t6.5 -48.5t15.5 -46t28.5 -38q11 -9 30.5 -15t39.5 -6q22 0 39.5 8.5t25.5 26.5q6 14 8 30l4 32q0 5 1 10t1 10q2 13 4 27t2 29q0 12 3 26z
M245 962q8 0 12.5 -7.5t7 -18t3 -21t1.5 -15.5q1 -10 3 -21t0 -20q-4 -16 -16.5 -16t-20.5 11q-9 12 -15 26t-14 27q-2 3 -6 8t-7.5 10.5t-5.5 10.5t1 9q8 10 25 13t30 4h2z" />
    <glyph glyph-name="Oacute" unicode="&#xd3;" 
d="M388 640q2 -20 3 -37.5t1 -35.5q0 -13 -0.5 -33t-0.5 -34q-1 -20 -1 -39v-39v-58v-71.5t-1 -70.5v-36v-37t-2.5 -37t-8.5 -33.5t-17 -25.5l-4 -3h1q-16 -14 -32.5 -27t-35.5 -18h1q-14 -3 -27.5 -5t-27.5 -2q-11 0 -22 1t-25 5q-7 1 -15 3.5t-16 9.5l-17 10q-8 3 -12 7
q-17 13 -25.5 28.5t-15.5 32.5l-4 9l1 -1q-16 41 -21 82t-8 84q-2 28 -3 55l-2 54q0 6 -0.5 11.5t-0.5 11.5q-1 18 -1.5 36t0.5 35v51q0 39 2.5 78.5t16.5 74.5q10 24 26 45.5t35 37.5q22 19 51.5 26t58.5 8t53 -12.5t43 -33.5l-1 1q3 -3 6 -7q5 -7 9 -9q12 -11 19 -24
q5 -10 9 -24t7 -26q1 -5 1.5 -8.5t2.5 -8.5v1l1 -2h-1zM339 275q2 23 3.5 46t1.5 48q0 22 -1 45l-2 46q0 4 -0.5 7.5t-0.5 7.5q-1 11 -0.5 25.5t1.5 25.5q1 9 1 20v20q0 26 -3 50.5t-14 49.5q-9 21 -28 34.5t-39 17.5q-36 7 -60 0t-38.5 -23.5t-21.5 -40t-10 -48.5
t-3.5 -49.5t-0.5 -43.5q0 -6 -0.5 -13.5t-0.5 -12.5q-3 -41 -3 -80q0 -52 3 -101q1 -9 1.5 -17t0.5 -16v-12q1 -22 2.5 -46.5t6.5 -48.5t15.5 -46t28.5 -38q11 -9 30.5 -15t39.5 -6q22 0 39.5 8.5t25.5 26.5q6 14 8 30l4 32q0 5 1 10t1 10q2 13 4 27t2 29q0 12 3 26z
M326 968q4 -4 -1.5 -24t-14.5 -42t-17.5 -40t-10.5 -18q-16 -2 -31 0.5t-25 9.5q-1 10 3 27t10 34.5t12 32.5t10 20q14 2 31 2.5t34 -2.5z" />
    <glyph glyph-name="Ocircumflex" unicode="&#xd4;" 
d="M388 640q2 -20 3 -37.5t1 -35.5q0 -13 -0.5 -33t-0.5 -34q-1 -20 -1 -39v-39v-58v-71.5t-1 -70.5v-36v-37t-2.5 -37t-8.5 -33.5t-17 -25.5l-4 -3h1q-16 -14 -32.5 -27t-35.5 -18h1q-14 -3 -27.5 -5t-27.5 -2q-11 0 -22 1t-25 5q-7 1 -15 3.5t-16 9.5l-17 10q-8 3 -12 7
q-17 13 -25.5 28.5t-15.5 32.5l-4 9l1 -1q-16 41 -21 82t-8 84q-2 28 -3 55l-2 54q0 6 -0.5 11.5t-0.5 11.5q-1 18 -1.5 36t0.5 35v51q0 39 2.5 78.5t16.5 74.5q10 24 26 45.5t35 37.5q22 19 51.5 26t58.5 8t52.5 -12t42.5 -33q3 -3 6 -7q5 -7 9 -9q12 -11 19 -24
q5 -10 9 -24t7 -26q1 -5 1.5 -8.5t2.5 -8.5v1l1 -2h-1zM339 275q2 23 3.5 46t1.5 48q0 22 -1 45l-2 46q0 4 -0.5 7.5t-0.5 7.5q-1 11 -0.5 25.5t1.5 25.5q1 9 1 20v20q0 26 -3 50.5t-14 49.5q-9 21 -28 34.5t-39 17.5q-36 7 -60 0t-38.5 -23.5t-21.5 -40t-10 -48.5
t-3.5 -49.5t-0.5 -43.5q0 -6 -0.5 -13.5t-0.5 -12.5q-3 -41 -3 -80q0 -52 3 -101q1 -9 1.5 -17t0.5 -16v-12q1 -22 2.5 -46.5t6.5 -48.5t15.5 -46t28.5 -38q11 -9 30.5 -15t39.5 -6q22 0 39.5 8.5t25.5 26.5q6 14 8 30l4 32q0 5 1 10t1 10q2 13 4 27t2 29q0 12 3 26z
M143 845q-11 10 -20 19.5t-13 14.5q-1 1 0 3v-1l41 41l87 76q31 -30 64.5 -59.5t70.5 -55.5l7 -5l-41 -36l-9 8q-25 23 -40 38.5t-24.5 25.5t-15 15t-10.5 7zM238 998q-3 5 1 4.5t0 -3.5z" />
    <glyph glyph-name="Otilde" unicode="&#xd5;" 
d="M388 640q2 -20 3 -37.5t1 -35.5q0 -13 -0.5 -33t-0.5 -34q-1 -20 -1 -39v-39v-58v-71.5t-1 -70.5v-36v-37t-2.5 -37t-8.5 -33.5t-17 -25.5l-4 -3h1q-16 -14 -32.5 -27t-35.5 -18h1q-14 -3 -27.5 -5t-27.5 -2q-11 0 -22 1t-25 5q-7 1 -15 3.5t-16 9.5l-17 10q-8 3 -12 7
q-17 13 -25.5 28.5t-15.5 32.5l-4 9l1 -1q-16 41 -21 82t-8 84q-2 28 -3 55l-2 54q0 6 -0.5 11.5t-0.5 11.5q-1 18 -1.5 36t0.5 35v51q0 39 2.5 78.5t16.5 74.5q10 24 26 45.5t35 37.5q22 19 51.5 26t58.5 8t52.5 -12t42.5 -33q3 -3 6 -7q5 -7 9 -9q12 -11 19 -24
q5 -10 9 -24t7 -26q1 -5 1.5 -8.5t2.5 -8.5v1l1 -2h-1zM339 275q2 23 3.5 46t1.5 48q0 22 -1 45l-2 46q0 4 -0.5 7.5t-0.5 7.5q-1 11 -0.5 25.5t1.5 25.5q1 9 1 20v20q0 26 -3 50.5t-14 49.5q-9 21 -28 34.5t-39 17.5q-36 7 -60 0t-38.5 -23.5t-21.5 -40t-10 -48.5
t-3.5 -49.5t-0.5 -43.5q0 -6 -0.5 -13.5t-0.5 -12.5q-3 -41 -3 -80q0 -52 3 -101q1 -9 1.5 -17t0.5 -16v-12q1 -22 2.5 -46.5t6.5 -48.5t15.5 -46t28.5 -38q11 -9 30.5 -15t39.5 -6q22 0 39.5 8.5t25.5 26.5q6 14 8 30l4 32q0 5 1 10t1 10q2 13 4 27t2 29q0 12 3 26z
M363 937q6 -9 11 -18.5t9 -17.5l-5 -5q-8 -8 -17 -14t-18 -11l1 1q-14 -6 -28 -6q-13 1 -24 2.5t-22 5.5q-5 1 -9 4l-8 4t-6 4l-12 6q-10 5 -13.5 7t-5.5 4q-17 9 -32.5 10t-31.5 -4v1q-9 -2 -15.5 -7t-13.5 -12q-2 -4 -6 -5l-7 9l-10 13v-1q-2 4 1 7l12 13l10 7
q15 10 30 14q2 0 3 0.5t3 0.5t4 1t4 1q14 -1 30 -4t29 -11v1q25 -17 56 -25h-3q6 -2 10 -3t9 -2q14 -2 25.5 1t22.5 14v-1zM386 897q-3 1 -3 4q0 2 0.5 2.5t0.5 1.5zM358 942l5 -3q1 -1 2 0l2 1l-4 -3z" />
    <glyph glyph-name="Odieresis" unicode="&#xd6;" horiz-adv-x="449" 
d="M388 640q2 -20 3 -37.5t1 -35.5q0 -13 -0.5 -33t-0.5 -34q-1 -20 -1 -39v-39v-58v-71.5t-1 -70.5v-36v-37t-2.5 -37t-8.5 -33.5t-17 -25.5l-4 -3h1q-16 -14 -32.5 -27t-35.5 -18h1q-14 -3 -27.5 -5t-27.5 -2q-11 0 -22 1t-25 5q-7 1 -15 3.5t-16 9.5l-17 10q-8 3 -12 7
q-17 13 -25.5 28.5t-15.5 32.5l-4 9l1 -1q-16 41 -21 82t-8 84q-2 28 -3 55l-2 54q0 6 -0.5 11.5t-0.5 11.5q-1 18 -1.5 36t0.5 35v51q0 39 2.5 78.5t16.5 74.5q10 24 26 45.5t35 37.5q22 19 51.5 26t58.5 8t52.5 -12t42.5 -33q3 -3 6 -7q5 -7 9 -9q12 -11 19 -24
q5 -10 9 -24t7 -26q1 -5 1.5 -8.5t2.5 -8.5v1l1 -2h-1zM339 275q2 23 3.5 46t1.5 48q0 22 -1 45l-2 46q0 4 -0.5 7.5t-0.5 7.5q-1 11 -0.5 25.5t1.5 25.5q1 9 1 20v20q0 26 -3 50.5t-14 49.5q-9 21 -28 34.5t-39 17.5q-36 7 -60 0t-38.5 -23.5t-21.5 -40t-10 -48.5
t-3.5 -49.5t-0.5 -43.5q0 -6 -0.5 -13.5t-0.5 -12.5q-3 -41 -3 -80q0 -52 3 -101q1 -9 1.5 -17t0.5 -16v-12q1 -22 2.5 -46.5t6.5 -48.5t15.5 -46t28.5 -38q11 -9 30.5 -15t39.5 -6q22 0 39.5 8.5t25.5 26.5q6 14 8 30l4 32q0 5 1 10t1 10q2 13 4 27t2 29q0 12 3 26z
M347 852q-13 -8 -30.5 -5.5t-25.5 16.5t-1 26.5t19.5 18t26.5 1.5t22 -22q5 -12 1.5 -21t-12.5 -14zM216 912q17 7 34 -9q6 -6 6.5 -14.5t-3 -16.5t-9 -15t-10.5 -11q-24 -6 -34.5 1.5t-11 20.5t7.5 26t20 18z" />
    <glyph glyph-name="multiply" unicode="&#xd7;" horiz-adv-x="396" 
d="M106 418l-18 18t-18 17q11 13 19.5 22.5t16.5 17.5q3 2 8 0t10.5 -6.5t11 -10t10.5 -9.5l6 -6q7 -7 16.5 -14.5t18.5 -15.5q11 -9 21 -17q19 25 36 44q14 17 27 31t18 15q19 -5 27.5 -10.5t11.5 -10.5q4 -6 1 -12q-17 -22 -32 -41q-14 -17 -27.5 -33.5t-23.5 -25.5
q0 -3 9.5 -12.5t23 -22t29 -26t26.5 -23.5q2 -2 1.5 -1t1.5 -1q-3 -6 -8.5 -14t-11.5 -15t-11.5 -12t-8.5 -5q-11 8 -24.5 19.5t-27 24t-26.5 25t-23 23.5q-7 -10 -14 -18.5t-15.5 -18.5t-20 -22t-26.5 -28q-9 -9 -12.5 -9t-8.5 5h1l-8 7l-16 11h1q-4 3 -6.5 5.5t2.5 7.5
l41 43q11 11 21.5 22.5t24.5 30.5q-14 13 -28 25.5t-26 25.5z" />
    <glyph glyph-name="Oslash" unicode="&#xd8;" 
d="M377 830q14 -1 26 -6t5 -20v-5q-3 -6 -3 -11l-32 -91q3 -9 6 -19.5t5 -19.5q1 -5 1.5 -8.5t2.5 -8.5v1l1 -2h-1q2 -20 3 -37.5t1 -35.5q0 -13 -0.5 -33t-0.5 -34q-1 -20 -1 -39v-39v-58v-71.5t-1 -70.5v-36v-37t-2.5 -37t-8.5 -33.5t-17 -25.5l-4 -3h1q-16 -14 -32.5 -27
t-35.5 -18h1q-14 -3 -27.5 -5t-27.5 -2q-11 0 -22 1t-25 5q-7 1 -15 3.5t-16 9.5l-17 10q-8 3 -12 7q-12 -31 -14 -31q-17 -2 -33.5 -1.5t-33.5 -2.5q3 12 11.5 41t22.5 69q-14 39 -18.5 78.5t-7.5 81.5q-2 28 -3 55l-2 54q0 6 -0.5 11.5t-0.5 11.5q-1 18 -1.5 36t0.5 35v51
q0 39 2.5 78.5t16.5 74.5q10 24 26 45.5t35 37.5q22 19 51.5 26t58.5 8q23 1 43.5 -8t37.5 -24q11 30 18.5 47.5t9.5 18.5q6 3 13.5 3.5t15.5 -0.5zM339 275q2 23 3.5 46t1.5 48q0 22 -1 45l-2 46q0 4 -0.5 7.5t-0.5 7.5q-1 11 -0.5 25.5t1.5 25.5q1 9 1 20v20v19.5t-2 19.5
q-21 -59 -45.5 -126l-49 -134t-47.5 -129t-41 -109q5 -7 10 -13.5t11 -11.5q11 -9 30.5 -15t39.5 -6q22 0 39.5 8.5t25.5 26.5q6 14 8 30l4 32q0 5 1 10t1 10q2 13 4 27t2 29q0 12 3 26zM125 261v-13.5t1 -13.5q20 57 42.5 120t45 124.5t43.5 119t39 103.5q-17 12 -38 17
q-36 7 -60 0t-38.5 -23.5t-21.5 -40t-10 -48.5t-3.5 -49.5t-0.5 -43.5q0 -6 -0.5 -13.5t-0.5 -12.5q-3 -41 -3 -80q0 -52 3 -101q1 -9 1.5 -17t0.5 -16v-12z" />
    <glyph glyph-name="Ugrave" unicode="&#xd9;" horiz-adv-x="517" 
d="M104 78v-1q-7 11 -11 27.5t-7 33.5q0 2 -0.5 4t-0.5 4q-11 62 -15 124t-6 123v31q0 35 1 73t3 73q2 32 3 65l2 66v52q0 5 -0.5 9t-1.5 8q-2 8 -2.5 14.5t2.5 11.5q12 3 25 3q10 0 19.5 -1t17.5 -4q1 -8 0.5 -11t-0.5 -11q0 -26 -2 -52.5t-4 -52.5v1q-4 -46 -6 -92
q-1 -26 -1.5 -52.5t-0.5 -52.5q0 -33 1 -69t3 -68q2 -29 4.5 -58.5t5.5 -58.5q0 -2 0.5 -4.5t0.5 -4.5q3 -22 6.5 -45t14.5 -46h-1q14 -28 40.5 -41.5t56.5 -13.5q18 0 35.5 5t31.5 13q18 10 29 26.5t18 35.5t9.5 39t3.5 38v38q0 25 -0.5 50.5t-1.5 51.5q-2 76 -5.5 152.5
t-6.5 151.5q-1 18 -1.5 38t-2.5 38q0 5 -0.5 10t-1.5 10q-2 10 -4 19.5t0 15.5q7 3 17.5 4.5t18.5 2.5q3 0 6 0.5t4 0.5q2 0 3 0.5t2 0.5h7q3 0 5 1q5 -14 6.5 -29.5t2.5 -30.5v-11.5t1 -10.5v1q5 -61 8 -122.5t4 -123.5q0 -11 0.5 -23t0.5 -24q0 -17 0.5 -35.5t0.5 -36.5
q0 -33 -1 -66t-5 -66q-3 -28 -9 -56t-16.5 -54t-27 -48t-40.5 -38q-29 -19 -63 -26t-67 -1.5t-61.5 24.5t-46.5 51zM243 944q8 0 12.5 -7.5t7 -18t3 -21t1.5 -15.5q1 -10 3 -21t0 -20q-4 -16 -16.5 -16t-20.5 11q-9 12 -15 26t-14 27q-2 3 -6 8t-7.5 10.5t-5.5 10.5t1 9
q8 10 25 13t30 4h2z" />
    <glyph glyph-name="Uacute" unicode="&#xda;" horiz-adv-x="503" 
d="M104 78v-1q-7 11 -11 27.5t-7 33.5q0 2 -0.5 4t-0.5 4q-11 62 -15 124t-6 123v31q0 35 1 73t3 73q2 32 3 65l2 66v52q0 5 -0.5 9t-1.5 8q-2 8 -2.5 14.5t2.5 11.5q12 3 25 3q10 0 19.5 -1t17.5 -4q1 -8 0.5 -11t-0.5 -11q0 -26 -2 -52.5t-4 -52.5v1q-4 -46 -6 -92
q-1 -26 -1.5 -52.5t-0.5 -52.5q0 -33 1 -69t3 -68q2 -29 4.5 -58.5t5.5 -58.5q0 -2 0.5 -4.5t0.5 -4.5q3 -22 6.5 -45t14.5 -46h-1q14 -28 40.5 -41.5t56.5 -13.5q18 0 35.5 5t31.5 13q18 10 29 26.5t18 35.5t9.5 39t3.5 38v38q0 25 -0.5 50.5t-1.5 51.5q-2 76 -5.5 152.5
t-6.5 151.5q-1 18 -1.5 38t-2.5 38q0 5 -0.5 10t-1.5 10q-2 10 -4 19.5t0 15.5q7 3 17.5 4.5t18.5 2.5q3 0 6 0.5t4 0.5q2 0 3 0.5t2 0.5h7q3 0 5 1q5 -14 6.5 -29.5t2.5 -30.5v-11.5t1 -10.5v1q5 -61 8 -122.5t4 -123.5q0 -11 0.5 -23t0.5 -24q0 -17 0.5 -35.5t0.5 -36.5
q0 -33 -1 -66t-5 -66q-3 -28 -9 -56t-16.5 -54t-27 -48t-40.5 -38q-29 -19 -63 -26t-67 -1.5t-61.5 24.5t-46.5 51zM317 958q4 -4 -1.5 -24t-14.5 -42t-17.5 -40t-10.5 -18q-16 -2 -31 0.5t-25 9.5q-1 10 3 27t10 34.5t12 32.5t10 20q14 2 31 2.5t34 -2.5z" />
    <glyph glyph-name="Ucircumflex" unicode="&#xdb;" horiz-adv-x="491" 
d="M104 78v-1q-7 11 -11 27.5t-7 33.5q0 2 -0.5 4t-0.5 4q-11 62 -15 124t-6 123v31q0 35 1 73t3 73q2 32 3 65l2 66v52q0 5 -0.5 9t-1.5 8q-2 8 -2.5 14.5t2.5 11.5q12 3 25 3q10 0 19.5 -1t17.5 -4q1 -8 0.5 -11t-0.5 -11q0 -26 -2 -52.5t-4 -52.5v1q-4 -46 -6 -92
q-1 -26 -1.5 -52.5t-0.5 -52.5q0 -33 1 -69t3 -68q2 -29 4.5 -58.5t5.5 -58.5q0 -2 0.5 -4.5t0.5 -4.5q3 -22 6.5 -45t14.5 -46h-1q14 -28 40.5 -41.5t56.5 -13.5q18 0 35.5 5t31.5 13q18 10 29 26.5t18 35.5t9.5 39t3.5 38v38q0 25 -0.5 50.5t-1.5 51.5q-2 76 -5.5 152.5
t-6.5 151.5q-1 18 -1.5 38t-2.5 38q0 5 -0.5 10t-1.5 10q-2 10 -4 19.5t0 15.5q7 3 17.5 4.5t18.5 2.5q3 0 6 0.5t4 0.5q2 0 3 0.5t2 0.5h7q3 0 5 1q5 -14 6.5 -29.5t2.5 -30.5v-11.5t1 -10.5v1q5 -61 8 -122.5t4 -123.5q0 -11 0.5 -23t0.5 -24q0 -17 0.5 -35.5t0.5 -36.5
q0 -33 -1 -66t-5 -66q-3 -28 -9 -56t-16.5 -54t-27 -48t-40.5 -38q-29 -19 -63 -26t-67 -1.5t-61.5 24.5t-46.5 51zM157 828q-11 10 -20 19.5t-13 14.5q-1 1 0 3v-1l41 41l87 76q31 -30 64.5 -59.5t70.5 -55.5l7 -5l-41 -36l-9 8q-25 23 -40 38.5t-24.5 25.5t-15 15t-10.5 7
zM252 981q-3 5 1 4.5t0 -3.5z" />
    <glyph glyph-name="Udieresis" unicode="&#xdc;" horiz-adv-x="464" 
d="M292 335q0 -17 0.5 -56t0.5 -86v-64v-58t-0.5 -42t-1.5 -17h-1q-2 0 -3 1q-3 0 -6.5 0.5t-5.5 0.5q-3 0 -16 -2t-18 -3q-2 -1 -7 -1v46q0 14 0.5 29t0.5 29v47q0 11 -0.5 40t-1 61.5t-1 61.5t-1.5 40q-2 19 -16 55t-32 77.5t-36 84t-28 74.5q-4 14 -8.5 27t-10.5 27v-2
l-25 70l-4 8q-2 3 -3.5 9t-3.5 12q0 4 9.5 7t20.5 4.5t21.5 0.5t13.5 -5l14 -42q7 -22 17 -50t21 -58.5t23 -59.5t22.5 -53t18.5 -40t13 -18q2 2 9.5 23t17.5 52.5t21.5 68.5t22 72t18 62.5t10.5 40.5q2 2 7.5 1t11.5 -2h20h12t11 -2q-2 -2 -5 -10t-7 -18.5t-8.5 -22
t-7.5 -20.5q-1 -4 -2.5 -7t-2.5 -7l1 1q-5 -20 -11.5 -41t-12.5 -42q-12 -41 -24 -80t-22 -72t-17 -56t-7 -31zM325 846q-13 -8 -30.5 -5.5t-25.5 16.5t-1 26.5t19.5 18t26.5 1.5t22 -22q5 -12 1.5 -21t-12.5 -14zM194 906q17 7 34 -9q6 -6 6.5 -14.5t-3 -16.5t-9 -15
t-10.5 -11q-24 -6 -34.5 1.5t-11 20.5t7.5 26t20 18z" />
    <glyph glyph-name="Yacute" unicode="&#xdd;" horiz-adv-x="489" 
d="M292 335q0 -17 0.5 -56t0.5 -86v-64v-58t-0.5 -42t-1.5 -17h-1q-2 0 -3 1q-3 0 -6.5 0.5t-5.5 0.5q-3 0 -16 -2t-18 -3q-2 -1 -7 -1v46q0 14 0.5 29t0.5 29v47q0 11 -0.5 40t-1 61.5t-1 61.5t-1.5 40q-2 19 -16 55t-32 77.5t-36 84t-28 74.5q-4 14 -8.5 27t-10.5 27v-2
l-25 70l-4 8q-2 3 -3.5 9t-3.5 12q0 4 9.5 7t20.5 4.5t21.5 0.5t13.5 -5l14 -42q7 -22 17 -50t21 -58.5t23 -59.5t22.5 -53t18.5 -40t13 -18q2 2 9.5 23t17.5 52.5t21.5 68.5t22 72t18 62.5t10.5 40.5q2 2 7.5 1t11.5 -2h20h12t11 -2q-2 -2 -5 -10t-7 -18.5t-8.5 -22
t-7.5 -20.5q-1 -4 -2.5 -7t-2.5 -7l1 1q-5 -20 -11.5 -41t-12.5 -42q-12 -41 -24 -80t-22 -72t-17 -56t-7 -31zM302 957q4 -4 -1.5 -24t-14.5 -42t-17.5 -40t-10.5 -18q-16 -2 -31 0.5t-25 9.5q-1 10 3 27t10 34.5t12 32.5t10 20q14 2 31 2.5t34 -2.5z" />
    <glyph glyph-name="Thorn" unicode="&#xde;" horiz-adv-x="423" 
d="M326 715q20 -39 29.5 -85.5t9.5 -92.5q0 -14 -0.5 -30.5t-1.5 -30.5q-1 -11 -1 -23.5v-23.5q0 -21 -0.5 -43t-4.5 -43q-5 -28 -15.5 -53.5t-27.5 -46.5q-21 -27 -51.5 -44t-65.5 -15q-16 2 -29 8q-4 1 -5 2.5t-4.5 2.5t-11.5 2.5t-25 3.5q0 -5 -0.5 -9.5t-0.5 -8.5
l-4 -203q-7 -1 -15.5 -1h-16.5h-11t-11 1q-2 399 1 607t20 209h41q2 0 4 -0.5t3 -0.5v-1q0 -6 -3 -15.5t2 -20.5q22 5 50 11t46 6t31 -5q20 -7 38.5 -22.5t29.5 -34.5zM302 362q6 33 8 68.5t2 70.5q0 22 -0.5 46.5t-2.5 46.5q-3 24 -13 49.5t-25 45.5q-11 17 -24.5 23.5
t-28.5 6.5q-21 0 -42 -12q-14 -7 -23 -17.5t-14.5 -22.5t-8 -25.5t-3.5 -26.5q-6 -38 -7 -78t-1 -78v-33t-1 -32v-16q0 -21 1 -42t10 -41q9 -10 21.5 -20.5t27 -17.5t32 -9t37.5 6q23 17 36.5 45t18.5 63z" />
    <glyph glyph-name="germandbls" unicode="&#xdf;" horiz-adv-x="528" 
d="M386 507l15 -16q12 -11 23.5 -27.5t19.5 -31.5q11 -24 19.5 -48t11.5 -50l3 -22q5 -28 5 -49q1 -45 -10.5 -84.5t-42.5 -72.5q-12 -13 -25 -24.5t-28 -21.5q-15 -12 -31 -17l2 1l-14 -6q-10 -3 -20.5 -6t-27.5 -6q-10 -3 -18.5 -4t-16.5 -1q-11 0 -20.5 1t-20.5 4
q-1 0 -5 9l1 2q1 7 0 11.5t-1.5 8.5t-1.5 8t0 12v6q13 -2 27 -2.5t28 -0.5q22 0 42 6h-3q1 0 1.5 0.5t1.5 0.5q10 3 22 8.5t24 12.5t22.5 15t16.5 16q11 13 24.5 31.5t16.5 33.5q3 13 4 26.5t1 28.5q1 49 -5 84t-20 61.5t-37 47.5t-55 42q-16 10 -31 13v-1q-16 5 -31.5 8
t-32.5 2q-6 -1 -8.5 1.5t-4.5 11.5q0 4 0.5 6l1 4t1.5 4.5t2 7.5q0 2 0.5 4t0.5 5q2 4 6.5 7.5t10.5 3.5q36 -9 71 10q9 5 18.5 12.5t18.5 16.5t15.5 18.5t9.5 18.5l4 34q1 13 -3.5 30t-11.5 34t-16 31.5t-18 23.5q-6 12 -25.5 22.5t-44.5 14t-50 -4t-42 -32.5
q-15 -23 -21.5 -52.5t-8.5 -65.5l-3 -42q-2 -22 -3 -49t0 -49l14 -363q1 -9 1 -17.5v-16.5q0 -6 0.5 -17.5t0.5 -24v-24v-17.5t-0.5 -11.5t-0.5 -10.5v-16.5t1 -14.5q0 -3 -2 -7q-2 -2 -1 -2q-16 0 -26.5 -1t-16.5 -0.5t-8.5 4.5t-2.5 14l-11 567v61.5t2 61.5q2 23 4 47
t9 48q8 35 31 56.5t58 29.5h-1q27 7 55 7q11 0 24.5 -1.5t26.5 -4.5q46 -8 75 -43q37 -42 53 -98.5t14 -109.5q-1 -20 -6 -38.5t-16 -33.5l-34 -34z" />
    <glyph glyph-name="agrave" unicode="&#xe0;" horiz-adv-x="400" 
d="M295 40q-24 -12 -35 -20t-18 -12t-16 -5.5t-29 -0.5q-23 -2 -41 11.5t-32 27.5q-35 42 -48.5 90.5t-11.5 101.5q3 48 24.5 89t65.5 64q26 14 46 17t37 -0.5t32 -10t32 -12.5q3 5 3.5 14t0.5 18.5t-1 18.5t-1 15q0 26 -12 50t-38 35q-19 7 -31.5 5t-20.5 -10t-12.5 -20
t-8.5 -25q-2 -6 -4.5 -13t-4.5 -12q-12 -2 -26 -1t-22 5q-6 28 5.5 55.5t34 48t51.5 31t57 4.5q29 -11 49.5 -36.5t28.5 -57.5q4 -24 8.5 -54t4.5 -53q-3 -125 -3.5 -203t-1 -121.5t-2.5 -58.5t-8 -15h-9h-15.5h-15.5h-8zM129 199q0 -30 6 -57.5t19 -47t31.5 -27.5t44.5 1
q20 9 33.5 25t22 35.5t12 40.5t3.5 41q0 16 -1.5 37t-7.5 41.5t-18 37t-34 25.5q-36 -1 -57.5 -13.5t-33.5 -33t-16 -48t-4 -57.5zM225 766q8 0 12.5 -7.5t7 -18t3 -21t1.5 -15.5q1 -10 3 -21t0 -20q-4 -16 -16.5 -16t-20.5 11q-9 12 -15 26t-14 27q-2 3 -6 8t-7.5 10.5
t-5.5 10.5t1 9q8 10 25 13t30 4h2z" />
    <glyph glyph-name="aacute" unicode="&#xe1;" horiz-adv-x="423" 
d="M295 40q-24 -12 -35 -20t-18 -12t-16 -5.5t-29 -0.5q-23 -2 -41 11.5t-32 27.5q-35 42 -48.5 90.5t-11.5 101.5q3 48 24.5 89t65.5 64q26 14 46 17t37 -0.5t32 -10t32 -12.5q3 5 3.5 14t0.5 18.5t-1 18.5t-1 15q0 26 -12 50t-38 35q-19 7 -31.5 5t-20.5 -10t-12.5 -20
t-8.5 -25q-2 -6 -4.5 -13t-4.5 -12q-12 -2 -26 -1t-22 5q-6 28 5.5 55.5t34 48t51.5 31t57 4.5q29 -11 49.5 -36.5t28.5 -57.5q4 -24 8.5 -54t4.5 -53q-3 -125 -3.5 -203t-1 -121.5t-2.5 -58.5t-8 -15h-9h-15.5h-15.5h-8zM129 199q0 -30 6 -57.5t19 -47t31.5 -27.5t44.5 1
q20 9 33.5 25t22 35.5t12 40.5t3.5 41q0 16 -1.5 37t-7.5 41.5t-18 37t-34 25.5q-36 -1 -57.5 -13.5t-33.5 -33t-16 -48t-4 -57.5zM294 772q4 -4 -1.5 -24t-14.5 -42t-17.5 -40t-10.5 -18q-16 -2 -31 0.5t-25 9.5q-1 10 3 27t10 34.5t12 32.5t10 20q14 2 31 2.5t34 -2.5z
" />
    <glyph glyph-name="acircumflex" unicode="&#xe2;" horiz-adv-x="413" 
d="M295 40q-24 -12 -35 -20t-18 -12t-16 -5.5t-29 -0.5q-23 -2 -41 11.5t-32 27.5q-35 42 -48.5 90.5t-11.5 101.5q3 48 24.5 89t65.5 64q26 14 46 17t37 -0.5t32 -10t32 -12.5q3 5 3.5 14t0.5 18.5t-1 18.5t-1 15q0 26 -12 50t-38 35q-19 7 -31.5 5t-20.5 -10t-12.5 -20
t-8.5 -25q-2 -6 -4.5 -13t-4.5 -12q-12 -2 -26 -1t-22 5q-6 28 5.5 55.5t34 48t51.5 31t57 4.5q29 -11 49.5 -36.5t28.5 -57.5q4 -24 8.5 -54t4.5 -53q-3 -125 -3.5 -203t-1 -121.5t-2.5 -58.5t-8 -15h-9h-15.5h-15.5h-8zM129 199q0 -30 6 -57.5t19 -47t31.5 -27.5t44.5 1
q20 9 33.5 25t22 35.5t12 40.5t3.5 41q0 16 -1.5 37t-7.5 41.5t-18 37t-34 25.5q-36 -1 -57.5 -13.5t-33.5 -33t-16 -48t-4 -57.5zM140 667q-11 10 -20 19.5t-13 14.5q-1 1 0 3v-1l41 41l87 76q31 -30 64.5 -59.5t70.5 -55.5l7 -5l-41 -36l-9 8q-25 23 -40 38.5t-24.5 25.5
t-15 15t-10.5 7zM235 820q-3 5 1 4.5t0 -3.5z" />
    <glyph glyph-name="atilde" unicode="&#xe3;" horiz-adv-x="386" 
d="M295 40q-24 -12 -35 -20t-18 -12t-16 -5.5t-29 -0.5q-23 -2 -41 11.5t-32 27.5q-35 42 -48.5 90.5t-11.5 101.5q3 48 24.5 89t65.5 64q26 14 46 17t37 -0.5t32 -10t32 -12.5q3 5 3.5 14t0.5 18.5t-1 18.5t-1 15q0 26 -12 50t-38 35q-19 7 -31.5 5t-20.5 -10t-12.5 -20
t-8.5 -25q-2 -6 -4.5 -13t-4.5 -12q-12 -2 -26 -1t-22 5q-6 28 5.5 55.5t34 48t51.5 31t57 4.5q29 -11 49.5 -36.5t28.5 -57.5q4 -24 8.5 -54t4.5 -53q-3 -125 -3.5 -203t-1 -121.5t-2.5 -58.5t-8 -15h-9h-15.5h-15.5h-8zM129 199q0 -30 6 -57.5t19 -47t31.5 -27.5t44.5 1
q20 9 33.5 25t22 35.5t12 40.5t3.5 41q0 16 -1.5 37t-7.5 41.5t-18 37t-34 25.5q-36 -1 -57.5 -13.5t-33.5 -33t-16 -48t-4 -57.5zM362 720q6 -9 11 -18.5t9 -17.5l-5 -5q-8 -8 -17 -14t-18 -11l1 1q-14 -6 -28 -6q-13 1 -24 2.5t-22 5.5q-5 1 -9 4l-8 4t-6 4l-12 6
q-10 5 -13.5 7t-5.5 4q-17 9 -32.5 10t-31.5 -4v1q-9 -2 -15.5 -7t-13.5 -12q-2 -4 -6 -5l-7 9l-10 13v-1q-2 4 1 7l12 13l10 7q15 10 30 14q2 0 3 0.5t3 0.5t4 1t4 1q14 -1 30 -4t29 -11v1q25 -17 56 -25h-3q6 -2 10 -3t9 -2q14 -2 25.5 1t22.5 14v-1zM385 680q-3 1 -3 4
q0 2 0.5 2.5t0.5 1.5zM357 725l5 -3q1 -1 2 0l2 1l-4 -3z" />
    <glyph glyph-name="adieresis" unicode="&#xe4;" horiz-adv-x="423" 
d="M295 40q-24 -12 -35 -20t-18 -12t-16 -5.5t-29 -0.5q-23 -2 -41 11.5t-32 27.5q-35 42 -48.5 90.5t-11.5 101.5q3 48 24.5 89t65.5 64q26 14 46 17t37 -0.5t32 -10t32 -12.5q3 5 3.5 14t0.5 18.5t-1 18.5t-1 15q0 26 -12 50t-38 35q-19 7 -31.5 5t-20.5 -10t-12.5 -20
t-8.5 -25q-2 -6 -4.5 -13t-4.5 -12q-12 -2 -26 -1t-22 5q-6 28 5.5 55.5t34 48t51.5 31t57 4.5q29 -11 49.5 -36.5t28.5 -57.5q4 -24 8.5 -54t4.5 -53q-3 -125 -3.5 -203t-1 -121.5t-2.5 -58.5t-8 -15h-9h-15.5h-15.5h-8zM129 199q0 -30 6 -57.5t19 -47t31.5 -27.5t44.5 1
q20 9 33.5 25t22 35.5t12 40.5t3.5 41q0 16 -1.5 37t-7.5 41.5t-18 37t-34 25.5q-36 -1 -57.5 -13.5t-33.5 -33t-16 -48t-4 -57.5zM306 663q-13 -8 -30.5 -5.5t-25.5 16.5t-1 26.5t19.5 18t26.5 1.5t22 -22q5 -12 1.5 -21t-12.5 -14zM175 723q17 7 34 -9q6 -6 6.5 -14.5
t-3 -16.5t-9 -15t-10.5 -11q-24 -6 -34.5 1.5t-11 20.5t7.5 26t20 18z" />
    <glyph glyph-name="aring" unicode="&#xe5;" horiz-adv-x="411" 
d="M295 40q-24 -12 -35 -20t-18 -12t-16 -5.5t-29 -0.5q-23 -2 -41 11.5t-32 27.5q-35 42 -48.5 90.5t-11.5 101.5q3 48 24.5 89t65.5 64q26 14 46 17t37 -0.5t32 -10t32 -12.5q3 5 3.5 14t0.5 18.5t-1 18.5t-1 15q0 26 -12 50t-38 35q-19 7 -31.5 5t-20.5 -10t-12.5 -20
t-8.5 -25q-2 -6 -4.5 -13t-4.5 -12q-12 -2 -26 -1t-22 5q-6 28 5.5 55.5t34 48t51.5 31t57 4.5q29 -11 49.5 -36.5t28.5 -57.5q4 -24 8.5 -54t4.5 -53q-3 -125 -3.5 -203t-1 -121.5t-2.5 -58.5t-8 -15h-9h-15.5h-15.5h-8zM129 199q0 -30 6 -57.5t19 -47t31.5 -27.5t44.5 1
q20 9 33.5 25t22 35.5t12 40.5t3.5 41q0 16 -1.5 37t-7.5 41.5t-18 37t-34 25.5q-36 -1 -57.5 -13.5t-33.5 -33t-16 -48t-4 -57.5zM320 749q1 -36 -22 -67q-11 -17 -31 -26t-43 -4q-26 7 -41.5 23.5t-24.5 39.5q-6 18 -2 33t4 30q4 19 17.5 32.5t32.5 19.5h-1q6 2 13 3t15 1
q22 0 41.5 -10.5t32.5 -32.5q5 -10 7 -19.5t2 -22.5zM197 723q6 -13 14.5 -18t24.5 -4q1 0 5 1t15 6q14 8 20.5 19.5t3.5 22.5q-2 5 -7 11.5t-11.5 12t-13.5 9.5t-12 4q-14 0 -23.5 -6t-14.5 -16t-5 -21.5t5 -21.5z" />
    <glyph glyph-name="ae" unicode="&#xe6;" horiz-adv-x="649" 
d="M624 187q2 -12 -5 -21t-9 -20q-11 -35 -20.5 -57t-19 -36t-19.5 -21t-22 -12q-27 -8 -60 -10q-12 -1 -23.5 4t-20.5 13q-3 1 -9 7q-1 0 -8 4t-16 9q-11 5 -23 12q-2 -20 -0.5 -35.5t-0.5 -23.5h-3q-2 0 -9.5 0.5t-16.5 0.5t-16.5 0.5t-10.5 0.5q-2 0 -6.5 8.5t-0.5 34.5
q-40 -40 -93 -40q-34 0 -66 22v-1q-55 36 -75 106q-9 34 -9 72q0 11 0.5 20t1.5 20q4 44 20.5 84.5t45.5 69.5q18 17 40.5 25.5t47.5 12.5q15 2 33.5 -5.5t32.5 -7.5q5 24 4 45.5t-1 39.5t-17 28l1 -1q-14 11 -34 11q-16 0 -28.5 -8t-22.5 -18.5t-18 -22.5t-15 -19l1 -1
q-21 6 -42 14q1 0 1 1q-1 0 -1 -0.5t-1 -0.5q-5 1 6.5 21t32 43t45.5 41.5t47 17.5q26 -1 51 -10.5t51 -32.5q32 20 54.5 29.5t41.5 11t36 -3t39 -11.5q8 -3 15 -9.5t14 -14.5q15 -20 25 -44t16 -49q1 -9 4.5 -30t6.5 -45t5 -46t0 -32q-3 -11 -15 -12q-4 0 -9 0.5t-10 1.5
h-183q-2 -41 -2.5 -68.5t-0.5 -45.5t0.5 -29.5t2.5 -21.5q2 -7 5.5 -15.5t8.5 -16.5q9 -13 20 -21.5t23 -14.5q27 -10 56 -3l-1 -1q34 8 48 45q10 28 13 61q0 2 0.5 5t0.5 5v5q19 -3 34 -6.5t32 -7.5zM455 530q-26 0 -39.5 -24t-18.5 -53q-6 -34 -6 -77h141q-3 43 -13 77
q-4 14 -10 28t-13.5 25t-17.5 17.5t-23 6.5zM271 350h-8q-16 13 -34 18q-15 5 -33.5 2.5t-35.5 -20.5q-18 -18 -24.5 -51.5t-5 -71.5t9.5 -74t20 -60q11 -24 30 -29t37 0q21 5 44 20v266z" />
    <glyph glyph-name="ccedilla" unicode="&#xe7;" horiz-adv-x="379" 
d="M262 -43q7 -5 14 -12.5t11.5 -16.5t4.5 -18.5t-6 -18.5q-11 -14 -29 -29t-35 -21q-18 -8 -40 -7t-47 0q-6 11 -4.5 27t-1.5 29h1v2v1l29 -4h14t12 1q10 3 17 8t12 16v-1q5 11 2 20.5t-18 17.5l-27 9q0 17 -2.5 26.5t-4.5 19.5q-7 2 -13 4.5t-11 6.5q-44 24 -62 67.5
t-19 90.5q0 54 1 106.5t8 106.5q4 29 12.5 61.5t24.5 61t39 48t56 23.5q35 4 71 -13q6 -3 16 -7.5t19 -10t15.5 -12t5.5 -12.5q-1 -7 -10.5 -15.5t-20.5 -16.5h1l-18 -15q0 2 -6 7.5t-11 11.5h1q-5 5 -10.5 9.5t-10.5 6.5q-23 10 -40.5 5.5t-30.5 -18.5t-22.5 -35t-16 -43
t-10 -41.5t-5.5 -31.5q0 -2 -1 -6.5t-1 -7.5q-4 -27 -6.5 -67.5t2 -81.5t19.5 -75.5t47 -50.5l-1 1q35 -17 58.5 -4.5t40.5 38.5q5 7 12.5 0.5t14.5 -14.5q13 -13 13 -23q0 -11 -15 -26q-27 -24 -64 -32q0 -14 6 -26t20 -19z" />
    <glyph glyph-name="egrave" unicode="&#xe8;" horiz-adv-x="833" 
d="M356 294q-41 -1 -81.5 -1.5t-73 -1.5t-52 -2.5t-19.5 -4.5q0 -40 0.5 -74t6 -60.5t16.5 -46t31 -29.5q20 -11 44 -7.5t41 17.5h-1q20 15 26.5 36t9.5 41q0 2 0.5 4.5t0.5 4.5q17 -2 35 -10t34 -16l-1 -5t-3 -11.5l-4 -13t-3 -9.5q-9 -41 -43.5 -66.5t-75.5 -34.5
q-16 -4 -32 -4q-32 0 -60 16t-45 48q-14 26 -24 67t-14.5 88.5t-2.5 99t12 98t28 84.5t46 60q34 26 81 26q13 0 30 -5t29 -11q17 -11 27.5 -28.5t17 -38t9.5 -42t5 -41.5q2 -24 4 -48.5t2 -48.5v-15t-1 -15zM303 437q-5 19 -13 39t-20.5 33.5t-31.5 16.5t-44 -10
q-20 -11 -32 -29.5t-19 -40.5t-10 -45t-6 -44q46 -8 87.5 -6t88.5 10q7 25 5.5 42t-4.5 31v-2q-1 1 -1 5zM225 766q8 0 12.5 -7.5t7 -18t3 -21t1.5 -15.5q1 -10 3 -21t0 -20q-4 -16 -16.5 -16t-20.5 11q-9 12 -15 26t-14 27q-2 3 -6 8t-7.5 10.5t-5.5 10.5t1 9q8 10 25 13
t30 4h2z" />
    <glyph glyph-name="eacute" unicode="&#xe9;" horiz-adv-x="833" 
d="M356 294q-41 -1 -81.5 -1.5t-73 -1.5t-52 -2.5t-19.5 -4.5q0 -40 0.5 -74t6 -60.5t16.5 -46t31 -29.5q20 -11 44 -7.5t41 17.5h-1q20 15 26.5 36t9.5 41q0 2 0.5 4.5t0.5 4.5q17 -2 35 -10t34 -16l-1 -5t-3 -11.5l-4 -13t-3 -9.5q-9 -41 -43.5 -66.5t-75.5 -34.5
q-16 -4 -32 -4q-32 0 -60 16t-45 48q-14 26 -24 67t-14.5 88.5t-2.5 99t12 98t28 84.5t46 60q34 26 81 26q13 0 30 -5t29 -11q17 -11 27.5 -28.5t17 -38t9.5 -42t5 -41.5q2 -24 4 -48.5t2 -48.5v-15t-1 -15zM303 437q-5 19 -13 39t-20.5 33.5t-31.5 16.5t-44 -10
q-20 -11 -32 -29.5t-19 -40.5t-10 -45t-6 -44q46 -8 87.5 -6t88.5 10q7 25 5.5 42t-4.5 31v-3q0 1 -0.5 2t-0.5 4zM294 772q4 -4 -1.5 -24t-14.5 -42t-17.5 -40t-10.5 -18q-16 -2 -31 0.5t-25 9.5q-1 10 3 27t10 34.5t12 32.5t10 20q14 2 31 2.5t34 -2.5z" />
    <glyph glyph-name="ecircumflex" unicode="&#xea;" horiz-adv-x="833" 
d="M356 294q-41 -1 -81.5 -1.5t-73 -1.5t-52 -2.5t-19.5 -4.5q0 -40 0.5 -74t6 -60.5t16.5 -46t31 -29.5q20 -11 44 -7.5t41 17.5h-1q20 15 26.5 36t9.5 41q0 2 0.5 4.5t0.5 4.5q17 -2 35 -10t34 -16l-1 -5t-3 -11.5l-4 -13t-3 -9.5q-9 -41 -43.5 -66.5t-75.5 -34.5
q-16 -4 -32 -4q-32 0 -60 16t-45 48q-14 26 -24 67t-14.5 88.5t-2.5 99t12 98t28 84.5t46 60q34 26 81 26q13 0 30 -5t29 -11q17 -11 27.5 -28.5t17 -38t9.5 -42t5 -41.5q2 -24 4 -48.5t2 -48.5v-15t-1 -15zM303 437q-5 19 -13 39t-20.5 33.5t-31.5 16.5t-44 -10
q-20 -11 -32 -29.5t-19 -40.5t-10 -45t-6 -44q46 -8 87.5 -6t88.5 10q7 25 5.5 42t-4.5 31v-3q0 1 -0.5 2t-0.5 4zM140 667q-11 10 -20 19.5t-13 14.5q-1 1 0 3v-1l41 41l87 76q31 -30 64.5 -59.5t70.5 -55.5l7 -5l-41 -36l-9 8q-25 23 -40 38.5t-24.5 25.5t-15 15t-10.5 7z
M235 820q-3 5 1 4.5t0 -3.5z" />
    <glyph glyph-name="edieresis" unicode="&#xeb;" horiz-adv-x="421" 
d="M356 294q-41 -1 -81.5 -1.5t-73 -1.5t-52 -2.5t-19.5 -4.5q0 -40 0.5 -74t6 -60.5t16.5 -46t31 -29.5q20 -11 44 -7.5t41 17.5h-1q20 15 26.5 36t9.5 41q0 2 0.5 4.5t0.5 4.5q17 -2 35 -10t34 -16l-1 -5t-3 -11.5l-4 -13t-3 -9.5q-9 -41 -43.5 -66.5t-75.5 -34.5
q-16 -4 -32 -4q-32 0 -60 16t-45 48q-14 26 -24 67t-14.5 88.5t-2.5 99t12 98t28 84.5t46 60q34 26 81 26q13 0 30 -5t29 -11q17 -11 27.5 -28.5t17 -38t9.5 -42t5 -41.5q2 -24 4 -48.5t2 -48.5v-15t-1 -15zM303 437q-5 19 -13 39t-20.5 33.5t-31.5 16.5t-44 -10
q-20 -11 -32 -29.5t-19 -40.5t-10 -45t-6 -44q46 -8 87.5 -6t88.5 10q7 25 5.5 42t-4.5 31v-3q0 1 -0.5 2t-0.5 4zM304 662q-13 -8 -30.5 -5.5t-25.5 16.5t-1 26.5t19.5 18t26.5 1.5t22 -22q5 -12 1.5 -21t-12.5 -14zM173 722q17 7 34 -9q6 -6 6.5 -14.5t-3 -16.5t-9 -15
t-10.5 -11q-24 -6 -34.5 1.5t-11 20.5t7.5 26t20 18z" />
    <glyph glyph-name="igrave" unicode="&#xec;" horiz-adv-x="203" 
d="M139 587q-3 -128 -5.5 -218.5t-4 -151.5t-2.5 -97t-1 -55.5t0.5 -28t1.5 -13.5q0 -1 0.5 -2.5t0.5 -2.5q1 -5 2 -11t0 -6l-55 4l-7 523q0 5 -0.5 9t-0.5 9q-1 6 -1 15t1 16q-2 0 -0.5 0.5t0.5 0.5v-1l2 1q9 1 20.5 2.5t22.5 3t18.5 2.5zM101 749q8 0 12.5 -7.5t7 -18
t3 -21t1.5 -15.5q1 -10 3 -21t0 -20q-4 -16 -16.5 -16t-20.5 11q-9 12 -15 26t-14 27q-2 3 -6 8t-7.5 10.5t-5.5 10.5t1 9q9 11 27 13.5t30 3.5z" />
    <glyph glyph-name="iacute" unicode="&#xed;" horiz-adv-x="211" 
d="M139 587q-3 -128 -5.5 -218.5t-4 -151.5t-2.5 -97t-1 -55.5t0.5 -28t1.5 -13.5q0 -1 0.5 -2.5t0.5 -2.5q1 -5 2 -11t0 -6l-55 4l-7 523q0 5 -0.5 9t-0.5 9q-1 6 -1 15t1 16q-2 0 -0.5 0.5t0.5 0.5v-1l2 1q9 1 20.5 2.5t22.5 3t18.5 2.5zM167 762q4 -4 -1.5 -24t-14.5 -42
t-17.5 -40t-10.5 -18q-16 -2 -31 0.5t-25 9.5q-1 10 3 27t10 34.5t12 32.5t10 20q14 2 31 2.5t34 -2.5z" />
    <glyph glyph-name="icircumflex" unicode="&#xee;" horiz-adv-x="211" 
d="M139 587q-3 -128 -5.5 -218.5t-4 -151.5t-2.5 -97t-1 -55.5t0.5 -28t1.5 -13.5q0 -1 0.5 -2.5t0.5 -2.5q1 -5 2 -11t0 -6l-55 4l-7 523q0 5 -0.5 9t-0.5 9q-1 6 -1 15t1 16q-2 0 -0.5 0.5t0.5 0.5v-1l2 1q9 1 20.5 2.5t22.5 3t18.5 2.5zM13 647q-11 10 -20 19.5t-13 14.5
q-1 1 0 3v-1l41 41l87 76q31 -30 64.5 -59.5t70.5 -55.5l7 -5l-41 -36l-9 8q-25 23 -40 38.5t-24.5 25.5t-15 15t-10.5 7zM108 800q-3 5 1 4.5t0 -3.5z" />
    <glyph glyph-name="idieresis" unicode="&#xef;" horiz-adv-x="202" 
d="M139 587q-3 -128 -5.5 -218.5t-4 -151.5t-2.5 -97t-1 -55.5t0.5 -28t1.5 -13.5q0 -1 0.5 -2.5t0.5 -2.5q1 -5 2 -11t0 -6l-55 4l-7 523q0 5 -0.5 9t-0.5 9q-1 6 -1 15t1 16q-2 0 -0.5 0.5t0.5 0.5v-1l2 1q9 1 20.5 2.5t22.5 3t18.5 2.5zM170 637q-13 -8 -30.5 -5.5
t-25.5 16.5t-1 26.5t19.5 18t26.5 1.5t22 -22q5 -12 1.5 -21t-12.5 -14zM39 697q17 7 34 -9q6 -6 6.5 -14.5t-3 -16.5t-9 -15t-10.5 -11q-24 -6 -34.5 1.5t-11 20.5t7.5 26t20 18z" />
    <glyph glyph-name="eth" unicode="&#xf0;" horiz-adv-x="438" 
d="M63 635q-1 -1 -2 -1h-1zM63 635q7 63 39 107t93 60q-4 29 -4.5 48t4.5 43l2 1q32 4 42 1t13 -7q2 -7 3 -20.5t1.5 -26.5t1 -23.5t2.5 -11.5q40 -27 63.5 -46.5t36 -44.5t17.5 -60t9 -93q0 -7 0.5 -12.5t0.5 -12.5q0 -25 0.5 -65t-1 -88t-5.5 -99.5t-12 -98.5t-21 -85.5
t-32 -59.5q-12 -14 -28.5 -25.5t-32.5 -16.5q-20 -5 -36 -5q-29 0 -56 14.5t-47 37.5q-15 21 -25.5 46.5t-17 53t-9 55t-2.5 53.5q0 29 2.5 63t10 66.5t21.5 62t37 49.5q6 5 15 10.5t16 8.5h-1q17 5 39.5 10.5t44.5 5.5q11 0 28.5 -4.5t37.5 -12.5q2 17 3.5 34t1.5 25
q0 31 -2 53t-8.5 39.5t-18 33t-30.5 34.5q0 -24 1 -44t2 -27v1q1 -11 1 -22.5t-2 -19.5q-8 -2 -16 -3.5t-17 -1.5q-19 0 -35 3q1 31 -1 57.5t0 61.5q-20 -15 -36.5 -38t-16.5 -52q0 -11 -1 -13q-1 -1 -1 -2zM305 410q-8 14 -24 25.5t-27 16.5q-14 4 -31 4t-33.5 -5
t-29.5 -14.5t-20 -23.5q-4 -9 -8.5 -20.5t-6.5 -24.5q-4 -17 -7 -40.5t-3 -45.5q0 -32 4 -60.5t10 -53.5q6 -23 17.5 -48t30.5 -43q17 -17 33.5 -17.5t30.5 8t26 23.5t20 29q17 32 24.5 69.5t10.5 72.5q1 11 1.5 22.5t0.5 21.5q0 28 -4 53.5t-15 50.5z" />
    <glyph glyph-name="ntilde" unicode="&#xf1;" horiz-adv-x="387" 
d="M170 544q16 9 33 14.5t34 5.5q35 0 62 -21q28 -21 40.5 -52.5t16 -75t1 -99.5t-5.5 -126q2 -48 2 -93.5t-5 -87.5l-49 3q4 70 6.5 124.5t4.5 107.5v16q0 28 -0.5 67t-6 76t-18 65.5t-36.5 35.5q-18 5 -33 2.5t-28.5 -9.5t-25 -15.5t-22.5 -14.5l-8 -48l-17 -312
q0 -10 0.5 -20t0.5 -21v-33t-2 -33q-7 1 -6 0.5t-6 -0.5q-11 0 -20.5 0.5t-16.5 2.5q-2 11 -2 21.5v21.5q1 20 2.5 63.5t4 98t4.5 113.5t4 111t3.5 90t2.5 50q5 3 12 4t15 2q6 1 11 2t11 3q4 0 6 -7.5t2.5 -17.5t0.5 -20v-14zM327 701q6 -9 11 -18.5t9 -17.5l-5 -5
q-8 -8 -17 -14t-18 -11l1 1q-14 -6 -28 -6q-13 1 -24 2.5t-22 5.5q-5 1 -9 4l-8 4t-6 4l-12 6q-10 5 -13.5 7t-5.5 4q-17 9 -32.5 10t-31.5 -4v1q-9 -2 -15.5 -7t-13.5 -12q-2 -4 -6 -5l-7 9l-10 13v-1q-2 4 1 7l12 13l10 7q15 10 30 14q2 0 3 0.5t3 0.5t4 1t4 1
q14 -1 30 -4t29 -11v1q25 -17 56 -25h-3q6 -2 10 -3t9 -2q14 -2 25.5 1t22.5 14v-1l17 16l-5 5l5 -3q1 -1 2 0l2 1zM350 661q-3 1 -3 4q0 2 0.5 2.5t0.5 1.5z" />
    <glyph glyph-name="ograve" unicode="&#xf2;" horiz-adv-x="415" 
d="M371 306q1 -10 1.5 -19t1 -20t0 -25t-1.5 -33q-3 -23 -8 -49t-11 -49.5t-13 -43t-14 -29.5q-18 -23 -39.5 -31.5t-44.5 -8.5q-8 0 -21.5 2t-27.5 5t-24.5 6.5t-10.5 7.5q-40 17 -59.5 53t-24.5 79q-4 31 -6.5 62t-2.5 63q0 60 12 118t44 108h-1q33 48 88 48q20 0 41 -7
q35 -13 58 -35.5t37 -57.5q16 -38 20 -70.5t7 -73.5zM321 195q1 20 1 40v40v29.5t-1 30.5q0 3 -0.5 6t-0.5 6q-2 17 -6.5 42t-14.5 48.5t-26 41t-40 20.5q-37 4 -62 -21q-13 -13 -21 -30.5t-11 -34.5l-18 -69q-5 -20 -7.5 -43.5t0.5 -43.5q2 -10 2 -19.5v-18.5q0 -17 3 -35
q1 -12 3.5 -28t7 -32t12 -31t18.5 -25t31.5 -16.5t39.5 -6.5q13 0 25 3t20 11h-1q12 10 20.5 25t14 32.5t8.5 35t3 31.5v12zM225 766q8 0 12.5 -7.5t7 -18t3 -21t1.5 -15.5q1 -10 3 -21t0 -20q-4 -16 -16.5 -16t-20.5 11q-9 12 -15 26t-14 27q-2 3 -6 8t-7.5 10.5t-5.5 10.5
t1 9q8 10 25 13t30 4h2z" />
    <glyph glyph-name="oacute" unicode="&#xf3;" horiz-adv-x="407" 
d="M371 306q1 -10 1.5 -19t1 -20t0 -25t-1.5 -33q-3 -23 -8 -49t-11 -49.5t-13 -43t-14 -29.5q-18 -23 -39.5 -31.5t-44.5 -8.5q-8 0 -21.5 2t-27.5 5t-24.5 6.5t-10.5 7.5q-40 17 -59.5 53t-24.5 79q-4 31 -6.5 62t-2.5 63q0 60 12 118t44 108h-1q33 48 88 48q20 0 41 -7
q35 -13 58 -35.5t37 -57.5q16 -38 20 -70.5t7 -73.5zM321 195q1 20 1 40v40v29.5t-1 30.5q0 3 -0.5 6t-0.5 6q-2 17 -6.5 42t-14.5 48.5t-26 41t-40 20.5q-37 4 -62 -21q-13 -13 -21 -30.5t-11 -34.5l-18 -69q-5 -20 -7.5 -43.5t0.5 -43.5q2 -10 2 -19.5v-18.5q0 -17 3 -35
q1 -12 3.5 -28t7 -32t12 -31t18.5 -25t31.5 -16.5t39.5 -6.5q13 0 25 3t20 11h-1q12 10 20.5 25t14 32.5t8.5 35t3 31.5v12zM294 772q4 -4 -1.5 -24t-14.5 -42t-17.5 -40t-10.5 -18q-16 -2 -31 0.5t-25 9.5q-1 10 3 27t10 34.5t12 32.5t10 20q14 2 31 2.5t34 -2.5z" />
    <glyph glyph-name="ocircumflex" unicode="&#xf4;" horiz-adv-x="435" 
d="M371 306q1 -10 1.5 -19t1 -20t0 -25t-1.5 -33q-3 -23 -8 -49t-11 -49.5t-13 -43t-14 -29.5q-18 -23 -39.5 -31.5t-44.5 -8.5q-8 0 -21.5 2t-27.5 5t-24.5 6.5t-10.5 7.5q-40 17 -59.5 53t-24.5 79q-4 31 -6.5 62t-2.5 63q0 60 12 118t44 108h-1q33 48 88 48q20 0 41 -7
q35 -13 58 -35.5t37 -57.5q16 -38 20 -70.5t7 -73.5zM321 195q1 20 1 40v40v29.5t-1 30.5q0 3 -0.5 6t-0.5 6q-2 17 -6.5 42t-14.5 48.5t-26 41t-40 20.5q-37 4 -62 -21q-13 -13 -21 -30.5t-11 -34.5l-18 -69q-5 -20 -7.5 -43.5t0.5 -43.5q2 -10 2 -19.5v-18.5q0 -17 3 -35
q1 -12 3.5 -28t7 -32t12 -31t18.5 -25t31.5 -16.5t39.5 -6.5q13 0 25 3t20 11h-1q12 10 20.5 25t14 32.5t8.5 35t3 31.5v12zM140 667q-11 10 -20 19.5t-13 14.5q-1 1 0 3v-1l41 41l87 76q31 -30 64.5 -59.5t70.5 -55.5l7 -5l-41 -36l-9 8q-25 23 -40 38.5t-24.5 25.5t-15 15
t-10.5 7zM235 820q-3 5 1 4.5t0 -3.5z" />
    <glyph glyph-name="otilde" unicode="&#xf5;" horiz-adv-x="435" 
d="M371 306q1 -10 1.5 -19t1 -20t0 -25t-1.5 -33q-3 -23 -8 -49t-11 -49.5t-13 -43t-14 -29.5q-18 -23 -39.5 -31.5t-44.5 -8.5q-8 0 -21.5 2t-27.5 5t-24.5 6.5t-10.5 7.5q-40 17 -59.5 53t-24.5 79q-4 31 -6.5 62t-2.5 63q0 60 12 118t44 108h-1q33 48 88 48q20 0 41 -7
q35 -13 58 -35.5t37 -57.5q16 -38 20 -70.5t7 -73.5zM321 195q1 20 1 40v40v29.5t-1 30.5q0 3 -0.5 6t-0.5 6q-2 17 -6.5 42t-14.5 48.5t-26 41t-40 20.5q-37 4 -62 -21q-13 -13 -21 -30.5t-11 -34.5l-18 -69q-5 -20 -7.5 -43.5t0.5 -43.5q2 -10 2 -19.5v-18.5q0 -17 3 -35
q1 -12 3.5 -28t7 -32t12 -31t18.5 -25t31.5 -16.5t39.5 -6.5q13 0 25 3t20 11h-1q12 10 20.5 25t14 32.5t8.5 35t3 31.5v12zM327 701q6 -9 11 -18.5t9 -17.5l-5 -5q-8 -8 -17 -14t-18 -11l1 1q-14 -6 -28 -6q-13 1 -24 2.5t-22 5.5q-5 1 -9 4l-8 4t-6 4l-12 6q-10 5 -13.5 7
t-5.5 4q-17 9 -32.5 10t-31.5 -4v1q-9 -2 -15.5 -7t-13.5 -12q-2 -4 -6 -5l-7 9l-10 13v-1q-2 4 1 7l12 13l10 7q15 10 30 14q2 0 3 0.5t3 0.5t4 1t4 1q14 -1 30 -4t29 -11v1q25 -17 56 -25h-3q6 -2 10 -3t9 -2q14 -2 25.5 1t22.5 14v-1zM350 661q-3 1 -3 4q0 2 0.5 2.5
t0.5 1.5zM322 706l5 -3q1 -1 2 0l2 1l-4 -3z" />
    <glyph glyph-name="odieresis" unicode="&#xf6;" horiz-adv-x="430" 
d="M371 306q1 -10 1.5 -19t1 -20t0 -25t-1.5 -33q-3 -23 -8 -49t-11 -49.5t-13 -43t-14 -29.5q-18 -23 -39.5 -31.5t-44.5 -8.5q-8 0 -21.5 2t-27.5 5t-24.5 6.5t-10.5 7.5q-40 17 -59.5 53t-24.5 79q-4 31 -6.5 62t-2.5 63q0 60 12 118t44 108h-1q33 48 88 48q20 0 41 -7
q35 -13 58 -35.5t37 -57.5q16 -38 20 -70.5t7 -73.5zM321 195q1 20 1 40v40v29.5t-1 30.5q0 3 -0.5 6t-0.5 6q-2 17 -6.5 42t-14.5 48.5t-26 41t-40 20.5q-37 4 -62 -21q-13 -13 -21 -30.5t-11 -34.5l-18 -69q-5 -20 -7.5 -43.5t0.5 -43.5q2 -10 2 -19.5v-18.5q0 -17 3 -35
q1 -12 3.5 -28t7 -32t12 -31t18.5 -25t31.5 -16.5t39.5 -6.5q13 0 25 3t20 11h-1q12 10 20.5 25t14 32.5t8.5 35t3 31.5v12zM304 662q-13 -8 -30.5 -5.5t-25.5 16.5t-1 26.5t19.5 18t26.5 1.5t22 -22q5 -12 1.5 -21t-12.5 -14zM173 722q17 7 34 -9q6 -6 6.5 -14.5t-3 -16.5
t-9 -15t-10.5 -11q-24 -6 -34.5 1.5t-11 20.5t7.5 26t20 18z" />
    <glyph glyph-name="divide" unicode="&#xf7;" horiz-adv-x="432" 
d="M377 371q0 -3 1.5 -13.5t2 -22t0.5 -20t-3 -8.5q-84 2 -141 1.5t-93 -1.5t-55 -1t-29 3q-2 1 0.5 21t2.5 47zM260 178q0 -2 -1.5 -6.5t-2.5 -5.5q-7 -14 -25 -18t-31 3q-14 8 -18.5 28t4.5 34q8 14 25 18t29 -8q7 -7 13 -20t5 -26l2 2v-1zM213 545q10 2 19.5 -5t13.5 -15
q5 -11 2.5 -24.5t-11.5 -21.5q-3 -4 -10 -8.5t-12 -5.5q-19 -1 -33 13.5t-9 34.5q5 13 15 21t23 11q1 0 1 -0.5t1 -0.5q-1 0 -1 1h1zM213 545h-3h3z" />
    <glyph glyph-name="oslash" unicode="&#xf8;" horiz-adv-x="430" 
d="M335 689q11 -1 20 -6t4 -20v-5q-2 -4 -2 -11l-41 -150q16 -21 28 -47q16 -38 20 -70.5t7 -73.5q1 -10 1.5 -19t1 -20t0 -25t-1.5 -33q-3 -23 -8 -49t-11 -49.5t-13 -43t-14 -29.5q-18 -23 -39.5 -31.5t-44.5 -8.5q-10 0 -28.5 2.5t-33.5 7.5q-19 -66 -31.5 -108.5
t-14.5 -43.5q-13 -2 -25.5 -1.5t-26.5 -2.5q3 18 15.5 67.5t30.5 117.5q-25 20 -38 50t-16 64q-4 31 -6.5 62t-2.5 63q0 60 12 118t44 108h-1q33 48 88 48q20 0 41 -7l17 -7q19 66 32 107t15 43q5 3 10.5 3.5t11.5 -0.5zM119 184q2 -19 7 -45t16 -48q13 48 27.5 100
t28.5 104t28.5 102t27.5 95q-9 5 -21 7q-37 4 -62 -21q-13 -13 -21 -30.5t-11 -34.5l-18 -69q-5 -20 -7.5 -43.5t0.5 -43.5q2 -10 2 -19.5v-18.5q0 -17 3 -35zM321 195q1 20 1 40v40v29.5t-1 30.5q0 3 -0.5 6t-0.5 6q-2 17 -6.5 41t-14.5 47q-12 -45 -25.5 -94.5t-27.5 -99
t-27.5 -98t-26.5 -92.5q19 -6 39 -6q13 0 25 3t20 11h-1q12 10 20.5 25t14 32.5t8.5 35t3 31.5v12z" />
    <glyph glyph-name="ugrave" unicode="&#xf9;" horiz-adv-x="495" 
d="M367 597q3 0 5 0.5t6 0.5q20 -2 24 -7t4 -12q0 -11 -0.5 -24.5t-0.5 -27.5v-129t0.5 -113.5t2 -89t3.5 -56.5q2 -30 1.5 -67t0.5 -68q-2 -2 -2 -4q1 1 2 1l-3 -4q0 2 1 3q-7 -2 -15 -2h-16h-18q-7 -1 -11 7l-4 34q-19 -5 -35 -12t-32 -13.5t-32 -11t-34 -2.5t-36 8
t-34 14q-13 7 -24 19t-19 23t-12.5 24t-9.5 30q-5 14 -8.5 46.5t-5 73.5t-2 86t-0.5 86q0 44 0.5 75.5t0.5 38.5v13v27.5t2 28.5q7 2 14.5 2h16.5q13 0 22 -1.5t18 -4.5q-2 -1 -0.5 -3.5t0.5 -4.5q0 -3 -1.5 -26.5t-3 -57.5t-3.5 -74t-3.5 -75.5t-2.5 -62t-1 -33.5v-26
q-1 -23 0.5 -45t11.5 -45q5 -9 8.5 -16.5t8.5 -12.5q6 -5 26.5 -15t50.5 -10q14 0 28.5 2.5t29.5 10.5q12 6 21.5 18.5t13.5 24.5q8 19 11.5 41t4.5 41q1 14 1 29.5v29.5v39.5t-1 40.5q0 11 -0.5 22t-0.5 22q-1 46 -3.5 92t-7.5 89q0 9 14 11q8 0 15.5 0.5t12.5 1.5z
M225 766q8 0 12.5 -7.5t7 -18t3 -21t1.5 -15.5q1 -10 3 -21t0 -20q-4 -16 -16.5 -16t-20.5 11q-9 12 -15 26t-14 27q-2 3 -6 8t-7.5 10.5t-5.5 10.5t1 9q8 10 25 13t30 4h2z" />
    <glyph glyph-name="uacute" unicode="&#xfa;" horiz-adv-x="464" 
d="M367 597q3 0 5 0.5t6 0.5q20 -2 24 -7t4 -12q0 -11 -0.5 -24.5t-0.5 -27.5v-129t0.5 -113.5t2 -89t3.5 -56.5q2 -30 1.5 -67t0.5 -68q-2 -2 -2 -4q1 1 2 1l-3 -4q0 2 1 3q-7 -2 -15 -2h-16h-18q-7 -1 -11 7l-4 34q-19 -5 -35 -12t-32 -13.5t-32 -11t-34 -2.5t-36 8
t-34 14q-13 7 -24 19t-19 23t-12.5 24t-9.5 30q-5 14 -8.5 46.5t-5 73.5t-2 86t-0.5 86q0 44 0.5 75.5t0.5 38.5v13v27.5t2 28.5q7 2 14.5 2h16.5q13 0 22 -1.5t18 -4.5q-2 -1 -0.5 -3.5t0.5 -4.5q0 -3 -1.5 -26.5t-3 -57.5t-3.5 -74t-3.5 -75.5t-2.5 -62t-1 -33.5v-26
q-1 -23 0.5 -45t11.5 -45q5 -9 8.5 -16.5t8.5 -12.5q6 -5 26.5 -15t50.5 -10q14 0 28.5 2.5t29.5 10.5q12 6 21.5 18.5t13.5 24.5q8 19 11.5 41t4.5 41q1 14 1 29.5v29.5v39.5t-1 40.5q0 11 -0.5 22t-0.5 22q-1 46 -3.5 92t-7.5 89q0 9 14 11q8 0 15.5 0.5t12.5 1.5z
M293 766q4 -4 -1.5 -24t-14.5 -42t-17.5 -40t-10.5 -18q-16 -2 -31 0.5t-25 9.5q-1 10 3 27t10 34.5t12 32.5t10 20q14 2 31 2.5t34 -2.5z" />
    <glyph glyph-name="ucircumflex" unicode="&#xfb;" horiz-adv-x="488" 
d="M367 597q3 0 5 0.5t6 0.5q20 -2 24 -7t4 -12q0 -11 -0.5 -24.5t-0.5 -27.5v-129t0.5 -113.5t2 -89t3.5 -56.5q2 -30 1.5 -67t0.5 -68q-2 -2 -2 -4q1 1 2 1l-3 -4q0 2 1 3q-7 -2 -15 -2h-16h-18q-7 -1 -11 7l-4 34q-19 -5 -35 -12t-32 -13.5t-32 -11t-34 -2.5t-36 8
t-34 14q-13 7 -24 19t-19 23t-12.5 24t-9.5 30q-5 14 -8.5 46.5t-5 73.5t-2 86t-0.5 86q0 44 0.5 75.5t0.5 38.5v13v27.5t2 28.5q7 2 14.5 2h16.5q13 0 22 -1.5t18 -4.5q-2 -1 -0.5 -3.5t0.5 -4.5q0 -3 -1.5 -26.5t-3 -57.5t-3.5 -74t-3.5 -75.5t-2.5 -62t-1 -33.5v-26
q-1 -23 0.5 -45t11.5 -45q5 -9 8.5 -16.5t8.5 -12.5q6 -5 26.5 -15t50.5 -10q14 0 28.5 2.5t29.5 10.5q12 6 21.5 18.5t13.5 24.5q8 19 11.5 41t4.5 41q1 14 1 29.5v29.5v39.5t-1 40.5q0 11 -0.5 22t-0.5 22q-1 46 -3.5 92t-7.5 89q0 9 14 11q8 0 15.5 0.5t12.5 1.5z
M140 667q-11 10 -20 19.5t-13 14.5q-1 1 0 3v-1l41 41l87 76q31 -30 64.5 -59.5t70.5 -55.5l7 -5l-41 -36l-9 8q-25 23 -40 38.5t-24.5 25.5t-15 15t-10.5 7zM235 820q-3 5 1 4.5t0 -3.5z" />
    <glyph glyph-name="udieresis" unicode="&#xfc;" horiz-adv-x="464" 
d="M367 597q3 0 5 0.5t6 0.5q20 -2 24 -7t4 -12q0 -11 -0.5 -24.5t-0.5 -27.5v-129t0.5 -113.5t2 -89t3.5 -56.5q2 -30 1.5 -67t0.5 -68q-2 -2 -2 -4q1 1 2 1l-3 -4q0 2 1 3q-7 -2 -15 -2h-16h-18q-7 -1 -11 7l-4 34q-19 -5 -35 -12t-32 -13.5t-32 -11t-34 -2.5t-36 8
t-34 14q-13 7 -24 19t-19 23t-12.5 24t-9.5 30q-5 14 -8.5 46.5t-5 73.5t-2 86t-0.5 86q0 44 0.5 75.5t0.5 38.5v13v27.5t2 28.5q7 2 14.5 2h16.5q13 0 22 -1.5t18 -4.5q-2 -1 -0.5 -3.5t0.5 -4.5q0 -3 -1.5 -26.5t-3 -57.5t-3.5 -74t-3.5 -75.5t-2.5 -62t-1 -33.5v-26
q-1 -23 0.5 -45t11.5 -45q5 -9 8.5 -16.5t8.5 -12.5q6 -5 26.5 -15t50.5 -10q14 0 28.5 2.5t29.5 10.5q12 6 21.5 18.5t13.5 24.5q8 19 11.5 41t4.5 41q1 14 1 29.5v29.5v39.5t-1 40.5q0 11 -0.5 22t-0.5 22q-1 46 -3.5 92t-7.5 89q0 9 14 11q8 0 15.5 0.5t12.5 1.5z
M304 662q-13 -8 -30.5 -5.5t-25.5 16.5t-1 26.5t19.5 18t26.5 1.5t22 -22q5 -12 1.5 -21t-12.5 -14zM173 722q17 7 34 -9q6 -6 6.5 -14.5t-3 -16.5t-9 -15t-10.5 -11q-24 -6 -34.5 1.5t-11 20.5t7.5 26t20 18z" />
    <glyph glyph-name="yacute" unicode="&#xfd;" horiz-adv-x="203" 
d="M151 666q4 -4 -1.5 -24t-14.5 -42t-17.5 -40t-10.5 -18q-16 -2 -31 0.5t-25 9.5q-1 10 3 27t10 34.5t12 32.5t10 20q14 2 31 2.5t34 -2.5z" />
    <glyph glyph-name="thorn" unicode="&#xfe;" horiz-adv-x="400" 
d="M134 -24q0 -20 0.5 -42.5t0.5 -45.5v-42.5t-5 -23t-17 -8t-37 2.5q-3 1 -3 18t0.5 41t1.5 51t1 50v40q-2 9 -2 17v16q0 9 -0.5 17.5t-0.5 17.5l-3 89q-2 45 -3.5 88t-2.5 88q-1 17 -1 35.5v35.5q-1 9 -0.5 37t1 65t1.5 80t1 81t-1.5 68t-4.5 42q5 2 13.5 3.5t18 1.5
t18 -1t13.5 -2q6 -2 8.5 -12t1.5 -22l-11 -196q7 2 18 4.5l22 5t21.5 4.5t17.5 2q36 0 68 -14t51 -48q18 -30 24 -65t6 -71q0 -11 -0.5 -24t-1.5 -24q-3 -38 -9 -79l-3 -23q-2 -11 -2.5 -21t-1.5 -20q-2 -23 -6 -47t-10 -44q-4 -11 -10.5 -23t-14.5 -20l-3 -3
q-5 -5 -10 -9.5t-9 -7.5l-7 -3l2 1q-5 -2 -8 -3t-6 -4l-11 -1q-10 -1 -19 -2t-20 -1t-26 4t-40 15v-69zM124 484q-8 -14 -9 -33t0 -33v-4q3 -94 5 -148.5t4 -83.5t4.5 -40t6.5 -18q12 -20 24.5 -25.5t33.5 -10.5q36 -5 57 12t27 52q7 42 8 85.5t2 88.5q0 20 0.5 42t1.5 42
q0 15 -0.5 31t-5 31t-13.5 28t-24 21q-22 11 -41 11q-24 0 -46 -12.5t-35 -35.5z" />
    <glyph glyph-name="ydieresis" unicode="&#xff;" horiz-adv-x="413" 
d="M328 -60q-14 -34 -34 -52.5t-40 -27t-36 -10t-20 -1.5q-3 0 -11 3t-16.5 7t-16.5 8t-12 7l-8 6l-2 4q0 1 0.5 1.5t0.5 1.5t1 2q5 5 6 7.5t3 6.5q5 8 10.5 17.5t10.5 14.5l4 -3h1q14 -10 30 -17t35 -2q15 5 25.5 20t17 34.5t10 41t3.5 38.5q-47 -29 -72 -29q-23 0 -43.5 9
t-37.5 23t-27.5 33t-17.5 40.5t-10.5 44.5t-6.5 46q-5 34 -6.5 66.5t-1.5 66.5q0 16 0.5 31t0.5 32v16q0 9 -0.5 27.5t-1.5 40.5q-1 21 -1.5 42.5t-0.5 39.5v20q6 -1 9.5 -0.5t14.5 0.5h27q4 -12 4.5 -23.5t0.5 -24.5q0 -11 -0.5 -23t-1.5 -23q0 -5 -0.5 -9.5t-0.5 -9.5
q0 -14 1 -45.5t3.5 -67t5 -67.5t4.5 -48l2 -21q2 -18 5 -36.5t13 -35.5q8 -17 25.5 -32.5t37.5 -15.5q34 0 52.5 22t26 52.5t8.5 62.5t1 52q0 15 -0.5 40.5t-1.5 56t-2.5 63t-3 60t-3 47t-2.5 25.5q0 4 4.5 5t10.5 1t12.5 -0.5t10.5 -0.5h14.5t13.5 -1q5 -25 6.5 -50.5
t1.5 -50.5v-28.5t-2 -29.5q1 -9 1.5 -34.5t0.5 -59t-1 -71t-2 -70t-1.5 -56t-0.5 -29.5q0 -15 -0.5 -33t-1.5 -33q-2 -28 -9.5 -56.5t-18.5 -57.5zM285 646q-13 -8 -30.5 -5.5t-25.5 16.5t-1 26.5t19.5 18t26.5 1.5t22 -22q5 -12 1.5 -21t-12.5 -14zM154 706q17 7 34 -9
q6 -6 6.5 -14.5t-3 -16.5t-9 -15t-10.5 -11q-24 -6 -34.5 1.5t-11 20.5t7.5 26t20 18z" />
    <glyph glyph-name="dotlessi" unicode="&#x131;" horiz-adv-x="202" 
d="M139 587q-3 -128 -5.5 -218.5t-4 -151.5t-2.5 -97t-1 -55.5t0.5 -28t1.5 -13.5q0 -1 0.5 -2.5t0.5 -2.5q1 -5 2 -11t0 -6l-55 4l-7 523q0 5 -0.5 9t-0.5 9q-1 6 -1 15t1 16q-2 0 -0.5 0.5t0.5 0.5v-1l2 1q9 1 20.5 2.5t22.5 3t18.5 2.5z" />
    <glyph glyph-name="OE" unicode="&#x152;" horiz-adv-x="682" 
d="M361 756q2 6 1.5 14t-0.5 15.5t2 13.5t10 9q37 9 76 9q42 0 82 -1t82 -1q0 -14 0.5 -25.5t1.5 -20.5q1 -11 3 -19q-14 -1 -29 -2q-13 -1 -27.5 -1.5t-26.5 -1.5q-11 -1 -30 0t-37 3q-21 2 -45 3q1 -9 1 -17v-13.5t-1 -10.5q-8 -48 -7 -100t0 -102q-1 -14 -0.5 -33.5
t0.5 -37.5q0 -21 1 -44h32q14 0 27.5 -0.5t24.5 0.5q14 1 21.5 0.5t11.5 -4.5t4.5 -12t0.5 -22q0 -12 -4 -17t-10.5 -6t-15.5 0t-20 0q-13 -1 -24.5 -1t-21.5 -1l-22 -2q0 -10 1 -20q1 -8 1.5 -17.5t0.5 -14.5q2 -30 3.5 -60t3.5 -61q2 -25 2 -49.5t4 -49.5q20 -4 38.5 -3.5
t38.5 0.5q19 0 37.5 -1t37.5 0q13 0 19 -5t8 -14t1.5 -20.5t0.5 -23.5q-23 0 -65 2t-83 5q-48 4 -102 8q0 17 -1 37t-6 36q-11 -13 -20 -22t-17.5 -16t-17.5 -12t-21 -11q-34 -16 -67 -11.5t-60.5 22t-49 44.5t-32.5 57q-13 36 -19 71.5t-8.5 72t-2 73t0.5 73.5
q0 34 -0.5 69t2.5 69t11 67t24 64t40 51t57 33q22 13 47 12.5t49 -5.5q21 -4 41 -11.5t43 -29.5q0 5 0.5 10t-1.5 9zM117 301q2 -43 5.5 -85t24.5 -81q14 -27 38 -42.5t51 -17.5t52.5 10t42.5 41q-1 -1 -1 -3q15 24 21.5 49t8.5 50.5t1 52.5t-1 55q0 69 4.5 138t-2.5 137
q0 31 -14 54.5t-36 37t-50 17t-55 -4.5q-34 -11 -52.5 -38t-27.5 -56q-12 -36 -15.5 -75.5t-3 -80t3.5 -81t5 -77.5zM332 128q-1 -1 -1 -2q0 1 1 2z" />
    <glyph glyph-name="oe" unicode="&#x153;" horiz-adv-x="647" 
d="M323 29q-18 -20 -49.5 -29.5t-59.5 -9.5q-9 0 -16.5 1t-15.5 4q-1 0 -1.5 0.5t-1.5 0.5h-1q-27 16 -49 36.5t-37 46.5q-6 11 -11 27t-8 30q-8 34 -11 68t-3 66q0 21 1.5 42.5t3.5 42.5q3 29 8.5 59t11.5 60q6 24 17 46.5t24 43.5q25 36 67 46q39 8 71.5 4t62.5 -29h-1
l15 -14l25 -34q0 3 5 10t13 14.5t20.5 14.5t27.5 11q8 2 15 2.5t13 0.5q37 0 69 -23q20 -14 33 -31.5t23 -37.5q2 -4 3.5 -9.5t2.5 -10.5q4 -23 6.5 -44.5t3.5 -42.5q1 -20 2 -42.5t3 -48.5v-1h-1q0 1 -8 1t-17.5 -0.5t-18 -1t-10.5 -0.5h-139q-26 0 -32 -5.5t-7 -32.5
q0 -33 2 -66t5 -63v-6.5t2 -5.5q3 -28 20 -39.5t41 -15.5q8 -1 16.5 -1h17.5q15 1 26 6.5t20 16.5q18 26 19 50l2 37q0 3 8 3.5t18.5 -0.5t20.5 -2.5t14 -1.5h1v-1q7 -24 2 -41q-10 -33 -15.5 -52t-15.5 -34q-7 -8 -18.5 -16.5t-25.5 -15.5t-31 -10.5t-34 -1.5q-16 2 -33 3
t-33 5.5t-30 14.5t-23 30zM119 209v-5q2 -25 7.5 -48.5t15.5 -44.5q6 -14 15.5 -28t21.5 -24t27 -13.5t33 4.5q34 15 50 44t21.5 63t4.5 69t-1 62q0 4 0.5 12.5t0.5 17v16.5v13q1 11 1.5 24.5t-0.5 24.5q0 14 -1 28t-3 27q-5 25 -8.5 45t-11.5 34.5t-24 22t-46 7.5
q-32 -9 -57 -41t-34 -85q-6 -16 -9.5 -37.5t-5 -44t-2 -44.5t0.5 -38zM370 348q14 1 43 1t58 0.5t50.5 1.5t21.5 4v14t-0.5 22t-0.5 22.5v15.5q1 29 -10.5 51.5t-32.5 40.5q-8 7 -16 12t-19 5q-25 2 -48 -7.5t-35 -32.5q-5 -9 -6.5 -15t-3.5 -11q-5 -16 -5 -31.5t2 -31
t3.5 -31t-1.5 -30.5z" />
    <glyph glyph-name="Scaron" unicode="&#x160;" horiz-adv-x="480" 
d="M337 363q28 -28 52 -62t33 -72q4 -17 4 -35q0 -20 -4 -39q-5 -24 -10 -47t-22 -44h1q-15 -17 -41.5 -33.5t-51.5 -23.5h1q-15 -3 -31 -5t-30 -2t-27 1.5t-24 4.5h1q-24 8 -48.5 26t-38.5 38q-6 8 -12 20t-10.5 24.5t-7 25t-0.5 21.5t8.5 11.5t14.5 3.5q2 0 3.5 0.5
t4.5 0.5q11 1 21.5 1t19.5 -2q1 -21 9 -41t22 -36t32.5 -25.5t40.5 -9.5q8 0 18 1.5t19 5.5h-1q38 14 55 42.5t17 61.5q0 21 -6.5 42.5t-17.5 41.5q-28 48 -65 86.5t-78 75.5l-23 19q-25 20 -46.5 41.5t-35.5 50.5q-9 20 -14.5 46.5t-5.5 51.5q0 23 7 50.5t16 45.5
q13 20 32.5 36t42 27.5t47.5 16.5t49 4q18 -2 34.5 -6t30.5 -12h-1q12 -8 29 -22t24 -28l10 -18h-1q5 -10 10.5 -21.5t9.5 -22.5t6 -19t0 -11v1q-5 -5 -22.5 -9.5t-34.5 -4.5h-15q-4 4 -5 8.5t-1 9.5q-1 6 -2 11.5t-4 11.5q-13 28 -32 44q-14 10 -35 18t-38 8
q-20 -1 -36.5 -11t-27.5 -23q-21 -25 -30.5 -58t-3.5 -65q5 -25 19.5 -43.5t31.5 -34.5l-1 3l10 -13q18 -19 38 -36.5t41 -34.5q20 -17 39.5 -34t36.5 -35zM386 910l-38 -13q-26 -9 -54.5 -18.5t-48.5 -14.5q-6 -3 -23.5 2.5t-38 13.5t-40 17.5t-30.5 14.5q3 18 9.5 34.5
t16.5 26.5q0 -2 13 -10.5t30 -17.5q20 -11 36 -20.5t28 -9.5q2 0 17 5.5t34.5 12.5t39.5 14.5t33 13.5z" />
    <glyph glyph-name="scaron" unicode="&#x161;" horiz-adv-x="411" 
d="M347 706l-38 -13q-26 -9 -54.5 -18.5t-48.5 -14.5q-6 -3 -23.5 2.5t-38 13.5t-40 17.5t-30.5 14.5q3 18 9.5 34.5t16.5 26.5q0 -2 13 -10.5t30 -17.5q20 -11 36 -20.5t28 -9.5q2 0 17 5.5t34.5 12.5t39.5 14.5t33 13.5zM345 550q-4 -6 -11 -15t-14.5 -17.5t-13.5 -14.5
t-8 -6q-14 16 -36 26.5t-45 10.5q-21 0 -39 -12.5t-26 -36.5q-5 -26 0.5 -48t18 -41t29.5 -35.5t35 -30.5q-2 2 0 0.5t5 -4t6.5 -6t5.5 -4.5q36 -29 65.5 -63t40.5 -79v2q3 -13 2.5 -29t-3.5 -32.5t-8.5 -31.5t-12.5 -26q-8 -10 -16.5 -18.5t-30.5 -22.5q-14 -8 -34 -12
t-38 -4q-20 0 -36.5 3t-26.5 8q-32 11 -58 33q-3 1 -8.5 5l-11 8t-9.5 7.5t-4 4.5q0 2 6.5 10.5t15 17.5t17 15t13.5 2q10 -9 23 -19t27 -19t29 -14.5t29 -5.5q23 0 39.5 15.5t24.5 54.5q6 30 -3 55.5t-27 48t-41.5 42.5t-47.5 38q-17 14 -36 29t-30 28q-14 20 -21 43.5
t-7 46.5q0 25 12 54t32 48q23 20 49 29t51 9q17 0 32 -4q50 -13 71 -29t20 -18z" />
    <glyph glyph-name="Ydieresis" unicode="&#x178;" horiz-adv-x="468" 
d="M292 335q0 -17 0.5 -56t0.5 -86v-64v-58t-0.5 -42t-1.5 -17h-1q-2 0 -3 1q-3 0 -6.5 0.5t-5.5 0.5q-3 0 -16 -2t-18 -3q-2 -1 -7 -1v46q0 14 0.5 29t0.5 29v47q0 11 -0.5 40t-1 61.5t-1 61.5t-1.5 40q-2 19 -16 55t-32 77.5t-36 84t-28 74.5q-4 14 -8.5 27t-10.5 27v-2
l-25 70l-4 8q-2 3 -3.5 9t-3.5 12q0 4 9.5 7t20.5 4.5t21.5 0.5t13.5 -5l14 -42q7 -22 17 -50t21 -58.5t23 -59.5t22.5 -53t18.5 -40t13 -18q2 2 9.5 23t17.5 52.5t21.5 68.5t22 72t18 62.5t10.5 40.5q2 2 7.5 1t11.5 -2h20h12t11 -2q-2 -2 -5 -10t-7 -18.5t-8.5 -22
t-7.5 -20.5q-1 -4 -2.5 -7t-2.5 -7l1 1q-5 -20 -11.5 -41t-12.5 -42q-12 -41 -24 -80t-22 -72t-17 -56t-7 -31zM310 863q-13 -8 -30.5 -5.5t-25.5 16.5t-1 26.5t19.5 18t26.5 1.5t22 -22q5 -12 1.5 -21t-12.5 -14zM179 923q17 7 34 -9q6 -6 6.5 -14.5t-3 -16.5t-9 -15
t-10.5 -11q-24 -6 -34.5 1.5t-11 20.5t7.5 26t20 18z" />
    <glyph glyph-name="Zcaron" unicode="&#x17d;" horiz-adv-x="466" 
d="M404 775q6 -4 4.5 -3.5t-4.5 2.5v1zM294 782q35 0 65 -2t45 -6q-3 -20 -10 -41.5t-15.5 -44t-17 -44.5t-15.5 -41q-9 -20 -17 -44.5t-16 -51.5q-6 -20 -12.5 -40.5t-14.5 -40.5l-17 -45v1q-14 -33 -32 -80t-36 -95t-32.5 -90t-20.5 -64q10 -3 30 -5t43.5 -3t49 -1t47 0.5
t37 1t20.5 1.5q2 0 3.5 0.5t3.5 0.5q12 2 20 0.5t9 -7.5q-1 -5 -1 -10.5v-9.5q0 -8 -1 -12.5t-8 -6.5h1q-24 -4 -68 -5.5t-92 -1.5q-24 0 -47.5 0.5t-44.5 0.5h-77q-9 0 -9 7q2 18 8.5 36t15.5 35l-1 -1l6 13q7 17 21.5 61.5t33.5 101.5t41 122.5t44.5 129.5t45.5 120.5
t43 95.5q-20 4 -52.5 4.5t-65 -1t-58.5 -3.5t-32 -2q-11 0 -16 1.5t-7 11.5q-1 4 -1.5 10t-1 12.5t0.5 11.5t3 7q3 3 22 5t47.5 4t63.5 3t69 1zM406 877l-38 -13q-26 -9 -54.5 -18.5t-48.5 -14.5q-6 -3 -23.5 2.5t-38 13.5t-40 17.5t-30.5 14.5q3 18 9.5 34.5t16.5 26.5
q0 -2 13 -10.5t30 -17.5q20 -11 36 -20.5t28 -9.5q2 0 17 5.5t34.5 12.5t39.5 14.5t33 13.5z" />
    <glyph glyph-name="zcaron" unicode="&#x17e;" horiz-adv-x="394" 
d="M162 49q11 -3 30.5 -3t42.5 1q14 1 27 1.5t27 0.5q23 0 39 -2t14 -9q1 -8 1.5 -21t-1.5 -21h-50h-56.5h-63t-58.5 -0.5t-42 -0.5q-9 0 -9 7q0 15 6 35t14.5 41t17.5 40.5t14 34.5q13 35 28 76t29 81.5t26 79t19.5 69t8 49.5t-7.5 22h1q-6 2 -23 2.5t-36.5 0t-37.5 -2
t-26 -3.5h1q-8 -2 -18 -2t-10 7v15q0 10 -0.5 17.5t1.5 15.5q32 4 80 5t93 1h51.5t36.5 1q-2 -12 -10.5 -38.5t-21.5 -61.5t-28.5 -76t-31.5 -83q-17 -44 -34 -89t-31 -83.5t-23 -67t-9 -39.5h20zM345 689l-38 -13q-26 -9 -54.5 -18.5t-48.5 -14.5q-6 -3 -23.5 2.5t-38 13.5
t-40 17.5t-30.5 14.5q3 18 9.5 34.5t16.5 26.5q0 -2 13 -10.5t30 -17.5q20 -11 36 -20.5t28 -9.5q2 0 17 5.5t34.5 12.5t39.5 14.5t33 13.5z" />
    <glyph glyph-name="florin" unicode="&#x192;" horiz-adv-x="400" 
d="M86 64q42 18 61 49t19 77q0 72 3 146.5t3 146.5q-22 -3 -38 -5t-28 -2.5t-21 -1t-18 -0.5q-1 16 -2 31.5t-3 30.5l103 12q6 42 6 82t5.5 77.5t21.5 71.5t55 65l-1 -1q25 11 49 11q27 0 53.5 -10.5t46.5 -27.5l-49 -48q-10 5 -20.5 9.5t-21.5 4.5q-27 0 -43.5 -18
t-25.5 -43t-11.5 -53t-2.5 -47q0 -17 1.5 -34t3.5 -34q15 -6 31.5 -4.5t30 1.5t22.5 -6.5t9 -28.5v-12.5t-1 -13.5l-3 -3h1q-19 -5 -41.5 -5.5t-42.5 -1.5q-5 -71 -3.5 -139.5t1.5 -138.5q0 -18 -1 -37.5t-6 -36.5v1q-8 -24 -20.5 -47.5t-30 -42t-39.5 -29.5t-50 -11
q-2 0 -3 4t-1 9v9.5v6.5z" />
    <glyph glyph-name="circumflex" unicode="&#x2c6;" horiz-adv-x="395" 
d="M99 641q-11 10 -20 19.5t-13 14.5q-1 1 0 3v-1l41 41l87 76q31 -30 64.5 -59.5t70.5 -55.5l7 -5l-41 -36l-9 8q-25 23 -40 38.5t-24.5 25.5t-15 15t-10.5 7zM194 794q-3 5 1 4.5t0 -3.5z" />
    <glyph glyph-name="tilde" unicode="&#x2dc;" horiz-adv-x="404" 
d="M327 780q6 -9 11 -18.5t9 -17.5l-5 -5q-8 -8 -17 -14t-18 -11l1 1q-14 -6 -28 -6q-13 1 -24 2.5t-22 5.5q-5 1 -9 4l-8 4t-6 4l-12 6q-10 5 -13.5 7t-5.5 4q-17 9 -32.5 10t-31.5 -4v1q-9 -2 -15.5 -7t-13.5 -12q-2 -4 -6 -5l-7 9l-10 13v-1q-2 4 1 7l12 13l10 7
q15 10 30 14q2 0 3 0.5t3 0.5t4 1t4 1q14 -1 30 -4t29 -11v1q25 -17 56 -25h-3q6 -2 10 -3t9 -2q14 -2 25.5 1t22.5 14v-1zM350 740q-3 1 -3 4q0 2 0.5 2.5t0.5 1.5zM322 785l5 -3q1 -1 2 0l2 1l-4 -3z" />
    <glyph glyph-name="endash" unicode="&#x2013;" horiz-adv-x="432" 
d="M377 371q2 -6 3 -15t1.5 -19.5t0.5 -20.5v-17q-83 5 -132.5 7.5t-77.5 3t-39.5 -0.5t-17.5 -1l-55 1q0 1 -1 11.5t-2 22.5t-1 22t2 10z" />
    <glyph glyph-name="emdash" unicode="&#x2014;" horiz-adv-x="644" 
d="M62 374q72 4 136.5 6t128 1.5t129 -3t139.5 -5.5v-28.5t0.5 -16.5t0.5 -9t-1 -7q-30 4 -71.5 7t-89 5t-98 2.5t-100 0t-95 -2.5t-81.5 -5q2 1 2.5 9.5t0.5 33.5z" />
    <glyph glyph-name="quoteleft" unicode="&#x2018;" horiz-adv-x="194" 
d="M72 741q5 6 8 11.5t7 9t9.5 5t14.5 -0.5q14 0 21.5 -8t10 -19t0 -23t-9.5 -20q-13 -16 -26 -18t-24 4.5t-19.5 19.5t-11.5 28t0.5 29.5t15.5 24.5q5 4 13 10.5t12 4.5q2 -5 -0.5 -10.5t-7 -12t-8.5 -15t-5 -20.5z" />
    <glyph glyph-name="quoteright" unicode="&#x2019;" horiz-adv-x="25" 
d="M1 710q-1 9 3 15.5t9 12.5t9 13t2 17q-7 -5 -15 -11t-22 -3q-10 2 -16.5 8.5t-9 15.5t-1 18.5t6.5 17.5q8 13 20 15.5t23.5 -2t20.5 -14.5t12 -23q2 -11 0.5 -24t-5.5 -23q-2 -5 -5 -11t-6 -10q-5 -6 -11.5 -12t-14.5 0z" />
    <glyph glyph-name="quotesinglbase" unicode="&#x201a;" horiz-adv-x="194" 
d="M82 -8q4 2 7 3t11 4q13 6 15 24q-11 -7 -22.5 -6.5t-21 6.5t-15.5 15.5t-5 21.5q1 10 7.5 18t16 12.5t20.5 5t21 -5.5q8 -7 16.5 -17.5t10.5 -28.5q1 -15 -4 -31.5t-19 -25.5q-4 -2 -14 -8t-18 -4l-4.5 9t-1.5 8z" />
    <glyph glyph-name="quotedblleft" unicode="&#x201c;" horiz-adv-x="295" 
d="M120 804q-14 -12 -24 -20.5t-15 -25.5q7 5 15 6t20 -5q8 -7 13 -17.5t3 -25.5q-2 -9 -8 -17q-7 -4 -13.5 -7.5t-16.5 -4.5q-20 -2 -30.5 11t-12.5 31t3 36.5t16 29.5t17.5 16t11.5 9q4 2 11.5 -3.5t9.5 -12.5zM212 789q-3 -2 -6 -3t-11 -4q-14 -6 -15 -24q10 7 22 6.5
t21.5 -6.5t15.5 -15.5t5 -20.5t-7.5 -19t-16 -12.5t-20.5 -4.5t-21 5q-9 7 -17.5 17.5t-9.5 29.5q-1 14 4 30.5t19 25.5q3 2 13.5 8.5t17.5 3.5q3 -4 5.5 -9t0.5 -8z" />
    <glyph glyph-name="quotedblright" unicode="&#x201d;" horiz-adv-x="269" 
d="M98 753q-11 -5 -24 -2t-20 15q-8 15 -2 33t14 29q12 11 30 7t25 -19q15 -36 4 -70q-2 -7 -5 -13.5t-5 -10.5q-2 -3 -8 -7t-11.5 -5.5t-10 1t-3.5 11.5q0 5 3 8l6 6t5.5 7t1.5 10zM184 753q-12 -1 -20.5 3.5t-17.5 9.5q-5 7 -5.5 18t2.5 21.5t8.5 19.5t13.5 12q11 4 21 0
t17.5 -13t11.5 -20.5t3 -20.5q-2 -20 -7 -33t-17 -24q-1 -1 -5 -4t-8.5 -6.5t-9 -5.5t-7.5 -2q-5 2 -8 6.5t-2 9.5q1 7 7 10.5t12 6.5t10 5.5t1 6.5z" />
    <glyph glyph-name="quotedblbase" unicode="&#x201e;" horiz-adv-x="269" 
d="M98 0q-11 -5 -24 -2t-20 15q-8 15 -2 33t14 29q12 11 30 7t25 -19q15 -36 4 -70q-2 -7 -5 -13.5t-5 -10.5q-2 -3 -8 -7t-11.5 -5.5t-10 1t-3.5 11.5q0 5 3 8l6 6t5.5 7t1.5 10zM184 0q-12 -1 -21 0.5t-17 12.5q-5 7 -5.5 18t2.5 21.5t8.5 19.5t13.5 12q11 4 21 0
t17.5 -13t11.5 -20.5t3 -20.5q-2 -20 -6.5 -32.5t-16.5 -23.5q-1 -1 -5 -4t-8.5 -6.5t-9 -5.5t-7.5 -2q-5 2 -8 6.5t-2 9.5q1 6 6 9l10 6t9.5 5.5t3.5 7.5z" />
    <glyph glyph-name="dagger" unicode="&#x2020;" horiz-adv-x="435" 
d="M86 583v13t1 12q0 5 2.5 9.5t4.5 9.5v1q5 1 4.5 0.5t4.5 -0.5l109 -1l5 157v13t1 14q0 3 5 3q30 1 37.5 1t11.5 -1q7 -1 6 -5q-3 -14 -3 -41.5t0.5 -56.5t1.5 -53.5t1 -31.5q15 -5 26.5 -5.5t22.5 0.5t21.5 1t24.5 -3q6 -2 6 -5q-1 -9 -1.5 -19t-0.5 -19q0 -1 -3 -1
q-7 0 -16.5 1t-16.5 1q-17 1 -27.5 1.5t-17.5 0.5t-12.5 -0.5t-12.5 -0.5l-13 -527l3 -31q0 -5 -5.5 -8t-13 -4.5t-15.5 -2t-12 -0.5q-5 0 -9 2q-1 0 -2 1t-2 1q0 3 -0.5 6.5t-0.5 7.5v9.5t-1 7.5q1 119 2.5 214t2.5 163t2 108t1 49z" />
    <glyph glyph-name="daggerdbl" unicode="&#x2021;" horiz-adv-x="440" 
d="M249 624q15 -2 31.5 -1.5t33 1.5t33 0.5t31.5 -4.5q1 0 3 -1t2 -2q1 -5 1.5 -8.5t0.5 -5.5q1 -11 1 -22v-23h-17q-11 0 -29.5 1t-37 1t-34 -0.5t-21.5 -3.5q-7 -35 -5.5 -62.5t3.5 -49.5q1 -13 -1 -18t0 -6q1 0 7 -1t13 -2t13.5 -2t7.5 -1q42 -2 63.5 -1t23.5 -1h1
q2 -13 3.5 -30t1.5 -31h-134q0 -2 -0.5 -9t-0.5 -11q2 -96 3.5 -153t3 -89t2 -46t1.5 -24q1 -11 -1 -12.5t-13 -2.5q-26 -3 -48 3q5 11 2.5 23.5t-2.5 23.5v176q0 36 -0.5 60t-0.5 39v22v9q-23 -2 -35.5 -3t-22.5 -1h-68q-1 26 -1 36.5t2 18.5q10 1 27.5 1h36t34 1t21.5 4
q6 19 5 23t-1 9q1 27 1.5 42.5t0.5 26t-1.5 18.5t-4.5 19q-29 0 -57 -1t-56 2q-1 3 -1 7.5v9.5q0 9 1 21t3 29l118 1q2 8 1 15.5t-1 12.5q-1 30 -0.5 52t1 38.5t1.5 29t1 24.5q0 5 0.5 8.5t0.5 8.5q16 -1 25 -1.5t14.5 -1t7.5 -0.5h4q0 -18 -0.5 -46t-1.5 -56t0 -51.5
t4 -32.5z" />
    <glyph glyph-name="bullet" unicode="&#x2022;" horiz-adv-x="256" 
d="M201 343q-19 -11 -42 -15.5t-45 -2.5q-24 1 -44.5 18t-24.5 39q-5 16 -0.5 39.5t9.5 37.5q7 15 16 25.5t21 15.5q23 9 51 5.5t48 -19.5q14 -11 25.5 -28t15.5 -38q2 -29 -6.5 -47t-23.5 -30z" />
    <glyph glyph-name="ellipsis" unicode="&#x2026;" horiz-adv-x="383" 
d="M319 10q-13 -8 -30.5 -5.5t-25.5 16.5t-1 26.5t19.5 18t26.5 1.5t22 -22q5 -12 1.5 -21t-12.5 -14zM188 70q17 7 34 -9q6 -6 6.5 -14.5t-3 -16.5t-9 -15t-10.5 -11q-24 -6 -34.5 1.5t-11 20.5t7.5 26t20 18zM80 0q-21 7 -26 19t-1.5 23.5t12.5 20t17 8.5q21 0 31.5 -14
t10.5 -29t-11 -25t-33 -3z" />
    <glyph glyph-name="perthousand" unicode="&#x2030;" horiz-adv-x="1023" 
d="M95 764q-11 -8 -20.5 -18t-17.5 -21q-10 -15 -16.5 -39t-10 -50t-4.5 -52t1 -44q4 -35 14 -65.5t27.5 -52t44.5 -33.5t66 -9q43 0 70 20.5t41.5 52t19.5 69.5t5 73v13q-1 45 -18.5 86.5t-53.5 67.5q-15 11 -36 16.5t-41 5.5t-38.5 -4.5t-32.5 -15.5zM891 419
q-69 15 -105.5 -11.5t-53.5 -99.5q-12 -42 -12 -97q0 -51 16 -97t58 -74q33 -23 74 -23q27 0 53 11t47 34q23 25 32 55.5t9 63.5q0 19 -2.5 39t-7.5 40q-5 23 -11 48t-17 47.5t-30 39.5t-50 24zM643 324q-13 37 -38.5 66.5t-66.5 30.5q-43 1 -74.5 -9.5t-48.5 -49.5
q-14 -32 -22 -67t-8 -70q0 -28 5 -54.5t13 -51.5q8 -20 23.5 -38t34.5 -32.5t41 -23.5t44 -9q39 5 64.5 32t36.5 64v-1q5 16 8.5 35t5.5 38q2 32 -2.5 70t-15.5 70zM547 373q12 -4 22.5 -9.5t18.5 -15.5q12 -14 19.5 -32.5t12 -38t6 -39t1.5 -35.5q0 -33 -6.5 -66t-23.5 -53
q-8 -8 -22.5 -18t-26.5 -12t-29 2.5t-26 10.5q-38 23 -56.5 67.5t-18.5 90.5q0 32 6 58v-1q5 25 16 50.5t40 36.5h-1q15 6 33 7.5t35 -3.5zM85 471q-13 26 -16.5 56.5t-3.5 55.5q-1 26 2 59t20 56q13 17 39 29.5t49 10.5q26 -3 43.5 -18t28 -37t15 -49t4.5 -54q0 -29 -4 -56
t-10 -46v1q-4 -12 -13.5 -21.5t-22.5 -17t-28 -11.5t-30 -4q-16 0 -30.5 5t-23.5 14t-19 27zM771 310q9 29 30 50q12 10 27 16t32 6q12 0 25.5 -4.5t24.5 -13.5q20 -17 28.5 -39.5t13.5 -42.5q4 -20 8.5 -43.5t4.5 -49.5q0 -37 -15 -69.5t-55 -46.5q-18 -6 -37.5 -5.5t-36 8
t-29.5 22t-18 34.5q-6 21 -9.5 48t-3.5 55q0 19 2 38.5t8 36.5zM404 611q21 67 32.5 106t17.5 58.5t7.5 24.5t2.5 5q24 -1 35.5 -1.5t15.5 -1t4 -1t1 -1.5q0 -3 -0.5 -7.5t-2.5 -7.5l-81 -246q-11 -28 -28.5 -71.5t-37 -94.5t-40.5 -105.5t-40 -103.5t-33.5 -88.5
t-22.5 -60.5q-8 1 -11 1h-13l-24 1z" />
    <glyph glyph-name="guilsinglleft" unicode="&#x2039;" horiz-adv-x="350" 
d="M277 534q3 -2 6 -4.5t7 -4.5l-68 -101v1q-17 -23 -32.5 -46.5t-28 -43.5t-20 -35t-7.5 -21t8.5 -23t21.5 -40.5t29.5 -50.5t32.5 -52t29.5 -46.5t22.5 -32.5q-5 -8 -12 -19.5t-12 -13.5q-7 -6 -13 -2.5t-12 10.5q-14 16 -35 48.5t-42 66.5t-38.5 63t-23.5 40l-6 11h1
q-9 14 -17 30t-1 25q56 83 88 131t49.5 73t24 33.5t12.5 13.5q7 7 16.5 2.5t19.5 -12.5z" />
    <glyph glyph-name="guilsinglright" unicode="&#x203a;" horiz-adv-x="349" 
d="M65 539q4 5 18.5 10t24.5 6q3 0 18 -20.5t35 -51.5t42.5 -67t42 -67.5t32 -53t13.5 -23.5q1 -3 0 -4l1 1q-2 -8 -2 -10q-14 -20 -35.5 -55t-43.5 -71t-40 -66.5t-24 -41.5q-2 -2 -3.5 -6.5t-3.5 -8.5l-8 -14q-11 0 -24.5 5.5t-21.5 12.5l-5 3q3 6 14 25.5t26 45t32 53
t31 50.5q13 22 22.5 38t11.5 21q6 6 -2 26t-23.5 47.5t-36 59.5t-40 62.5t-34 55.5t-17.5 38z" />
    <glyph glyph-name="Euro" unicode="&#x20ac;" horiz-adv-x="457" 
d="M359 265h-48.5t-58 0.5t-63 1t-63.5 1.5v-46.5t4 -47.5t12.5 -44.5t25.5 -37.5q17 -17 41 -26.5t47 -2.5q23 9 38 28t24 37q4 8 14.5 8t21.5 -2l17 -3h6q6 -1 13 -2t9 -3q1 -1 -3.5 -8t-9.5 -12q-11 -18 -24 -35.5t-28 -32t-32.5 -24.5t-38.5 -13q-38 -5 -75.5 9.5
t-65.5 40.5q-38 36 -48.5 83t-10.5 98q0 11 -0.5 20.5t0.5 19.5q-14 1 -25.5 2t-21.5 3v28v12t1 10q4 2 17.5 2t30.5 1q1 17 1 34.5v34.5v61h-55q-3 0 -3.5 8.5t1 19t4 19t6.5 9.5q11 1 20 1h18h11q2 32 6 64t12 63q7 27 20 54.5t31.5 50t42.5 37.5t54 19q25 0 53 -10
t53 -26.5t42 -39t19 -48.5l-17 -7l1 1q-13 -6 -25 -11.5t-25 -4.5l-6 16q-5 16 -12 29.5t-22 23.5q-12 7 -23.5 11t-25.5 4q-12 0 -24.5 -4.5t-23.5 -12.5q-21 -18 -34 -41t-20 -48t-9.5 -50.5t-3.5 -49.5v-12t-1 -11h7q20 -2 41 -2h44q12 0 48.5 1.5t85.5 -11.5q5 -2 7 -8
t2 -14t-1 -15t-2 -10q-22 0 -47.5 0.5t-52.5 0.5l-134 3q-1 -31 -1.5 -61.5t-0.5 -60.5v-8q32 0 59.5 -0.5t36.5 1.5q26 0 50 0.5t42.5 1.5t29.5 2.5t11 3.5q3 -13 3.5 -25t0.5 -21v-27z" />
    <glyph glyph-name="trademark" unicode="&#x2122;" horiz-adv-x="463" 
d="M325 661q7 6 18 24.5t22.5 40.5t21 44t14.5 35q6 2 15 3t17 0q3 -96 4.5 -149.5t2.5 -80.5t1.5 -35t0.5 -12l-1 -28l-39 -3q-8 15 -7.5 46t3 64t5 60.5t-1.5 35.5q-18 -35 -30 -60t-19 -41.5t-10.5 -26.5t-4.5 -14q-6 0 -8 1q-14 30 -32 73t-39 83q-6 -67 -6.5 -108.5
t1 -65t4 -32.5t2.5 -11q0 -1 -0.5 -2t-0.5 -3q-3 0 -9 -0.5t-12 -0.5t-10.5 1t-4.5 3q-2 54 -3.5 100.5t-2.5 81.5t-1 57v28q1 11 1 23v23h17q5 0 7 -0.5t7 -0.5zM119 530v-12t-1 -12v-1q-9 -2 -18 -3t-17 3v29q1 38 0.5 77t-2 71t-2.5 55t-1 30q0 2 -0.5 9.5t-0.5 8.5
q-16 3 -31.5 3.5t-24.5 0.5q-11 7 -8 15.5t4 14.5v1h128h4q1 0 2 1q6 0 6 -1q1 -11 1.5 -19t0.5 -16h-13q-5 0 -17 -1.5t-17 -2.5zM260 500l-2 -1v-2q1 1 1 1.5t2 1.5h-1zM83 505q-2 0 -2 1z" />
  </font>
</defs>
</svg>
