<?xml version="1.0" standalone="no"?>
<!DOCTYPE svg PUBLIC "-//W3C//DTD SVG 1.1//EN" "http://www.w3.org/Graphics/SVG/1.1/DTD/svg11.dtd" >
<svg xmlns="http://www.w3.org/2000/svg" xmlns:xlink="http://www.w3.org/1999/xlink" version="1.1">
<metadata>
Created by FontForge 20170731 at Thu Mar 19 01:15:32 2015
 By Aleksey,,,
Copyright (c) 2014 by Kimmy Design. All rights reserved.
</metadata>
<defs>
<font id="LunchBox" horiz-adv-x="383" >
  <font-face 
    font-family="LunchBox"
    font-weight="400"
    font-stretch="normal"
    units-per-em="1000"
    panose-1="0 0 0 0 0 0 0 0 0 0"
    ascent="700"
    descent="-300"
    x-height="452"
    cap-height="698.5"
    bbox="-384.6 -291.474 1125 1028"
    underline-thickness="50"
    underline-position="-150"
    unicode-range="U+000D-FB02"
  />
<missing-glyph horiz-adv-x="237" 
 />
    <glyph glyph-name=".notdef" horiz-adv-x="237" 
 />
    <glyph glyph-name=".null" horiz-adv-x="0" 
 />
    <glyph glyph-name="nonmarkingreturn" unicode="&#xd;" horiz-adv-x="237" 
 />
    <glyph glyph-name="NULL" horiz-adv-x="0" 
 />
    <glyph glyph-name="NULL" horiz-adv-x="0" 
 />
    <glyph glyph-name="space" unicode=" " horiz-adv-x="237" 
 />
    <glyph glyph-name="exclam" unicode="!" horiz-adv-x="172" 
d="M87 69q13 4 21.5 0.5t14 -11t7 -16.5t-0.5 -15q-3 -12 -16 -18.5t-24 -8.5q-7 -1 -15.5 6t-12 18t1 23t24.5 22zM124 212q0 -16 2 -35t-6 -32q-4 -6 -11.5 -9t-15 -3.5t-14 -0.5h-8.5q-9 0 -14 1t-6 12q-2 16 1.5 32t3.5 32q0 13 -1 45t-2.5 73t-3.5 85.5t-3.5 83
t-2.5 66t-1 33.5q1 15 2.5 33.5t9.5 31.5q11 5 27.5 3t24.5 -6q2 -13 4.5 -48.5t4.5 -81t3.5 -96.5t3 -96t2 -78.5t0.5 -44.5z" />
    <glyph glyph-name="quotedbl" unicode="&#x22;" horiz-adv-x="207" 
d="M48 595q-2 26 -4.5 47.5t-0.5 25.5q2 3 8 4t13 0.5t13 -2t8 -2.5q4 -4 5.5 -13.5t1.5 -20.5t-1 -23.5t-1 -22.5q0 -3 -6 -3t-13 0.5t-13.5 2t-7.5 2.5q0 4 -2 5zM166 666q-4 -7 -4.5 -19t0 -23.5t1 -20.5t-0.5 -11q-3 -2 -11.5 -2.5t-17 -0.5t-15 1t-6.5 3q1 13 1 27v25
t0.5 18.5t3.5 7.5q3 1 10 1h15t14.5 -0.5t7.5 -1.5t0.5 -2.5t1.5 -1.5z" />
    <glyph glyph-name="numbersign" unicode="#" horiz-adv-x="548" 
d="M401 383q-1 -15 -1.5 -30.5t-0.5 -30.5q0 -11 0.5 -20.5t0.5 -20.5l28 2h17t16 -1q3 0 8.5 1t11 1t10 -1.5t5.5 -6.5q3 -10 3.5 -21t0.5 -22t-0.5 -24t-10.5 -13q-14 1 -27 2.5t-26 2.5q-8 1 -16.5 0.5t-16.5 -0.5v-47q-2 -16 -2 -32.5t1 -33.5t1.5 -35.5t-3.5 -35.5
q1 5 -0.5 4.5t-3 -3t-2 -5t2.5 -1.5q-14 -8 -31 -9t-32 -1q-7 6 -10 15t-3 19t1.5 20.5t2.5 19.5q3 32 4 64t1 64q-32 3 -64 3q-15 0 -30 -0.5t-29 -1.5q0 -30 0.5 -60t1.5 -59q1 -11 1.5 -22.5t0.5 -22.5q1 -8 2 -18.5t-1 -17.5q-3 -6 -13 -5.5t-15 1.5q-9 0 -18.5 -1.5
t-17.5 -0.5q4 -1 0 2.5t-4 0.5q-4 8 -3 18t-1 19l-1 32q-1 20 -1.5 40.5t-0.5 41.5v26t-1 26q-16 1 -32 0q-13 -1 -25.5 -2t-23.5 3q3 -1 2 0.5t-2.5 3t-3.5 2t0 -2.5q-6 14 -6.5 31t-1.5 32q8 14 24.5 13.5t27.5 -2.5t21 -2.5t21 -2.5v42q0 20 0.5 39.5t1.5 39.5
q-10 -1 -18.5 -1h-18.5q-8 -1 -15.5 -1.5t-15.5 -0.5q-5 -1 -12.5 -2t-12.5 1t-4.5 12.5t0.5 14.5q1 10 0 19t0 19q-1 -6 1 -1.5t0 2.5q6 5 13 4.5t13 0.5l22 2q13 1 25 1.5t24 0.5q1 10 1.5 19.5t0.5 19.5q1 22 1.5 43.5t0.5 43.5v33t-2 33q10 5 23 4.5t24 -0.5q8 0 21.5 2
t19.5 -6q0 -48 -3 -95.5t-7 -95.5q11 -1 22 -1h22q17 0 32.5 -0.5t31.5 -1.5l-3 89q-1 23 0 47q0 4 -1 12t-1 16t1.5 14t6.5 8q10 4 21 4.5t21 0.5h12.5t12 -1t9.5 -4.5t4 -10.5q0 -19 -2 -38t-3 -39t-0.5 -40t0.5 -40v-10.5t-1 -10.5l51 -2q11 0 22.5 -0.5t22.5 2.5
q5 -10 4 -23.5t0 -24.5q0 -8 1 -21.5t-5 -18.5q-49 0 -100 6zM225 276q27 -1 53.5 -0.5t52.5 1.5q1 29 0.5 57.5t-1.5 57.5q-23 3 -47 4.5t-47 3.5h-11t-11 1q-2 -31 -4.5 -61t-2.5 -61v-3h18zM399 13l1 1zM400 17v-1v1zM144 2h1h-1z" />
    <glyph glyph-name="dollar" unicode="$" horiz-adv-x="415" 
d="M278 657q31 -9 52 -32t31 -55q4 -13 5 -26t-2.5 -23.5t-13 -16.5t-25.5 -4q-19 1 -27 6t-7 22q2 25 -8.5 42.5t-30.5 16.5q2 -26 1.5 -53.5t-1.5 -56t-1.5 -56.5t0.5 -54v-35q17 -20 31 -34.5t25 -26.5t19.5 -24t15.5 -26q10 -19 17.5 -37.5t11.5 -37.5t2 -38t-12 -38
q-21 -41 -59 -59q-6 -4 -13 -5.5t-12 -3.5q-7 -2 -13 -2q-1 -7 -1 -14v-25q1 -20 -7 -33t-31 -13t-32 4.5t-5 29.5q1 6 1.5 13t0.5 13v14q-4 -1 -8 0q-4 0 -8.5 1t-9.5 3q-25 6 -44.5 19t-36.5 32q-14 14 -26 33t-15 39q-2 11 1.5 17t9.5 8.5t14 2.5h17q16 -1 26.5 -2
t16.5 -18q8 -23 23.5 -41t38.5 -20q2 47 2.5 100.5t0.5 98.5q-11 12 -21 22l-21 21q-18 18 -36 41.5t-32 50t-23 54.5t-9 54q-2 46 19 78t46 51t46.5 26.5t21.5 5.5l-1 52q16 0 29 1q11 1 20.5 1t10.5 1q2 -3 3 -12t2 -19q1 -11 1 -26l10 -2l10 -2t10 -3zM134 448
q0 -1 8 -13.5t17.5 -26t18.5 -23.5t12 -7q-2 24 -2 49.5t1 52t1 52t-3 49.5q-5 -1 -20.5 -6.5t-29 -20t-17.5 -40t14 -66.5zM251 59q9 3 18 7q8 3 15 7.5t11 9.5q18 21 14.5 46t-15.5 46t-24.5 34.5t-12.5 12.5q0 -24 -0.5 -43.5t-1 -38t-2 -38t-2.5 -43.5z" />
    <glyph glyph-name="percent" unicode="%" horiz-adv-x="716" 
d="M150 297q-27 6 -46 22.5t-31.5 39t-19 48.5t-9.5 50q-5 35 0.5 69.5t19 62.5t35 45.5t48.5 19.5q5 1 10.5 1h10.5q37 2 67 -27t48.5 -73t22.5 -95t-10.5 -91.5t-50 -62.5t-95.5 -9zM603 365q31 -17 46.5 -44t21 -58.5t3.5 -65.5t-6 -65q-4 -35 -21 -62t-42.5 -41
t-56 -13.5t-61.5 21.5q-22 15 -38 52t-22 82t-0.5 90t25.5 76.5t57 42t94 -14.5zM306 -2q-3 -9 -20 -12.5t-35 -3t-32 4t-11 8.5q-1 26 9.5 45t18.5 42q3 7 12.5 33.5t23.5 65t30.5 85.5t33.5 95.5t33 95.5t29 85t20.5 63.5t8.5 31.5q1 13 5 26t19 15q6 1 16.5 1.5t21 0
t19.5 -2.5t14 -6l-9 -28t-23.5 -73t-33 -103.5t-38.5 -119.5t-39 -121t-34.5 -108.5t-26 -80.5t-12.5 -39zM159 365q24 -5 40 4.5t25 26.5t12 37.5t2 38.5q-2 16 -5.5 34.5t-11 34.5t-20.5 27t-33 13q-21 1 -33 -11t-19 -31t-9 -40.5t-2 -37.5q0 -2 0.5 -3.5t0.5 -2.5
q0 1 -0.5 1.5t-0.5 1.5q0 -2 0.5 -4t0.5 -4v5q1 -11 4 -25t9 -27.5t15.5 -24t24.5 -13.5zM548 315q-18 0 -29 -11t-17.5 -27t-9 -33.5t-3.5 -29.5q-1 -16 0 -37.5t7 -41.5t17.5 -35.5t32.5 -18.5q15 -3 24.5 5t16 21t10 27.5t5 25.5t2 15.5t0.5 -2.5q0 2 0.5 3.5t0.5 3.5
q1 7 1.5 29t-4.5 45.5t-17.5 42t-36.5 18.5zM605 194v-14q-1 -5 -1.5 -2t1.5 16z" />
    <glyph glyph-name="ampersand" unicode="&#x26;" horiz-adv-x="521" 
d="M49 120q-11 36 -6 74.5t19 76t34.5 71.5t40.5 61q-9 22 -20.5 42.5t-20.5 41.5t-13 43.5t1 48.5q4 22 17 40.5t32 32t41 20.5t44 4q49 -7 68 -41.5t16 -78t-22.5 -86t-47.5 -66.5q11 -20 29.5 -53t36.5 -65q21 -38 44 -79q5 13 6 40.5t-0.5 56.5t-4.5 53.5t-5 30.5
q6 1 16.5 2.5t21.5 1.5t20.5 -2t12.5 -8q6 -9 10.5 -40t4.5 -71t-5 -82.5t-19 -73.5q7 -10 15 -24t16.5 -29t16.5 -28.5t16 -23.5q12 -14 15.5 -22t-19.5 -18q-10 -4 -18 -7.5t-15 -3.5t-14 3.5t-14 13.5q-15 20 -27.5 35.5t-20.5 38.5q-14 -7 -26 -15t-26 -16
q-35 -19 -71 -19q-69 0 -114 33.5t-65 86.5zM239 579q-3 6 -9.5 12.5t-15 10t-18 3.5t-18.5 -6q-15 -11 -20.5 -29t-3 -37t12.5 -36t26 -27q3 1 12.5 12.5t18.5 28.5t14.5 35.5t0.5 32.5zM125 132q10 -35 42.5 -52t66.5 -9q20 5 39.5 19t30.5 28q-27 56 -50 102l-20 38
t-19 34.5t-16.5 26t-11.5 13.5q-4 -4 -16 -28t-24 -55.5t-20 -64t-2 -52.5z" />
    <glyph glyph-name="quotesingle" unicode="'" horiz-adv-x="14" 
d="M-21 564q-2 3 -4 16.5t-3.5 29.5t-3 30t-3.5 18q2 7 5.5 9t7.5 4q9 -4 23.5 0t26.5 -2q1 -8 0.5 -17t-0.5 -17q0 -13 3 -31t5 -29q1 -3 -6.5 -6t-17.5 -4.5t-19.5 -2t-12.5 1.5q-1 0 0 1.5t-1 -1.5z" />
    <glyph glyph-name="parenleft" unicode="(" horiz-adv-x="251" 
d="M163 633q-9 -26 -15 -53.5t-11 -55.5q-10 -63 -14 -124t5 -124q8 -57 17 -110.5t31 -106.5q3 -6 9.5 -17t13 -23t9.5 -23t-1 -18q-3 -5 -11.5 -7.5t-18 -3t-19 0t-14.5 0.5q-10 0 -18 10.5t-14 24t-10 26.5t-7 20q-11 27 -20 53.5t-15 55.5q-14 60 -16.5 121t-0.5 123
t13.5 120.5t28.5 118.5q6 19 9 40t11 40q4 8 16.5 9t26 -0.5t24.5 -3.5t11 0q1 1 -0.5 -9t-4.5 -25t-7 -31.5t-8 -27.5z" />
    <glyph glyph-name="parenright" unicode=")" horiz-adv-x="247" 
d="M123 731q8 -26 20 -50.5t22 -49.5q11 -26 16 -53.5t10 -53.5q9 -63 12 -126t-2 -127q-6 -60 -17.5 -115.5t-34.5 -112.5q-3 -8 -6.5 -18t-8.5 -19.5t-12 -16.5t-17 -8q-8 -1 -20 -0.5t-22 2.5q-8 0 -10.5 9t-0.5 15q9 27 14 44t9 31t8.5 30t11.5 42q14 48 19.5 97.5
t9.5 99.5t-6.5 99.5t-18.5 98.5q-4 25 -10.5 48t-14.5 46q-3 9 -9 19t-11 21t-8.5 21.5t-3.5 20.5q17 5 38.5 6t42.5 0z" />
    <glyph glyph-name="asterisk" unicode="*" horiz-adv-x="311" 
d="M122 595q-4 0 -5 -1l-10 -8l-10 -8q-9 -9 -13 -7.5t-9 9.5q-7 10 -13.5 18t-13.5 18l-5 6q-5 12 5 19l29 18l6 6q-3 1 -5.5 2t-5.5 2l-16 7q-9 6 -8 15q2 11 5 22.5t8 22.5q5 8 13 5l18 -6l10 -2h1l2 1q2 6 3 12t1 13q-1 4 -1 7.5t3 8.5q2 0 3 1t3 1l49 5q3 1 8 1
q9 -1 11 -11q0 -8 -1 -12q-1 -8 0.5 -14.5t3.5 -13.5q4 -2 6 -0.5t4 3.5l21 15q10 7 18 -1t15.5 -16t13.5 -18q8 -9 0 -17q-3 -4 -6.5 -7t-7.5 -6l-13 -10q-4 -4 -7 -8q10 -10 20 -11q4 -1 10 -5q10 -6 4 -16q-4 -9 -7.5 -18t-9.5 -17q-8 -10 -18 -5q-7 2 -13 5.5t-12 7.5
l-13 6q-3 -1 -3 -2.5v-3.5q-1 -8 -1.5 -16t-0.5 -16q0 -14 -12 -15q-11 -2 -22 -2.5t-22 -1.5q-9 0 -9 9q-1 8 -1 14.5v14.5z" />
    <glyph glyph-name="plus" unicode="+" horiz-adv-x="359" 
d="M45 265q-2 14 -3 27.5t0 28.5q0 9 7 13t16 5.5t18.5 1.5h15.5q9 0 17 0.5t14 1.5q7 1 13 1q-4 25 -5 45q-2 17 -0.5 32.5t6.5 19.5q14 8 24.5 8.5t18.5 -1.5q9 -4 16 -10q1 -20 2 -37q1 -14 1.5 -28.5t0.5 -20.5q0 -5 14 -6.5t32.5 -1.5t35.5 1t22 1q2 -4 3.5 -15.5
t1.5 -24.5t-2 -23t-7 -11q-22 -4 -48.5 -5t-46.5 0q3 -19 2 -39t1 -40q1 -12 -1 -17.5t-6 -7t-10.5 -1.5t-15.5 -1q-7 -1 -13 -2t-10.5 -0.5t-7.5 4.5t-3 14q0 11 -0.5 24.5t-0.5 26t-0.5 23t-0.5 16.5q-23 -2 -51 -1t-50 -1z" />
    <glyph glyph-name="comma" unicode="," horiz-adv-x="320" 
d="M92 -52q6 3 14.5 7t16 9t13 11t6.5 14q-9 -3 -17 -3q-22 0 -40 19.5t-18 48.5q0 16 6.5 28.5t17 21t23.5 13t26 4.5q11 0 25 -6t26 -18t20.5 -30t8.5 -41q0 -21 -9 -43.5t-24.5 -41.5t-36 -31t-42.5 -12q-1 3 -3.5 10t-5.5 15.5t-5 15.5t-2 9z" />
    <glyph glyph-name="hyphen" unicode="-" horiz-adv-x="359" 
d="M281 325q7 0 12.5 -1t11.5 -3q3 0 8 -3q2 -1 2 -9q1 -14 1.5 -27.5t0.5 -26.5q0 -16 -6 -16h-9t-9 1q-1 0 -20 1.5t-43.5 3t-47 2.5t-31.5 2q-5 0 -17 0.5t-25 0.5h-24.5h-16.5q-7 0 -11 -2q-3 -1 -6 0l-6 2q-4 0 -4 13q1 13 0.5 25t-0.5 26q0 11 4 12q1 1 5 1l57 -2h174
v0z" />
    <glyph glyph-name="period" unicode="." horiz-adv-x="300" 
d="M140 123q25 3 41.5 -7t24 -27t6.5 -36.5t-10.5 -35t-27.5 -23t-43 -0.5q-26 8 -38.5 28t-11 42t16.5 39.5t43 20.5q-1 -1 -3 -1h-4h6v0z" />
    <glyph glyph-name="slash" unicode="/" horiz-adv-x="401" 
d="M111 -7h-10.5t-18 -0.5t-19 -1.5t-14.5 -3q0 2 -2.5 3.5t-4.5 3.5q0 5 10 37t27 80.5t38.5 108.5t44.5 122.5t45 122t40 106t29.5 75t13.5 29.5q7 3 14.5 3.5t14.5 -0.5q9 -1 17.5 -2.5t14.5 -5.5t7.5 -11t-3.5 -18q1 -1 -1 -5t0 -5q-1 -4 -11.5 -33t-27 -74.5
t-38 -102.5t-43.5 -116t-43 -115t-38.5 -100t-28.5 -70.5t-13 -27.5z" />
    <glyph glyph-name="zero" unicode="0" horiz-adv-x="430" 
d="M371 496q4 -29 5.5 -57t1.5 -57q3 -59 9 -118q2 -32 1 -63.5t-4 -63.5q-2 -30 -10.5 -51t-29.5 -43q-9 -9 -21.5 -16t-27 -12t-29 -8.5t-26.5 -4.5q-25 -3 -52 1t-50.5 15t-41.5 30t-25 45q-8 26 -9.5 52.5t-4.5 52.5q-3 28 -6.5 55.5t-4.5 56.5q-1 60 -4 120t5 120
q3 23 10.5 37.5t19.5 33.5q14 23 40 30t52 10q24 2 50.5 3t48.5 -12q11 -6 23 -12t21 -14q16 -14 26.5 -31t17.5 -34.5t10 -34.5t5 -30zM121 437q-1 -44 2 -86t5 -85q1 -20 1.5 -43.5t1.5 -45.5t3.5 -40t7.5 -27q14 -9 23 -16.5t26 -10.5q17 -5 35 -6.5t36 5.5
q28 11 35.5 35.5t7.5 51.5q0 35 -0.5 69.5t-4.5 69.5q-4 38 -3 76.5t-2 76.5q-2 19 -5 37t-5 37q-2 11 -7 18.5t-10 12.5q-6 5 -13 9q-30 2 -57 -2t-50 -12q-9 -9 -14.5 -24.5t-8 -32.5t-3.5 -34.5t-1 -32.5z" />
    <glyph glyph-name="one" unicode="1" horiz-adv-x="193" 
d="M151 587q-4 -89 -5 -159.5t0 -136t2 -133t1 -151.5q-11 -5 -29.5 -5.5t-31.5 4.5q-2 79 -2.5 143.5t-0.5 125.5t0.5 125t-0.5 143l-1.5 -4t-4.5 -8.5t-7.5 -7.5t-10.5 0q-22 11 -40 26q-1 5 7 19.5t19 31.5t21.5 33.5t13.5 25.5q4 4 13.5 5t20 0t20 -3t14.5 -4
q1 -2 1 -9.5v-18v-22v-20.5z" />
    <glyph glyph-name="two" unicode="2" horiz-adv-x="387" 
d="M62 14q-2 17 -2.5 33t1.5 33q5 49 20 87t36 71t46 64t50 66q19 24 34 55.5t15 60.5q1 36 -15 64t-38.5 39t-45.5 -1.5t-36 -57.5q-1 -5 -1.5 -13t-2.5 -15t-5.5 -12.5t-10.5 -5.5q-5 0 -14.5 -0.5t-20 0t-18.5 2.5t-9 7q-5 25 0 50.5t16.5 46.5t27.5 37t31 22q13 5 34 10
t46.5 3t53.5 -14.5t55 -42.5q22 -26 28.5 -58.5t3.5 -65.5t-13 -62t-21 -47q-12 -29 -29.5 -54.5t-37 -49.5t-38.5 -47.5t-34 -50.5q-5 -9 -11.5 -19t-11.5 -20.5t-7.5 -22t-0.5 -21.5q26 -7 51.5 -7t50 1.5t48.5 3t48 -2.5q5 -5 6.5 -14t2 -20t0 -21.5t0.5 -17.5
q2 -2 -17 -4.5t-50 -4.5t-68 -3t-69 0.5t-54.5 6t-23.5 12.5z" />
    <glyph glyph-name="three" unicode="3" horiz-adv-x="413" 
d="M87 85q-2 1 -2 -1t-2 -1q0 5 -4 8.5t-6 8.5q-1 4 -3 10t-4 10q-6 8 -10.5 24.5t-2.5 26.5q12 5 33.5 6t35.5 6v-6t2 -5q4 -3 3 -5.5t0 -7.5q1 -9 4 -17.5t3 -17.5q13 -31 43 -43q17 -2 29.5 2.5t22 13t17 20t14.5 24.5q16 28 18 61t-1 64q-2 15 -4.5 30.5t-7.5 29.5
q-8 18 -20 28.5t-28 20.5q-14 9 -29 14.5t-32 8.5q-9 1 -18.5 0.5t-18.5 0.5h-5.5t-7.5 1q-4 0 -9 1q-2 9 3 19t13 16q8 15 17 29t19 28l16 28t15 28q6 12 15 22.5t13 23.5q-12 -2 -24.5 -3t-24.5 -2l-22 -4t-22 0q-8 1 -17.5 -1t-19.5 -3t-19 0.5t-15 9.5q2 10 1 18.5
t-2.5 16t-0.5 13.5t7 12q15 3 31 0t32 -2q19 2 38 0t38 -1q38 1 74.5 4t74.5 2q4 -6 -0.5 -16t-6.5 -15q-6 -10 -13 -19.5t-14 -19.5l-30 -46q-7 -11 -12.5 -21.5t-12.5 -21.5q-5 -8 -9.5 -17t-10.5 -18q3 -4 7.5 -5t9.5 -4q2 -1 11.5 -4t10.5 -5q1 -3 6.5 -4t9.5 -3
q5 -3 9 -6.5t9 -7.5t12 -9t7 -10q0 -1 1 -1t1 1q12 -19 23 -37.5t17 -39.5q3 -11 1.5 -22.5t0.5 -22.5q3 -14 5.5 -28t2.5 -28q-1 -25 -6.5 -47t-13.5 -46q-3 -9 -6 -17.5t-8 -16.5l-14 -18t-9 -20q-6 -5 -9 -11q-5 -5 -9.5 -8.5t-8.5 -8.5q-5 -6 -13 -12.5t-15 -10.5
q-21 -11 -42.5 -9t-44.5 5q-5 1 -13 4t-15.5 8t-13.5 11t-7 12q-6 3 -12.5 8.5t-9.5 11.5q-3 5 -9.5 10.5t-7.5 10.5q2 1 1 1.5t1 2.5z" />
    <glyph glyph-name="four" unicode="4" horiz-adv-x="432" 
d="M311 639q0 -1 0.5 -1.5t0.5 -2.5q2 -2 2 -4h-1q3 -14 4.5 -43t2.5 -61.5t1.5 -63t1.5 -46.5q0 -9 0.5 -25.5t0.5 -33.5v-31v-18q-1 -7 -2.5 -14t-0.5 -13q6 0 14.5 1t17.5 1.5t17 0t13 -4.5q8 -7 6.5 -14t-0.5 -15q1 -6 1.5 -16.5t-8.5 -9.5q-4 0 -13.5 1t-19.5 1.5
t-18.5 -1t-10.5 -5.5q-2 -5 -3.5 -33t-2 -61.5t-0.5 -63.5v-39q1 -13 -3.5 -16t-15.5 -6q-11 -2 -22.5 -2h-22.5q-2 2 -2.5 4t-2.5 3q0 10 0.5 38t1.5 61t2 65t2 51q-9 0 -28.5 -0.5t-43 -1t-49 -0.5t-45.5 0.5t-32.5 1.5t-10.5 3q1 10 8 24t15.5 28.5t17 28t12.5 21.5
q2 4 12 23.5t23.5 46.5t29 58.5t29 59.5t23.5 50t13 30q1 4 4.5 11.5t8 15t9.5 13.5t9 8q3 1 9.5 2t15 0t16 -2.5t12.5 -4.5q0 3 2 1zM148 277h53.5t52.5 3q3 14 4.5 49.5t1.5 74.5t-1 71t-3 39q-3 -7 -6.5 -12t-6.5 -11l-1 -1v-2q-4 -7 -12.5 -25.5t-19.5 -41.5t-22 -48.5
t-20 -46.5l-15 -35t-5 -14z" />
    <glyph glyph-name="five" unicode="5" horiz-adv-x="389" 
d="M312 582q-35 -5 -69.5 -2t-69.5 2h-14t-15 -2q-13 -1 -11.5 -10t3.5 -19l8 -64q28 -1 53.5 -2.5t48 -10t42 -27t37.5 -53.5q12 -23 15.5 -49.5t5.5 -52.5q2 -23 1.5 -54t-5 -63.5t-13.5 -64t-25 -56t-39.5 -39.5t-55.5 -15q-37 0 -63.5 9.5t-45.5 27t-31.5 42.5t-21.5 57
q-1 4 -3.5 9t-1.5 9q0 5 16.5 9.5t36 6.5t36.5 2t19 -4q-1 -9 -0.5 -18t1.5 -19q2 -23 14 -36.5t35 -9.5q25 2 37.5 20t17.5 41.5t5.5 48.5t0.5 40q0 16 -2.5 36.5t-7.5 41t-12.5 39t-18.5 30.5t-26.5 19t-32 9.5t-32.5 1t-29 -5.5q-8 -3 -18 -6t-12 8q-2 6 -3.5 30.5
t-3.5 55.5t-3.5 61t-2.5 48q-1 22 1.5 35t28.5 12q6 -1 19 -1.5t30 -0.5t36.5 -0.5t39.5 -0.5q47 -1 102 -1q2 -13 3 -24q1 -10 0 -21t-5 -19z" />
    <glyph glyph-name="six" unicode="6" horiz-adv-x="387" 
d="M239 508q1 23 -9 40.5t-32 25.5q-22 7 -35.5 -9t-20.5 -41t-9 -51t-2 -39q9 7 18.5 13t22.5 10t29.5 3.5t37.5 -7.5q10 -3 22.5 -11t24 -18t21 -21.5t13.5 -21.5q19 -44 23.5 -96.5t-5.5 -103t-34 -95t-61 -73.5q-8 -6 -23.5 -9.5t-34.5 -3t-38.5 6t-35.5 18.5
q-26 22 -38.5 47.5t-16.5 57.5q-5 45 -10 109t-4 131.5t10 129.5t33 103q20 33 54.5 44t69.5 1q29 -8 58.5 -26.5t42.5 -47.5q6 -11 9 -25.5t5 -28.5q1 -4 0 -10.5t-6 -8.5q-2 0 -15 -2t-27 -2t-25.5 2t-11.5 9zM127 234q1 -17 0.5 -45.5t5 -54t20.5 -40.5t47 -5
q23 7 36.5 34t19.5 59t6 63.5t-5 49.5q-9 34 -22.5 51t-28.5 19.5t-29.5 -6.5t-26 -27.5t-18 -43.5t-5.5 -54z" />
    <glyph glyph-name="seven" unicode="7" horiz-adv-x="426" 
d="M291 535q-8 -15 -17.5 -29t-17.5 -30q-7 -16 -13 -33t-11 -34q-11 -32 -16 -65.5t-9 -67.5q-5 -34 -9 -67.5t-5 -68.5q0 -17 -0.5 -33.5t0.5 -33.5q0 -6 2 -14.5t3.5 -17t1 -16.5t-4.5 -14q-8 -4 -17 -3.5t-17 -4.5q-7 -4 -15.5 -3.5t-16.5 2.5q-5 4 -8 13t-2 16
q2 9 -1 14q-2 5 -1.5 9t-0.5 9q-2 10 -0.5 19.5t1.5 19.5v7.5t-3 7.5q3 5 3 10t1 10q3 42 6.5 83t10.5 83l6 41q2 11 2.5 21.5t4.5 20.5q8 20 14 41.5t14 42.5q8 17 17 34q5 10 9 21t11 19q6 8 10 16.5t9 17.5q5 8 12 15t11 16q-25 1 -49 0.5t-49 0.5h-25t-25 1
q-11 0 -24 -0.5t-24 2.5q-8 3 -9.5 9.5t-3.5 13.5q0 4 -1.5 9.5t-2 10.5t1.5 9t8 6q12 4 23.5 3t24.5 0q16 2 31.5 2.5t32.5 -0.5q29 0 59.5 -1t61.5 1q23 1 48 0q8 0 18.5 1t18.5 -4t8.5 -14t4.5 -17q4 -12 -4 -19.5t-16 -13.5q-22 -16 -37 -36.5t-35 -37.5z" />
    <glyph glyph-name="eight" unicode="8" horiz-adv-x="422" 
d="M301 417q36 -19 53 -50t22.5 -67t2 -74t-9.5 -72q-3 -18 -9.5 -34t-14.5 -32q-6 -13 -14 -28t-19 -24q-9 -8 -19.5 -17t-21.5 -14q-12 -6 -23.5 -5t-25.5 2q-17 0 -31.5 3t-31.5 7q-2 1 -9.5 4t-15 6.5t-13 7.5t-4.5 7q-13 1 -23 16.5t-16 25.5l-8 12t-9 12l-11 37
q-11 40 -7.5 76.5t13.5 75.5q4 16 8 34t10.5 35t16 32t24.5 24q-17 13 -26 31.5t-12 39.5t0 42.5t9 40.5q14 41 50.5 62.5t79.5 15.5q19 -2 37.5 -6.5t35.5 -13.5q19 -10 28 -26.5t18 -34.5q11 -18 8.5 -41.5t-6.5 -43.5t-11.5 -37.5t-24.5 -28.5zM300 222q-2 0 -1 4t2 8.5
t1 9t-3 6.5q1 1 1.5 7t-0.5 13t-2 13.5t-1 8.5q-2 14 -6 25.5t-13 22.5q-19 24 -45.5 30.5t-54.5 -6.5q-14 -6 -23 -17t-15 -24.5t-9.5 -28.5t-6.5 -28q-4 -26 -6.5 -51t-0.5 -51q2 -23 8.5 -46t25.5 -37q21 -15 49 -15t48 16q11 8 18 19t11.5 23.5t7 25.5t4.5 25q0 2 2 9.5
t4 15.5q3 10 5 22zM159 563q-18 -19 -14 -42.5t20.5 -41t39.5 -21.5t42 16q9 10 14 23t6 26.5t-3 26.5t-13 24q-18 18 -44 16q-8 0 -14.5 -1t-14.5 -6q-5 -5 -9.5 -10t-9.5 -10z" />
    <glyph glyph-name="nine" unicode="9" horiz-adv-x="378" 
d="M61 310q-8 21 -10.5 41t-4.5 42q-4 42 -4 86.5t11 86.5q4 16 13.5 31.5t22 28t28 21.5t32.5 12q38 9 74 5.5t63 -32.5q18 -19 29 -57.5t16 -87t5.5 -103.5t-2.5 -107.5t-8.5 -98.5t-11.5 -76t-25 -53.5t-45 -36.5t-56.5 -14t-60.5 14q-14 9 -27 21.5t-21 27.5
q-12 18 -21 37.5t-9 42.5q2 2 11 4t20 4.5t21.5 4.5t14.5 3q5 -4 8 -12t6 -18t6.5 -20t9.5 -17q14 -15 33 -19t36 8q12 8 20.5 31.5t13 50.5t5 51.5t-3.5 36.5q-21 -5 -40.5 -13t-43.5 -3q-79 19 -105 77zM148 333q12 -14 29.5 -18.5t34.5 0.5q8 4 14.5 8.5t11.5 12.5
q7 9 10.5 28t5 40t2 40t0.5 28q0 19 -1.5 40t-8 39t-19 30.5t-34.5 14.5q-24 0 -40.5 -15.5t-25.5 -39.5t-12 -54t0.5 -59.5t11.5 -54.5t21 -40z" />
    <glyph glyph-name="colon" unicode=":" horiz-adv-x="313" 
d="M218 33q0 -2 -2.5 -9.5t-3.5 -8.5q-5 -10 -15.5 -16.5t-23 -9.5t-25.5 -2t-23 6q-11 6 -18 17.5t-10 24t-1 25.5t9 24q6 10 16.5 16.5t22 9t23 0.5t20.5 -11q11 -10 20.5 -29.5t7.5 -38.5l3 3h1zM146 507q15 2 30 -7t21 -22q8 -17 4 -36t-17 -32q-5 -5 -16 -12t-18 -8
q-15 0 -28.5 5.5t-23 15t-13.5 22.5t0 28q8 19 23 30t35 16q1 0 1 -0.5t2 -0.5h-2v1h2zM146 507h-5h5z" />
    <glyph glyph-name="semicolon" unicode=";" horiz-adv-x="307" 
d="M118 388q-5 1 -10 5.5t-9.5 9.5t-7 9.5t-2.5 6.5l-4 14q-5 14 2 32t18 28q11 8 29 9.5t31 -2.5q23 -7 32 -28.5t1 -41.5q-2 -11 -10.5 -21t-19.5 -15q-9 -5 -24.5 -8t-25.5 2zM92 -52q6 3 14.5 7t16 9t13 11t6.5 14q-9 -3 -17 -3q-22 0 -40 19.5t-18 48.5q0 16 6.5 28.5
t17 21t23.5 13t26 4.5q11 0 25 -6t26 -18t20.5 -30t8.5 -41q0 -21 -9 -43.5t-24.5 -41.5t-36 -31t-42.5 -12q-1 3 -3.5 10t-5.5 15.5t-5 15.5t-2 9z" />
    <glyph glyph-name="less" unicode="&#x3c;" horiz-adv-x="311" 
d="M269 574q1 -3 -9 -19.5t-25.5 -39.5t-34 -49.5t-34 -50t-26 -41.5t-10.5 -23t8.5 -21.5t21.5 -38.5t28.5 -47t29.5 -47t25 -38t16 -21q-1 -3 -4.5 -9t-8 -12.5t-9 -12.5t-7.5 -9q-12 -10 -21.5 -5t-18.5 15q-12 13 -30.5 41.5t-37 59t-34 57t-21.5 36.5q-4 7 -10 16.5
t-10 19t-5 19.5t5 18q29 40 57 80.5t55 82.5q10 14 19.5 30t23.5 28q8 8 16.5 7.5t16.5 -5t16.5 -11t17.5 -10.5z" />
    <glyph glyph-name="equal" unicode="=" horiz-adv-x="550" 
d="M500 442q5 0 6.5 -12.5t1 -28t-2.5 -30t-5 -17.5q-37 0 -80 1t-97 1.5t-121.5 1.5t-153.5 1q-3 0 -4 12t0.5 27t4.5 27t8 12q54 3 99 1t94.5 -3.5t108.5 -1t141 8.5zM45 250q8 14 24 13t27 -3q5 -1 36.5 -1t75.5 0.5t94.5 0.5t93.5 -0.5t71.5 -2t29.5 -4.5
q2 -9 2.5 -20.5t0.5 -21.5v-24.5t-10 -13.5q-40 0 -98.5 0.5t-120.5 1.5t-120.5 3t-97.5 6q-4 0 -6.5 7t-4 17t-1 21.5t3.5 20.5z" />
    <glyph glyph-name="greater" unicode="&#x3e;" horiz-adv-x="302" 
d="M92 596q3 0 16.5 -18t32 -45t39 -59t38 -59.5t29 -46.5t12.5 -20q2 -7 0.5 -10t-0.5 -9q-11 -17 -31 -48.5t-39.5 -64t-35 -59t-18.5 -31.5t-7 -15t-9 -12q-8 -4 -16.5 -2.5t-16.5 5.5t-15.5 9.5t-13.5 8.5q-2 3 5.5 19.5t20 38.5t27.5 47t28.5 47t23 37.5t10.5 18.5
q2 7 -9 32t-28.5 55t-36.5 58t-32 42q-6 14 -14 26t-11 28q1 4 7 8.5t14.5 8.5t16.5 7t13 3z" />
    <glyph glyph-name="question" unicode="?" 
d="M290 615q22 -20 35.5 -49t15.5 -59q2 -74 -16 -120.5t-43 -77t-49 -51t-34 -42.5q-2 -5 -2.5 -15.5t0 -22.5t1.5 -22.5t2 -16.5q1 -12 -3.5 -17.5t-13 -7.5t-18.5 -1.5t-19 0.5q-17 0 -25 11.5t-9.5 27.5t1.5 33t7 29q12 39 40 75.5t57 64.5q17 16 30.5 32.5t18.5 39.5
q6 23 2.5 47.5t-11.5 46.5q-7 18 -17 36t-31 23q-18 5 -36.5 0.5t-30.5 -19.5q-14 -17 -14 -35.5t1 -38.5q1 -8 -8 -13t-21.5 -8t-25 -3t-17.5 2q-13 6 -14.5 22.5t2.5 36t11 37t11 25.5q18 31 44 49.5t56.5 23t62 -5.5t60.5 -37zM134 17q-8 11 -2.5 25.5t16.5 19.5
q9 6 20.5 6.5t19.5 -9.5q12 -15 8.5 -29t-14.5 -22.5t-25 -7.5t-23 17z" />
    <glyph glyph-name="at" unicode="@" horiz-adv-x="588" 
d="M201 373q12 29 39.5 51.5t59.5 20.5q20 -2 30.5 -11.5t17.5 -10.5q5 7 6 12t3 7.5t6.5 3.5t16.5 1q16 0 25 -5.5t11 -22.5v-26.5t-0.5 -57.5t0 -72t1 -70.5t2.5 -53.5t5 -20q-4 -7 -0.5 -15.5t10 -13.5t15 -4t14.5 14t10 39t7 54.5t4 54t0 37.5q-3 27 -9 55.5t-17 54
t-28.5 46.5t-43.5 33q-22 10 -48 14t-52.5 1t-50.5 -13t-42 -29q-19 -21 -32 -47t-23 -54.5t-16.5 -57.5t-11.5 -56q-5 -25 -5.5 -53t4 -55.5t15.5 -52.5t30 -44t44.5 -33t52.5 -16q29 -2 45 -9t18 -39q0 -10 -2 -14.5t-6.5 -6t-11 -1.5h-15.5q-14 -1 -29 2.5t-31 9
t-30.5 12t-26.5 12.5q-58 25 -85 73t-33 106.5t3.5 121.5t24.5 117q14 50 48 96.5t81 71.5q22 12 48.5 18t53.5 7t53.5 -4t49.5 -16q24 -12 44.5 -30.5t37 -41.5t28.5 -48.5t18 -51.5q13 -54 12 -116.5t-11 -117.5q-3 -20 -13 -45t-26 -45t-38 -30t-49 0q-5 2 -14 8t-17 12
t-14.5 10.5t-7.5 4.5q-29 -20 -55.5 -18t-49.5 19q-32 21 -48.5 62.5t-21 89.5t1 95.5t18.5 80.5zM348 304q-1 0 -1.5 4t-2 9.5t-3 11.5t-3.5 9q-15 25 -29 19t-24 -30t-15.5 -59t-4 -68t11.5 -57t30 -26q20 17 29 39.5t11.5 48t1.5 51t-1 48.5z" />
    <glyph glyph-name="A" unicode="A" horiz-adv-x="395" 
d="M306 106q4 -20 9 -41.5t4 -42.5q0 -12 -8 -20q-12 1 -30.5 -0.5t-29.5 5.5q-2 9 -7.5 34.5t-11.5 54t-11 52t-5 28.5q-23 2 -51 3t-51 -3q-8 -17 -11.5 -38.5t-8.5 -39.5q-3 -11 -6 -22.5t-5 -22.5q-2 -13 -3.5 -27t-11.5 -24q-12 -2 -30.5 -1.5t-29.5 4.5q-2 21 1.5 43
t10 44t13.5 43.5t12 42.5q12 59 23 117t22 118q9 42 18.5 84t19.5 84q4 17 7.5 32.5t8.5 32.5q3 10 10 13t16 2.5t18.5 -2.5t17.5 -2q4 -7 8.5 -29.5t7.5 -48t5.5 -48.5t3.5 -30q5 -35 9.5 -69t11.5 -69q8 -39 15.5 -77.5t16.5 -77.5q6 -26 11.5 -51t10.5 -51zM128 244
q18 -2 37 0.5t39 1.5q0 4 -2.5 20.5t-6 38t-8 46t-9 45t-8 33.5t-5.5 13q0 -1 -0.5 -1t-0.5 -1q0 -2 -4 -24t-10 -52t-12 -62.5t-10 -57.5z" />
    <glyph glyph-name="B" unicode="B" horiz-adv-x="346" 
d="M273 381q10 -12 19 -29q10 -20 10.5 -40.5t0.5 -43.5q1 -37 1.5 -74.5t-6.5 -73.5q-6 -35 -24.5 -61t-54.5 -37q-18 -5 -37 -7.5t-37 -7.5q-11 -2 -20.5 -4.5t-20.5 -2.5q-13 0 -25.5 1t-26.5 -1q-9 11 -8.5 30.5t-0.5 33.5l-2 85v84t1 85q1 82 0 164.5t4 164.5
q15 2 29.5 6t28.5 6q15 2 31.5 2.5t32.5 -0.5q17 -2 33 -5t31 -8q14 -5 25 -16.5t19 -23.5q15 -23 18.5 -51t-2 -56.5t-18.5 -54t-32 -42.5q2 -1 10 -7.5t21 -15.5zM237 237v28.5t-2 33t-7.5 31t-16.5 22.5q-43 17 -92 4q0 -40 -1 -73.5t-1 -64t1.5 -61.5t6.5 -67
q26 3 49.5 5t37.5 17q1 1 5.5 13t8.5 30t7.5 39.5t3.5 42.5zM212 478q9 14 11 31.5t0 34.5t-9.5 27.5t-22.5 18.5q-18 11 -36 8t-37 -5q2 -35 2.5 -74.5t2.5 -67.5q8 -5 17.5 -4t20.5 3l6 1.5t14.5 5t17 8.5t13.5 13zM164 451q-1 -1 -2 -1h-1q1 0 1.5 0.5t1.5 0.5z" />
    <glyph glyph-name="C" unicode="C" horiz-adv-x="379" 
d="M302 129q7 0 15.5 -1t13.5 -7q7 -6 1.5 -15.5t-9.5 -15.5q-10 -15 -21 -30t-24 -27.5t-28.5 -21t-34.5 -10.5q-33 -5 -66 7.5t-56 35.5q-23 21 -34 47t-14.5 54.5t-3 57.5t1.5 58q2 68 1 135.5t16 133.5q6 25 16.5 48.5t26 42.5t36.5 31.5t50 14.5q23 1 49 -7.5t48 -25
t36 -39t14 -47.5q-17 -6 -34.5 -14.5t-37.5 -6.5q-9 14 -12.5 29.5t-19.5 26.5q-15 11 -32 11t-31 -12q-16 -13 -25.5 -29.5t-14.5 -35t-6.5 -38t-2.5 -38.5q-2 -49 -3 -97t0 -97q0 -18 -0.5 -39t1.5 -41.5t8.5 -39.5t20.5 -33q11 -11 26.5 -17.5t30.5 -1.5q16 5 25.5 18
t16.5 27q4 9 10 11.5t13.5 2.5t16 -2t16.5 -3z" />
    <glyph glyph-name="D" unicode="D" horiz-adv-x="368" 
d="M42 79q0 23 1.5 45t0.5 45q-2 43 0.5 84.5t0.5 83.5t1 84.5t1 84.5q-1 21 1 41t1 40t-1 40.5t5 40.5q15 6 31.5 7t33.5 1q19 -1 37.5 -2t37.5 -3q13 -2 28 -5t29.5 -8t27 -13t20.5 -20q18 -28 21.5 -62.5t5.5 -66.5q2 -41 -1 -80.5t-3 -79.5q1 -38 2 -77t-2 -77
q-1 -19 -1 -37.5t-5 -36.5q-6 -16 -15 -30.5t-20 -27.5q-21 -26 -49.5 -34t-59.5 -11q-7 -1 -24 -2t-36.5 -2t-37.5 -1.5t-25 0.5q-7 21 -6.5 40t0.5 39zM116 408q-3 -45 -0.5 -89t1.5 -89q-1 -40 -3 -79.5t1 -79.5q21 -4 44 0.5t44 9.5q23 5 31 21t13 38q5 25 5 50.5
t1 51.5q0 13 0.5 44t1.5 65t2 64.5t2 44.5q1 22 -1.5 45.5t-7.5 44.5q-6 20 -20.5 30.5t-32.5 14.5t-37.5 2.5t-35.5 -4.5q-2 -44 -3.5 -91.5t-4.5 -93.5z" />
    <glyph glyph-name="E" unicode="E" horiz-adv-x="346" 
d="M297 82q9 -16 7.5 -39.5t0.5 -40.5q-10 -1 -31.5 -2t-48 -1t-55 0.5t-52.5 0.5t-40 0.5t-17 1.5q-6 16 -8 32t-2 32q-2 20 -3.5 40.5t-1.5 40.5q2 42 1.5 84.5t-1.5 84.5q-2 44 -3 87t-2 88q0 44 2 87.5t0 87.5q11 11 29 10.5t33 0.5l54 3q15 1 30 1h30q17 1 36 1t35 -8
q2 -14 1.5 -28.5t3.5 -28.5q2 -9 -0.5 -13.5t-8 -6t-12.5 -2t-13 -0.5q-36 -1 -71.5 -2t-70.5 -4q1 -29 -1 -59t-4.5 -60t-3.5 -60t2 -58q34 0 68.5 5.5t69.5 1.5q3 -11 4 -21.5t3 -20.5q1 -5 4.5 -16.5t-3.5 -15.5t-17.5 -4h-18.5q-27 -2 -54.5 -2.5t-53.5 -2.5
q-2 -22 -0.5 -43t3.5 -43q2 -25 3 -49.5t5 -48.5q38 -7 82 -7q11 -1 23 -1h25q9 0 21 0.5t21 -2.5z" />
    <glyph glyph-name="F" unicode="F" horiz-adv-x="305" 
d="M261 666v-21t1 -21q0 -5 1 -16t-5 -16t-17.5 -4.5t-19.5 0.5q-26 0 -53 2t-53 -3v-69t-0.5 -61t0 -60.5t2.5 -66.5q25 -3 49 1.5t46 -2.5q-2 -19 0.5 -34t-2.5 -29q-23 -4 -46.5 -1.5t-46.5 -2.5q1 -32 0.5 -64t-0.5 -64v-33.5t-1 -33.5q-1 -8 -1 -16.5v-17.5
q1 -8 2.5 -15t-0.5 -15q-11 -1 -32 -2.5t-37 1.5q-4 26 -3 51.5t0 51.5q-2 41 -3 81t-1 81q0 50 0.5 99t1.5 99v97v48t5 48q29 3 58.5 3t58.5 2l51 3q9 0 23 2.5t22 -2.5z" />
    <glyph glyph-name="G" unicode="G" horiz-adv-x="388" 
d="M264 242q-18 5 -37 1t-37 -1q-8 1 -11.5 7t-4.5 14.5t-0.5 17t-0.5 14.5q-2 8 6.5 11.5t20.5 4t24 0.5h18h24t24 2t24 2t23 -5q6 -20 6.5 -40.5t0.5 -42.5q1 -22 1.5 -44t-3.5 -45q-6 -36 -20.5 -71.5t-50.5 -53.5q-30 -14 -69 -13t-68 15q-18 8 -31.5 23t-22.5 33
t-15 37t-10 37q-10 45 -9 90.5t0 91.5q-1 45 -4 88t4 88q3 16 6 32.5t12 29.5q20 32 57 51q79 40 154 -2q13 -8 25.5 -17t23.5 -21q10 -12 13 -25q2 -10 -4.5 -15t-12.5 -10t-12.5 -9.5t-12.5 -6.5q-5 -2 -10 2t-9 7q-18 9 -32.5 22t-35.5 18q-16 4 -33.5 0t-30.5 -15
q-17 -12 -21 -31t-3 -38q0 -44 -2.5 -86.5t-1.5 -84.5q0 -23 1.5 -46t3.5 -46q2 -22 2.5 -43t2.5 -41q2 -15 7.5 -29.5t20.5 -22.5q13 -8 30 -10.5t31 5.5q24 11 31 36t11 49q3 18 8.5 41.5t0.5 42.5q0 2 -2 2z" />
    <glyph glyph-name="H" unicode="H" horiz-adv-x="386" 
d="M257 324l4 88t7 88q2 20 2.5 39.5t2.5 39.5q0 5 -0.5 15t0 20t2.5 17.5t8 8.5q21 2 41 -5.5t20 -32.5q0 -14 -0.5 -29t-1.5 -30q-3 -87 -7.5 -172.5t-9.5 -172.5q-2 -48 -3.5 -96t-4.5 -96q-14 -3 -29 -5t-29 0q-11 28 -9.5 60.5t1.5 61.5q1 34 1.5 67t2.5 66
q-34 0 -68 4t-67 0l-5 -148v-23t-2 -23q0 -4 -0.5 -13t-2 -19t-3.5 -18.5t-6 -9.5q-5 -1 -14.5 -2t-19.5 -1.5t-18 0.5t-8 4q10 70 7.5 139.5t0.5 139.5q2 38 4 75.5t1 75.5q0 35 1 70t1 70q0 7 -1 17t-0.5 20t3.5 17.5t12 9.5q8 2 17.5 2h18.5q10 -1 14.5 -3t6.5 -13
q2 -14 0.5 -29.5t-2.5 -30.5l-1 -80q-1 -41 -1.5 -80.5t1.5 -79.5q32 -2 64.5 -3.5t68.5 0.5z" />
    <glyph glyph-name="I" unicode="I" horiz-adv-x="173" 
d="M123 644q-1 -20 -2.5 -38.5t-2.5 -37.5q-1 -21 -0.5 -41t0.5 -40q-1 -42 -4 -82t-3 -82t3 -83.5t1 -83.5q-2 -17 -2 -33.5t1 -32.5q1 -18 2 -38t-4 -37q-11 -8 -30.5 -10t-35.5 -3q-7 6 -10 15t-3 19.5t1 21t2 18.5q5 48 5.5 94.5t1.5 94.5q2 74 -1 146.5t-6 146.5v23.5
t1 23.5q0 4 -1 12t-1 16t1 14t6 8q11 4 22 4.5t21 0.5h12.5t12 -1t9.5 -4.5t4 -10.5z" />
    <glyph glyph-name="J" unicode="J" horiz-adv-x="393" 
d="M350 653q1 -26 -0.5 -51.5t-3.5 -51.5q-2 -12 -2 -25t-1 -25l-2 -59q0 -24 -0.5 -47.5t-2.5 -47.5q-3 -20 -3.5 -40.5t-1.5 -40.5q-1 -17 -1.5 -32.5t-1.5 -32.5q0 -5 -0.5 -11t-1.5 -11q-2 -30 -5.5 -61.5t-17.5 -56.5q-14 -26 -44.5 -43t-61.5 -17q-15 0 -32 4
t-33 11.5t-29.5 18.5t-22.5 25q-16 27 -21 56t-8 60l-1 7l-1 10.5t-2 25.5t-2.5 33t-2.5 33t-1.5 25.5l-0.5 10.5h30h37h2v-3q3 -18 3.5 -36t0.5 -36q0 -40 4 -79t29 -72q14 -17 33 -17q28 0 51 25q9 10 14 23t7 24q3 7 3 12q4 13 6.5 25t3.5 25q3 30 2 61.5t-3 61.5
q0 5 -0.5 10t-0.5 10l-1 10q-2 33 -3 67t1 68v56q-2 21 -2 43t3 44q2 9 4.5 13.5t12.5 8.5q5 2 11 3t13 1h5q9 0 20.5 -2t20.5 -10v-1z" />
    <glyph glyph-name="K" unicode="K" 
d="M113 436q4 3 16.5 17.5t28.5 35t34 43.5t33 43l25.5 34t12.5 16q7 8 12.5 17.5t16.5 10.5q4 1 12 2t16 0.5t14 -3.5t6 -10q1 -8 -3.5 -17t-9.5 -16q-14 -21 -38 -52t-47 -61t-41 -53.5t-21 -27.5q6 -11 11 -23t10 -23q4 -11 17 -42t28.5 -68t30 -72t21.5 -53
q6 -16 12 -31t11 -31q6 -14 13 -30t6 -31q-2 -3 -13 -5t-24 -2.5t-24.5 0.5t-13.5 4q-4 3 -13 25.5t-21.5 55t-26.5 71.5t-26.5 76t-23 68t-15.5 48q-7 -5 -11.5 -11.5t-11.5 -11.5v-25.5t-1 -25.5l-3 -89q-2 -46 -3 -92t-1 -92q-14 -5 -30 -5h-31q-4 10 -3.5 22t-0.5 23
q0 11 -0.5 42t-0.5 67v71v53q1 50 0.5 99t0.5 99q0 23 0.5 45.5t1.5 45.5q0 20 -1.5 45t7.5 42q17 -1 33.5 2t30.5 -4q1 -25 0.5 -60t-1.5 -68.5t-1.5 -58.5t0.5 -29z" />
    <glyph glyph-name="L" unicode="L" horiz-adv-x="315" 
d="M115 627q4 -14 5 -29.5t0 -31t-2.5 -31t-1.5 -30.5q2 -37 3 -73t-1 -72q-2 -37 -2.5 -73t0.5 -72q0 -19 1 -37t3 -36q1 -17 0 -34.5t4 -33.5q14 -5 32 -7t37 -2.5t38 -2t36 -6.5q3 -8 5 -19.5t1 -20.5q-1 -11 -11.5 -11.5t-18.5 -1.5q-13 0 -26 -1t-26 -1q-15 0 -30 0.5
t-30 -0.5q-11 -1 -20.5 -0.5t-20.5 -0.5q-14 -1 -22 2t-12 17q-4 13 -4.5 24.5t-0.5 24.5q-1 7 -1.5 13.5t-0.5 13.5q-1 4 -0.5 9t-0.5 8q-5 36 -4.5 74t0.5 76q-1 44 -0.5 87t-0.5 88q0 19 -1 39t4 39q4 17 4.5 34.5t-0.5 34.5q-1 11 -1 24t7 24q2 4 10 4t17.5 -1.5
t18.5 -4t13 -3.5z" />
    <glyph glyph-name="M" unicode="M" horiz-adv-x="429" 
d="M315 643q8 3 15 2t15 1t17 4t16 -3q0 -27 1 -81t2.5 -121t3 -138.5t2 -134t-0.5 -108t-3 -59.5q-6 -2 -18.5 -3.5t-25 -1t-22 4.5t-9.5 14q1 33 1 66t-2 66v24v44t-0.5 52.5t-0.5 51.5t-0.5 40.5t-1.5 18.5q-1 -2 -8 -29t-16.5 -60.5t-19 -63t-13.5 -35.5
q-6 -9 -12.5 -11t-13.5 -2t-14.5 1.5t-15.5 0.5q-3 6 -12 29.5t-18.5 50.5t-17.5 49t-9 25q-3 4 -3 10.5t-5 8.5q-1 -63 -1 -115q0 -22 -0.5 -44t-0.5 -41t-0.5 -33t-1.5 -20q-3 -24 -1.5 -49t-5.5 -50q-16 -5 -37 -2.5t-35 10.5q-2 66 -0.5 132t0.5 132v42.5v72.5t1 85.5
t2.5 82.5t3.5 63.5t5 28.5q9 1 21.5 5.5t22.5 0.5q7 -3 10.5 -12.5t5.5 -16.5q3 -8 10.5 -30.5t18 -52.5t21.5 -63.5t20.5 -62.5t17 -49t9.5 -23q1 1 2.5 5.5t3.5 10t4 10t2 6.5q1 1 7.5 20t15.5 47t20 61t21 62t17.5 49.5t9.5 24.5zM128 357q0 1 -1 4h-3v-4h4z" />
    <glyph glyph-name="N" unicode="N" horiz-adv-x="406" 
d="M279 2l-4 10l-4 10q-8 19 -21.5 58t-27.5 81.5t-27 81.5t-19 60q-8 27 -15 58.5t-23 55.5q2 -3 0.5 -6.5t-1.5 -5.5q-2 -14 0 -27q1 -24 0 -48q-2 -26 -4 -51.5t-4 -51.5l-5 -105q-1 -28 -3 -56.5t3 -54.5q-2 -5 -7.5 -6.5t-12 -2.5t-13.5 -1h-10q-10 -1 -22.5 0
t-17.5 12q4 7 4.5 15t0.5 16q0 13 0.5 24.5t1.5 23.5q3 48 3 96q-1 49 1.5 98t3.5 98q0 50 3 98.5t2 98.5v18t1 19q1 7 1 17t5 15q11 11 30.5 10t32.5 0q8 -8 10 -20t6 -23l17 -56q9 -29 17 -58.5t20 -57.5q11 -24 19.5 -49.5t19.5 -50.5q5 -11 10 -23t11 -24q2 -13 7.5 -25
t12.5 -23q4 27 2.5 53t-2.5 53q0 27 2 53.5t4 52.5t3 52.5t3 52.5q1 12 1.5 25t0.5 26q0 12 -3 28t2 27q15 -2 38 -1.5t37 -5.5q9 -3 10.5 -8.5t0.5 -14.5q-2 -14 -2 -29t-1 -29q-5 -59 -7 -116.5t-5 -115.5q-3 -61 -4 -129t-6 -128q-1 -20 0 -40t-1 -40q-2 -10 -12 -14.5
t-22 -5.5t-23.5 1t-17.5 5z" />
    <glyph glyph-name="O" unicode="O" 
d="M338 528q5 -44 3 -88t-2 -89q1 -40 0.5 -80t-0.5 -80q-1 -16 -0.5 -36t-1 -40t-6.5 -38t-18 -30q-14 -12 -29 -24t-33 -17q-42 -11 -83 -2q-7 2 -16.5 4.5t-15.5 8.5q-7 5 -14 8.5t-14 8.5q-14 11 -21.5 26.5t-14.5 30.5q-14 34 -18 68t-6 69q-2 22 -2.5 44t-1.5 43
q-1 20 -2 39t0 38q1 21 0.5 42t0.5 42t4 42t11 41q18 41 52 70q20 17 45.5 23.5t51.5 7.5t47 -11.5t38 -30.5q8 -8 16 -15.5t13 -18.5q7 -13 10 -27.5t7 -28.5zM128 232q0 -17 1 -36.5t4.5 -39t11 -37t21.5 -29.5q7 -6 20 -10.5t26.5 -4.5t25 4.5t16.5 15.5q5 15 6.5 32
t3.5 32q2 11 3.5 21t1.5 21q0 9 1.5 17.5t3.5 18.5q5 39 4 78t-3 78q-1 18 0 37t1 38t-2.5 37t-10.5 35q-5 14 -17.5 22.5t-26.5 11.5q-20 5 -35.5 -1t-29.5 -18q-6 -17 -12.5 -33.5t-8.5 -34.5q-4 -21 -4.5 -42t-2.5 -43q-4 -44 -2 -85.5t4 -84.5z" />
    <glyph glyph-name="P" unicode="P" horiz-adv-x="367" 
d="M113 170q2 -20 1 -41t-1 -42q0 -17 -0.5 -34.5t-2.5 -35.5q0 -6 -2.5 -10.5t-10.5 -4.5q-9 0 -18.5 0.5t-18.5 0.5q-10 0 -13.5 5t-4 12t1 15t1.5 13q0 24 0.5 47t0.5 47q2 44 2 87.5t3 87.5q3 46 4 91t1 92q0 21 -1 41.5t-1 41.5q0 14 -0.5 29t2.5 30q1 5 5.5 7.5
t10.5 4t12 2.5t10 1q17 2 33.5 3.5t33.5 1.5q36 1 71.5 -8t57.5 -41q18 -25 24.5 -55.5t8.5 -59.5q3 -35 2 -71t-3 -71q-1 -32 -13.5 -62t-45.5 -41q-17 -5 -34.5 -9t-35.5 -3q-19 1 -37.5 3.5t-37.5 0.5q-1 -7 -4 -30t-1 -45zM164 302q14 1 28.5 2t25.5 7q12 7 18.5 19
t10.5 24q9 26 11.5 54.5t0.5 56.5q-2 14 -5 27.5t-2 27.5q0 15 -1 28t-14 23q-11 9 -26.5 14t-32.5 7t-33.5 0t-29.5 -6q2 -71 1 -140t-1 -140q11 -5 23.5 -5t25.5 1z" />
    <glyph glyph-name="Q" unicode="Q" horiz-adv-x="407" 
d="M325 73q5 -5 10 -11t9 -10q6 -5 14 -12.5t6 -17.5q-13 -7 -21 -19.5t-22 -19.5q-14 -6 -24.5 6t-18.5 22q-6 8 -9.5 6.5t-12.5 -5.5q-8 -4 -17 -5.5t-17 -3.5q-22 -3 -43 -1t-40 10q-33 14 -56 45.5t-29 64.5q-3 20 -5 38.5t-5 38.5q-4 23 -2.5 44t2.5 44q2 47 4 92t8 91
q1 11 3.5 21t3.5 21q1 10 1 20t2 20q4 18 15.5 36t23.5 31q25 29 64 42t75 7q31 -5 50.5 -27.5t33.5 -47.5q7 -14 9 -31t4 -32q2 -17 4 -35t2 -36q-1 -34 0 -67.5t0 -66.5q-1 -32 -5 -63t-7 -63q-3 -29 -6.5 -58.5t-15.5 -55.5zM271 213q5 44 6 88q2 41 2 81t-1 81
q0 15 -1 30.5t-4.5 30.5t-10.5 28t-20 22q-5 3 -12.5 7t-16 6t-16 2t-13.5 -4q-24 -18 -36.5 -43t-18 -50.5t-6.5 -49.5t-2 -40q-5 -43 -4 -85.5t-1 -84.5q-1 -29 3 -63.5t19 -60.5q13 -22 42 -25q11 -1 22 -5.5t22 2.5q-10 4 -14.5 15.5t-12.5 16.5q-3 2 -8.5 7.5
t-4.5 10.5q2 8 6 9t8 6q7 5 14.5 16.5t17.5 11.5q3 0 8 -5t10 -10.5t8.5 -10t4.5 -3.5q0 1 1 10t3 20l4 22t2 17z" />
    <glyph glyph-name="R" unicode="R" horiz-adv-x="372" 
d="M89 15q-1 -1 0 -1.5t0 -1.5h-12t-14 1t-12.5 4t-6.5 9q-1 2 -1 30t-0.5 72.5t0 101t1 115.5t2 115.5t3.5 101.5t4.5 73.5t6.5 31.5q6 6 12 5.5t14 1.5q40 6 81 3q30 -1 51 -5.5t35 -10t21.5 -11.5t11.5 -9q14 -13 23 -47t13.5 -71.5t6 -70.5t1.5 -43q0 -38 -5.5 -62.5
t-13 -40t-16 -23.5t-14.5 -14q7 -13 15.5 -24t14.5 -24q4 -8 7 -28t5 -42.5t3 -43t1 -30.5q-1 -17 0.5 -34.5t-0.5 -35.5q-9 -6 -19.5 -7t-21.5 1q-8 1 -21.5 0.5t-19.5 4.5q-3 19 -2.5 37.5t0.5 37.5q0 11 0.5 29.5t-0.5 39t-4 41.5t-9 36q-9 9 -22.5 12.5t-28.5 4
t-30.5 -2t-28.5 -5.5q0 -10 -0.5 -30t-1 -44t-2 -50t-3.5 -47.5t-5.5 -36t-7.5 -16.5h-4q-2 0 -4 0.5t-3 2.5zM256 541q-3 24 -13 36t-39 21q-42 13 -85 3q0 -72 -2.5 -143.5t3.5 -143.5q10 0 33 -1t47 1.5t42.5 9.5t19.5 24q1 -1 1.5 10.5t0 30t-1 41t-1.5 44.5t-2.5 40
t-2.5 27z" />
    <glyph glyph-name="S" unicode="S" horiz-adv-x="398" 
d="M361 196q4 -17 3.5 -32t-3.5 -32q-3 -21 -7.5 -41t-19.5 -38q-14 -16 -37 -30t-44 -20q-23 -5 -48 -6t-47 6q-20 7 -41 22.5t-34 32.5q-5 7 -10.5 17.5t-10 22t-6.5 23t0 20.5q4 17 13 19t25 4q11 0 22.5 -0.5t22.5 -5.5q-1 -18 6 -36t19.5 -30t30.5 -17t39 3
q22 8 33.5 23.5t14.5 34t-2 38.5t-14 37q-22 37 -51 67t-61 59q-25 21 -49.5 42t-38.5 51q-8 17 -12 38.5t-4 44t4.5 44.5t15.5 39q23 37 63 57t85 16q15 -2 29.5 -5.5t27.5 -10.5q11 -7 26.5 -19.5t20.5 -25.5q3 -7 9.5 -19.5t12 -26t7.5 -25t-3 -17.5q-4 -4 -15 -7.5
t-23.5 -5t-23.5 -1t-16 5.5t-5.5 16t-3.5 17q-5 9 -10 17.5t-13 13.5q-9 8 -23.5 13t-26.5 5q-12 -1 -22.5 -7.5t-18.5 -14.5q-15 -18 -22.5 -41.5t-2.5 -46.5q4 -20 17 -34.5t27 -28.5q28 -29 61.5 -56t62.5 -56q23 -23 43.5 -52t27.5 -61z" />
    <glyph glyph-name="T" unicode="T" horiz-adv-x="346" 
d="M121 617h-31q-11 -2 -24.5 -3.5t-22.5 8.5q4 12 0 25.5t2 24.5q2 3 2.5 5.5t5.5 4.5q7 3 14 3.5t14 0.5q17 -1 32.5 -3t32.5 -2q21 0 42.5 2t42.5 0q16 -1 31.5 1t30.5 5q6 1 8.5 -4.5t2.5 -13t-0.5 -15t-0.5 -10.5q2 -16 -3 -23t-21 -9q-14 -2 -28 -2.5t-28 -3.5
q-2 -38 -2 -76t-3 -76q-2 -38 -1.5 -76.5t-1.5 -78.5q-1 -38 -2.5 -76t0.5 -76q2 -19 0.5 -38t-2.5 -39q-2 -18 -1 -35.5t-1 -35.5q-19 -2 -37 -0.5t-35 3.5q-2 16 -1.5 32t2 31.5t2 31t-0.5 31.5q-1 19 -0.5 37.5t1.5 36.5l2 37v5v8t0.5 7.5t1.5 2.5l-0.5 12t-1 27t-0.5 29
v17q1 23 0 45.5t-3 45.5q-2 44 -1 88t1 89h-18z" />
    <glyph glyph-name="U" unicode="U" horiz-adv-x="410" 
d="M365 393q1 -51 1.5 -101t-4.5 -101q-3 -23 -8 -46.5t-14 -45.5t-23 -40.5t-35 -31.5q-23 -15 -49.5 -21t-53.5 -6q-14 0 -29 6t-28.5 16t-25 21.5t-20.5 23.5q-9 13 -12.5 29t-6.5 30q-8 50 -11.5 100t-4.5 100q-2 71 3 142q2 26 2.5 52t1.5 52v41q-1 11 -3.5 24.5
t6.5 22.5q16 2 35 1.5t34 -5.5q3 -47 -2 -92t-7 -92q-2 -48 -1.5 -96t3.5 -96l4 -46l4 -46q2 -19 4.5 -39t11.5 -37q7 -16 20.5 -24.5t29.5 -11.5t32.5 0t30.5 11q12 7 20 19t12.5 26t6.5 28.5t2 27.5q1 28 0.5 55t-1.5 56q-2 60 -4.5 121t-4.5 121q-1 15 -1.5 30.5
t-2.5 30.5q-1 11 -4 27t2 27q8 5 20 6t20 2q10 2 14 2q2 0 10.5 -4.5t8.5 -5.5q5 -15 5.5 -32t1.5 -34q4 -49 6.5 -98t3.5 -99z" />
    <glyph glyph-name="V" unicode="V" horiz-adv-x="398" 
d="M149 180q-9 42 -21.5 81t-22.5 81q-11 44 -19.5 87t-17.5 87q-3 19 -5.5 37.5t-5.5 37.5q0 5 -2.5 14t-5 17.5t-5 15.5t-2.5 9q-1 5 1 10.5t4 10.5q18 0 34.5 4t33.5 3q3 -3 5 -15t3 -26.5t1.5 -28t1.5 -20.5q6 -31 10.5 -62t11.5 -62t12 -62t12 -63q7 -29 11 -60t18 -59
q5 11 6 24t3 25l8 54q5 30 8 60.5t10 60.5q6 30 13 60t12 61l10 57q2 14 4 29t10 26q17 -2 35 1t34 -1q5 -17 -3 -34.5t-12 -34.5q-1 -7 -8.5 -50.5t-18.5 -104.5t-23 -131t-22.5 -130t-17.5 -101t-7 -44q-2 -11 -0.5 -22t-2.5 -22h-10.5t-15.5 0.5t-15 1.5t-8 1
q-1 3 -6.5 27.5t-12.5 54t-13 57t-9 38.5z" />
    <glyph glyph-name="W" unicode="W" horiz-adv-x="628" 
d="M471 14q-4 -6 -14 -9t-22 -4t-23 0t-17 3q-2 3 -8 31.5t-14 69t-17 87.5t-16.5 86.5t-13 66t-6.5 27.5q-3 -4 -7 -20.5t-7.5 -36.5t-7 -39.5t-5.5 -28.5q-3 -12 -7 -33t-8.5 -45t-9 -49.5t-8.5 -46.5t-6.5 -35.5t-2.5 -16.5q0 -13 -15 -16q-3 -1 -9.5 -1.5t-14 -0.5
t-14 0.5t-9.5 1.5q-4 1 -11.5 23t-17.5 55t-20.5 73t-20 77.5t-17 67.5t-10.5 45q-3 13 -7.5 40.5t-10.5 61t-11.5 69t-10.5 65t-8 48.5t-3 21q1 2 14.5 2.5t30 -0.5t32 -2t20.5 -2q2 -17 2 -41t2 -48q1 -10 7 -40t13.5 -69.5t16 -82.5t15.5 -78.5t11.5 -58.5t3.5 -22
q4 4 9 23.5t10.5 47.5t10.5 60t9.5 61.5t7.5 52t5 31.5q1 6 3 19t4.5 26.5t5.5 25t6 15.5q4 4 13 5t19 0t19 -3.5t13 -6.5q5 -5 11.5 -32t14 -65.5t15 -82.5t14.5 -83t13.5 -68t11.5 -37q2 2 8 37.5t13.5 88t16 113.5t16 113.5t13 87.5t7.5 36q6 -1 16 -0.5t21.5 1
t24.5 -0.5t27 -6l-5 -28t-13.5 -74t-18.5 -104t-20.5 -119.5t-21 -120t-18.5 -104.5t-13 -74.5t-6 -29.5z" />
    <glyph glyph-name="X" unicode="X" horiz-adv-x="401" 
d="M358 658q2 -10 1 -14t-5 -12q-2 -3 -9 -23.5t-17.5 -50t-23 -65t-24.5 -69t-21.5 -61.5t-14.5 -43q-2 -7 -7.5 -17.5t-3.5 -18.5q1 -3 9 -24t19 -50.5t23.5 -64t23.5 -64t17.5 -51t6.5 -24.5q-6 -5 -13 -5.5t-15 0.5q-11 0 -21 -1t-20 1q-5 10 -14.5 35.5t-20 54
t-20.5 55t-15 38.5q-4 -4 -12.5 -28.5t-19 -54.5t-21 -58t-17.5 -40q-11 -2 -21.5 -1.5t-21.5 0.5q-8 -1 -16.5 0t-7.5 12q2 10 6.5 19.5t8.5 18.5q2 7 14.5 39.5l27.5 71.5t28 74t16 47q1 3 -7.5 31t-21.5 68.5t-28 87.5t-28 88t-21.5 70t-8.5 33q7 3 15 6t16.5 3.5
t15.5 -2t11 -10.5q8 -17 12.5 -34t10.5 -34q14 -44 30.5 -85.5t29.5 -85.5q1 -5 2.5 -11t5.5 -10q2 -3 5.5 5t4.5 10q2 6 8 22.5t13.5 39t16 48.5t17.5 51t17 46.5t15 35.5q13 7 33.5 5.5t36.5 -4.5z" />
    <glyph glyph-name="Y" unicode="Y" horiz-adv-x="388" 
d="M240 284v-22.5t0.5 -50.5t0.5 -64.5t-0.5 -64t-1.5 -50.5t-3 -23q-3 -5 -10.5 -3t-12.5 1q-6 0 -12.5 -2.5t-13.5 -0.5q-3 3 -4 20.5t-1 39t0.5 42.5t0.5 31q0 9 -1 28.5t-2 42t-2 42.5t-2 29q-2 14 -6 28t-11 27q-3 7 -13 32.5t-21 56t-22 60.5t-16 47q-5 15 -10.5 29.5
t-10.5 29.5q-4 8 -6.5 15.5t-4.5 15.5q-3 8 -7 15.5t-6 15.5q-1 5 10 10t25 7.5t26.5 2t15.5 -5.5q0 -2 6 -20.5t14.5 -45.5t18 -58.5t18.5 -58t15 -44.5t8 -19q1 2 7.5 19.5t15.5 43.5t18.5 56t17.5 56.5t13.5 45.5t5.5 24q5 8 14 7.5t17 -1.5t18 0t18 -3q4 -2 2 -13
t-6.5 -25t-9 -27t-5.5 -17q-2 -8 -9 -31.5t-16.5 -55.5t-19.5 -67t-19 -66t-15 -53.5t-6 -27.5z" />
    <glyph glyph-name="Z" unicode="Z" horiz-adv-x="387" 
d="M336 640q2 -2 2.5 -5t1.5 -5q-8 -34 -21.5 -71.5t-27.5 -69.5q-14 -35 -24 -70t-23 -70q-2 -6 -10 -26t-18.5 -47t-23 -59t-23.5 -62t-19.5 -54.5t-11.5 -36.5q20 -5 40.5 -5t40.5 2q21 1 41.5 0t40.5 1q9 1 17.5 2t14.5 -0.5t9 -6.5t2 -15q-1 -6 -0.5 -12.5t-0.5 -12
t-4.5 -10t-12.5 -5.5q-21 -4 -60 -5t-80.5 -1t-76 0.5t-46.5 0.5q-12 -1 -17 3.5t-4 16.5q2 18 9.5 35.5t15.5 34.5q6 14 17.5 48.5t26.5 80.5t32 98t34.5 102t34 92t30.5 67q-35 6 -73.5 1t-73.5 -5q-15 0 -21.5 3t-9.5 17q-1 4 -1.5 11t0 13.5t2.5 12.5t6 9q3 2 19.5 4
t41.5 4t54.5 3t58 1t51.5 -1.5t35 -5.5h1l1 -1q1 0 1.5 -0.5t1.5 -0.5z" />
    <glyph glyph-name="bracketleft" unicode="[" horiz-adv-x="302" 
d="M251 655q2 -7 0.5 -13.5t-9.5 -8.5q-14 -2 -28.5 -0.5t-28.5 1.5q-16 -1 -31 -1.5t-30 -0.5q3 -5 4.5 -42.5t3 -93t2.5 -121.5t1.5 -127.5t0 -110.5t-1.5 -70q14 -2 27.5 -2.5t27.5 -0.5q13 1 28.5 3t26.5 -5q6 -3 10.5 -11.5t5.5 -18t-1.5 -18t-8.5 -12.5
q-13 2 -32.5 2.5t-41.5 0.5t-44 -0.5t-39.5 0.5t-29 3.5t-12.5 8.5q-2 18 -1 37t1 38q-1 28 -2 79t-1.5 111.5t-1 124.5t-0.5 118v90.5v43.5q-1 9 -4 24.5t4 23.5q2 2 18 2.5t38 0.5t47.5 -1.5t46.5 -2.5t35.5 -2l14.5 -1q4 -12 3 -24t2 -24z" />
    <glyph glyph-name="backslash" unicode="\" horiz-adv-x="415" 
d="M161 450l8.5 -21.5t22.5 -57t32.5 -81t37.5 -94t38 -96t34.5 -87t26 -67.5t12.5 -37h-21t-16.5 0.5l-15 1t-18.5 1.5q-4 7 -16.5 36t-30.5 71t-39.5 94t-44 105.5t-43.5 104.5t-37.5 92t-27.5 67.5t-12 31.5q-4 14 -8.5 26.5t5.5 20.5q8 0 14.5 3.5t14.5 4.5q10 2 13 1.5
t13 2.5q5 -2 14.5 -21t19 -41.5t17 -41t7.5 -19.5z" />
    <glyph glyph-name="bracketright" unicode="]" horiz-adv-x="306" 
d="M263 338q-1 -15 -1 -45.5v-67.5t-0.5 -76t-3.5 -71t-8.5 -53t-15.5 -22q-17 -2 -35 0t-35 -1q-26 -3 -51 -0.5t-50 6.5q-2 4 -3.5 13t-1.5 18.5t2 16.5t8 9q20 5 44 2t44 -3q10 1 20 0t12 11q1 12 0.5 24t-0.5 25q0 12 2 46t4 74t3 78t0 58q0 4 -0.5 21t-1 41t-1 51
t-1 51t-1.5 41.5t-1 21.5q0 5 -0.5 10t-0.5 10q-2 11 -6 10t-14 -1q-12 0 -32 -0.5t-39.5 -1t-34.5 0t-18 2.5q-4 4 -4.5 9.5t-0.5 10.5v11.5t1.5 15t4.5 13.5t8 7q6 1 25 0.5t41.5 -1t43.5 -1.5t32 -1q6 0 16.5 1.5t21 0.5t18.5 -4t9 -12q0 -4 0.5 -29t1 -61t1 -77.5t0 -79
t-0.5 -65.5t-1 -37z" />
    <glyph glyph-name="asciicircum" unicode="^" horiz-adv-x="345" 
d="M272 560q-3 -2 -17 7t-30.5 21t-31.5 23.5t-20 14.5q-5 2 -11 -0.5t-12 -7.5t-11.5 -10.5l-8.5 -8.5q-12 -10 -25 -19.5t-27 -19.5q-5 -3 -10.5 3t-10.5 16l-9.5 19t-6.5 12q31 23 57 42q23 17 43 31.5t27 18.5q4 1 12.5 -4t17 -12t16.5 -14t11 -10q9 -6 23 -16t27 -19
t21 -15.5t7 -4.5q-1 -2 -4.5 -8t-8 -13.5t-9.5 -14.5t-9 -11z" />
    <glyph glyph-name="underscore" unicode="_" horiz-adv-x="496" 
d="M453 -33q-4 -2 -31.5 -3.5t-66.5 -2.5t-84.5 -1.5t-85.5 -0.5h-69.5t-35.5 1q-8 0 -15.5 0.5t-15.5 3.5q-7 3 -3.5 5t-0.5 1q0 6 -1 13.5t-1.5 15t-0.5 15t3 12.5q5 8 15.5 7t17.5 0q35 3 69.5 4t69.5 2t70 2.5t70 -0.5q7 -1 21.5 -1.5t29.5 -1.5t27 -2t14 -3
q2 -14 4 -31t0 -35z" />
    <glyph glyph-name="grave" unicode="`" horiz-adv-x="155" 
d="M90 676q7 0 11 -6.5t6 -15.5t2.5 -17.5t0.5 -12.5q1 -8 3 -17t0 -17q-3 -13 -13.5 -13t-17.5 9q-8 10 -13 21.5t-11 22.5q-1 3 -4.5 7t-6.5 8.5t-4.5 9t0.5 7.5q8 8 22.5 10.5t24.5 3.5z" />
    <glyph glyph-name="a" unicode="a" horiz-adv-x="341" 
d="M292 276q2 -24 0 -48t-2 -47v-105q0 -7 1 -18.5t0 -23t-5.5 -19.5t-14.5 -8t-21 -5t-19 -2q-7 2 -8.5 8.5t-3.5 14.5q-11 -8 -22 -13q-10 -5 -21 -8t-22 -1q-18 3 -35.5 12t-28.5 23q-7 7 -13 14.5t-12 15.5q-7 8 -10 20t-6 22q-12 40 -10 86q2 41 20 77.5t58 53.5
q14 6 30.5 9.5t33.5 -0.5q1 0 6.5 -1.5t12.5 -3t12.5 -2.5l5.5 -1q5 10 6.5 23.5t-1 26t-9.5 23t-19 15.5q-16 6 -24 0.5t-12.5 -16t-7.5 -23t-10 -19.5q-13 -2 -29.5 -1t-24.5 9q-7 25 3 51t29.5 45t45.5 28.5t52 2.5q31 -8 47 -30t22 -53q7 -32 9.5 -67t-4.5 -66zM176 76
q27 12 37.5 41.5t10.5 57.5q0 12 -1 27t-4.5 29t-11 25.5t-20.5 16.5q-14 0 -26 -3.5t-20 -8.5l-1 -1h-1l-1 -2l-2 -2l-2 -1q-8 -10 -13 -30t-6.5 -42.5t1.5 -45t10 -39t19.5 -23.5t30.5 1zM141 261q-1 0 -1 -1h-1l-1 -2l-4 -3q2 1 4 3z" />
    <glyph glyph-name="b" unicode="b" horiz-adv-x="332" 
d="M122 27q-1 -5 0.5 -11.5t-2.5 -10.5q-12 -2 -32 -4.5t-31 3.5q-5 3 -5.5 9t-0.5 12l-1 54q-2 52 -4 103.5t-4 103.5q-1 48 -0.5 95.5t5.5 95.5q2 21 3.5 42.5t1.5 42.5q0 19 -2 38.5t3 38.5q9 7 25 8.5t27 -2.5q9 -3 12.5 -13t3.5 -22t-1.5 -23.5t-2.5 -18.5
q-1 -4 -1 -19v-32v-30.5t-1 -13.5q21 5 43 5.5t42 -4.5t37 -17t29 -33q19 -33 22 -72.5t1 -77.5q-2 -20 -4.5 -40.5t-4.5 -40.5q-4 -26 -6.5 -53t-10.5 -52q-8 -22 -21 -38q-5 -5 -10 -9.5t-11 -8.5q-4 -2 -8 -2.5t-6 -5.5q-21 -2 -43 -4t-42 7zM113 384q-6 -11 -6.5 -23.5
t0.5 -24.5q1 -16 1 -31.5v-31.5q1 -29 2 -56.5t3 -56.5q1 -11 2 -22.5t6 -21.5q8 -12 15.5 -16t21.5 -6q42 -6 50 40q8 49 8 99t2 100q2 21 -2 42.5t-25 32.5q-20 11 -43 3.5t-35 -27.5z" />
    <glyph glyph-name="c" unicode="c" horiz-adv-x="315" 
d="M188 403q-21 10 -35.5 -2.5t-23.5 -34t-13.5 -45.5t-6.5 -36q-6 -37 -10.5 -75.5t5.5 -75.5q5 -19 15 -36t29 -26q20 -10 34.5 -2t25.5 25q11 15 22 8.5t20 -17.5q26 -29 -3 -56q-28 -26 -67 -29.5t-72 14.5q-20 10 -32 25t-19 32.5t-9.5 37t-3.5 39.5q-2 42 -2.5 84
t4.5 84q3 24 10.5 51.5t20.5 51t33 40t49 19.5q32 3 62 -11l15 -7.5t17.5 -10.5t14 -13.5t4.5 -14.5q-2 -12 -17 -24t-23 -20q-4 -4 -10 -1t-12 8t-12 10.5t-10 7.5z" />
    <glyph glyph-name="d" unicode="d" horiz-adv-x="320" 
d="M207 652q5 0 7.5 2t7.5 3h9.5t9.5 1q10 2 19.5 2.5t20.5 -2.5q5 -7 3.5 -15t0.5 -16q1 -5 1 -21.5v-36v-39v-30.5q-1 -45 -1 -89t-3 -89q-2 -45 -3.5 -88t0.5 -88q2 -35 2.5 -70.5t-0.5 -70.5q-21 -3 -40 -3q-7 0 -17.5 -1.5t-16.5 2.5q0 2 -2.5 6.5t-1.5 11.5
q-4 -1 -7.5 -4t-6.5 -5q-5 -3 -10 -3.5t-10 -0.5q-11 0 -21 2t-19 5q-15 5 -28.5 11t-21.5 17q-26 35 -37 80t-12 87v51.5t2 51.5q2 24 6 51.5t18 48.5q11 18 26 32t37 21q23 7 44.5 1t43.5 -11q-1 50 0.5 94.5t-0.5 101.5zM191 378q-20 11 -36.5 14t-33.5 -17
q-15 -17 -18 -42t-5 -47q-2 -25 -3.5 -49.5t-0.5 -48.5q1 -22 6 -49t22 -42q16 -14 33.5 -18t34.5 12q4 3 7 6.5t6 7.5q4 4 3 9.5t-2 10.5q-1 13 -1 25.5v24.5q1 27 2.5 54t1.5 53q0 14 -1 28t-1 28q0 7 0.5 14t1.5 14q-3 5 -7 7.5t-9 4.5z" />
    <glyph glyph-name="e" unicode="e" horiz-adv-x="349" 
d="M241 158q7 0 18.5 -3t21.5 -7.5t17.5 -11t7.5 -13.5q0 -29 -12 -51.5t-31.5 -38.5t-44 -24.5t-48.5 -8.5q-45 0 -70.5 28.5t-38.5 69.5t-16.5 86t-3.5 78q0 34 7 73t23.5 72t44.5 54.5t70 21.5q34 0 54 -14t30.5 -35t14 -46t5.5 -46q2 -19 3.5 -38t1.5 -38v-25
q-1 -5 -17 -6.5t-31 -1.5h-22q-23 -1 -45.5 -5t-44.5 -4h-8q-11 0 -11 -5q0 -6 -0.5 -29t4 -48.5t16.5 -45.5t37 -20q19 0 29.5 8.5t16.5 20.5t8 26.5t5 26.5h9zM184 411q-20 0 -32.5 -12t-19.5 -29t-10 -35.5t-4 -32.5q21 -3 46 -3q38 0 68 6q0 3 0.5 6.5t0.5 6.5
q0 9 -1.5 17t-3.5 16q-2 10 -5.5 20.5t-9 19.5t-12.5 14.5t-17 5.5z" />
    <glyph glyph-name="f" unicode="f" horiz-adv-x="355" 
d="M242 471q4 -11 4 -29.5t-5 -29.5q-3 -5 -12.5 -6t-21 -0.5t-22.5 1.5t-15 1q-3 -37 3 -75.5t9 -75.5q2 -26 2 -52v-52q0 -18 3 -36.5t6 -36.5t5 -36.5t0 -36.5q-4 -1 -16 -3t-24.5 -3t-23 -1t-12.5 4q-5 10 -4.5 23t1.5 24q1 26 -1 52.5t-3 53.5q-2 31 -3.5 61.5
t-3.5 61.5q-2 32 -0.5 64t-0.5 64q-12 -1 -32 1t-29 4q-5 10 -3.5 28t5.5 32q5 0 13 0.5t16.5 0.5t16.5 0.5t14 1.5q1 42 13 84.5t47 70.5q21 16 45 25t50 4q7 -1 17.5 -4.5t19 -9t12.5 -12.5t-2 -16q-8 -11 -17 -23t-20 -18q-5 -3 -10.5 5t-10.5 10q-8 3 -18 2t-18 -4
q-15 -6 -23 -19t-12 -29.5t-6 -33.5t-4 -30q6 -2 17.5 -2.5l23 -1t20.5 -1.5t10 -2z" />
    <glyph glyph-name="g" unicode="g" horiz-adv-x="334" 
d="M290 422q-1 -21 -2.5 -41.5t-2.5 -41.5q-3 -42 -2.5 -83t2.5 -83q1 -29 3.5 -59.5t2.5 -61.5t-5 -60.5t-19 -55.5q-15 -27 -41 -45.5t-58 -19.5q-9 0 -26.5 1.5t-32.5 6t-23 13.5t3 23q7 9 14.5 17t15.5 17q5 6 10.5 5.5t11 -3.5t10.5 -7t10 -7q15 -8 27 2t20 21
q11 14 13.5 31t-0.5 35q0 -3 -6.5 -5t-15 -3.5t-16.5 -2.5t-10 -1q-52 -3 -83 32q-16 17 -25 37.5t-13.5 42.5t-6 44.5t-1.5 43.5q0 32 -1.5 63.5t3.5 61.5q4 26 11.5 53.5t24.5 49.5q14 17 33 27t42 12q12 0 23 -2.5t22 -7.5q7 -3 15.5 -9t16.5 -4q2 3 1 7.5l-2 9t0 8.5
t6 6q11 5 23 3t23 -1q6 -6 5.5 -12t-0.5 -13v-44zM168 413q-25 -3 -36.5 -24t-16.5 -41q-7 -33 -10 -67t0 -68q1 -23 3.5 -47.5t12.5 -47.5q5 -11 14 -19.5t20 -13t22.5 -4t21.5 8.5q17 14 18 36t2 41q2 34 3.5 68t1.5 69v36t-4.5 37t-16 28t-35.5 8z" />
    <glyph glyph-name="h" unicode="h" horiz-adv-x="328" 
d="M118 650q1 -3 1 -25v-51t0.5 -60.5t2.5 -52.5q28 1 55.5 -1.5t50.5 -21.5q13 -11 21.5 -24.5t14.5 -27.5q14 -35 17 -75t4 -78q1 -41 0.5 -81t-3.5 -81q-1 -11 -1 -21.5t-2 -21.5q0 -5 -2 -8.5t-4 -8.5q-3 -5 -10 -7.5t-16 -3t-17 1t-12 4.5q-7 14 -5 36t2 37
q-1 32 -0.5 64t0.5 64q0 26 0.5 51.5t-3.5 51.5q-2 18 -9 37t-20 33q-11 14 -30.5 18t-32.5 -10q0 -66 -2 -131t-3 -131q0 -23 -0.5 -46t-1.5 -46v-10.5t-3 -9.5q-5 -8 -12.5 -10t-16 -1t-17 3.5t-16.5 2.5q-4 81 -5.5 161.5t0.5 161.5q1 31 1.5 62t1.5 62q2 48 1.5 96
t3.5 96q17 3 33.5 5.5t33.5 -3.5z" />
    <glyph glyph-name="i" unicode="i" horiz-adv-x="172" 
d="M51 477q4 0 16 2t25.5 3.5t24.5 0.5t12 -7q3 -14 2 -28.5t-2 -28.5q-1 -35 -3.5 -70t-4.5 -70q-2 -48 -1.5 -95.5t-0.5 -95.5q-1 -13 -1 -26t2 -26q0 -3 1 -8t1 -10t-2 -9t-7 -5q-9 -2 -17.5 -1.5t-17.5 1.5q-5 0 -12.5 2.5t-9.5 2.5t-2.5 -0.5t-1.5 -0.5q-6 19 -4 42
t2 43v76t1 76q0 30 1 60t0 59l-2 63q0 11 -1.5 25t2.5 25zM128 573q5 -14 5.5 -16t-1.5 1q1 -15 -5 -27t-17 -18.5t-24 -7.5t-25 7q-17 18 -15 36.5t14.5 30t31 12.5t33.5 -16l1 -1z" />
    <glyph glyph-name="j" unicode="j" horiz-adv-x="154" 
d="M119 564q-2 -16 -13 -25q-12 -11 -25.5 -9.5t-23.5 14.5q-8 12 -7.5 29.5t14.5 25.5q9 5 20 4.5t20 -5.5t13.5 -14t1.5 -20zM-25 -120q-16 2 -32.5 10.5t-25.5 23.5q-5 6 0.5 12t9.5 11q5 6 8.5 14.5t12.5 11.5q8 0 13.5 -4t13.5 -5q22 -4 35.5 9t21 35t10.5 49.5t3.5 54
t0 49t0.5 33.5q-1 84 0 158.5t4 153.5q13 2 27 3t28 1q8 0 12 -5t5.5 -12t1 -14t-0.5 -13q-2 -65 -1.5 -138.5t-1 -142t-7 -126t-18.5 -91.5q-7 -15 -20.5 -30t-30 -26.5t-34.5 -17.5t-35 -4z" />
    <glyph glyph-name="k" unicode="k" horiz-adv-x="362" 
d="M116 295q16 11 25.5 28t20.5 32q11 17 22.5 32.5t22.5 29.5q8 11 16.5 22t17.5 21q5 5 13 4.5t13 0.5q28 2 51 -1q6 -18 -5.5 -33t-22.5 -27q-12 -13 -23.5 -26.5t-22.5 -27.5q-10 -12 -20 -23.5t-20 -24.5q-2 -4 -4 -6t0 -7l10 -24l47 -118q7 -17 13.5 -32.5t14.5 -31.5
l20 -46q3 -8 7.5 -18t-5.5 -17q-8 0 -16.5 0.5t-16.5 -0.5q-8 0 -16 -2t-12 6q-9 15 -15.5 31.5t-12.5 32.5q-29 78 -69 154q-9 -6 -18 -15.5t-15 -19.5q-5 -8 -3 -21t3 -21q3 -35 3 -68.5v-68.5q-5 -7 -12.5 -8.5t-17.5 -1.5t-20.5 1t-20.5 0q-7 11 -6 30.5t1 32.5
q-1 27 -0.5 54t1.5 54q2 42 2 84v84q0 50 0.5 99t-0.5 99v82l-2 20q-1 6 7 8t18.5 2t20.5 -1.5t13 -1.5q4 0 7.5 -0.5t7.5 -0.5q-1 -25 -1.5 -59t-1.5 -71.5t-1 -74.5v-67.5t0.5 -52t1.5 -26.5z" />
    <glyph glyph-name="l" unicode="l" horiz-adv-x="168" 
d="M54 653q14 4 30 4.5t31 4.5q3 -4 5 -13t3 -20t1.5 -22.5t-0.5 -19.5q0 -22 -3 -43t-5 -44q-2 -22 -1 -43.5t1 -43.5q-1 -19 -1 -37.5v-38.5q1 -21 0.5 -42.5t1.5 -43.5q1 -21 -2 -42t-2 -42q1 -11 -0.5 -21t-0.5 -21q0 -10 1.5 -20t1.5 -21v-45q0 -8 -0.5 -16.5
t-4.5 -15.5l-28 -3.5t-31 -3.5q-10 7 -10 24t1 27q2 23 3 47t1 47q2 46 0.5 91.5t0.5 91.5l4 45q0 10 -1 19t1 18t0 19t-2 19v21.5t1 21.5q0 20 0.5 39.5t0.5 38.5q1 10 1.5 19t-1.5 19q-2 11 0.5 23t2.5 23z" />
    <glyph glyph-name="m" unicode="m" horiz-adv-x="536" 
d="M226 8q1 30 2 58q1 24 1 49t-2 41q-3 32 -4 64.5t0 65.5q0 11 0.5 24.5t-1 27.5t-5.5 27t-12 22q-9 11 -21 15.5t-24 3t-23 -9t-18 -19.5q-7 -11 -7 -25.5t-1 -26.5q-1 -17 -0.5 -33t1.5 -32q1 -33 4 -65.5t4 -65.5q0 -14 0.5 -29t1.5 -29q1 -15 3 -34t-3 -34
q-14 -2 -30.5 -3t-31.5 1q-4 4 -5.5 11.5t-1.5 15.5t1 16t1 13l-3 72q-1 35 -2 70.5t-4 71.5q-2 38 -2.5 75t0.5 75q0 4 -1 12t-1 17t1 16.5t6 9.5t12 0.5t12 -1.5q6 1 14 1.5t15 -1.5q5 -5 4 -12.5t1 -15.5q9 4 15.5 9.5t16.5 9.5q25 11 52 11q28 -1 50 -19q5 -4 9.5 -7.5
t9.5 -8.5q2 -2 4.5 -6t5.5 -4q7 2 10.5 8.5t9.5 10.5q8 7 17.5 12t19.5 9q37 15 76 -1l16 -8t14 -9q7 -7 11.5 -15t9.5 -16q17 -29 22 -66q4 -21 5.5 -43t4.5 -43q1 -11 3 -35t3 -50t2 -49.5t1 -33.5l-2 -50q-1 -11 0 -22.5t-4 -21.5q-14 1 -28 -3t-28 -4q-12 0 -15.5 6
t-5.5 17q-6 31 -5.5 62t1.5 62q1 33 1 64.5t-5 63.5q-2 16 -2 30.5t-5 29.5q-5 14 -8.5 27.5t-11.5 26.5q-7 11 -23 14.5t-25 -9.5l-8 -12t-12.5 -19.5t-12 -20.5t-6.5 -14q-2 -14 -2 -28.5t1 -28.5q2 -66 5.5 -130.5t5.5 -130.5z" />
    <glyph glyph-name="n" unicode="n" horiz-adv-x="334" 
d="M131 447q27 17 58 18t57 -19q12 -11 18 -22.5t8 -26.5q3 -19 7 -37t6 -38q3 -40 3.5 -80t2.5 -80q2 -20 1.5 -40t-2.5 -40q-2 -18 -1 -37t-2 -37q-6 -2 -13.5 -1.5t-14.5 1.5q-6 2 -13 1t-13 1q-8 5 -7.5 14.5t1.5 16.5q0 28 3 55q2 27 2.5 53.5t1.5 53.5v54.5t-5 53.5
q-2 10 -2.5 23t-3 25t-9 22t-18.5 13q-12 4 -21.5 1t-17.5 -9.5t-14.5 -15t-13.5 -16.5q-8 -9 -9 -23t-2 -26l-4 -59q-2 -29 -4 -58.5t-3 -58.5q0 -33 1 -65t-3 -64q-15 2 -32 0.5t-28 5.5q-5 29 -3 57t4 57q2 26 2 52.5t1 53.5q1 60 4.5 119t4.5 119q7 9 21.5 10.5
t24.5 4.5q17 5 22 -6.5t5 -25.5z" />
    <glyph glyph-name="o" unicode="o" horiz-adv-x="357" 
d="M301 111q-5 -20 -12.5 -38.5t-20.5 -35.5q-5 -8 -11 -14t-15 -11q-4 -1 -13.5 -5.5t-9.5 0.5q-9 -7 -24.5 -7t-26.5 3l-23 4q-7 1 -11 4t-10 6q-36 15 -53 45.5t-22 67.5q-5 35 -6.5 72t1.5 73.5t13 71.5t30 66q20 29 51.5 39t64.5 -3q30 -11 49 -30.5t32 -48.5
q14 -31 20.5 -65t8.5 -68q2 -18 2.5 -36t-0.5 -35q-1 -8 -3 -14t-4 -13q-2 -8 -2 -14.5t-5 -13.5zM146 378q-9 -9 -14 -21t-8 -23q-3 -14 -7 -27.5t-7 -26.5q-3 -15 -5 -32t0 -32q3 -14 2.5 -28.5t1.5 -28.5q2 -18 7.5 -43.5t20.5 -39.5q6 -5 15.5 -9t20 -5.5t21 0t16.5 7.5
q8 7 12.5 19t6 24.5t2 25.5t0.5 23q1 54 0 107q-2 14 -3 27.5t-5 26.5q-4 12 -3.5 22t-6.5 21q-5 10 -10.5 17t-18.5 9q-12 2 -20.5 -1.5t-17.5 -11.5z" />
    <glyph glyph-name="p" unicode="p" horiz-adv-x="351" 
d="M119 27q0 -32 -1 -63q-1 -26 -1.5 -55.5t-1.5 -51.5q-15 -1 -33.5 -1.5t-32.5 1.5q-9 101 -7 199.5t4 195.5v31t1 52.5t3 61.5t5.5 58.5t8.5 44t12 18.5q8 1 16.5 0.5t16.5 -0.5q6 0 9 -1.5t8 -3.5q2 -6 1.5 -11.5t1.5 -10.5q22 6 44 9.5t44 -3.5q19 -6 34 -19.5
t25 -30.5q26 -44 30 -94.5t1 -99.5q-2 -27 -1 -53t-4 -52q-5 -23 -13 -44t-23 -39q-18 -23 -44.5 -38t-57.5 -13q-12 1 -23 6t-22 7zM235 167q7 44 7.5 89t-2.5 89q-2 18 -9 36t-18 33q-11 17 -26.5 18t-32.5 -8q-18 -9 -23.5 -26.5t-7.5 -36.5q-6 -43 -5.5 -86t-1.5 -85
v-36t7 -34q12 -14 31 -25.5t44 -2.5q15 11 24 30.5t13 44.5z" />
    <glyph glyph-name="q" unicode="q" horiz-adv-x="374" 
d="M323 -143q-3 2 -9 3t-8 1q-11 0 -23.5 4t-20.5 12q-26 23 -35 60t-5 70q-12 -4 -24.5 -6.5t-24.5 -2.5q-10 0 -18 2t-17 3q-5 1 -13 7t-16.5 12.5t-15 12.5t-7.5 7q-2 2 -7 9t-10 15.5t-9.5 17.5t-5.5 15q-6 26 -9.5 52.5t-3.5 54.5q0 51 6 104.5t28 100.5q9 21 25 34
t37 21q24 8 48.5 0t45.5 -21q-2 6 -2 14.5t-1 14.5q17 8 37.5 7.5t37.5 -5.5q5 -33 2 -66t-3 -66q0 -37 0.5 -73t-0.5 -73q-1 -33 -2.5 -66t-2.5 -66q-1 -17 -0.5 -35t2.5 -35q1 -17 2 -35.5t6 -36.5q6 -2 12 0t10 -5q2 -7 2.5 -13.5t1.5 -14.5v-6.5t-1 -11.5t-3 -11t-6 -5z
M219 364q-6 9 -15 18t-19.5 13.5t-20.5 1.5t-18 -17q-6 -11 -9.5 -24t-6.5 -26q-5 -19 -9 -38t-6 -39q-3 -35 -2 -70.5t11 -68.5q4 -14 11.5 -25t21.5 -15q15 -5 26 -1t17.5 10.5t10 13.5l4.5 9q1 3 2 23t1.5 48t1.5 60t1 59.5t-0.5 46.5t-1.5 21z" />
    <glyph glyph-name="r" unicode="r" horiz-adv-x="295" 
d="M113 511q1 -5 1 -10v-10t1 -10q10 1 18.5 7t17.5 8q13 3 25.5 3.5t25.5 -0.5q26 -4 43 -22.5t31 -38.5q7 -9 5 -16t-10 -14q-7 -6 -18.5 -16t-20.5 -6q-8 3 -14.5 11.5t-15.5 13.5q-21 10 -41 7q-20 -4 -29.5 -23t-11.5 -36q-2 -14 -3 -46t-1 -67.5t0.5 -67.5t0.5 -47
q2 -32 0.5 -64t-2.5 -64q-7 -2 -14.5 -2h-14.5q-8 1 -16.5 -0.5t-15.5 1.5q-5 2 -7 8t-2 13.5t1 14.5t1 12q0 35 2 70.5t1 72.5q-2 41 -1.5 82t1.5 83q0 19 -1 39t-3 40v21.5t-2 21.5q-1 7 -2 13.5t4 13.5q7 6 15 5t16 -1q9 0 18 2t18 -2z" />
    <glyph glyph-name="s" unicode="s" horiz-adv-x="341" 
d="M295 151q5 -22 0 -52t-19 -49q-7 -10 -14 -17.5t-27 -19.5q-14 -8 -30.5 -11t-32.5 -3t-30 2.5t-23 6.5q-13 5 -25 11.5t-22 14.5q-3 2 -8.5 6.5t-11 10t-9 11t-2.5 9.5q0 2 7 10.5t17 16.5t20 12.5t16 -0.5q12 -11 29.5 -23t34 -16.5t30.5 3.5t20 38t-10 55t-40.5 46
t-50.5 40t-41 37q-14 19 -19 37.5t-5 41.5q0 22 10.5 47t27.5 40q27 25 58.5 31t56.5 -1q22 -6 37.5 -14t25 -16.5t13.5 -14.5t4 -7q-4 -6 -12.5 -14.5t-17 -16t-16 -11.5t-9.5 -1q-9 10 -23 16.5t-28 7.5t-26 -5.5t-16 -22.5q-6 -21 -1 -38t16.5 -31t27 -26t30.5 -24
q30 -24 55 -52.5t33 -64.5z" />
    <glyph glyph-name="t" unicode="t" horiz-adv-x="310" 
d="M163 579q2 -22 3 -42q1 -17 1.5 -37t1.5 -34q18 -4 38.5 -3t39.5 -4q1 -5 3 -12t2.5 -14.5t-1 -14t-6.5 -10.5q-6 -4 -15.5 -3.5t-16.5 0.5q-11 0 -22.5 0.5t-22.5 -2.5q-3 -45 -1.5 -90.5t1.5 -90.5q-1 -22 0.5 -43.5t3.5 -42.5q0 -6 1 -17t3.5 -22t7.5 -19.5t14 -9.5
q7 0 11.5 5.5t11.5 5.5q3 0 10.5 -4.5t15.5 -10.5t14.5 -11.5t6.5 -7.5q0 -6 -4 -13t-8 -12q-11 -14 -30 -17.5t-34 -1.5q-13 2 -24 7l-22 10q-18 9 -27 29.5t-12 44.5t-2.5 48t-0.5 42q-3 54 -3 107.5t-8 107.5q-9 2 -19 4t-23 0q-8 5 -6.5 12t1.5 14q-1 10 -3.5 18.5
t2.5 17.5q11 1 20.5 1.5t21.5 0.5q4 14 2.5 29.5t-0.5 29.5t0 26t1 24q11 7 33.5 6t39.5 -1z" />
    <glyph glyph-name="u" unicode="u" horiz-adv-x="385" 
d="M331 246q-1 -56 4 -110.5t7 -111.5q-2 -1 -2 -2t-2 -4q-10 -7 -23 -6t-24 0q-14 -1 -17 6t-8 17q1 -2 -4.5 -7t-6.5 -6q-11 -9 -21 -13q-7 -3 -15.5 -4.5t-16.5 -2.5q-15 -5 -32 -3q-30 3 -60 19q-11 6 -20.5 16t-16.5 21q-8 12 -12 24.5t-9 25.5q-4 11 -6 37t-3.5 59
t-2 69.5t0 68t0.5 54v28.5q0 16 0.5 30.5t2.5 30.5q7 3 17 4.5t21 1.5t21.5 -1.5t18.5 -4.5q2 -1 2 -10v-11t-1 -20t-2.5 -44.5t-3 -57t-2.5 -58t-2 -48t-1 -25.5q1 -20 0 -41.5t8 -41.5q2 -5 4.5 -10.5t6.5 -9.5q3 -3 11.5 -7.5t20.5 -7.5t27 -2t32 9q8 4 13.5 11.5
t7.5 15.5q6 14 8.5 29.5t3.5 30.5q2 36 1 71.5t-2 70.5t-2.5 70t-6.5 70q-3 20 24 22q8 0 15 1t15 2h15t17 -1q2 -2 2 -17v-35t-0.5 -40.5t0.5 -33.5q1 -29 0 -58.5t-2 -59.5z" />
    <glyph glyph-name="v" unicode="v" horiz-adv-x="307" 
d="M42 486q18 1 34 1q14 0 26 -0.5t16 -3.5q-1 -4 1 -19.5t5.5 -36.5t8 -45t9 -45t7.5 -37t5 -20q6 24 12.5 58.5t12.5 66.5t10 55t4 25q8 8 24.5 8.5t33.5 0.5q14 -5 14 -14.5t-2 -20.5q-1 -5 -6 -38.5t-11.5 -81t-14 -102t-14 -102t-11 -80.5t-5.5 -38q-2 -8 -4.5 -12.5
t-10.5 -4.5h-12.5t-15 0.5t-13.5 1t-7 0.5q-2 4 -10 38t-19 83.5t-23.5 108t-22.5 111t-16 92t-5 51.5z" />
    <glyph glyph-name="w" unicode="w" horiz-adv-x="508" 
d="M310 10q-1 5 -5.5 25t-10.5 47.5t-13.5 60t-14.5 62t-13 54t-9 36.5q-7 -13 -13 -39t-11 -57.5t-9.5 -65t-8 -62t-6 -47.5t-4.5 -22q-12 -2 -24.5 -1t-24.5 -1q-2 0 -10 32.5t-18.5 80.5t-23 104.5t-23 105.5t-17.5 83t-8 37q-4 15 6 17t24 5q16 3 30 3.5t21 -15.5
q2 -4 4.5 -23t5.5 -46t6 -59t6 -62.5t6 -57t5 -41.5q2 5 6 29.5t9 57.5t11.5 70t12.5 68.5t12.5 51.5t11.5 20h9.5t14 -0.5t14.5 -1t10 -1.5q8 -2 10 -11t3 -15q2 -6 6.5 -23.5t10.5 -41t13 -50.5t14 -52.5t13.5 -47t10.5 -33.5q3 5 7 27t9 53t9.5 65.5t8.5 64t6 50t2 23.5
q16 1 31 1q12 0 24.5 -1.5t18.5 -4.5q4 -2 -0.5 -36t-13 -83.5t-20 -107t-21.5 -107t-17.5 -83t-7.5 -35.5q-17 -5 -36.5 -3.5t-38.5 3.5z" />
    <glyph glyph-name="x" unicode="x" horiz-adv-x="377" 
d="M249 257q-9 -21 -15 -36.5t-8 -11.5q0 -2 6.5 -16.5t16.5 -34.5t21 -41t21 -36q4 -6 10 -14.5t11.5 -17.5t8.5 -18.5t1 -17.5q-2 -5 -13.5 -7t-25.5 -3q-16 -1 -36 -1q-15 23 -28 45q-11 19 -23 38.5t-19 32.5q-9 -13 -14 -22.5t-9 -19t-7.5 -20t-9.5 -24.5
q-6 -15 -14.5 -22t-19.5 -9t-24 0.5t-28 6.5q-2 3 0.5 13.5t8.5 25.5t14 33t17 36q21 43 50 95q-9 26 -17 50q-7 20 -13.5 39.5t-9.5 29.5q-11 29 -24 58t-32 55q-4 6 -2.5 10t6 5.5t10.5 2t9 0.5q8 0 15 1t14 4q10 1 15 -0.5t7.5 -6t4 -11t4.5 -13.5q12 -31 22 -65.5
t30 -61.5q7 9 15 32.5t17 49.5t17.5 47t16.5 25q14 9 33.5 8.5t35.5 3.5q17 4 19 -2.5t-2 -19.5q-5 -13 -16.5 -40.5t-24.5 -57.5t-25 -57.5t-17 -39.5z" />
    <glyph glyph-name="y" unicode="y" horiz-adv-x="343" 
d="M158 -118q-3 0 -10 3t-14.5 6.5t-14.5 7t-10 6.5q-7 4 -10 6t-4 10q0 2 2 6.5t3 6.5q2 3 6.5 10l9 14t9 12.5t7.5 6.5q13 -8 25 -16t27 -4q10 2 16.5 10t10.5 18.5t6 21.5t2 20q-27 -17 -59.5 -11t-55.5 26q-29 26 -38.5 62.5t-14.5 73.5q-6 41 -6 82.5t1 83.5
q0 11 -1 34.5t-2 47.5t-1 43.5t3 21.5q10 -1 28.5 -1t29.5 1q9 -24 8 -50.5t-2 -51.5q0 -11 1 -36t2.5 -52.5t3.5 -52t4 -35.5q2 -17 3.5 -35t10.5 -34q5 -10 16 -20t22 -10q6 0 12 3t11.5 7t10 8.5l6.5 6.5q8 14 10 29t5 29q1 4 1 21.5v41.5t-0.5 52.5t-1 53.5t-1.5 44.5
t-2 26.5q-1 5 -1.5 11t0.5 13q1 5 -1 13t1 12q14 8 33.5 7.5t36.5 -2.5q6 -24 7.5 -49t1 -50t-1.5 -50t0 -50l1 -59q2 -32 -0.5 -63.5t-2.5 -63.5q0 -13 -0.5 -26t-1.5 -26q-1 -24 -7 -46.5t-15 -45.5q-12 -31 -30.5 -47t-36.5 -23.5t-31.5 -8.5t-16.5 -1z" />
    <glyph glyph-name="z" unicode="z" horiz-adv-x="327" 
d="M134 62q11 -3 37.5 -1t53 2t45 -4t14.5 -18q2 -11 1.5 -23.5t-4.5 -20.5h-38.5h-67t-69 -0.5t-44.5 -0.5q-14 0 -18 7t-2.5 17t6 20.5t7.5 18.5q3 11 14.5 40.5t26 68.5t30 82t27 79t17.5 59.5t2 25.5q-5 1 -17 1.5t-26 0t-27 -2t-19 -2.5q-9 -2 -23 0t-14 16v25t5 24
q14 2 36 3.5t47 2.5t50 1t45 -0.5t32.5 -1t13.5 -0.5q2 -7 -7.5 -37.5t-25 -73t-34 -91.5t-35 -93.5t-28 -78t-11.5 -45.5z" />
    <glyph glyph-name="braceleft" unicode="{" horiz-adv-x="296" 
d="M237 676q3 -5 4.5 -15.5t1.5 -21.5q0 -13 -1 -27q-7 2 -14 2q-6 0 -13 -1t-13 -4q-11 -6 -15 -17t-4.5 -24t1 -25.5t2.5 -22.5q4 -35 -5 -71t-31 -64q-1 -2 -5.5 -6t-9 -9t-8 -9.5t-3.5 -5.5q2 -7 5.5 -11.5t7.5 -9.5q5 -2 12.5 -12t14.5 -21.5t12.5 -21.5t6.5 -13
q8 -18 10.5 -37t4.5 -39v-15v-21t0.5 -20t0.5 -10q5 -14 11.5 -24.5t21.5 -12.5q7 -2 14 -1t8 -10q0 -4 -0.5 -11l-1 -14t-2 -13t-2.5 -7q-2 0 -14.5 -2.5t-28.5 -2t-33 7.5t-27 26q-12 23 -17 44t-7 46q-1 13 -0.5 28t0.5 30t-2 29t-9 26q-8 11 -17 18t-19 14
q-13 11 -23 29t-9 35q1 11 6 23.5t13 20.5q4 5 9 9.5t10 9.5q23 18 32 44q5 14 5 29t-1 30q-1 26 -1.5 55.5t13.5 54.5q7 12 20 22t25 15q8 3 15 4t15 2q2 0 7 0.5t11 0.5t10.5 -0.5t5.5 -2.5z" />
    <glyph glyph-name="bar" unicode="|" horiz-adv-x="173" 
d="M120 -8q-13 -11 -31 -12t-34 -2q-7 6 -10 15.5t-3.5 20t0.5 21t2 18.5q5 47 6 93.5t1 94.5q1 37 0.5 86.5t-1.5 101.5t-2.5 101.5t-3.5 86.5v23t1 24q0 4 -1 12t-1 16t1.5 14t6.5 8q10 4 21.5 4.5t21.5 0.5q11 0 24 -1t13 -15q-1 -20 -2.5 -38.5t-2.5 -38.5v-33v-48.5
v-48.5v-33q-1 -42 -3.5 -82t-2.5 -81q0 -43 2.5 -84.5t0.5 -83.5q-2 -17 -2 -33t1 -33q1 -18 2 -37.5t-4 -36.5z" />
    <glyph glyph-name="braceright" unicode="}" horiz-adv-x="292" 
d="M68 24q-5 -5 -6.5 -0.5t-0.5 7.5q-4 14 -3 28.5t3 31.5q15 2 31 8t23 22q4 25 3.5 52.5t0.5 55t5.5 53.5t19.5 48q5 7 12 13.5t11 13t3 13t-10 13.5q-22 17 -31.5 40t-12.5 51q-3 25 -2.5 51t-5.5 50q-3 12 -8.5 17.5t-13 8.5t-16 4.5t-17.5 5.5q-12 5 -11 18.5t4 22.5
q4 14 11.5 15t21.5 0q22 -1 44 -9t34 -29q13 -23 16.5 -46.5t5.5 -47.5t7 -46.5t21 -43.5q7 -9 14.5 -18t14.5 -19t11 -20.5t3 -23.5q-1 -14 -7.5 -25.5t-14.5 -21.5t-17 -20t-15 -21q-14 -24 -13.5 -51.5t3 -55t1 -54.5t-18.5 -49q-11 -15 -26.5 -24.5t-32.5 -14.5t-29 -5
q-6 -1 -12 3v-1v0z" />
    <glyph glyph-name="asciitilde" unicode="~" horiz-adv-x="436" 
d="M358 281q-18 -18 -41 -24t-47.5 -3.5t-48 11.5t-40.5 20q-26 18 -47 15t-44 -21q-7 -6 -12.5 -9t-8.5 2q-5 4 -10 10t-9.5 12t-6.5 12.5t0 11.5q5 10 19.5 19t22.5 15q31 20 61 23t61 -18q11 -7 26 -16.5t30.5 -15t30.5 -2.5t25 21q4 8 13 10.5t19.5 2t20 -4.5t14.5 -9
q9 -7 7.5 -16t-8 -18t-15 -16.5t-12.5 -11.5z" />
    <glyph glyph-name="exclamdown" unicode="&#xa1;" horiz-adv-x="172" 
d="M85 377q-13 -5 -22 -1t-14 11.5t-7 16.5t0 15q3 12 16.5 18.5t24.5 8.5q6 0 14.5 -7t12.5 -17.5t-1 -22.5t-24 -22zM47 234q0 16 -1.5 35t6.5 31q4 6 11 9t15 4t14.5 1h8.5q9 0 14 -1.5t6 -12.5q2 -15 -1.5 -31.5t-3.5 -31.5q0 -14 1 -46t2.5 -73t3.5 -85.5t3.5 -83
t2 -65.5t0.5 -33q0 -15 -1.5 -34t-9.5 -31q-11 -5 -27.5 -3.5t-24.5 5.5q-2 13 -4.5 48.5t-4.5 81t-4 96.5t-3 96t-2 78.5t-1 45.5z" />
    <glyph glyph-name="cent" unicode="&#xa2;" horiz-adv-x="345" 
d="M221 528q11 -5 22 -8.5t21 -9.5q13 -8 19.5 -18.5t12.5 -23.5q3 -5 6 -9.5t1 -12.5q-8 -7 -17 -13t-19 -7q-1 -2 -5 -5t-7 -2q-1 0 -6.5 5.5t-12.5 12t-12.5 11t-6.5 1.5q-2 -9 -2 -19t-1 -20q-1 -5 -1.5 -8.5t-0.5 -7.5q-1 -8 0 -15t1 -15q-2 -61 -0.5 -120.5
t6.5 -109.5q5 1 9.5 7.5t7.5 11.5q14 -2 29 -8.5t29 -9.5q6 -6 6 -12t-3 -12t-6.5 -12.5t-5.5 -13.5q-8 -11 -16 -20t-19 -15q-10 -5 -17.5 -8.5t-18.5 -6.5q-2 -13 -2.5 -28t-7.5 -23q-20 1 -35 0t-35 -1q-4 12 -3 26.5t0 31.5q-8 8 -19.5 14t-20.5 11q-8 8 -13.5 16
t-11.5 16q-8 11 -14 26q-6 17 -6.5 34.5t-1.5 34.5q-2 51 -1.5 99.5t5.5 99.5q2 15 4.5 30t8.5 30q8 14 18 27t19 27q14 4 25 10.5t28 8.5q3 9 2.5 21t-1 24.5t1 23.5t7.5 19q7 0 13 -1t14 1q8 1 17 4.5t14 -4.5q2 -3 2.5 -9.5t0.5 -9.5q1 -8 0.5 -18.5t-0.5 -21.5
q0 -8 -0.5 -14t-0.5 -12zM129 437q-6 -11 -7.5 -22.5t-1.5 -25.5q-2 -30 -4.5 -54t-0.5 -53v-50q1 -10 1.5 -22t2 -24t4 -22.5t7.5 -17.5q2 -2 3.5 -4t3.5 -1q4 35 6 68.5t0 69.5q-2 41 2 81.5t2 86.5h-1q-5 -1 -9 -4.5t-8 -5.5z" />
    <glyph glyph-name="sterling" unicode="&#xa3;" horiz-adv-x="447" 
d="M69 16q-2 14 -2.5 27.5t-1.5 27.5l5.5 5.5t6.5 4.5q21 17 29 45q3 9 3.5 18t0.5 20l-2 62q-1 4 -1 7.5t-3 7.5q-6 1 -11.5 0t-11.5 -1t-12.5 -0.5t-13.5 -0.5q-8 0 -11 10q-2 4 -2 12q-1 8 -1 15v15q0 20 20 20q11 0 21 0.5t19 1.5q3 4 3.5 8t-0.5 7l-4 75v37
q1 9 0.5 18.5t-0.5 18.5q0 10 -0.5 18.5t-0.5 18.5q1 34 12.5 63t37.5 52q8 8 16.5 14.5t17.5 12.5q38 23 82 17q22 -3 40 -10q20 -9 34 -23q11 -13 0 -23q-8 -9 -16 -17t-17 -16q-12 -12 -25 -4l-13 7q-12 7 -26 9q-11 3 -22 -5q-19 -12 -26 -35q-4 -11 -6 -21.5t-5 -21.5
q-1 -8 -1 -16t-1 -16q-1 -5 -1 -11t-2 -11q-2 -17 -2 -32.5t1 -31.5t1 -31.5t2 -31.5q0 -4 0.5 -8t0.5 -8q5 -2 9 -2h9l75 2h16q14 -1 15 -15q0 -5 0.5 -9.5t-0.5 -9.5q0 -12 -3 -25t-17 -12h-3q-1 0 -1 1q-19 -3 -36.5 -1.5t-35.5 1.5q-11 0 -15.5 -1t-6.5 -3.5t-2 -7.5
v-12q-2 -16 0 -31q2 -20 -1 -39.5t-7 -39.5l-2 -10t-2 -11q5 -4 9.5 -5t9.5 -1l30 -2t31 -1q14 -1 26.5 2t25.5 8q18 6 24 27l4 15q1 5 10 7q14 1 26.5 -1t26.5 -6q6 -1 8.5 -6.5t-0.5 -11.5q-12 -37 -36 -70q-7 -8 -16 -14.5t-19 -11.5q-15 -8 -30.5 -12.5t-32.5 -2.5
q-11 2 -20.5 1t-19.5 -1q-23 0 -46.5 1t-47.5 4l-60 5q-2 0 -3.5 0.5t-3.5 0.5z" />
    <glyph glyph-name="currency" unicode="&#xa4;" horiz-adv-x="378" 
d="M43 -8q-2 4 0 11.5t6 15t8.5 14.5t7.5 11q1 3 4.5 7.5t7.5 10t7 11t4 8.5q1 8 -3.5 17t-6.5 17q-2 11 -2 25v28q-3 42 0 84q2 20 8.5 38t9.5 37q1 9 -0.5 14.5t-6.5 15.5q-1 3 -6.5 12t-11.5 19t-10.5 18t-3.5 10q5 11 17.5 18.5t22.5 16.5q15 -11 24 -27t21 -30
q0 1 4.5 3.5t10.5 5t11.5 5t7.5 2.5q11 2 21.5 1.5t21.5 -2.5q1 0 6.5 -1t11 -2.5t10.5 -2l5 -0.5q3 2 4.5 5.5t2.5 7.5q1 1 5 5.5t5 6.5q3 5 6 10.5t5 10.5q8 4 15.5 2.5t14.5 -5t13.5 -8t13.5 -6.5q3 0 -2 -16.5t-11.5 -36.5t-13 -37.5t-6.5 -21.5q-1 -9 0 -18.5t2 -18.5
q1 -29 4.5 -58t4.5 -58q0 -14 -1 -27.5t-3 -27.5q-2 -10 -6.5 -20t-3.5 -21q1 -13 11.5 -25.5t16.5 -23.5q4 -8 7 -13t-1 -14q-2 -2 -4.5 -3.5t-7.5 -0.5q-8 -8 -19.5 -13t-22.5 -5q-2 -2 0 -1.5t2 -1.5q-5 0 -5 2t-3 3q-2 3 2 3q-5 8 -10 17t-12 17q-11 -8 -28 -11.5
t-31 -2.5q-3 0 -11.5 2t-18.5 4.5t-17.5 5.5t-7.5 6q-1 5 -4 6t-6 4q-4 -18 -11 -33.5t-18 -26.5q-10 -2 -13 1.5t-8 6.5q-3 2 -8.5 5t-9.5 5t-5 3.5t-5 0.5q0 1 -3.5 1.5t-4.5 2.5zM159 319q-14 -14 -15.5 -35.5t-0.5 -40.5q1 -23 2.5 -45t6.5 -44q3 -15 9.5 -33.5
t19.5 -28.5q14 -11 26 -3.5t19 21.5q8 18 10.5 38t6.5 40q-2 26 -1.5 53.5t-9.5 53.5q-3 10 -10.5 18.5t-16.5 13t-19 5t-19 -6.5z" />
    <glyph glyph-name="yen" unicode="&#xa5;" horiz-adv-x="391" 
d="M222 172q-4 -34 -2 -68t3 -67q0 -13 2 -27t-12 -17q-2 -1 -5 -0.5t-7 0.5q-10 -1 -20.5 -2.5t-16.5 0.5q-8 9 -5 24t1 28q-2 30 1 63t-1 62q-8 0 -13.5 -0.5t-11.5 -2.5q-8 1 -15.5 -0.5t-15.5 -3.5t-16.5 -3t-18.5 1q-6 14 -7 34t-1 38q22 1 50 2.5t47 0.5q5 6 3.5 15
t-7.5 12q-4 1 -9 0.5t-11 -0.5q-15 -1 -33.5 0t-29.5 -4q-4 4 -7 4q-6 11 -5 26.5t-1 32.5q5 3 10.5 1.5t11.5 -1.5q15 0 31 2.5t31 2.5q1 0 -4.5 18t-12.5 40t-13.5 41.5t-7.5 23.5q-17 46 -34 92.5t-28 95.5q-1 5 1 9t0 9q-1 2 2 4.5t4 4.5q13 4 25 8.5t25 8.5
q3 1 8.5 -12.5t12.5 -35t14.5 -47t14 -48.5t11 -40t5.5 -22l8 -29q2 -8 4.5 -16.5t5.5 -16.5l3 -6t4 -9t3.5 -9t0.5 -6q10 26 15 54t12 55t17.5 52.5t17.5 52.5q2 7 4.5 19.5t7 25t10.5 23t15 13.5q4 2 6.5 0t6.5 -4q11 -2 23 -2t20 -6q1 -32 -11 -63.5t-23 -61.5
q-10 -27 -19.5 -55.5t-15.5 -57.5q-6 -26 -13.5 -50t-14.5 -50q15 5 33.5 3.5t32.5 -2.5q4 -2 3 -6.5t-1 -10.5q0 -12 2.5 -27.5t-2.5 -22.5q-2 -5 -6 -5t-7 -3q-35 3 -77 0q-3 -3 -4.5 -7.5t-3.5 -9.5q15 -4 33 -3t32 2q4 -2 9.5 -3t11 -2.5t9 -4t3.5 -8.5q0 -8 -0.5 -22.5
t-2.5 -18.5q0 -2 -1 -2t-2 -1h1q-1 -1 -3.5 -1t-2.5 -1q-13 1 -23 0.5t-20 -0.5t-20.5 -0.5t-23.5 0.5z" />
    <glyph glyph-name="brokenbar" unicode="&#xa6;" horiz-adv-x="171" 
d="M69 213q11 1 22.5 1h22.5h5q7 -1 8 -8v-23q0 -3 -0.5 -5.5t-0.5 -4.5q4 -24 3 -47.5t0 -47.5q0 -28 -0.5 -56t-0.5 -56v-18q-1 -13 -12 -14l-42 -5q-7 0 -10 1q-8 4 -8 11q-1 6 -1 12v11q-1 48 -1 94v94q0 9 -1 18.5t-1 18.5v10.5t2 10.5zM124 264v-17q0 -9 -11 -12
q-12 -3 -23 -3h-21q-13 0 -14 14v15l-11 134q0 8 -0.5 15t0.5 15q2 16 1.5 31t-3.5 31q-1 6 0.5 10t3.5 9q1 2 6 5q3 2 9 2l44 2h1q10 0 11 -10v-10.5t1 -10.5q2 -21 2.5 -42.5t1.5 -43.5q1 -4 1 -9v-10z" />
    <glyph glyph-name="section" unicode="&#xa7;" horiz-adv-x="510" 
d="M427 409q-7 -2 -11.5 -3t-6.5 0q-5 2 -9.5 5.5t-6.5 6.5q-8 10 -11 22.5t-9 23.5q-14 24 -40 30.5t-50 -4.5q-23 -12 -32.5 -36t-4.5 -49q5 -32 25 -57t44 -45q25 -20 51 -44t46.5 -51.5t33 -59.5t9.5 -67q-2 -24 -11 -46.5t-29 -38.5q-18 -15 -42 -23q-2 0 -10.5 -2
t-17.5 -3.5t-16.5 -2t-8.5 1.5q11 -23 16.5 -50t-1.5 -52q-6 -24 -15 -42t-28 -35q-20 -18 -46 -30.5t-53 -16.5t-53 3.5t-46 28.5q-12 11 -22.5 26.5t-17.5 31.5q-1 1 -4.5 9t-5.5 17t-2.5 17t4.5 9q5 2 8.5 5t9.5 5q5 2 12 2t12 2q4 1 7 2.5t6 1.5q11 -1 13.5 -11t9.5 -15
q8 -26 31.5 -40t56.5 -8q24 4 35 21t13 38t-4 43t-17 37q-20 26 -46.5 44.5t-50.5 40.5q-24 19 -44.5 44.5t-32.5 53.5q-18 38 -14.5 79.5t30.5 75.5q4 5 10.5 10t13.5 10q11 8 24 14.5t26 11.5l23 5q-1 0 -2.5 5.5t-3.5 12.5t-3.5 12.5t-1.5 7.5q-9 37 2.5 73t36.5 62
t59.5 38.5t72.5 4.5q26 -5 50.5 -17.5t42.5 -33.5q8 -11 14.5 -21.5t10.5 -22.5q1 -2 3 -10.5t4 -18.5q3 -11 5 -26q-5 0 -6.5 -2t-0.5 -4q-1 2 -12 -0.5t-22 -5.5zM240 281q-3 4 -7 8t-7 6q-6 5 -13.5 3t-14.5 -5q-13 -6 -25 -16.5t-21 -24t-13.5 -28.5t-3.5 -30
q2 -23 14.5 -42.5t28.5 -36.5q4 -5 11 -13.5t15 -17t16 -15t15 -7.5q16 -2 31 -6.5t32 -4.5q20 0 38.5 12t25.5 32q8 24 -3.5 49.5t-25.5 45.5q-17 24 -39.5 43t-43.5 39zM97 121q0 6 -5 6q1 -2 2 -3z" />
    <glyph glyph-name="dieresis" unicode="&#xa8;" horiz-adv-x="227" 
d="M173 599q-11 -6 -25 -4t-21 13q-6 12 -1 22.5t15.5 15t22.5 1t19 -18.5q7 -19 -10 -29zM65 649q14 5 28 -7q5 -5 5.5 -12t-2.5 -14t-7.5 -13t-8.5 -9q-20 -5 -29 1.5t-9.5 17t6 21.5t17.5 15z" />
    <glyph glyph-name="copyright" unicode="&#xa9;" horiz-adv-x="560" 
d="M295 773q9 0 17.5 -0.5t16.5 -1.5q14 -1 27.5 -5t26.5 -11t25 -14.5t21 -19.5q3 -4 9 -10q10 -6 15.5 -14.5t10.5 -18.5q7 -15 13 -32q4 -9 7 -18t8 -19q4 -8 5.5 -16.5t3.5 -18.5q3 -17 6 -33.5t5 -34.5q1 -8 1.5 -15t0.5 -14v-19.5t2 -20.5q4 -33 1 -70
q-3 -54 -15 -108q-6 -36 -23 -68q-11 -23 -26 -42.5t-38 -33.5q-20 -13 -42 -23.5t-47 -13.5q-16 -2 -31.5 -3.5t-32.5 0.5q-8 1 -16.5 3t-17.5 3q-20 2 -37.5 10t-34.5 19q-15 8 -28 23q-35 38 -57 82q-6 11 -9.5 22.5t-5.5 23.5q-5 13 -6 27l-3 12q-1 37 -4 72.5t-1 71.5
v10q5 38 8.5 78t12.5 78q5 25 16 43q4 7 8 12t9 11q11 11 20.5 21.5t22.5 18.5q18 14 37.5 24.5t41.5 17.5l22 6t22 5q9 2 17.5 2.5t15.5 1.5zM438 425v30q0 16 -1 31.5t-3 32.5l-4 34q-2 14 -5 26.5t-9 25.5l-8 16t-10 15l-18 20q-12 15 -29 22.5t-35 12.5q-21 5 -42 2.5
t-42 -8.5q-5 -2 -10.5 -4t-10.5 -5q-14 -10 -26.5 -19t-23.5 -21q-13 -15 -20 -31q-2 -3 -2 -6.5t-2 -7.5q-6 -18 -10 -37t-6 -39t-3.5 -41t-3.5 -42q-1 -5 -1.5 -9.5t-0.5 -9.5q1 -19 1 -38v-38l2 -17q2 -13 6.5 -25t8.5 -24q4 -13 10 -24.5t11 -23.5q8 -15 19 -27t28 -20
l9 -6q11 -6 17.5 -9.5t12.5 -6t13.5 -4.5t20.5 -6h15q10 2 19 6t19 8q37 14 63 41q24 26 34 55q7 20 10.5 40t5.5 40q0 14 0.5 26.5t0.5 25.5q1 9 1 19v20h-1zM393 595q-2 -7 -3 -7q-8 -10 -16 -18.5t-19 -16.5q-9 -6 -15 3q-3 4 -5.5 7.5t-5.5 6.5q-16 20 -39 18.5
t-37 -21.5q-2 -2 -3.5 -5.5t-2.5 -6.5q-8 -16 -13.5 -33.5t-7.5 -35.5l-3 -16q-3 -18 -3.5 -36.5t-1.5 -37.5q-1 -27 8 -57q5 -12 10 -23.5t15 -21.5q13 -14 31.5 -15t32.5 13l4 6q8 9 18 2l30 -27q3 -3 6.5 -5.5t5.5 -6.5q8 -9 1 -18q-24 -30 -55 -43q-11 -4 -22 -5l-22 -2
q-5 -1 -10 -0.5t-10 0.5q-9 0 -21 7q-6 3 -11.5 5.5t-10.5 6.5q-8 4 -13.5 11t-11.5 14q-8 8 -12.5 17.5t-10.5 19.5l-2 6q-11 16 -15 33.5t-4 36.5q-1 15 -2 29.5t-1 29.5q-1 7 0 14t1 14q0 24 1 48t6 47q6 32 21 58t42 45q47 34 108 17q6 -2 11.5 -5.5t11.5 -7.5
q13 -9 24.5 -19.5t20.5 -24.5z" />
    <glyph glyph-name="ordfeminine" unicode="&#xaa;" horiz-adv-x="278" 
d="M163 535q4 6 3 10.5t-3 8.5q-3 8 -7 12t-14 8q-5 -1 -7.5 -3.5t-5.5 -6.5q-5 -10 -19 -10l-21 3q-8 2 -10 5q-8 3 -5 12q6 21 17 37.5t33 24.5q14 5 27 7.5t27 -1.5q24 -6 37 -28q7 -12 11 -24.5t6 -26.5q4 -17 4 -33.5t-2 -33.5q-2 -25 -3.5 -49.5t-0.5 -48.5
q0 -11 0.5 -20.5t0.5 -19.5q0 -3 -0.5 -5.5t-0.5 -4.5q-2 -5 -3.5 -7t-6.5 -2h-39q-8 0 -12 5l-5 11l-5 -2q-9 -7 -22 -10.5t-26.5 -2t-26.5 7.5t-23 17q-14 21 -17 41q-3 10 -3 24q1 13 2 26.5t3 25.5q3 16 11.5 28t20.5 21l12 7q24 15 55 4zM162 447q2 8 -1 15.5t-6 15.5
q-6 14 -23 17q-4 0 -6 -1q-16 -6 -26 -20t-9 -31q2 -21 14 -35q13 -18 33 -7q9 5 15 12.5t8 18.5v6.5t1 8.5z" />
    <glyph glyph-name="guillemotleft" unicode="&#xab;" horiz-adv-x="365" 
d="M281 466q10 -4 19 -9.5t18 -10.5q9 -6 3 -14q-15 -25 -29.5 -48.5t-30.5 -47.5q-4 -8 -10 -14.5t-11 -13.5q-5 -6 -5.5 -8.5t3.5 -9.5q8 -15 17.5 -29.5t20.5 -28.5t20.5 -29t18.5 -30q10 -13 -6 -20q-8 -4 -17 -7t-18 -7q-7 -4 -14 3l-8 9q-13 21 -26.5 42t-27.5 41
q-10 18 -24 37q-5 8 -8 14.5t-7 14.5q-6 9 2 16q12 11 21.5 23.5t20.5 23.5q5 7 10 13.5t10 13.5l27 38l20 28q3 7 11 10zM211 163q-6 -11 -14.5 -19t-19.5 -15q-5 -3 -11 1l-9 9q-17 21 -33 41.5t-31 42.5q-10 15 -20.5 29.5t-21.5 29.5l-10 17q4 11 9.5 19.5t11.5 16.5
q19 26 36.5 52.5t33.5 54.5q5 12 12 20q7 10 19 4q7 -4 14 -7.5t14 -7.5q8 -6 4 -13q-2 -3 -3.5 -5.5t-3.5 -5.5l-19 -31q-23 -38 -48 -75q-8 -12 -9.5 -17.5t9.5 -21.5q12 -16 24 -31.5t23 -32.5l15 -16q8 -9 15.5 -18.5t12.5 -20.5z" />
    <glyph glyph-name="logicalnot" unicode="&#xac;" horiz-adv-x="519" 
d="M401 296q-3 4 -7 4h-9q-11 0 -16 0.5t-8 0.5h-8t-16 -1q-14 -1 -28 -0.5t-28 -0.5q-8 -1 -11 -1.5t-5.5 -1t-6 0t-10.5 0.5h-31h-57h-58.5t-34.5 1q-13 0 -21 4l-2 2q-1 0 -1 1q-1 11 -1.5 22t-0.5 22q0 9 6 15q8 0 17 0.5t17 0.5q11 0 20.5 -0.5t20.5 -0.5h45h45l42 1h3
q13 -1 25 -0.5t24 1.5q8 0 14.5 1t13.5 1l40 1h10l63 -4q16 0 29 -4q0 -2 0.5 -4t-0.5 -4q0 -14 -0.5 -28.5t-0.5 -28.5q0 -8 -0.5 -17.5t1.5 -17.5q1 -17 0 -33l-2 -32q0 -2 -1 -4l-2 -4q-8 -6 -15 -6l-39 2q-9 2 -12 11q0 2 -0.5 4t-0.5 4q-1 22 -2.5 44t0.5 45q0 3 -1 4z
" />
    <glyph glyph-name="uni00AD" unicode="&#xad;" horiz-adv-x="317" 
d="M261 325q6 0 11.5 -1t12.5 -3q4 0 7 -3q3 -2 3 -9q0 -14 0.5 -27.5t0.5 -26.5q0 -16 -6 -16h-8.5t-9.5 1q-1 0 -20 1.5t-43 3t-47 2.5t-32 2q-5 0 -17 0.5t-24.5 0.5h-24.5h-17q-7 0 -10 -2q-4 -1 -7 0l-6 2q-3 0 -3 13q1 13 0.5 25t-0.5 26q0 10 3 12q2 1 5 1l57 -2h175
v0z" />
    <glyph glyph-name="registered" unicode="&#xae;" horiz-adv-x="486" 
d="M163 71q-15 5 -28.5 12t-24.5 17q-20 16 -32.5 36t-20 42.5t-10.5 47t-3 48.5q-1 31 -1.5 61t-0.5 61q0 35 -0.5 67t7.5 66q5 21 9.5 40t19.5 37q23 27 52.5 38.5t61.5 21.5q33 9 69.5 6.5t68.5 -12.5q39 -12 62.5 -41t32.5 -67q6 -28 7 -56.5t4 -56.5q5 -51 7 -101
t-1 -101q-1 -23 -2.5 -49t-12.5 -48q-12 -23 -22.5 -37.5t-33.5 -25.5q-12 -5 -26.5 -7.5t-29.5 -4t-30 -2t-27 -1.5q-1 0 -12.5 0.5t-27 1t-31 2.5t-24.5 5zM369 458q-2 27 -7 52.5t-13 43.5q-7 14 -18 27.5t-25 20.5q-23 11 -50 8.5t-50 -7.5q-22 -4 -43.5 -14.5
t-33.5 -30.5q-11 -17 -14 -41t-5 -50q-3 -36 -1 -74t3 -72q1 -12 1.5 -24t0.5 -26q0 -11 0.5 -23t1.5 -23q2 -11 3.5 -22.5t3.5 -21.5q5 -20 16 -33t31 -16q22 -4 45.5 -2t45.5 4q13 1 32.5 1.5t38 5.5t33 17.5t16.5 36.5q3 29 1.5 62.5t-4 68t-5.5 68.5t-4 64zM170 182
q-1 5 -2.5 32t-2 62.5t-1 72.5t-0.5 61q1 27 1.5 51.5t2.5 51.5q0 15 3 23.5t16 13.5q10 4 20 4q22 2 43.5 -0.5t40.5 -15.5q25 -17 37.5 -46.5t10.5 -57.5q-2 -62 -11.5 -83.5t-12.5 -19.5q12 -7 18.5 -21t9.5 -30.5t3.5 -33t1.5 -28.5q1 -10 -1 -19t-3 -19q-8 1 -17 -0.5
t-17.5 -2.5t-16 0t-12.5 7q3 -1 1.5 1t-1.5 3q0 4 -0.5 15t-2 23.5t-3 24.5t-3.5 18q-4 12 -12 22t-26 5q-2 -9 -3 -26t-2 -35t-2 -32t-1 -15zM237 486q2 -29 0.5 -57.5t-2.5 -63.5q7 0 12.5 2.5t10.5 4.5q7 4 10.5 19.5t2.5 33.5t-6 34.5t-15 24.5q-4 0 -6.5 1t-6.5 1z" />
    <glyph glyph-name="macron" unicode="&#xaf;" horiz-adv-x="341" 
d="M286 720q12 0 26 -3q2 0 4 -1l4 -2q3 -2 3 -9q1 -12 1.5 -25t0.5 -24q0 -15 -7 -15h-9.5t-9.5 1q-2 0 -22.5 1t-46.5 2.5t-51 3t-34 1.5q-6 0 -18.5 0.5t-26.5 0.5h-26.5h-17.5q-9 0 -12 -2q-4 -1 -7 0t-7 2q-2 0 -2.5 3.5t-0.5 8.5v47q0 10 3 11q2 1 6 1l61 -2h189v0z
" />
    <glyph glyph-name="degree" unicode="&#xb0;" horiz-adv-x="259" 
d="M79 523q-11 7 -18 18q-7 9 -12 18.5t-7 19.5q-2 16 1 31.5t11 28.5q11 19 32 28.5t43 10.5q11 1 27.5 -6.5t25.5 -14.5q11 -8 23 -28.5t12 -40.5q-1 -8 -4 -20t-7 -19q-14 -21 -42 -34t-54 -6q-8 2 -16 5.5t-15 8.5zM129 611q-12 -2 -21 -9t-3 -16q4 -5 10 -6.5t11 -1.5
q6 0 18.5 4t9.5 14q-2 9 -9.5 12.5t-15.5 2.5z" />
    <glyph glyph-name="plusminus" unicode="&#xb1;" horiz-adv-x="359" 
d="M45 265q-2 14 -3 27.5t0 28.5q0 9 7 13t16 5.5t18.5 1.5h15.5q9 0 17 0.5t14 1.5q7 1 13 1q-4 25 -5 45q-2 17 -0.5 32.5t6.5 19.5q14 8 24.5 8.5t18.5 -1.5q9 -4 16 -10q1 -20 2 -37q1 -14 1.5 -28.5t0.5 -20.5q0 -5 14 -6.5t32.5 -1.5t35.5 1t22 1q2 -4 3.5 -15.5
t1.5 -24.5t-2 -23t-7 -11q-22 -4 -48.5 -5t-46.5 0q3 -19 2 -39t1 -40q1 -12 -1 -17.5t-6 -7t-10.5 -1.5t-15.5 -1q-7 -1 -13 -2t-10.5 -0.5t-7.5 4.5t-3 14q0 11 -0.5 24.5t-0.5 26t-0.5 23t-0.5 16.5q-23 -2 -51 -1t-50 -1zM281 121q14 -2 24 -4q2 0 4 -1l4 -2t2 -9
q1 -14 1.5 -27.5t0.5 -26.5q0 -16 -6 -16h-9t-9 1q-1 0 -20 1.5t-43.5 3t-47 2.5t-31.5 2q-5 0 -17 0.5t-25 0.5h-24.5h-16.5q-7 0 -11 -2q-3 -2 -6 -0.5t-6 2.5q-4 0 -4 13q1 13 0.5 25t-0.5 26q0 9 4 12q1 1 5 1l57 -2h174z" />
    <glyph glyph-name="twosuperior" unicode="&#xb2;" horiz-adv-x="207" 
d="M101 598q-14 -6 -19 -16t-6 -19t-1 -15.5t-5 -7.5h-9t-15.5 1.5t-15.5 4.5t-8 9q-3 10 -0.5 23t7.5 22q4 9 11.5 19.5t15.5 15.5q11 6 24.5 10.5t25.5 3.5q35 -2 58 -25q7 -8 11.5 -16t8.5 -22q3 -11 5.5 -23t2.5 -23q-2 -45 -28 -84q-17 -26 -37.5 -50t-31.5 -57
q10 -2 22 -1.5t22.5 0.5t20 -1.5t15.5 -7.5q2 -11 0.5 -26.5t-1.5 -23.5q-2 -1 -26.5 -0.5t-54 2t-54 3.5t-25.5 4t-1 9t0.5 15t1.5 15.5t2 11.5q1 7 9.5 22.5t19.5 33t22 33.5t17 25q13 17 25 34.5t16 37.5q1 9 2 20.5t-0.5 21.5t-7.5 16.5t-19 4.5z" />
    <glyph glyph-name="threesuperior" unicode="&#xb3;" horiz-adv-x="210" 
d="M173 656q1 -11 -2.5 -20t-8.5 -15q-6 -10 -14 -18t-15 -17q-8 -9 -15 -22t-14 -22q2 1 8 -1t12.5 -4.5t12 -5t7.5 -3.5q8 -8 14.5 -17.5t11.5 -20.5q8 -18 12 -41t4 -43q1 -19 -3 -44t-14.5 -47.5t-29.5 -38t-49 -14.5q-14 1 -28 9.5t-23 18.5q-9 11 -13.5 23t-7.5 26
l-5 30q-1 5 -2.5 11.5t1.5 11.5q8 5 20.5 5t26.5 2q9 -7 10 -21t6 -29q2 -8 3.5 -14.5t8.5 -8.5q4 -1 14 4t12 8q10 13 12 31q3 13 0.5 29t-7.5 29q-3 11 -8.5 28.5t-15.5 23.5q-5 3 -17 5t-24.5 3t-23 2t-12.5 2q-3 2 -6 6.5t-3 9.5q0 2 10 13t22.5 24t23.5 25.5t13 18.5
q-6 2 -14.5 0.5t-17 -3.5t-16 -3.5t-11.5 0.5l-2 32t-4 30q0 1 13.5 3t31 4t32.5 3.5t18 1.5l41 1q5 0 12.5 1.5t12.5 -2.5z" />
    <glyph glyph-name="acute" unicode="&#xb4;" horiz-adv-x="168" 
d="M125 650q3 -3 -1.5 -19.5t-11.5 -35t-14 -33.5t-9 -15q-29 -3 -47 8q-1 8 2.5 22.5t8.5 29t10 26.5t8 17q11 2 25.5 2t28.5 -2z" />
    <glyph glyph-name="mu" unicode="&#xb5;" horiz-adv-x="349" 
d="M263 -11q-5 2 -9.5 -0.5t-6.5 0.5q-2 -1 -4 -1t-4 -1q0 4 -2 0q-5 3 -7 15q-11 -3 -17 -6t-20 -5q3 2 -0.5 1t-4.5 -2q-6 2 -14 0t-15 0q-9 2 -17.5 4.5t-16.5 4.5q-4 2 -7.5 5.5t-7.5 5.5q-1 -29 1.5 -59t-1.5 -56q-2 0 -4 -1.5t-1 -2.5q-14 -3 -24 -3t-24 -1
q0 1 1.5 0.5t1.5 1.5q-4 -1 -5 -1.5t-4 -0.5q-10 3 -9 10.5t1 17.5q1 9 1.5 17.5t1.5 16.5q2 20 1 39t1 39q5 57 3 112t-3 112q-2 33 -0.5 69.5t3.5 70.5q0 17 3 32q2 15 0.5 28t10.5 23q13 -6 27 -5.5t25 -7.5q3 -2 3 -14t-1.5 -27t-3 -28t-1.5 -17q-1 -22 -1.5 -44
t0.5 -44q0 -23 0.5 -47t1.5 -47v-49q-1 -11 -2.5 -23.5t4.5 -23.5q8 -14 22.5 -22t30.5 -11t32 0.5t28 14.5q7 5 7 16v19l1 54q2 35 1.5 69.5t1.5 68.5q1 18 -0.5 33t-0.5 30q2 17 1.5 36.5t-0.5 43.5q1 7 1.5 14.5t4.5 13.5q11 2 21.5 -1t20.5 -1q4 0 7 1.5t7 0.5
q2 0 2 -2.5t3 -0.5q-1 -2 0 -8t-3 -10q2 -85 0 -167.5t-5 -167.5q-1 -17 -1.5 -34t-0.5 -34q0 -12 2 -30t-6 -29q-3 2 -2.5 0.5t-1.5 -1.5q-2 -2 -5.5 -2h-5.5q-6 -1 -10 -0.5t-6 -1.5z" />
    <glyph glyph-name="paragraph" unicode="&#xb6;" horiz-adv-x="489" 
d="M362 566q-9 2 -17.5 5t-18.5 3q-1 0 -0.5 -22.5t1 -57t1 -75.5t1 -77.5t1 -63.5t0.5 -33q0 -22 -1 -43.5t1 -43.5q2 -20 2 -39.5t-1 -39.5q-1 -18 0.5 -37t-3.5 -36q-6 -4 -14 -4h-18q-9 -1 -21 -2.5t-18 3.5q-2 3 -3.5 9.5t-2 14.5t-0.5 16v13q0 42 -1.5 86t0.5 82
q-8 1 -16 -0.5t-16 -0.5q-9 2 -18.5 6t-20.5 6q-19 5 -39 9t-35 18q-17 15 -28.5 35.5t-19 43.5t-11.5 46.5t-4 44.5q-1 36 4 79.5t22 75.5l8 11q18 30 46 41.5t60 16.5q19 2 37 4.5t37 1.5q23 -1 44 -0.5t43 -0.5q20 -1 39.5 -5.5t39.5 -7.5q8 -1 14.5 -1.5t9.5 -4.5
q2 -4 1 -8t-2 -9q-3 -37 -0.5 -74t0.5 -75l-8 -156q0 -22 -0.5 -43.5t-0.5 -43.5v-45.5t1 -45.5q0 -25 0.5 -50t-0.5 -51q0 -16 -1 -28.5t-12 -16.5q-4 -2 -13.5 -1.5t-19 2t-17.5 4t-10 5.5q-4 8 -2 18.5t3 18.5q2 12 1.5 24t-0.5 23q-1 26 -2.5 51t-3.5 51q-1 18 1.5 36.5
t2.5 37.5q1 22 0 43t1 43q5 54 3 107.5t-6 106.5z" />
    <glyph glyph-name="periodcentered" unicode="&#xb7;" horiz-adv-x="238" 
d="M188 -50q10 -20 -3 -39q-5 -7 -10.5 -13t-13.5 -11t-15.5 -9t-15.5 -6q-30 -10 -64 -12h-9q-8 2 -9 7q-2 4 -2 12q-3 18 -9 35q-2 8 2 13t12 4l24 -2h16q11 3 14 11q4 9 -5 14l-15 5l-12 4q-4 13 -2.5 25.5t-3.5 24.5q-7 1 7.5 3.5t33.5 3.5t33.5 0.5t7.5 -4.5
q0 -6 -1 -9q-1 -8 1.5 -14.5t11.5 -11.5q8 -6 17 -16q3 -3 5.5 -7t4.5 -8z" />
    <glyph glyph-name="cedilla" unicode="&#xb8;" horiz-adv-x="225" 
d="M188 -50q10 -20 -3 -39q-5 -7 -10.5 -13t-13.5 -11t-15.5 -9t-15.5 -6q-30 -10 -64 -12h-9q-8 2 -9 7q-2 4 -2 12q-3 18 -9 35q-2 8 2 13t12 4l24 -2h16q11 3 14 11q4 9 -5 14l-15 5l-12 4q-4 13 -2.5 25.5t-3.5 24.5q-7 1 7.5 3.5t33.5 3.5t33.5 0.5t7.5 -4.5
q0 -6 -1 -9q-1 -8 1.5 -14.5t11.5 -11.5q8 -6 17 -16q3 -3 5.5 -7t4.5 -8z" />
    <glyph glyph-name="onesuperior" unicode="&#xb9;" horiz-adv-x="162" 
d="M120 676q1 -60 0.5 -124t-0.5 -127q0 -27 -1.5 -52t0.5 -51q-2 -2 -10.5 -2.5t-18 -1t-17.5 0t-8 2.5v30.5v57.5v69.5v67.5v51.5v20.5q-2 0 -5.5 -3t-7.5 -7t-8 -7t-6 -3q-3 1 -7.5 5.5t-8.5 7.5q-3 2 -8.5 6.5t-5.5 9.5q0 3 6 10t13.5 14.5t14 13.5t6.5 7q11 9 32.5 8.5
t39.5 -4.5z" />
    <glyph glyph-name="ordmasculine" unicode="&#xba;" horiz-adv-x="259" 
d="M79 523q-11 7 -18 18q-7 9 -12 18.5t-7 19.5q-2 16 1 31.5t11 28.5q11 19 32 28.5t43 10.5q11 1 27.5 -6.5t25.5 -14.5q11 -8 23 -28.5t12 -40.5q-1 -8 -4 -20t-7 -19q-14 -21 -42 -34t-54 -6q-8 2 -16 5.5t-15 8.5zM129 611q-12 -2 -21 -9t-3 -16q4 -5 10 -6.5t11 -1.5
q6 0 18.5 4t9.5 14q-2 9 -9.5 12.5t-15.5 2.5z" />
    <glyph glyph-name="guillemotright" unicode="&#xbb;" horiz-adv-x="367" 
d="M218 304q-8 -14 -15 -26.5t-15 -25.5l-24 -43l-48 -75l-1 -3q-4 -5 -10 -6.5t-11 0.5q-10 5 -20 9.5t-20 9.5l-3 2q-8 5 -9 9t4 12l39 63l38 61l5 9q-9 13 -15 26.5t-16 26.5q-17 18 -30 39q-6 8 -11.5 17t-10.5 18q-6 7 1 16l6 6l29 21q13 9 24 -4q18 -21 33.5 -43
t32.5 -45l22 -29q4 -7 8.5 -13t8.5 -13q5 -10 8 -19zM234 329l-11 18q-8 14 -15.5 27t-16.5 27q-5 9 -11 17t-11 18q0 1 -0.5 1.5t-0.5 2.5q-5 7 1 13q3 2 5.5 4t5.5 4q6 5 12 9.5t12 8.5q9 4 16 -3l14 -21q11 -14 21 -27.5t21 -27.5t20 -29t20 -29q9 -13 9 -25.5t-7 -26.5
q-11 -20 -22.5 -39.5t-23.5 -39.5q-7 -14 -14 -26.5t-15 -25.5q-2 -5 -5.5 -10.5t-6.5 -10.5q-7 -7 -14 -4q-10 5 -19.5 9.5t-19.5 9.5q-7 4 -4 12q5 13 10.5 25t11.5 23l26 46t24 47q0 2 1 4z" />
    <glyph glyph-name="onequarter" unicode="&#xbc;" horiz-adv-x="447" 
d="M254 541q0 1 7.5 20t17 41.5t19 41.5t14.5 20q10 -3 13 -2t13 -1q8 -2 14.5 -5.5t14.5 -3.5q10 -8 5.5 -20.5t-8.5 -26.5q-1 -5 -12 -31.5t-27.5 -67.5t-37.5 -92t-43.5 -104.5t-44 -105.5t-39.5 -94t-30.5 -71t-16.5 -36q-11 -1 -19 -1.5t-15.5 -1t-16 -0.5h-21.5
q3 9 13.5 37t26 67.5t34 87t38 96t38 94t32.5 81t22.5 57zM316 7l0.5 13t1 30t1 33t-0.5 21q0 2 -17.5 2.5t-38.5 0.5t-39.5 0.5t-19.5 2.5q-1 0 3 2l4 10t10 22t11.5 23.5t7.5 14.5q3 5 10.5 21.5t17 37.5t20 44.5t20 43.5t16.5 33t9 14q1 0 8.5 1t15.5 1t15 -1.5t7 -5.5
q0 -3 0.5 -27.5t1 -56l1 -63t0.5 -46.5q8 -4 17 -1.5t15 -2.5q0 -3 2 -14t3.5 -23t1.5 -21.5t-5 -10.5q-8 -2 -15.5 -1.5t-17.5 -2.5q-1 -6 -1 -19t0.5 -26.5t1.5 -24.5l1 -11q1 0 -1 -5t-3 -7q-1 -1 -11 -3.5t-22 -3.5t-21.5 0t-9.5 6zM136 676q2 -60 1.5 -124t-0.5 -127
q0 -27 -1.5 -52t-0.5 -51q-2 -2 -10.5 -2.5t-18 -1t-17.5 0t-8 2.5v30.5t0.5 57.5t0.5 69.5v67.5t-0.5 51.5l-0.5 20.5q-1 0 -4.5 -3t-7.5 -7t-8 -7t-6 -3q-3 1 -8 5.5t-8 7.5q-3 2 -8.5 6.5t-5.5 9.5q0 3 6 10t13.5 14.5t14 13.5t6.5 7q11 9 32.5 8.5t38.5 -4.5zM304 170
q4 -4 9 -3.5t11 1.5q1 17 2 35.5t0 35.5q-8 -16 -12 -34t-10 -35z" />
    <glyph glyph-name="onehalf" unicode="&#xbd;" horiz-adv-x="465" 
d="M136 676q2 -60 1.5 -124t-0.5 -127q0 -27 -1.5 -52t-0.5 -51q-2 -2 -10.5 -2.5t-18 -1t-17.5 0t-8 2.5v30.5t0.5 57.5t0.5 69.5v67.5t-0.5 51.5l-0.5 20.5q-1 0 -4.5 -3t-7.5 -7t-8 -7t-6 -3q-3 1 -8 5.5t-8 7.5q-3 2 -8.5 6.5t-5.5 9.5q0 3 6 10t13.5 14.5t14 13.5
t6.5 7q11 9 32.5 8.5t38.5 -4.5zM342 309q-14 -6 -19 -16t-6 -19t-1.5 -15.5t-5.5 -7.5h-8t-15.5 1.5t-16 4.5t-8.5 9q-2 10 0.5 23.5t7.5 21.5q4 9 11.5 19.5t15.5 15.5q11 6 24 10.5t26 3.5q35 -2 57 -25q7 -8 12 -16t9 -22q3 -11 5 -23t2 -23q0 -23 -7 -43.5t-20 -39.5
q-17 -27 -38.5 -51t-31.5 -56q11 -2 22.5 -1.5t22.5 0.5t20.5 -1.5t15.5 -7.5q1 -12 0 -27.5t-1 -23.5q-2 -1 -26.5 0t-54 2.5t-54 3t-25.5 3.5t-1 9t0.5 15.5t1 16t1.5 11.5q1 6 10 21.5t20 33t22 33.5t17 25q13 17 25 34.5t16 38.5q1 8 2 19.5t-0.5 21.5t-7.5 16.5
t-19 4.5zM254 541q0 1 7.5 20t17 41.5t19 41.5t14.5 20q10 -3 13 -2t13 -1q8 -2 14.5 -5.5t14.5 -3.5q10 -8 5.5 -20.5t-8.5 -26.5q-1 -5 -12 -31.5t-27.5 -67.5t-37.5 -92t-43.5 -104.5t-44 -105.5t-39.5 -94t-30.5 -71t-16.5 -36q-11 -1 -19 -1.5t-15.5 -1t-16 -0.5h-21.5
q3 9 13.5 37t26 67.5t34 87t38 96t38 94t32.5 81t22.5 57z" />
    <glyph glyph-name="threequarters" unicode="&#xbe;" horiz-adv-x="462" 
d="M288 541q0 1 7.5 20t17 41.5t19 41.5t14.5 20q10 -3 13 -2t13 -1q8 -2 14.5 -5.5t14.5 -3.5q10 -8 5.5 -20.5t-8.5 -26.5q-1 -5 -12 -31.5t-27.5 -67.5t-37.5 -92t-43.5 -104.5t-44 -105.5t-39.5 -94t-30.5 -71t-16.5 -36q-11 -1 -19 -1.5t-15.5 -1t-16 -0.5h-20.5
q2 9 12.5 37t26 67.5t34.5 87t38 96t37.5 94t32.5 81t22.5 57zM173 656q1 -11 -2.5 -20t-8.5 -15q-6 -10 -14 -18t-15 -17q-8 -9 -15 -22t-14 -22q2 1 8 -1t12.5 -4.5t12 -5t7.5 -3.5q8 -8 14.5 -17.5t11.5 -20.5q8 -18 12 -41t4 -43q1 -19 -3 -44t-14.5 -47.5t-29.5 -38
t-49 -14.5q-14 1 -28 9.5t-23 18.5q-9 11 -13.5 23t-7.5 26l-5 30q-1 5 -2.5 11.5t1.5 11.5q8 5 20.5 5t26.5 2q9 -7 10 -21t6 -29q2 -8 3.5 -14.5t8.5 -8.5q4 -1 14 4t12 8q10 13 12 31q3 13 0.5 29t-7.5 29q-3 11 -8.5 28.5t-15.5 23.5q-5 3 -17 5t-24.5 3t-23 2t-12.5 2
q-3 2 -6 6.5t-3 9.5q0 2 10 13t22.5 24t23.5 25.5t13 18.5q-6 2 -14.5 0.5t-17 -3.5t-16 -3.5t-11.5 0.5l-2 32t-4 30q0 1 13.5 3t31 4t32.5 3.5t18 1.5l41 1q5 0 12.5 1.5t12.5 -2.5zM326 7l0.5 13t1 30t1 33t-0.5 21q0 2 -17.5 2.5t-38.5 0.5t-39.5 0.5t-19.5 2.5
q-1 0 3 2l4 10t10 22t11.5 23.5t7.5 14.5q3 5 10.5 21.5t17 37.5t20 44.5t20 43.5t16.5 33t9 14q1 0 8.5 1t15.5 1t15 -1.5t7 -5.5q0 -3 0.5 -27.5t1 -56l1 -63t0.5 -46.5q8 -4 17 -1.5t15 -2.5q0 -3 2 -14t3.5 -23t1.5 -21.5t-5 -10.5q-8 -2 -15.5 -1.5t-17.5 -2.5
q-1 -6 -1 -19t0.5 -26.5t1.5 -24.5l1 -11q1 0 -1 -5t-3 -7q-1 -1 -11 -3.5t-22 -3.5t-21.5 0t-9.5 6zM314 170q4 -4 9 -3.5t11 1.5q0 17 1.5 35.5t0.5 35.5q-8 -16 -12 -34t-10 -35z" />
    <glyph glyph-name="questiondown" unicode="&#xbf;" 
d="M94 -193q-22 20 -36 49t-16 59q-1 49 7 85.5t22 64t31 47.5t33 36l29.5 29.5t19.5 28.5q3 5 3.5 15.5t-0.5 22t-2 22.5t-2 17q-2 12 3 17.5t13.5 7.5t18.5 1.5t19 -0.5q17 0 25 -11.5t9.5 -28t-1.5 -33.5t-6 -29q-13 -39 -40.5 -75t-57.5 -65q-17 -16 -30.5 -32
t-18.5 -39q-5 -24 -2 -48t11 -46q7 -19 17.5 -37t30.5 -23q18 -5 37 -0.5t31 19.5q14 18 14 36t-2 38q-1 8 8 13.5t22 8t25 3t17 -1.5q13 -6 14.5 -23t-2.5 -36.5t-11 -37.5t-11 -25q-17 -31 -43.5 -49.5t-56.5 -23t-62 6t-60 37.5zM250 405q8 -11 2 -25.5t-16 -20.5
q-10 -5 -21.5 -6t-19.5 10q-12 15 -8.5 29t14.5 22.5t25 7.5t24 -17z" />
    <glyph glyph-name="Agrave" unicode="&#xc0;" horiz-adv-x="395" 
d="M306 106q4 -20 9 -41.5t4 -42.5q0 -12 -8 -20q-12 1 -30.5 -0.5t-29.5 5.5q-2 9 -7.5 34.5t-11.5 54t-11 52t-5 28.5q-23 2 -51 3t-51 -3q-8 -17 -11.5 -38.5t-8.5 -39.5q-3 -11 -6 -22.5t-5 -22.5q-2 -13 -3.5 -27t-11.5 -24q-12 -2 -30.5 -1.5t-29.5 4.5q-2 21 1.5 43
t10 44t13.5 43.5t12 42.5q12 59 23 117t22 118q9 42 18.5 84t19.5 84q4 17 7.5 32.5t8.5 32.5q3 10 10 13t16 2.5t18.5 -2.5t17.5 -2q4 -7 8.5 -29.5t7.5 -48t5.5 -48.5t3.5 -30q5 -35 9.5 -69t11.5 -69q8 -39 15.5 -77.5t16.5 -77.5q6 -26 11.5 -51t10.5 -51zM128 244
q18 -2 37 0.5t39 1.5q0 4 -2.5 20.5t-6 38t-8 46t-9 45t-8 33.5t-5.5 13q0 -1 -0.5 -1t-0.5 -1q0 -2 -4 -24t-10 -52t-12 -62.5t-10 -57.5zM173 790q7 0 11 -6.5t6 -15.5t2.5 -17.5t0.5 -12.5q1 -8 3 -17t0 -17q-3 -13 -13.5 -13t-17.5 9q-8 10 -13 21.5t-11 22.5
q-1 3 -4.5 7t-6.5 8.5t-4.5 9t0.5 7.5q8 8 22.5 10.5t24.5 3.5z" />
    <glyph glyph-name="Aacute" unicode="&#xc1;" horiz-adv-x="365" 
d="M322 106q4 -20 9 -41.5t4 -42.5q0 -12 -8 -20q-12 1 -30.5 -0.5t-29.5 5.5q-2 9 -7.5 34.5t-11.5 54t-11 52t-5 28.5q-23 2 -51 3t-51 -3q-8 -17 -11.5 -38.5t-8.5 -39.5q-3 -11 -6 -22.5t-5 -22.5q-2 -13 -3.5 -27t-11.5 -24q-12 -2 -30.5 -1.5t-29.5 4.5q-2 21 1.5 43
t10 44t13.5 43.5t12 42.5q12 59 23 117t22 118q9 42 18.5 84t19.5 84q4 17 7.5 32.5t8.5 32.5q3 10 10 13t16 2.5t18.5 -2.5t17.5 -2q4 -7 8.5 -29.5t7.5 -48t5.5 -48.5t3.5 -30q5 -35 9.5 -69t11.5 -69q8 -39 15.5 -77.5t16.5 -77.5q6 -26 11.5 -51t10.5 -51zM144 244
q18 -2 37 0.5t39 1.5q0 4 -2.5 20.5t-6 38t-8 46t-9 45t-8 33.5t-5.5 13q0 -1 -0.5 -1t-0.5 -1q0 -2 -4 -24t-10 -52t-12 -62.5t-10 -57.5zM251 786q3 -3 -1.5 -19.5t-11.5 -35t-14 -33.5t-9 -15q-29 -3 -47 8q-1 8 2.5 22.5t8.5 29t10 26.5t8 17q11 2 25.5 2t28.5 -2z" />
    <glyph glyph-name="Acircumflex" unicode="&#xc2;" horiz-adv-x="408" 
d="M319 106q4 -20 9 -41.5t4 -42.5q0 -12 -8 -20q-12 1 -30.5 -0.5t-29.5 5.5q-2 9 -7.5 34.5t-11.5 54t-11 52t-5 28.5q-23 2 -51 3t-51 -3q-8 -17 -11.5 -38.5t-8.5 -39.5q-3 -11 -6 -22.5t-5 -22.5q-2 -13 -3.5 -27t-11.5 -24q-12 -2 -30.5 -1.5t-29.5 4.5q-2 21 1.5 43
t10 44t13.5 43.5t12 42.5q12 59 23 117t22 118q9 42 18.5 84t19.5 84q4 17 7.5 32.5t8.5 32.5q3 10 10 13t16 2.5t18.5 -2.5t17.5 -2q4 -7 8.5 -29.5t7.5 -48t5.5 -48.5t3.5 -30q5 -35 9.5 -69t11.5 -69q8 -39 15.5 -77.5t16.5 -77.5q6 -26 11.5 -51t10.5 -51zM141 244
q18 -2 37 0.5t39 1.5q0 4 -2.5 20.5t-6 38t-8 46t-9 45t-8 33.5t-5.5 13q0 -1 -0.5 -1t-0.5 -1q0 -2 -4 -24t-10 -52t-12 -62.5t-10 -57.5zM193 732q-14 -10 -27 -19t-25 -20l-13 -13q-4 -4 -7 -6q-6 -5 -9 -4.5t-8 5.5l-13.5 13.5t-13.5 14.5q-8 9 0 19l16.5 16.5
t17.5 16.5l48 45q5 4 9.5 7t9.5 7l8 5q7 4 13 -3q25 -25 51 -48t54 -43q6 -3 10 -9q7 -7 0 -12q-9 -8 -18.5 -16.5t-18.5 -16.5q-7 -6 -13 0l-10 8l-47 44q-3 2 -6 4.5t-8 4.5z" />
    <glyph glyph-name="Atilde" unicode="&#xc3;" horiz-adv-x="384" 
d="M336 106q4 -20 9 -41.5t4 -42.5q0 -12 -8 -20q-12 1 -30.5 -0.5t-29.5 5.5q-2 9 -7.5 34.5t-11.5 54t-11 52t-5 28.5q-23 2 -51 3t-51 -3q-8 -17 -11.5 -38.5t-8.5 -39.5q-3 -11 -6 -22.5t-5 -22.5q-2 -13 -3.5 -27t-11.5 -24q-12 -2 -30.5 -1.5t-29.5 4.5q-2 21 1.5 43
t10 44t13.5 43.5t12 42.5q12 59 23 117t22 118q9 42 18.5 84t19.5 84q4 17 7.5 32.5t8.5 32.5q3 10 10 13t16 2.5t18.5 -2.5t17.5 -2q4 -7 8.5 -29.5t7.5 -48t5.5 -48.5t3.5 -30q5 -35 9.5 -69t11.5 -69q8 -39 15.5 -77.5t16.5 -77.5q6 -26 11.5 -51t10.5 -51zM158 244
q18 -2 37 0.5t39 1.5q0 4 -2.5 20.5t-6 38t-8 46t-9 45t-8 33.5t-5.5 13q0 -1 -0.5 -1t-0.5 -1q0 -2 -4 -24t-10 -52t-12 -62.5t-10 -57.5zM341 753q-1 -5 -3 -8t-5 -7q-8 -7 -15.5 -11.5t-16.5 -9.5q-14 -6 -28 -6q-11 1 -21 2.5t-19 5.5q-8 3 -15 6.5l-15 7.5
q-4 2 -7.5 4.5t-7.5 5.5q-18 9 -42 3q-10 -3 -16 -10l-3 -3l-3 -3q-8 -8 -16 -1l-17 20q-2 4 -2 11.5t4 10.5q6 8 13 12q8 5 16.5 10.5t17.5 8.5q4 0 8 1t8 1q14 -1 27 -3.5t26 -10.5q18 -12 41 -18q4 -2 12 -4q8 -1 14.5 0.5t12.5 8.5l16 15q5 4 12 0q1 0 1 -1
q7 -7 13.5 -18.5t9.5 -19.5z" />
    <glyph glyph-name="Adieresis" unicode="&#xc4;" horiz-adv-x="370" 
d="M331 106q4 -20 9 -41.5t4 -42.5q0 -12 -8 -20q-12 1 -30.5 -0.5t-29.5 5.5q-2 9 -7.5 34.5t-11.5 54t-11 52t-5 28.5q-23 2 -51 3t-51 -3q-8 -17 -11.5 -38.5t-8.5 -39.5q-3 -11 -6 -22.5t-5 -22.5q-2 -13 -3.5 -27t-11.5 -24q-12 -2 -30.5 -1.5t-29.5 4.5q-2 21 1.5 43
t10 44t13.5 43.5t12 42.5q12 59 23 117t22 118q9 42 18.5 84t19.5 84q4 17 7.5 32.5t8.5 32.5q3 10 10 13t16 2.5t18.5 -2.5t17.5 -2q4 -7 8.5 -29.5t7.5 -48t5.5 -48.5t3.5 -30q5 -35 9.5 -69t11.5 -69q8 -39 15.5 -77.5t16.5 -77.5q6 -26 11.5 -51t10.5 -51zM153 244
q18 -2 37 0.5t39 1.5q0 4 -2.5 20.5t-6 38t-8 46t-9 45t-8 33.5t-5.5 13q0 -1 -0.5 -1t-0.5 -1q0 -2 -4 -24t-10 -52t-12 -62.5t-10 -57.5zM262 723q-11 -6 -25 -4t-21 13q-6 12 -1 22.5t15.5 15t22.5 1t19 -18.5q7 -19 -10 -29zM154 773q14 5 28 -7q5 -5 5.5 -12t-2.5 -14
t-7.5 -13t-8.5 -9q-20 -5 -29 1.5t-9.5 17t6 21.5t17.5 15z" />
    <glyph glyph-name="Aring" unicode="&#xc5;" horiz-adv-x="395" 
d="M345 106q4 -20 9 -41.5t4 -42.5q0 -12 -8 -20q-12 1 -30.5 -0.5t-29.5 5.5q-2 9 -7.5 34.5t-11.5 54t-11 52t-5 28.5q-23 2 -51 3t-51 -3q-8 -17 -11.5 -38.5t-8.5 -39.5q-3 -11 -6 -22.5t-5 -22.5q-2 -13 -3.5 -27t-11.5 -24q-12 -2 -30.5 -1.5t-29.5 4.5q-2 21 1.5 43
t10 44t13.5 43.5t12 42.5q12 59 23 117t22 118q9 42 18.5 84t19.5 84q4 17 7.5 32.5t8.5 32.5q3 10 10 13t16 2.5t18.5 -2.5t17.5 -2q4 -7 8.5 -29.5t7.5 -48t5.5 -48.5t3.5 -30q5 -35 9.5 -69t11.5 -69q8 -39 15.5 -77.5t16.5 -77.5q6 -26 11.5 -51t10.5 -51zM167 244
q18 -2 37 0.5t39 1.5q0 4 -2.5 20.5t-6 38t-8 46t-9 45t-8 33.5t-5.5 13q0 -1 -0.5 -1t-0.5 -1q0 -2 -4 -24t-10 -52t-12 -62.5t-10 -57.5zM295 683q2 -33 -20 -61q-11 -17 -31 -25.5t-40 -3.5q-25 5 -39.5 20t-22.5 38q-6 14 -4 30l4 24q4 22 17 34.5t32 19.5q26 8 52.5 -1
t42.5 -37q5 -8 7 -17.5t2 -20.5zM216 657q5 0 13 5q12 7 9 19q-2 5 -9.5 12t-12.5 7q-3 0 -4 -1q-3 -2 -6.5 -3t-5.5 -4q-8 -6 -7 -16q2 -6 3 -10q6 -10 20 -9z" />
    <glyph glyph-name="AE" unicode="&#xc6;" horiz-adv-x="582" 
d="M382 256q-6 -10 -6 -23q1 -8 1 -16.5v-17.5v-23.5t-2 -24.5q-1 -14 -0.5 -29t3.5 -30q1 -13 17 -13h66l44 -3q5 0 10.5 0.5t10.5 0.5q8 0 13 -9v-3q0 -14 0.5 -27t0.5 -26q-2 -11 -12 -12h-8q-19 -1 -37.5 -1.5t-38.5 -0.5q-13 0 -26.5 0.5t-27.5 0.5h-11.5t-11.5 -1
q-15 -2 -30.5 -1t-31.5 2q0 2 -1 4t-1 4q-1 8 -0.5 15t-0.5 15v55.5t-1 55.5q0 9 -0.5 18.5t-1.5 19.5q-8 2 -11 2q-20 -2 -41 -1.5t-41 1.5h-13q-5 -16 -11 -30.5t-10 -30.5l-23 -85l-8 -18t-10 -17q-12 -4 -25.5 -5.5t-27.5 -3.5l-27 -3q-4 0 -7 2t-2 5l5 20l30 80
q2 6 3.5 11.5t3.5 10.5q7 26 16 51t20 49q7 11 9 20q14 41 30.5 79.5t33.5 77.5q5 11 8.5 21.5t8.5 21.5q13 30 26.5 60.5t25.5 59.5q7 16 13 32t11 31l4 15q0 2 2 10q2 11 6.5 14t15.5 4l62 1q35 1 69.5 1t69.5 -2h7q6 0 10 -8l3 -15q1 -8 1.5 -16t1.5 -16q1 -17 -13 -18
q-9 -3 -18 -3q-27 -1 -53 -3t-52 -1h-10t-10 -2q-4 -11 -4.5 -22.5t-0.5 -22.5q-1 -30 -0.5 -60.5t0.5 -60.5l1 -85q4 -5 9 -6.5t10 -1.5l79 -3q2 0 4.5 -0.5t5.5 -0.5q3 -5 4 -10t1 -10l1 -30q0 -17 -16 -17h-73q-5 0 -10.5 -0.5t-10.5 -1.5zM304 466q-5 -3 -6 -6t-3 -5
l-29 -74q-4 -9 -6 -18t-6 -18l-26 -64q-2 -5 -4 -11t-3 -13q3 -1 5.5 -1.5t5.5 -0.5q7 -1 13.5 -0.5t12.5 0.5q8 0 14.5 -0.5t13.5 0.5q14 0 14 13v17q-3 20 -2 40.5t2 41.5q2 23 2.5 45.5t1.5 46.5q1 2 0.5 3t-0.5 4z" />
    <glyph glyph-name="Ccedilla" unicode="&#xc7;" horiz-adv-x="379" 
d="M302 129q7 0 15.5 -1t13.5 -7q7 -6 1.5 -15.5t-9.5 -15.5q-10 -15 -21 -30t-24 -27.5t-28.5 -21t-34.5 -10.5q-33 -5 -66 7.5t-56 35.5q-23 21 -34 47t-14.5 54.5t-3 57.5t1.5 58q2 68 1 135.5t16 133.5q6 25 16.5 48.5t26 42.5t36.5 31.5t50 14.5q23 1 49 -7.5t48 -25
t36 -39t14 -47.5q-17 -6 -34.5 -14.5t-37.5 -6.5q-9 14 -12.5 29.5t-19.5 26.5q-15 11 -32 11t-31 -12q-16 -13 -25.5 -29.5t-14.5 -35t-6.5 -38t-2.5 -38.5q-2 -49 -3 -97t0 -97q0 -18 -0.5 -39t1.5 -41.5t8.5 -39.5t20.5 -33q11 -11 26.5 -17.5t30.5 -1.5q16 5 25.5 18
t16.5 27q4 9 10 11.5t13.5 2.5t16 -2t16.5 -3zM262 -50q10 -20 -3 -39q-5 -7 -10.5 -13t-13.5 -11t-15.5 -9t-15.5 -6q-30 -10 -64 -12h-9q-8 2 -9 7q-2 4 -2 12q-3 18 -9 35q-2 8 2 13t12 4l24 -2h16q11 3 14 11q4 9 -5 14l-15 5l-12 4q-4 13 -2.5 25.5t-3.5 24.5
q-7 1 7.5 3.5t33.5 3.5t33.5 0.5t7.5 -4.5q0 -6 -1 -9q-1 -8 1.5 -14.5t11.5 -11.5q8 -6 17 -16q3 -3 5.5 -7t4.5 -8z" />
    <glyph glyph-name="Egrave" unicode="&#xc8;" horiz-adv-x="346" 
d="M297 82q9 -16 7.5 -39.5t0.5 -40.5q-10 -1 -31.5 -2t-48 -1t-55 0.5t-52.5 0.5t-40 0.5t-17 1.5q-6 16 -8 32t-2 32q-2 20 -3.5 40.5t-1.5 40.5q2 42 1.5 84.5t-1.5 84.5q-2 44 -3 87t-2 88q0 44 2 87.5t0 87.5q11 11 29 10.5t33 0.5l54 3q15 1 30 1h30q17 1 36 1t35 -8
q2 -14 1.5 -28.5t3.5 -28.5q2 -9 -0.5 -13.5t-8 -6t-12.5 -2t-13 -0.5q-36 -1 -71.5 -2t-70.5 -4q1 -29 -1 -59t-4.5 -60t-3.5 -60t2 -58q34 0 68.5 5.5t69.5 1.5q3 -11 4 -21.5t3 -20.5q1 -5 4.5 -16.5t-3.5 -15.5t-17.5 -4h-18.5q-27 -2 -54.5 -2.5t-53.5 -2.5
q-2 -22 -0.5 -43t3.5 -43q2 -25 3 -49.5t5 -48.5q38 -7 82 -7q11 -1 23 -1h25q9 0 21 0.5t21 -2.5zM174 796q7 0 11 -6.5t6 -15.5t2.5 -17.5t0.5 -12.5q1 -8 3 -17t0 -17q-3 -13 -13.5 -13t-17.5 9q-8 10 -13 21.5t-11 22.5q-1 3 -4.5 7t-6.5 8.5t-4.5 9t0.5 7.5
q8 8 22.5 10.5t24.5 3.5z" />
    <glyph glyph-name="Eacute" unicode="&#xc9;" horiz-adv-x="346" 
d="M297 82q9 -16 7.5 -39.5t0.5 -40.5q-10 -1 -31.5 -2t-48 -1t-55 0.5t-52.5 0.5t-40 0.5t-17 1.5q-6 16 -8 32t-2 32q-2 20 -3.5 40.5t-1.5 40.5q2 42 1.5 84.5t-1.5 84.5q-2 44 -3 87t-2 88q0 44 2 87.5t0 87.5q11 11 29 10.5t33 0.5l54 3q15 1 30 1h30q17 1 36 1t35 -8
q2 -14 1.5 -28.5t3.5 -28.5q2 -9 -0.5 -13.5t-8 -6t-12.5 -2t-13 -0.5q-36 -1 -71.5 -2t-70.5 -4q1 -29 -1 -59t-4.5 -60t-3.5 -60t2 -58q34 0 68.5 5.5t69.5 1.5q3 -11 4 -21.5t3 -20.5q1 -5 4.5 -16.5t-3.5 -15.5t-17.5 -4h-18.5q-27 -2 -54.5 -2.5t-53.5 -2.5
q-2 -22 -0.5 -43t3.5 -43q2 -25 3 -49.5t5 -48.5q38 -7 82 -7q11 -1 23 -1h25q9 0 21 0.5t21 -2.5zM223 796q3 -3 -1.5 -19.5t-11.5 -35t-14 -33.5t-9 -15q-29 -3 -47 8q-1 8 2.5 22.5t8.5 29t10 26.5t8 17q11 2 25.5 2t28.5 -2z" />
    <glyph glyph-name="Ecircumflex" unicode="&#xca;" horiz-adv-x="346" 
d="M297 82q9 -16 7.5 -39.5t0.5 -40.5q-10 -1 -31.5 -2t-48 -1t-55 0.5t-52.5 0.5t-40 0.5t-17 1.5q-6 16 -8 32t-2 32q-2 20 -3.5 40.5t-1.5 40.5q2 42 1.5 84.5t-1.5 84.5q-2 44 -3 87t-2 88q0 44 2 87.5t0 87.5q11 11 29 10.5t33 0.5l54 3q15 1 30 1h30q17 1 36 1t35 -8
q2 -14 1.5 -28.5t3.5 -28.5q2 -9 -0.5 -13.5t-8 -6t-12.5 -2t-13 -0.5q-36 -1 -71.5 -2t-70.5 -4q1 -29 -1 -59t-4.5 -60t-3.5 -60t2 -58q34 0 68.5 5.5t69.5 1.5q3 -11 4 -21.5t3 -20.5q1 -5 4.5 -16.5t-3.5 -15.5t-17.5 -4h-18.5q-27 -2 -54.5 -2.5t-53.5 -2.5
q-2 -22 -0.5 -43t3.5 -43q2 -25 3 -49.5t5 -48.5q38 -7 82 -7q11 -1 23 -1h25q9 0 21 0.5t21 -2.5zM173 765q-14 -10 -27 -19t-25 -20l-13 -13q-4 -4 -7 -6q-6 -5 -9 -4.5t-8 5.5l-13.5 13.5t-13.5 14.5q-8 9 0 19l16.5 16.5t17.5 16.5l48 45q5 4 9.5 7t9.5 7l8 5q7 4 13 -3
q25 -25 51 -48t54 -43q6 -3 10 -9q7 -7 0 -12q-9 -8 -18.5 -16.5t-18.5 -16.5q-7 -6 -13 0l-10 8l-47 44q-3 2 -6 4.5t-8 4.5z" />
    <glyph glyph-name="Edieresis" unicode="&#xcb;" horiz-adv-x="349" 
d="M300 82q9 -16 7.5 -39.5t0.5 -40.5q-10 -1 -31.5 -2t-48 -1t-55 0.5t-52.5 0.5t-40 0.5t-17 1.5q-6 16 -8 32t-2 32q-2 20 -3.5 40.5t-1.5 40.5q2 42 1.5 84.5t-1.5 84.5q-2 44 -3 87t-2 88q0 44 2 87.5t0 87.5q11 11 29 10.5t33 0.5l54 3q15 1 30 1h30q17 1 36 1t35 -8
q2 -14 1.5 -28.5t3.5 -28.5q2 -9 -0.5 -13.5t-8 -6t-12.5 -2t-13 -0.5q-36 -1 -71.5 -2t-70.5 -4q1 -29 -1 -59t-4.5 -60t-3.5 -60t2 -58q34 0 68.5 5.5t69.5 1.5q3 -11 4 -21.5t3 -20.5q1 -5 4.5 -16.5t-3.5 -15.5t-17.5 -4h-18.5q-27 -2 -54.5 -2.5t-53.5 -2.5
q-2 -22 -0.5 -43t3.5 -43q2 -25 3 -49.5t5 -48.5q38 -7 82 -7q11 -1 23 -1h25q9 0 21 0.5t21 -2.5zM244 705q-11 -6 -25 -4t-21 13q-6 12 -1 22.5t15.5 15t22.5 1t19 -18.5q7 -19 -10 -29zM136 755q14 5 28 -7q5 -5 5.5 -12t-2.5 -14t-7.5 -13t-8.5 -9q-20 -5 -29 1.5
t-9.5 17t6 21.5t17.5 15z" />
    <glyph glyph-name="Igrave" unicode="&#xcc;" horiz-adv-x="188" 
d="M138 644q-1 -20 -2.5 -38.5t-2.5 -37.5q-1 -21 -0.5 -41t0.5 -40q-1 -42 -4 -82t-3 -82t3 -83.5t1 -83.5q-2 -17 -2 -33.5t1 -32.5q1 -18 2 -38t-4 -37q-11 -8 -30.5 -10t-35.5 -3q-7 6 -10 15t-3 19.5t1 21t2 18.5q5 48 5.5 94.5t1.5 94.5q2 74 -1 146.5t-6 146.5v23.5
t1 23.5q0 4 -1 12t-1 16t1 14t6 8q11 4 22 4.5t21 0.5h12.5t12 -1t9.5 -4.5t4 -10.5zM98 777q7 0 11 -6.5t6 -15.5t2.5 -17.5t0.5 -12.5q1 -8 3 -17t0 -17q-3 -13 -13.5 -13t-17.5 9q-8 10 -13 21.5t-11 22.5q-1 3 -4.5 7t-6.5 8.5t-4.5 9t0.5 7.5q8 8 22.5 10.5t24.5 3.5z
" />
    <glyph glyph-name="Iacute" unicode="&#xcd;" horiz-adv-x="180" 
d="M123 644q-1 -20 -2.5 -38.5t-2.5 -37.5q-1 -21 -0.5 -41t0.5 -40q-1 -42 -4 -82t-3 -82t3 -83.5t1 -83.5q-2 -17 -2 -33.5t1 -32.5q1 -18 2 -38t-4 -37q-11 -8 -30.5 -10t-35.5 -3q-7 6 -10 15t-3 19.5t1 21t2 18.5q5 48 5.5 94.5t1.5 94.5q2 74 -1 146.5t-6 146.5v23.5
t1 23.5q0 4 -1 12t-1 16t1 14t6 8q11 4 22 4.5t21 0.5h12.5t12 -1t9.5 -4.5t4 -10.5zM138 781q3 -3 -1.5 -19.5t-11.5 -35t-14 -33.5t-9 -15q-29 -3 -47 8q-1 8 2.5 22.5t8.5 29t10 26.5t8 17q11 2 25.5 2t28.5 -2z" />
    <glyph glyph-name="Icircumflex" unicode="&#xce;" horiz-adv-x="190" 
d="M188 644q-1 -20 -2.5 -38.5t-2.5 -37.5q-1 -21 -0.5 -41t0.5 -40q-1 -42 -4 -82t-3 -82t3 -83.5t1 -83.5q-2 -17 -2 -33.5t1 -32.5q1 -18 2 -38t-4 -37q-11 -8 -30.5 -10t-35.5 -3q-7 6 -10 15t-3 19.5t1 21t2 18.5q5 48 5.5 94.5t1.5 94.5q2 74 -1 146.5t-6 146.5v23.5
t1 23.5q0 4 -1 12t-1 16t1 14t6 8q11 4 22 4.5t21 0.5h12.5t12 -1t9.5 -4.5t4 -10.5zM145 726q-14 -10 -27 -19t-25 -20l-13 -13q-4 -4 -7 -6q-6 -5 -9 -4.5t-8 5.5l-13.5 13.5t-13.5 14.5q-8 9 0 19l16.5 16.5t17.5 16.5l48 45q5 4 9.5 7t9.5 7l8 5q7 4 13 -3
q25 -25 51 -48t54 -43q6 -3 10 -9q7 -7 0 -12q-9 -8 -18.5 -16.5t-18.5 -16.5q-7 -6 -13 0l-10 8l-47 44q-3 2 -6 4.5t-8 4.5z" />
    <glyph glyph-name="Idieresis" unicode="&#xcf;" horiz-adv-x="173" 
d="M123 644q-1 -20 -2.5 -38.5t-2.5 -37.5q-1 -21 -0.5 -41t0.5 -40q-1 -42 -4 -82t-3 -82t3 -83.5t1 -83.5q-2 -17 -2 -33.5t1 -32.5q1 -18 2 -38t-4 -37q-11 -8 -30.5 -10t-35.5 -3q-7 6 -10 15t-3 19.5t1 21t2 18.5q5 48 5.5 94.5t1.5 94.5q2 74 -1 146.5t-6 146.5v23.5
t1 23.5q0 4 -1 12t-1 16t1 14t6 8q11 4 22 4.5t21 0.5h12.5t12 -1t9.5 -4.5t4 -10.5zM148 690q-11 -6 -25 -4t-21 13q-6 12 -1 22.5t15.5 15t22.5 1t19 -18.5q7 -19 -10 -29zM40 740q14 5 28 -7q5 -5 5.5 -12t-2.5 -14t-7.5 -13t-8.5 -9q-20 -5 -29 1.5t-9.5 17t6 21.5
t17.5 15z" />
    <glyph glyph-name="Eth" unicode="&#xd0;" 
d="M51 79q0 23 1.5 45t0.5 45q-2 43 0.5 84.5t0.5 83.5t1 84.5t1 84.5q-1 21 1 41t1 40t-1 40.5t5 40.5q15 6 31.5 7t33.5 1q19 -1 37.5 -2t37.5 -3q13 -2 28 -5t29.5 -8t27 -13t20.5 -20q18 -28 21.5 -62.5t5.5 -66.5q2 -41 -1 -80.5t-3 -79.5q1 -38 2 -77t-2 -77
q-1 -19 -1 -37.5t-5 -36.5q-6 -16 -15 -30.5t-20 -27.5q-21 -26 -49.5 -34t-59.5 -11q-7 -1 -24 -2t-36.5 -2t-37.5 -1.5t-25 0.5q-7 21 -6.5 40t0.5 39zM125 408q-3 -45 -0.5 -89t1.5 -89q-1 -40 -3 -79.5t1 -79.5q21 -4 44 0.5t44 9.5q23 5 31 21t13 38q5 25 5 50.5
t1 51.5q0 13 0.5 44t1.5 65t2 64.5t2 44.5q1 22 -1.5 45.5t-7.5 44.5q-6 20 -20.5 30.5t-32.5 14.5t-37.5 2.5t-35.5 -4.5q-2 -44 -3.5 -91.5t-4.5 -93.5zM184 389q5 0 8.5 -1t8.5 -3q2 0 5 -3q2 -1 2 -9q0 -15 0.5 -29t0.5 -27q0 -17 -4 -17h-6.5t-6.5 1q-1 0 -14.5 1.5
t-30.5 3t-33.5 2.5t-22.5 2q-4 1 -12 1.5t-17.5 0.5h-17.5h-12q-5 0 -8 -3q-2 -1 -8 3q-3 0 -3 13q1 14 0.5 26.5t-0.5 26.5q0 10 3 12q1 1 4 1l40 -2h124z" />
    <glyph glyph-name="Ntilde" unicode="&#xd1;" horiz-adv-x="406" 
d="M279 2l-4 10l-4 10q-8 19 -21.5 58t-27.5 81.5t-27 81.5t-19 60q-8 27 -15 58.5t-23 55.5q2 -3 0.5 -6.5t-1.5 -5.5q-2 -14 0 -27q1 -24 0 -48q-2 -26 -4 -51.5t-4 -51.5l-5 -105q-1 -28 -3 -56.5t3 -54.5q-2 -5 -7.5 -6.5t-12 -2.5t-13.5 -1h-10q-10 -1 -22.5 0
t-17.5 12q4 7 4.5 15t0.5 16q0 13 0.5 24.5t1.5 23.5q3 48 3 96q-1 49 1.5 98t3.5 98q0 50 3 98.5t2 98.5v18t1 19q1 7 1 17t5 15q11 11 30.5 10t32.5 0q8 -8 10 -20t6 -23l17 -56q9 -29 17 -58.5t20 -57.5q11 -24 19.5 -49.5t19.5 -50.5q5 -11 10 -23t11 -24q2 -13 7.5 -25
t12.5 -23q4 27 2.5 53t-2.5 53q0 27 2 53.5t4 52.5t3 52.5t3 52.5q1 12 1.5 25t0.5 26q0 12 -3 28t2 27q15 -2 38 -1.5t37 -5.5q9 -3 10.5 -8.5t0.5 -14.5q-2 -14 -2 -29t-1 -29q-5 -59 -7 -116.5t-5 -115.5q-3 -61 -4 -129t-6 -128q-1 -20 0 -40t-1 -40q-2 -10 -12 -14.5
t-22 -5.5t-23.5 1t-17.5 5zM346 756q-1 -5 -3 -8t-5 -7q-8 -7 -15.5 -11.5t-16.5 -9.5q-14 -6 -28 -6q-11 1 -21 2.5t-19 5.5q-8 3 -15 6.5l-15 7.5q-4 2 -7.5 4.5t-7.5 5.5q-18 9 -42 3q-10 -3 -16 -10l-3 -3l-3 -3q-8 -8 -16 -1l-17 20q-2 4 -2 11.5t4 10.5q6 8 13 12
q8 5 16.5 10.5t17.5 8.5q4 0 8 1t8 1q14 -1 27 -3.5t26 -10.5q18 -12 41 -18q4 -2 12 -4q8 -1 14.5 0.5t12.5 8.5l16 15q5 4 12 0q1 0 1 -1q7 -7 13.5 -18.5t9.5 -19.5z" />
    <glyph glyph-name="Ograve" unicode="&#xd2;" 
d="M338 528q5 -44 3 -88t-2 -89q1 -40 0.5 -80t-0.5 -80q-1 -16 -0.5 -36t-1 -40t-6.5 -38t-18 -30q-14 -12 -29 -24t-33 -17q-42 -11 -83 -2q-7 2 -16.5 4.5t-15.5 8.5q-7 5 -14 8.5t-14 8.5q-14 11 -21.5 26.5t-14.5 30.5q-14 34 -18 68t-6 69q-2 22 -2.5 44t-1.5 43
q-1 20 -2 39t0 38q1 21 0.5 42t0.5 42t4 42t11 41q18 41 52 70q20 17 45.5 23.5t51.5 7.5t47 -11.5t38 -30.5q8 -8 16 -15.5t13 -18.5q7 -13 10 -27.5t7 -28.5zM128 232q0 -17 1 -36.5t4.5 -39t11 -37t21.5 -29.5q7 -6 20 -10.5t26.5 -4.5t25 4.5t16.5 15.5q5 15 6.5 32
t3.5 32q2 11 3.5 21t1.5 21q0 9 1.5 17.5t3.5 18.5q5 39 4 78t-3 78q-1 18 0 37t1 38t-2.5 37t-10.5 35q-5 14 -17.5 22.5t-26.5 11.5q-20 5 -35.5 -1t-29.5 -18q-6 -17 -12.5 -33.5t-8.5 -34.5q-4 -21 -4.5 -42t-2.5 -43q-4 -44 -2 -85.5t4 -84.5zM201 796q7 0 11 -6.5
t6 -15.5t2.5 -17.5t0.5 -12.5q1 -8 3 -17t0 -17q-3 -13 -13.5 -13t-17.5 9q-8 10 -13 21.5t-11 22.5q-1 3 -4.5 7t-6.5 8.5t-4.5 9t0.5 7.5q8 8 22.5 10.5t24.5 3.5z" />
    <glyph glyph-name="Oacute" unicode="&#xd3;" 
d="M338 528q5 -44 3 -88t-2 -89q1 -40 0.5 -80t-0.5 -80q-1 -16 -0.5 -36t-1 -40t-6.5 -38t-18 -30q-14 -12 -29 -24t-33 -17q-42 -11 -83 -2q-7 2 -16.5 4.5t-15.5 8.5q-7 5 -14 8.5t-14 8.5q-14 11 -21.5 26.5t-14.5 30.5q-14 34 -18 68t-6 69q-2 22 -2.5 44t-1.5 43
q-1 20 -2 39t0 38q1 21 0.5 42t0.5 42t4 42t11 41q18 41 52 70q20 17 45.5 23.5t51.5 7.5t47 -11.5t38 -30.5q8 -8 16 -15.5t13 -18.5q7 -13 10 -27.5t7 -28.5zM128 232q0 -17 1 -36.5t4.5 -39t11 -37t21.5 -29.5q7 -6 20 -10.5t26.5 -4.5t25 4.5t16.5 15.5q5 15 6.5 32
t3.5 32q2 11 3.5 21t1.5 21q0 9 1.5 17.5t3.5 18.5q5 39 4 78t-3 78q-1 18 0 37t1 38t-2.5 37t-10.5 35q-5 14 -17.5 22.5t-26.5 11.5q-20 5 -35.5 -1t-29.5 -18q-6 -17 -12.5 -33.5t-8.5 -34.5q-4 -21 -4.5 -42t-2.5 -43q-4 -44 -2 -85.5t4 -84.5zM259 789q3 -3 -1.5 -19.5
t-11.5 -35t-14 -33.5t-9 -15q-29 -3 -47 8q-1 8 2.5 22.5t8.5 29t10 26.5t8 17q11 2 25.5 2t28.5 -2z" />
    <glyph glyph-name="Ocircumflex" unicode="&#xd4;" 
d="M338 528q5 -44 3 -88t-2 -89q1 -40 0.5 -80t-0.5 -80q-1 -16 -0.5 -36t-1 -40t-6.5 -38t-18 -30q-14 -12 -29 -24t-33 -17q-42 -11 -83 -2q-7 2 -16.5 4.5t-15.5 8.5q-7 5 -14 8.5t-14 8.5q-14 11 -21.5 26.5t-14.5 30.5q-14 34 -18 68t-6 69q-2 22 -2.5 44t-1.5 43
q-1 20 -2 39t0 38q1 21 0.5 42t0.5 42t4 42t11 41q18 41 52 70q20 17 45.5 23.5t51.5 7.5t47 -11.5t38 -30.5q8 -8 16 -15.5t13 -18.5q7 -13 10 -27.5t7 -28.5zM128 232q0 -17 1 -36.5t4.5 -39t11 -37t21.5 -29.5q7 -6 20 -10.5t26.5 -4.5t25 4.5t16.5 15.5q5 15 6.5 32
t3.5 32q2 11 3.5 21t1.5 21q0 9 1.5 17.5t3.5 18.5q5 39 4 78t-3 78q-1 18 0 37t1 38t-2.5 37t-10.5 35q-5 14 -17.5 22.5t-26.5 11.5q-20 5 -35.5 -1t-29.5 -18q-6 -17 -12.5 -33.5t-8.5 -34.5q-4 -21 -4.5 -42t-2.5 -43q-4 -44 -2 -85.5t4 -84.5zM189 732q-14 -10 -27 -19
t-25 -20l-13 -13q-4 -4 -7 -6q-6 -5 -9 -4.5t-8 5.5l-13.5 13.5t-13.5 14.5q-8 9 0 19l16.5 16.5t17.5 16.5l48 45q5 4 9.5 7t9.5 7l8 5q7 4 13 -3q25 -25 51 -48t54 -43q6 -3 10 -9q7 -7 0 -12q-9 -8 -18.5 -16.5t-18.5 -16.5q-7 -6 -13 0l-10 8l-47 44q-3 2 -6 4.5t-8 4.5
z" />
    <glyph glyph-name="Otilde" unicode="&#xd5;" 
d="M338 528q5 -44 3 -88t-2 -89q1 -40 0.5 -80t-0.5 -80q-1 -16 -0.5 -36t-1 -40t-6.5 -38t-18 -30q-14 -12 -29 -24t-33 -17q-42 -11 -83 -2q-7 2 -16.5 4.5t-15.5 8.5q-7 5 -14 8.5t-14 8.5q-14 11 -21.5 26.5t-14.5 30.5q-14 34 -18 68t-6 69q-2 22 -2.5 44t-1.5 43
q-1 20 -2 39t0 38q1 21 0.5 42t0.5 42t4 42t11 41q18 41 52 70q20 17 45.5 23.5t51.5 7.5t47 -11.5t38 -30.5q8 -8 16 -15.5t13 -18.5q7 -13 10 -27.5t7 -28.5zM128 232q0 -17 1 -36.5t4.5 -39t11 -37t21.5 -29.5q7 -6 20 -10.5t26.5 -4.5t25 4.5t16.5 15.5q5 15 6.5 32
t3.5 32q2 11 3.5 21t1.5 21q0 9 1.5 17.5t3.5 18.5q5 39 4 78t-3 78q-1 18 0 37t1 38t-2.5 37t-10.5 35q-5 14 -17.5 22.5t-26.5 11.5q-20 5 -35.5 -1t-29.5 -18q-6 -17 -12.5 -33.5t-8.5 -34.5q-4 -21 -4.5 -42t-2.5 -43q-4 -44 -2 -85.5t4 -84.5zM325 721q-1 -5 -3 -8
t-5 -7q-8 -7 -15.5 -11.5t-16.5 -9.5q-14 -6 -28 -6q-11 1 -21 2.5t-19 5.5q-8 3 -15 6.5l-15 7.5q-4 2 -7.5 4.5t-7.5 5.5q-18 9 -42 3q-10 -3 -16 -10l-3 -3l-3 -3q-8 -8 -16 -1l-17 20q-2 4 -2 11.5t4 10.5q6 8 13 12q8 5 16.5 10.5t17.5 8.5q4 0 8 1t8 1q14 -1 27 -3.5
t26 -10.5q18 -12 41 -18q4 -2 12 -4q8 -1 14.5 0.5t12.5 8.5l16 15q5 4 12 0q1 0 1 -1q7 -7 13.5 -18.5t9.5 -19.5z" />
    <glyph glyph-name="Odieresis" unicode="&#xd6;" horiz-adv-x="379" 
d="M338 528q5 -44 3 -88t-2 -89q1 -40 0.5 -80t-0.5 -80q-1 -16 -0.5 -36t-1 -40t-6.5 -38t-18 -30q-14 -12 -29 -24t-33 -17q-42 -11 -83 -2q-7 2 -16.5 4.5t-15.5 8.5q-7 5 -14 8.5t-14 8.5q-14 11 -21.5 26.5t-14.5 30.5q-14 34 -18 68t-6 69q-2 22 -2.5 44t-1.5 43
q-1 20 -2 39t0 38q1 21 0.5 42t0.5 42t4 42t11 41q18 41 52 70q20 17 45.5 23.5t51.5 7.5t47 -11.5t38 -30.5q8 -8 16 -15.5t13 -18.5q7 -13 10 -27.5t7 -28.5zM128 232q0 -17 1 -36.5t4.5 -39t11 -37t21.5 -29.5q7 -6 20 -10.5t26.5 -4.5t25 4.5t16.5 15.5q5 15 6.5 32
t3.5 32q2 11 3.5 21t1.5 21q0 9 1.5 17.5t3.5 18.5q5 39 4 78t-3 78q-1 18 0 37t1 38t-2.5 37t-10.5 35q-5 14 -17.5 22.5t-26.5 11.5q-20 5 -35.5 -1t-29.5 -18q-6 -17 -12.5 -33.5t-8.5 -34.5q-4 -21 -4.5 -42t-2.5 -43q-4 -44 -2 -85.5t4 -84.5zM260 692q-11 -6 -25 -4
t-21 13q-6 12 -1 22.5t15.5 15t22.5 1t19 -18.5q7 -19 -10 -29zM152 742q14 5 28 -7q5 -5 5.5 -12t-2.5 -14t-7.5 -13t-8.5 -9q-20 -5 -29 1.5t-9.5 17t6 21.5t17.5 15z" />
    <glyph glyph-name="multiply" unicode="&#xd7;" horiz-adv-x="329" 
d="M41 373q10 11 19 21.5t20 20.5q6 6 13.5 4t15 -7.5t14.5 -12t11 -10.5q7 -7 12.5 -12t10.5 -9l10 -8q16 20 29 35q11 13 22.5 23.5t18.5 8.5q15 -4 22.5 -10.5t11.5 -14.5q4 -9 5 -18q-13 -16 -24 -28q-10 -11 -20 -21l-15 -15q-3 -3 6 -14t22 -24t25.5 -24.5t16.5 -15.5
q-2 -4 -9 -13t-15.5 -18t-17.5 -15t-13 -3q-18 13 -37.5 31t-33.5 33q-11 -16 -25.5 -29.5t-27.5 -28.5q-8 -9 -13.5 -11.5t-9.5 -1t-8.5 6t-11.5 10.5q-5 4 -10.5 7.5t-8 7.5t-2 8.5t7.5 11.5q15 17 35 37t28 29q-19 15 -37.5 35t-36.5 34z" />
    <glyph glyph-name="Oslash" unicode="&#xd8;" horiz-adv-x="419" 
d="M350 528q5 -44 3 -88t-2 -89q1 -40 0.5 -80t-0.5 -80q-1 -16 -0.5 -36t-1 -40t-6.5 -38t-18 -30q-14 -12 -29 -24t-33 -17q-42 -11 -83 -2q-7 2 -16.5 4.5t-15.5 8.5q-7 5 -14 8.5t-14 8.5q-14 11 -21.5 26.5t-14.5 30.5q-14 34 -18 68t-6 69q-2 22 -2.5 44t-1.5 43
q-1 20 -2 39t0 38q1 21 0.5 42t0.5 42t4 42t11 41q18 41 52 70q20 17 45.5 23.5t51.5 7.5t47 -11.5t38 -30.5q8 -8 16 -15.5t13 -18.5q7 -13 10 -27.5t7 -28.5zM140 232q0 -17 1 -36.5t4.5 -39t11 -37t21.5 -29.5q7 -6 20 -10.5t26.5 -4.5t25 4.5t16.5 15.5q5 15 6.5 32
t3.5 32q2 11 3.5 21t1.5 21q0 9 1.5 17.5t3.5 18.5q5 39 4 78t-3 78q-1 18 0 37t1 38t-2.5 37t-10.5 35q-5 14 -17.5 22.5t-26.5 11.5q-20 5 -35.5 -1t-29.5 -18q-6 -17 -12.5 -33.5t-8.5 -34.5q-4 -21 -4.5 -42t-2.5 -43q-4 -44 -2 -85.5t4 -84.5zM110 -7h-10.5t-18 -0.5
t-19 -1.5t-14.5 -3q0 2 -2.5 3.5t-4.5 3.5q0 5 10 37t27 80.5t38.5 108.5t44.5 122.5t45 122t40 106t29.5 75t13.5 29.5q7 3 14.5 3.5t14.5 -0.5q9 -1 17.5 -2.5t14.5 -5.5t7.5 -11t-3.5 -18q1 -1 -1 -5t0 -5q-1 -4 -11.5 -33t-27 -74.5t-38 -102.5t-43.5 -116t-43 -115
t-38.5 -100t-28.5 -70.5t-13 -27.5z" />
    <glyph glyph-name="Ugrave" unicode="&#xd9;" horiz-adv-x="391" 
d="M365 393q1 -51 1.5 -101t-4.5 -101q-3 -23 -8 -46.5t-14 -45.5t-23 -40.5t-35 -31.5q-23 -15 -49.5 -21t-53.5 -6q-14 0 -29 6t-28.5 16t-25 21.5t-20.5 23.5q-9 13 -12.5 29t-6.5 30q-8 50 -11.5 100t-4.5 100q-2 71 3 142q2 26 2.5 52t1.5 52v41q-1 11 -3.5 24.5
t6.5 22.5q16 2 35 1.5t34 -5.5q3 -47 -2 -92t-7 -92q-2 -48 -1.5 -96t3.5 -96l4 -46l4 -46q2 -19 4.5 -39t11.5 -37q7 -16 20.5 -24.5t29.5 -11.5t32.5 0t30.5 11q12 7 20 19t12.5 26t6.5 28.5t2 27.5q1 28 0.5 55t-1.5 56q-2 60 -4.5 121t-4.5 121q-1 15 -1.5 30.5
t-2.5 30.5q-1 11 -4 27t2 27q8 5 20 6t20 2q10 2 14 2q2 0 10.5 -4.5t8.5 -5.5q5 -15 5.5 -32t1.5 -34q4 -49 6.5 -98t3.5 -99zM200 779q7 0 11 -6.5t6 -15.5t2.5 -17.5t0.5 -12.5q1 -8 3 -17t0 -17q-3 -13 -13.5 -13t-17.5 9q-8 10 -13 21.5t-11 22.5q-1 3 -4.5 7t-6.5 8.5
t-4.5 9t0.5 7.5q8 8 22.5 10.5t24.5 3.5z" />
    <glyph glyph-name="Uacute" unicode="&#xda;" horiz-adv-x="406" 
d="M365 393q1 -51 1.5 -101t-4.5 -101q-3 -23 -8 -46.5t-14 -45.5t-23 -40.5t-35 -31.5q-23 -15 -49.5 -21t-53.5 -6q-14 0 -29 6t-28.5 16t-25 21.5t-20.5 23.5q-9 13 -12.5 29t-6.5 30q-8 50 -11.5 100t-4.5 100q-2 71 3 142q2 26 2.5 52t1.5 52v41q-1 11 -3.5 24.5
t6.5 22.5q16 2 35 1.5t34 -5.5q3 -47 -2 -92t-7 -92q-2 -48 -1.5 -96t3.5 -96l4 -46l4 -46q2 -19 4.5 -39t11.5 -37q7 -16 20.5 -24.5t29.5 -11.5t32.5 0t30.5 11q12 7 20 19t12.5 26t6.5 28.5t2 27.5q1 28 0.5 55t-1.5 56q-2 60 -4.5 121t-4.5 121q-1 15 -1.5 30.5
t-2.5 30.5q-1 11 -4 27t2 27q8 5 20 6t20 2q10 2 14 2q2 0 10.5 -4.5t8.5 -5.5q5 -15 5.5 -32t1.5 -34q4 -49 6.5 -98t3.5 -99zM247 792q3 -3 -1.5 -19.5t-11.5 -35t-14 -33.5t-9 -15q-29 -3 -47 8q-1 8 2.5 22.5t8.5 29t10 26.5t8 17q11 2 25.5 2t28.5 -2z" />
    <glyph glyph-name="Ucircumflex" unicode="&#xdb;" horiz-adv-x="398" 
d="M365 393q1 -51 1.5 -101t-4.5 -101q-3 -23 -8 -46.5t-14 -45.5t-23 -40.5t-35 -31.5q-23 -15 -49.5 -21t-53.5 -6q-14 0 -29 6t-28.5 16t-25 21.5t-20.5 23.5q-9 13 -12.5 29t-6.5 30q-8 50 -11.5 100t-4.5 100q-2 71 3 142q2 26 2.5 52t1.5 52v41q-1 11 -3.5 24.5
t6.5 22.5q16 2 35 1.5t34 -5.5q3 -47 -2 -92t-7 -92q-2 -48 -1.5 -96t3.5 -96l4 -46l4 -46q2 -19 4.5 -39t11.5 -37q7 -16 20.5 -24.5t29.5 -11.5t32.5 0t30.5 11q12 7 20 19t12.5 26t6.5 28.5t2 27.5q1 28 0.5 55t-1.5 56q-2 60 -4.5 121t-4.5 121q-1 15 -1.5 30.5
t-2.5 30.5q-1 11 -4 27t2 27q8 5 20 6t20 2q10 2 14 2q2 0 10.5 -4.5t8.5 -5.5q5 -15 5.5 -32t1.5 -34q4 -49 6.5 -98t3.5 -99zM194 754q-14 -10 -27 -19t-25 -20l-13 -13q-4 -4 -7 -6q-6 -5 -9 -4.5t-8 5.5l-13.5 13.5t-13.5 14.5q-8 9 0 19l16.5 16.5t17.5 16.5l48 45
q5 4 9.5 7t9.5 7l8 5q7 4 13 -3q25 -25 51 -48t54 -43q6 -3 10 -9q7 -7 0 -12q-9 -8 -18.5 -16.5t-18.5 -16.5q-7 -6 -13 0l-10 8l-47 44q-3 2 -6 4.5t-8 4.5z" />
    <glyph glyph-name="Udieresis" unicode="&#xdc;" horiz-adv-x="385" 
d="M365 393q1 -51 1.5 -101t-4.5 -101q-3 -23 -8 -46.5t-14 -45.5t-23 -40.5t-35 -31.5q-23 -15 -49.5 -21t-53.5 -6q-14 0 -29 6t-28.5 16t-25 21.5t-20.5 23.5q-9 13 -12.5 29t-6.5 30q-8 50 -11.5 100t-4.5 100q-2 71 3 142q2 26 2.5 52t1.5 52v41q-1 11 -3.5 24.5
t6.5 22.5q16 2 35 1.5t34 -5.5q3 -47 -2 -92t-7 -92q-2 -48 -1.5 -96t3.5 -96l4 -46l4 -46q2 -19 4.5 -39t11.5 -37q7 -16 20.5 -24.5t29.5 -11.5t32.5 0t30.5 11q12 7 20 19t12.5 26t6.5 28.5t2 27.5q1 28 0.5 55t-1.5 56q-2 60 -4.5 121t-4.5 121q-1 15 -1.5 30.5
t-2.5 30.5q-1 11 -4 27t2 27q8 5 20 6t20 2q10 2 14 2q2 0 10.5 -4.5t8.5 -5.5q5 -15 5.5 -32t1.5 -34q4 -49 6.5 -98t3.5 -99zM258 685q-11 -6 -25 -4t-21 13q-6 12 -1 22.5t15.5 15t22.5 1t19 -18.5q7 -19 -10 -29zM150 735q14 5 28 -7q5 -5 5.5 -12t-2.5 -14t-7.5 -13
t-8.5 -9q-20 -5 -29 1.5t-9.5 17t6 21.5t17.5 15z" />
    <glyph glyph-name="Yacute" unicode="&#xdd;" horiz-adv-x="406" 
d="M240 284v-22.5t0.5 -50.5t0.5 -64.5t-0.5 -64t-1.5 -50.5t-3 -23q-3 -5 -10.5 -3t-12.5 1q-6 0 -12.5 -2.5t-13.5 -0.5q-3 3 -4 20.5t-1 39t0.5 42.5t0.5 31q0 9 -1 28.5t-2 42t-2 42.5t-2 29q-2 14 -6 28t-11 27q-3 7 -13 32.5t-21 56t-22 60.5t-16 47q-5 15 -10.5 29.5
t-10.5 29.5q-4 8 -6.5 15.5t-4.5 15.5q-3 8 -7 15.5t-6 15.5q-1 5 10 10t25 7.5t26.5 2t15.5 -5.5q0 -2 6 -20.5t14.5 -45.5t18 -58.5t18.5 -58t15 -44.5t8 -19q1 2 7.5 19.5t15.5 43.5t18.5 56t17.5 56.5t13.5 45.5t5.5 24q5 8 14 7.5t17 -1.5t18 0t18 -3q4 -2 2 -13
t-6.5 -25t-9 -27t-5.5 -17q-2 -8 -9 -31.5t-16.5 -55.5t-19.5 -67t-19 -66t-15 -53.5t-6 -27.5zM252 779q3 -3 -1.5 -19.5t-11.5 -35t-14 -33.5t-9 -15q-29 -3 -47 8q-1 8 2.5 22.5t8.5 29t10 26.5t8 17q11 2 25.5 2t28.5 -2z" />
    <glyph glyph-name="Thorn" unicode="&#xde;" horiz-adv-x="351" 
d="M118 167v-14v-31t0.5 -38.5t0 -38.5t-1 -30.5t-1.5 -13.5q-6 -1 -14.5 -2.5t-17.5 -2.5t-17 0t-14 4q-2 1 -3 13t-1.5 29.5t-1 38.5t-0.5 39v30.5v14.5l-1 54q-2 52 -4 103.5t-4 103.5q-1 48 -0.5 95.5t5.5 95.5q2 21 3.5 42.5t1.5 42.5q0 19 -2 38.5t3 38.5q9 7 25 8.5
t27 -2.5q9 -3 12.5 -13t3.5 -22t-1.5 -23.5t-2.5 -18.5q-1 -4 -1 -19v-32v-30.5t-1 -13.5q21 5 43 5.5t42 -4.5t37 -17t29 -33q19 -33 22 -72.5t1 -77.5q-2 -20 -4.5 -40.5t-4.5 -40.5q-4 -26 -6.5 -53t-10.5 -52q-8 -22 -21 -38q-5 -5 -10 -9.5t-11 -8.5q-4 -2 -8 -2.5
t-6 -5.5q-21 -2 -43 -4t-42 7zM109 524q-6 -11 -6.5 -23.5t0.5 -24.5q1 -16 1 -31.5v-31.5q1 -29 2 -56.5t3 -56.5q1 -11 2 -22.5t6 -21.5q8 -12 15.5 -16t21.5 -6q42 -6 50 40q8 49 8 99t2 100q2 21 -2 42.5t-25 32.5q-20 11 -43 3.5t-35 -27.5z" />
    <glyph glyph-name="germandbls" unicode="&#xdf;" horiz-adv-x="438" 
d="M329 385q21 -21 35 -51q9 -19 16 -38.5t9 -40.5q2 -14 4.5 -28.5t2.5 -29.5q1 -37 -9 -69.5t-36 -60.5q-10 -11 -20.5 -20.5t-22.5 -17.5q-11 -10 -27 -15q-12 -4 -23.5 -8t-24.5 -6q-16 -4 -32 -3.5t-33 3.5q-8 2 -11 11q-4 7 -2 14q1 13 2 25.5t2 25.5q2 8 4.5 11
t10.5 1q11 -2 21 -2.5t20 -0.5q8 0 16 1.5t16 3.5q24 8 40 29q7 8 11 17.5t7 20.5q7 37 0 75q-2 12 -3.5 24.5t-3.5 23.5q-4 29 -18.5 50t-35.5 38q-5 3 -10 4.5t-10 3.5q-11 3 -22.5 5t-23.5 2q-12 -1 -16.5 3t-6.5 18q-1 10 0.5 20.5t3.5 20.5t8.5 16t20.5 3q24 -6 46 6
q20 10 27 35q2 6 2.5 12t1.5 12q2 14 -2 25.5t-9 22.5q-2 3 -3 6t-3 5q-3 8 -8 13q-12 12 -29 15.5t-33 -4.5q-17 -7 -29 -23q-6 -8 -9.5 -14.5t-6 -13.5t-4 -16t-1.5 -22q-2 -26 -4 -52.5t0 -52.5v-68v-16v-22t3 -22q2 -5 2 -9v-9q2 -34 2.5 -68t2.5 -69q2 -20 1 -41
t-1 -43v-22q0 -11 -5 -16q-1 -1 -3 -2t-3 -2l-58 -3q-2 0 -8 2q-3 5 -3.5 11t-0.5 12l-5 60q-1 7 -1.5 13.5t-0.5 14.5q0 36 -3 74q-2 20 -2 39.5t1 39.5l2 87l2 89v48.5t2 48.5q2 20 3.5 38.5t6.5 37.5q7 31 27 50t52 27q42 10 87 1q38 -7 66 -38q18 -22 29.5 -45.5
t15.5 -51.5q2 -6 3 -11.5t3 -10.5q6 -25 4 -52q-2 -36 -20 -63q-4 -5 -8.5 -9.5t-9.5 -10.5z" />
    <glyph glyph-name="agrave" unicode="&#xe0;" horiz-adv-x="333" 
d="M292 276q2 -24 0 -48t-2 -47v-105q0 -7 1 -18.5t0 -23t-5.5 -19.5t-14.5 -8t-21 -5t-19 -2q-7 2 -8.5 8.5t-3.5 14.5q-11 -8 -22 -13q-10 -5 -21 -8t-22 -1q-18 3 -35.5 12t-28.5 23q-7 7 -13 14.5t-12 15.5q-7 8 -10 20t-6 22q-12 40 -10 86q2 41 20 77.5t58 53.5
q14 6 30.5 9.5t33.5 -0.5q1 0 6.5 -1.5t12.5 -3t12.5 -2.5l5.5 -1q5 10 6.5 23.5t-1 26t-9.5 23t-19 15.5q-16 6 -24 0.5t-12.5 -16t-7.5 -23t-10 -19.5q-13 -2 -29.5 -1t-24.5 9q-7 25 3 51t29.5 45t45.5 28.5t52 2.5q31 -8 47 -30t22 -53q7 -32 9.5 -67t-4.5 -66zM176 76
q27 12 37.5 41.5t10.5 57.5q0 12 -1 27t-4.5 29t-11 25.5t-20.5 16.5q-14 0 -26 -3.5t-20 -8.5l-1 -1h-1l-1 -2l-2 -2l-2 -1q-8 -10 -13 -30t-6.5 -42.5t1.5 -45t10 -39t19.5 -23.5t30.5 1zM141 261q-1 0 -1 -1h-1l-1 -2l-4 -3q2 1 4 3zM191 628q7 0 11 -6.5t6 -15.5
t2.5 -17.5t0.5 -12.5q1 -8 3 -17t0 -17q-3 -13 -13.5 -13t-17.5 9q-8 10 -13 21.5t-11 22.5q-1 3 -4.5 7t-6.5 8.5t-4.5 9t0.5 7.5q8 8 22.5 10.5t24.5 3.5z" />
    <glyph glyph-name="aacute" unicode="&#xe1;" horiz-adv-x="342" 
d="M292 276q2 -24 0 -48t-2 -47v-105q0 -7 1 -18.5t0 -23t-5.5 -19.5t-14.5 -8t-21 -5t-19 -2q-7 2 -8.5 8.5t-3.5 14.5q-11 -8 -22 -13q-10 -5 -21 -8t-22 -1q-18 3 -35.5 12t-28.5 23q-7 7 -13 14.5t-12 15.5q-7 8 -10 20t-6 22q-12 40 -10 86q2 41 20 77.5t58 53.5
q14 6 30.5 9.5t33.5 -0.5q1 0 6.5 -1.5t12.5 -3t12.5 -2.5l5.5 -1q5 10 6.5 23.5t-1 26t-9.5 23t-19 15.5q-16 6 -24 0.5t-12.5 -16t-7.5 -23t-10 -19.5q-13 -2 -29.5 -1t-24.5 9q-7 25 3 51t29.5 45t45.5 28.5t52 2.5q31 -8 47 -30t22 -53q7 -32 9.5 -67t-4.5 -66zM176 76
q27 12 37.5 41.5t10.5 57.5q0 12 -1 27t-4.5 29t-11 25.5t-20.5 16.5q-14 0 -26 -3.5t-20 -8.5l-1 -1h-1l-1 -2l-2 -2l-2 -1q-8 -10 -13 -30t-6.5 -42.5t1.5 -45t10 -39t19.5 -23.5t30.5 1zM141 261q-1 0 -1 -1h-1l-1 -2l-4 -3q2 1 4 3zM254 632q3 -3 -1.5 -19.5t-11.5 -35
t-14 -33.5t-9 -15q-29 -3 -47 8q-1 8 2.5 22.5t8.5 29t10 26.5t8 17q11 2 25.5 2t28.5 -2z" />
    <glyph glyph-name="acircumflex" unicode="&#xe2;" horiz-adv-x="334" 
d="M292 276q2 -24 0 -48t-2 -47v-105q0 -7 1 -18.5t0 -23t-5.5 -19.5t-14.5 -8t-21 -5t-19 -2q-7 2 -8.5 8.5t-3.5 14.5q-11 -8 -22 -13q-10 -5 -21 -8t-22 -1q-18 3 -35.5 12t-28.5 23q-7 7 -13 14.5t-12 15.5q-7 8 -10 20t-6 22q-12 40 -10 86q2 41 20 77.5t58 53.5
q14 6 30.5 9.5t33.5 -0.5q1 0 6.5 -1.5t12.5 -3t12.5 -2.5l5.5 -1q5 10 6.5 23.5t-1 26t-9.5 23t-19 15.5q-16 6 -24 0.5t-12.5 -16t-7.5 -23t-10 -19.5q-13 -2 -29.5 -1t-24.5 9q-7 25 3 51t29.5 45t45.5 28.5t52 2.5q31 -8 47 -30t22 -53q7 -32 9.5 -67t-4.5 -66zM176 76
q27 12 37.5 41.5t10.5 57.5q0 12 -1 27t-4.5 29t-11 25.5t-20.5 16.5q-14 0 -26 -3.5t-20 -8.5l-1 -1h-1l-1 -2l-2 -2l-2 -1q-8 -10 -13 -30t-6.5 -42.5t1.5 -45t10 -39t19.5 -23.5t30.5 1zM141 261q-1 0 -1 -1h-1l-1 -2l-4 -3q2 1 4 3zM191 563q-14 -10 -27 -19t-25 -20
l-13 -13q-4 -4 -7 -6q-6 -5 -9 -4.5t-8 5.5l-13.5 13.5t-13.5 14.5q-8 9 0 19l16.5 16.5t17.5 16.5l48 45q5 4 9.5 7t9.5 7l8 5q7 4 13 -3q25 -25 51 -48t54 -43q6 -3 10 -9q7 -7 0 -12q-9 -8 -18.5 -16.5t-18.5 -16.5q-7 -6 -13 0l-10 8l-47 44q-3 2 -6 4.5t-8 4.5z" />
    <glyph glyph-name="atilde" unicode="&#xe3;" horiz-adv-x="341" 
d="M292 276q2 -24 0 -48t-2 -47v-105q0 -7 1 -18.5t0 -23t-5.5 -19.5t-14.5 -8t-21 -5t-19 -2q-7 2 -8.5 8.5t-3.5 14.5q-11 -8 -22 -13q-10 -5 -21 -8t-22 -1q-18 3 -35.5 12t-28.5 23q-7 7 -13 14.5t-12 15.5q-7 8 -10 20t-6 22q-12 40 -10 86q2 41 20 77.5t58 53.5
q14 6 30.5 9.5t33.5 -0.5q1 0 6.5 -1.5t12.5 -3t12.5 -2.5l5.5 -1q5 10 6.5 23.5t-1 26t-9.5 23t-19 15.5q-16 6 -24 0.5t-12.5 -16t-7.5 -23t-10 -19.5q-13 -2 -29.5 -1t-24.5 9q-7 25 3 51t29.5 45t45.5 28.5t52 2.5q31 -8 47 -30t22 -53q7 -32 9.5 -67t-4.5 -66zM176 76
q27 12 37.5 41.5t10.5 57.5q0 12 -1 27t-4.5 29t-11 25.5t-20.5 16.5q-14 0 -26 -3.5t-20 -8.5l-1 -1h-1l-1 -2l-2 -2l-2 -1q-8 -10 -13 -30t-6.5 -42.5t1.5 -45t10 -39t19.5 -23.5t30.5 1zM141 261q-1 0 -1 -1h-1l-1 -2l-4 -3q2 1 4 3zM293 574q-1 -5 -3 -8t-5 -7
q-8 -7 -15.5 -11.5t-16.5 -9.5q-14 -6 -28 -6q-11 1 -21 2.5t-19 5.5q-8 3 -15 6.5l-15 7.5q-4 2 -7.5 4.5t-7.5 5.5q-18 9 -42 3q-10 -3 -16 -10l-3 -3l-3 -3q-8 -8 -16 -1l-17 20q-2 4 -2 11.5t4 10.5q6 8 13 12q8 5 16.5 10.5t17.5 8.5q4 0 8 1t8 1q14 -1 27 -3.5
t26 -10.5q18 -12 41 -18q4 -2 12 -4q8 -1 14.5 0.5t12.5 8.5l16 15q5 4 12 0q1 0 1 -1q7 -7 13.5 -18.5t9.5 -19.5z" />
    <glyph glyph-name="adieresis" unicode="&#xe4;" horiz-adv-x="334" 
d="M292 276q2 -24 0 -48t-2 -47v-105q0 -7 1 -18.5t0 -23t-5.5 -19.5t-14.5 -8t-21 -5t-19 -2q-7 2 -8.5 8.5t-3.5 14.5q-11 -8 -22 -13q-10 -5 -21 -8t-22 -1q-18 3 -35.5 12t-28.5 23q-7 7 -13 14.5t-12 15.5q-7 8 -10 20t-6 22q-12 40 -10 86q2 41 20 77.5t58 53.5
q14 6 30.5 9.5t33.5 -0.5q1 0 6.5 -1.5t12.5 -3t12.5 -2.5l5.5 -1q5 10 6.5 23.5t-1 26t-9.5 23t-19 15.5q-16 6 -24 0.5t-12.5 -16t-7.5 -23t-10 -19.5q-13 -2 -29.5 -1t-24.5 9q-7 25 3 51t29.5 45t45.5 28.5t52 2.5q31 -8 47 -30t22 -53q7 -32 9.5 -67t-4.5 -66zM176 76
q27 12 37.5 41.5t10.5 57.5q0 12 -1 27t-4.5 29t-11 25.5t-20.5 16.5q-14 0 -26 -3.5t-20 -8.5l-1 -1h-1l-1 -2l-2 -2l-2 -1q-8 -10 -13 -30t-6.5 -42.5t1.5 -45t10 -39t19.5 -23.5t30.5 1zM141 261q-1 0 -1 -1h-1l-1 -2l-4 -3q2 1 4 3zM242 540q-11 -6 -25 -4t-21 13
q-6 12 -1 22.5t15.5 15t22.5 1t19 -18.5q7 -19 -10 -29zM134 590q14 5 28 -7q5 -5 5.5 -12t-2.5 -14t-7.5 -13t-8.5 -9q-20 -5 -29 1.5t-9.5 17t6 21.5t17.5 15z" />
    <glyph glyph-name="aring" unicode="&#xe5;" horiz-adv-x="341" 
d="M292 276q2 -24 0 -48t-2 -47v-105q0 -7 1 -18.5t0 -23t-5.5 -19.5t-14.5 -8t-21 -5t-19 -2q-7 2 -8.5 8.5t-3.5 14.5q-11 -8 -22 -13q-10 -5 -21 -8t-22 -1q-18 3 -35.5 12t-28.5 23q-7 7 -13 14.5t-12 15.5q-7 8 -10 20t-6 22q-12 40 -10 86q2 41 20 77.5t58 53.5
q14 6 30.5 9.5t33.5 -0.5q1 0 6.5 -1.5t12.5 -3t12.5 -2.5l5.5 -1q5 10 6.5 23.5t-1 26t-9.5 23t-19 15.5q-16 6 -24 0.5t-12.5 -16t-7.5 -23t-10 -19.5q-13 -2 -29.5 -1t-24.5 9q-7 25 3 51t29.5 45t45.5 28.5t52 2.5q31 -8 47 -30t22 -53q7 -32 9.5 -67t-4.5 -66zM176 76
q27 12 37.5 41.5t10.5 57.5q0 12 -1 27t-4.5 29t-11 25.5t-20.5 16.5q-14 0 -26 -3.5t-20 -8.5l-1 -1h-1l-1 -2l-2 -2l-2 -1q-8 -10 -13 -30t-6.5 -42.5t1.5 -45t10 -39t19.5 -23.5t30.5 1zM141 261q-1 0 -1 -1h-1l-1 -2l-4 -3q2 1 4 3zM259 599q2 -33 -20 -61
q-11 -17 -31 -25.5t-40 -3.5q-25 5 -39.5 20t-22.5 38q-6 14 -4 30l4 24q4 22 17 34.5t32 19.5q26 8 52.5 -1t42.5 -37q5 -8 7 -17.5t2 -20.5zM180 573q5 0 13 5q12 7 9 19q-2 5 -9.5 12t-12.5 7q-3 0 -4 -1q-3 -2 -6.5 -3t-5.5 -4q-8 -6 -7 -16q2 -6 3 -10q6 -10 20 -9z
" />
    <glyph glyph-name="ae" unicode="&#xe6;" horiz-adv-x="539" 
d="M302 478q3 2 6 3.5t6 2.5q26 7 50.5 7t48.5 -12q17 -9 28 -23q14 -18 22 -37t13 -41q2 -14 4.5 -26.5t5.5 -26.5q0 -4 2 -6q6 -17 4.5 -32.5t-4.5 -32.5q-2 -11 -7 -14.5t-16 -4.5q-5 0 -9.5 0.5t-9.5 1.5l-43 3q-8 1 -15.5 1.5t-15.5 0.5h-7l-50 -5q-4 -8 -4.5 -15
t-0.5 -15l4 -39q0 -11 1 -22.5t4 -22.5q1 -10 8 -20q5 -8 12.5 -13.5t16.5 -10.5q18 -7 35 -3q20 6 28 27q7 21 9 45l2 13q2 12 12 10q11 -2 22 -4.5t22 -4.5q5 -2 6.5 -5.5t2.5 -7.5q5 -19 0 -37l-9 -39l-5 -11q-8 -21 -22 -34.5t-36 -21.5q-11 -5 -23.5 -6.5t-26.5 -2.5
q-11 -1 -22 3.5t-21 11.5q-4 3 -6.5 6t-7.5 7q-1 -8 -1 -14t-2 -12q-1 -10 -10 -10q-17 -2 -33 0q-5 0 -9.5 1t-9.5 1q-14 -2 -17 12l-2 4q-5 1 -13 -3q-56 -25 -105 8q-25 16 -40 38.5t-23 50.5q-8 23 -8.5 46t1.5 46q3 30 12 58q4 11 10 21t11 21q4 9 9.5 15.5t13.5 12.5
q16 15 35 22.5t40 10.5q7 1 14.5 0t14.5 -3q4 -1 7 -2l6 -2q4 2 4 3.5v3.5l-3 44q0 7 -7 11q-9 6 -19 6q-13 0 -26 -10.5t-17 -22.5v-5q-7 -19 -25 -15q-9 2 -18 5t-17 6q-7 3 -7 12q1 8 2.5 14.5t5.5 13.5q3 8 6.5 14.5t7.5 14.5q2 3 4.5 6t6.5 6l24 22q12 11 26.5 14.5
t30.5 2.5q22 -1 42 -7.5t38 -22.5zM229 166q-1 7 -1 14v14q0 10 -0.5 19t-0.5 19q-2 21 -20 29q-7 3 -13.5 5.5t-13.5 4.5q-9 3 -16.5 1.5t-15.5 -6.5q-17 -7 -24 -27q-6 -11 -9 -25q-15 -46 5 -91q14 -30 43 -42q31 -14 58 6q9 8 9 22l-3 57h2zM419 326q0 3 0.5 4.5
t-0.5 3.5q-2 15 -7.5 29.5t-11.5 29.5q-5 10 -16 16q-24 14 -49 4q-31 -11 -28 -40q1 -8 1 -16.5v-17.5l2 -11q4 -2 6 -2h103z" />
    <glyph glyph-name="ccedilla" unicode="&#xe7;" horiz-adv-x="315" 
d="M188 403q-21 10 -35.5 -2.5t-23.5 -34t-13.5 -45.5t-6.5 -36q-6 -37 -10.5 -75.5t5.5 -75.5q5 -19 15 -36t29 -26q20 -10 34.5 -2t25.5 25q11 15 22 8.5t20 -17.5q26 -29 -3 -56q-28 -26 -67 -29.5t-72 14.5q-20 10 -32 25t-19 32.5t-9.5 37t-3.5 39.5q-2 42 -2.5 84
t4.5 84q3 24 10.5 51.5t20.5 51t33 40t49 19.5q32 3 62 -11l15 -7.5t17.5 -10.5t14 -13.5t4.5 -14.5q-2 -12 -17 -24t-23 -20q-4 -4 -10 -1t-12 8t-12 10.5t-10 7.5zM230 -50q10 -20 -3 -39q-5 -7 -10.5 -13t-13.5 -11t-15.5 -9t-15.5 -6q-30 -10 -64 -12h-9q-8 2 -9 7
q-2 4 -2 12q-3 18 -9 35q-2 8 2 13t12 4l24 -2h16q11 3 14 11q4 9 -5 14l-15 5l-12 4q-4 13 -2.5 25.5t-3.5 24.5q-7 1 7.5 3.5t33.5 3.5t33.5 0.5t7.5 -4.5q0 -6 -1 -9q-1 -8 1.5 -14.5t11.5 -11.5q8 -6 17 -16q3 -3 5.5 -7t4.5 -8z" />
    <glyph glyph-name="egrave" unicode="&#xe8;" horiz-adv-x="332" 
d="M241 158q7 0 18.5 -3t21.5 -7.5t17.5 -11t7.5 -13.5q0 -29 -12 -51.5t-31.5 -38.5t-44 -24.5t-48.5 -8.5q-45 0 -70.5 28.5t-38.5 69.5t-16.5 86t-3.5 78q0 34 7 73t23.5 72t44.5 54.5t70 21.5q34 0 54 -14t30.5 -35t14 -46t5.5 -46q2 -19 3.5 -38t1.5 -38v-25
q-1 -5 -17 -6.5t-31 -1.5h-22q-23 -1 -45.5 -5t-44.5 -4h-8q-11 0 -11 -5q0 -6 -0.5 -29t4 -48.5t16.5 -45.5t37 -20q19 0 29.5 8.5t16.5 20.5t8 26.5t5 26.5h9zM184 411q-20 0 -32.5 -12t-19.5 -29t-10 -35.5t-4 -32.5q21 -3 46 -3q38 0 68 6q0 3 0.5 6.5t0.5 6.5
q0 9 -1.5 17t-3.5 16q-2 10 -5.5 20.5t-9 19.5t-12.5 14.5t-17 5.5zM179 606q7 0 11 -6.5t6 -15.5t2.5 -17.5t0.5 -12.5q1 -8 3 -17t0 -17q-3 -13 -13.5 -13t-17.5 9q-8 10 -13 21.5t-11 22.5q-1 3 -4.5 7t-6.5 8.5t-4.5 9t0.5 7.5q8 8 22.5 10.5t24.5 3.5z" />
    <glyph glyph-name="eacute" unicode="&#xe9;" horiz-adv-x="342" 
d="M241 158q7 0 18.5 -3t21.5 -7.5t17.5 -11t7.5 -13.5q0 -29 -12 -51.5t-31.5 -38.5t-44 -24.5t-48.5 -8.5q-45 0 -70.5 28.5t-38.5 69.5t-16.5 86t-3.5 78q0 34 7 73t23.5 72t44.5 54.5t70 21.5q34 0 54 -14t30.5 -35t14 -46t5.5 -46q2 -19 3.5 -38t1.5 -38v-25
q-1 -5 -17 -6.5t-31 -1.5h-22q-23 -1 -45.5 -5t-44.5 -4h-8q-11 0 -11 -5q0 -6 -0.5 -29t4 -48.5t16.5 -45.5t37 -20q19 0 29.5 8.5t16.5 20.5t8 26.5t5 26.5h9zM184 411q-20 0 -32.5 -12t-19.5 -29t-10 -35.5t-4 -32.5q21 -3 46 -3q38 0 68 6q0 3 0.5 6.5t0.5 6.5
q0 9 -1.5 17t-3.5 16q-2 10 -5.5 20.5t-9 19.5t-12.5 14.5t-17 5.5zM241 628q3 -3 -1.5 -19.5t-11.5 -35t-14 -33.5t-9 -15q-29 -3 -47 8q-1 8 2.5 22.5t8.5 29t10 26.5t8 17q11 2 25.5 2t28.5 -2z" />
    <glyph glyph-name="ecircumflex" unicode="&#xea;" horiz-adv-x="338" 
d="M241 158q7 0 18.5 -3t21.5 -7.5t17.5 -11t7.5 -13.5q0 -29 -12 -51.5t-31.5 -38.5t-44 -24.5t-48.5 -8.5q-45 0 -70.5 28.5t-38.5 69.5t-16.5 86t-3.5 78q0 34 7 73t23.5 72t44.5 54.5t70 21.5q34 0 54 -14t30.5 -35t14 -46t5.5 -46q2 -19 3.5 -38t1.5 -38v-25
q-1 -5 -17 -6.5t-31 -1.5h-22q-23 -1 -45.5 -5t-44.5 -4h-8q-11 0 -11 -5q0 -6 -0.5 -29t4 -48.5t16.5 -45.5t37 -20q19 0 29.5 8.5t16.5 20.5t8 26.5t5 26.5h9zM184 411q-20 0 -32.5 -12t-19.5 -29t-10 -35.5t-4 -32.5q21 -3 46 -3q38 0 68 6q0 3 0.5 6.5t0.5 6.5
q0 9 -1.5 17t-3.5 16q-2 10 -5.5 20.5t-9 19.5t-12.5 14.5t-17 5.5zM183 551q-14 -10 -27 -19t-25 -20l-13 -13q-4 -4 -7 -6q-6 -5 -9 -4.5t-8 5.5l-13.5 13.5t-13.5 14.5q-8 9 0 19l16.5 16.5t17.5 16.5l48 45q5 4 9.5 7t9.5 7l8 5q7 4 13 -3q25 -25 51 -48t54 -43
q6 -3 10 -9q7 -7 0 -12q-9 -8 -18.5 -16.5t-18.5 -16.5q-7 -6 -13 0l-10 8l-47 44q-3 2 -6 4.5t-8 4.5z" />
    <glyph glyph-name="edieresis" unicode="&#xeb;" horiz-adv-x="349" 
d="M241 158q7 0 18.5 -3t21.5 -7.5t17.5 -11t7.5 -13.5q0 -29 -12 -51.5t-31.5 -38.5t-44 -24.5t-48.5 -8.5q-45 0 -70.5 28.5t-38.5 69.5t-16.5 86t-3.5 78q0 34 7 73t23.5 72t44.5 54.5t70 21.5q34 0 54 -14t30.5 -35t14 -46t5.5 -46q2 -19 3.5 -38t1.5 -38v-25
q-1 -5 -17 -6.5t-31 -1.5h-22q-23 -1 -45.5 -5t-44.5 -4h-8q-11 0 -11 -5q0 -6 -0.5 -29t4 -48.5t16.5 -45.5t37 -20q19 0 29.5 8.5t16.5 20.5t8 26.5t5 26.5h9zM184 411q-20 0 -32.5 -12t-19.5 -29t-10 -35.5t-4 -32.5q21 -3 46 -3q38 0 68 6q0 3 0.5 6.5t0.5 6.5
q0 9 -1.5 17t-3.5 16q-2 10 -5.5 20.5t-9 19.5t-12.5 14.5t-17 5.5zM254 517q-11 -6 -25 -4t-21 13q-6 12 -1 22.5t15.5 15t22.5 1t19 -18.5q7 -19 -10 -29zM146 567q14 5 28 -7q5 -5 5.5 -12t-2.5 -14t-7.5 -13t-8.5 -9q-20 -5 -29 1.5t-9.5 17t6 21.5t17.5 15z" />
    <glyph glyph-name="igrave" unicode="&#xec;" horiz-adv-x="171" 
d="M118 473q2 -14 1 -28.5t-1 -28.5q-2 -35 -4.5 -70t-4.5 -70q-2 -48 -1.5 -95.5t-0.5 -95.5q-1 -14 -0.5 -26.5t2.5 -26.5q0 -6 1 -17.5t-9 -13.5q-9 -2 -17.5 -1.5t-17.5 1.5q-5 0 -12.5 2.5t-9.5 2.5t-2.5 -0.5t-1.5 -0.5q-6 19 -4 42t2 43v76t1 76q1 29 1.5 59t-0.5 60
l-2 62q0 12 -1 26t2 25q4 0 16.5 2t26 3t24 0t12.5 -6zM83 610q7 0 11 -6.5t6 -15.5t2.5 -17.5t0.5 -12.5q1 -8 3 -17t0 -17q-3 -13 -13.5 -13t-17.5 9q-8 10 -13 21.5t-11 22.5q-1 3 -4.5 7t-6.5 8.5t-4.5 9t0.5 7.5q8 8 22.5 10.5t24.5 3.5z" />
    <glyph glyph-name="iacute" unicode="&#xed;" horiz-adv-x="171" 
d="M124 473q2 -14 1 -28.5t-1 -28.5q-2 -35 -4.5 -70t-4.5 -70q-2 -48 -1.5 -95.5t-0.5 -95.5q-1 -14 -0.5 -26.5t2.5 -26.5q0 -6 1 -17.5t-9 -13.5q-9 -2 -17.5 -1.5t-17.5 1.5q-5 0 -12.5 2.5t-9.5 2.5t-2.5 -0.5t-1.5 -0.5q-6 19 -4 42t2 43v76t1 76q1 29 1.5 59t-0.5 60
l-2 62q0 12 -1 26t2 25q4 0 16.5 2t26 3t24 0t12.5 -6zM148 610q3 -3 -1.5 -19.5t-11.5 -35t-14 -33.5t-9 -15q-29 -3 -47 8q-1 8 2.5 22.5t8.5 29t10 26.5t8 17q11 2 25.5 2t28.5 -2z" />
    <glyph glyph-name="icircumflex" unicode="&#xee;" horiz-adv-x="168" 
d="M131 473q2 -14 1 -28.5t-1 -28.5q-2 -35 -4.5 -70t-4.5 -70q-2 -48 -1.5 -95.5t-0.5 -95.5q-1 -14 -0.5 -26.5t2.5 -26.5q0 -6 1 -17.5t-9 -13.5q-9 -2 -17.5 -1.5t-17.5 1.5q-5 0 -12.5 2.5t-9.5 2.5t-2.5 -0.5t-1.5 -0.5q-6 19 -4 42t2 43v76t1 76q1 29 1.5 59t-0.5 60
l-2 62q0 12 -1 26t2 25q4 0 16.5 2t26 3t24 0t12.5 -6zM90 550q-14 -10 -27 -19t-25 -20l-13 -13q-4 -4 -7 -6q-6 -5 -9 -4.5t-8 5.5l-13.5 13.5t-13.5 14.5q-8 9 0 19l16.5 16.5t17.5 16.5l48 45q5 4 9.5 7t9.5 7l8 5q7 4 13 -3q25 -25 51 -48t54 -43q6 -3 10 -9
q7 -7 0 -12q-9 -8 -18.5 -16.5t-18.5 -16.5q-7 -6 -13 0l-10 8l-47 44q-3 2 -6 4.5t-8 4.5z" />
    <glyph glyph-name="idieresis" unicode="&#xef;" horiz-adv-x="168" 
d="M115 473q2 -14 1 -28.5t-1 -28.5q-2 -35 -4.5 -70t-4.5 -70q-2 -48 -1.5 -95.5t-0.5 -95.5q-1 -14 -0.5 -26.5t2.5 -26.5q0 -6 1 -17.5t-9 -13.5q-9 -2 -17.5 -1.5t-17.5 1.5q-5 0 -12.5 2.5t-9.5 2.5t-2.5 -0.5t-1.5 -0.5q-6 19 -4 42t2 43v76t1 76q1 29 1.5 59t-0.5 60
l-2 62q0 12 -1 26t2 25q4 0 16.5 2t26 3t24 0t12.5 -6zM140 532q-11 -6 -25 -4t-21 13q-6 12 -1 22.5t15.5 15t22.5 1t19 -18.5q7 -19 -10 -29zM32 582q14 5 28 -7q5 -5 5.5 -12t-2.5 -14t-7.5 -13t-8.5 -9q-20 -5 -29 1.5t-9.5 17t6 21.5t17.5 15z" />
    <glyph glyph-name="eth" unicode="&#xf0;" horiz-adv-x="364" 
d="M42 501q4 56 29 94.5t73 51.5q-3 15 -2 36t6 37q6 4 11.5 2t11.5 -2t9 2.5t8 2.5q8 1 15 -4t9 -10q4 -6 4.5 -13.5t0 -16t-1 -16.5t1.5 -14q1 -2 11 -4.5t13 -4.5q5 -2 9 -5.5t9 -8.5q12 -11 21 -22.5t14 -26.5q8 -29 15.5 -60.5t9.5 -67.5q1 -35 2.5 -72t-0.5 -75
q-2 -32 -2.5 -68t-5.5 -72t-17 -69t-35 -58q-10 -11 -24.5 -21.5t-29.5 -15.5q-33 -11 -66 1t-55 40q-28 35 -36.5 80.5t-8.5 89.5q0 24 2 51t8.5 54t18.5 51t31 41q6 5 13.5 10t14.5 7q11 4 25 7.5t28.5 5t29 0t27.5 -6.5q3 26 0.5 53t-9.5 51q-2 5 -3.5 9t-4.5 7
q-1 -17 1 -34t-6 -31q-14 -7 -34.5 -6t-38.5 6q-2 18 1.5 33.5t-1.5 31.5q-5 -3 -9.5 -5t-6.5 -8q-4 -9 -2 -19.5t-2 -17.5q-3 -7 -7.5 -6.5l-13.5 1.5q-8 0 -16.5 0.5t-16.5 0.5q-9 -1 -16 -2.5t-12 6.5zM232 327q-5 9 -15 16.5t-18 10.5q-9 3 -20 3t-21.5 -3t-19 -9
t-12.5 -15l-6 -16t-5 -18q-8 -34 -6.5 -74t10.5 -75q4 -17 11.5 -35t21.5 -31q10 -9 19.5 -9t18.5 6t16 15.5t12 18.5q13 23 18.5 51t7.5 54q3 29 1 56.5t-13 53.5z" />
    <glyph glyph-name="ntilde" unicode="&#xf1;" horiz-adv-x="330" 
d="M131 447q27 17 58 18t57 -19q12 -11 18 -22.5t8 -26.5q3 -19 7 -37t6 -38q3 -40 3.5 -80t2.5 -80q2 -20 1.5 -40t-2.5 -40q-2 -18 -1 -37t-2 -37q-6 -2 -13.5 -1.5t-14.5 1.5q-6 2 -13 1t-13 1q-8 5 -7.5 14.5t1.5 16.5q0 28 3 55q2 27 2.5 53.5t1.5 53.5v54.5t-5 53.5
q-2 10 -2.5 23t-3 25t-9 22t-18.5 13q-12 4 -21.5 1t-17.5 -9.5t-14.5 -15t-13.5 -16.5q-8 -9 -9 -23t-2 -26l-4 -59q-2 -29 -4 -58.5t-3 -58.5q0 -33 1 -65t-3 -64q-15 2 -32 0.5t-28 5.5q-5 29 -3 57t4 57q2 26 2 52.5t1 53.5q1 60 4.5 119t4.5 119q7 9 21.5 10.5
t24.5 4.5q17 5 22 -6.5t5 -25.5zM292 542q-1 -5 -3 -8t-5 -7q-8 -7 -15.5 -11.5t-16.5 -9.5q-14 -6 -28 -6q-11 1 -21 2.5t-19 5.5q-8 3 -15 6.5l-15 7.5q-4 2 -7.5 4.5t-7.5 5.5q-18 9 -42 3q-10 -3 -16 -10l-3 -3l-3 -3q-8 -8 -16 -1l-17 20q-2 4 -2 11.5t4 10.5
q6 8 13 12q8 5 16.5 10.5t17.5 8.5q4 0 8 1t8 1q14 -1 27 -3.5t26 -10.5q18 -12 41 -18q4 -2 12 -4q8 -1 14.5 0.5t12.5 8.5l16 15q5 4 12 0q1 0 1 -1q7 -7 13.5 -18.5t9.5 -19.5z" />
    <glyph glyph-name="ograve" unicode="&#xf2;" horiz-adv-x="346" 
d="M301 111q-5 -20 -12.5 -38.5t-20.5 -35.5q-5 -8 -11 -14t-15 -11q-4 -1 -13.5 -5.5t-9.5 0.5q-9 -7 -24.5 -7t-26.5 3l-23 4q-7 1 -11 4t-10 6q-36 15 -53 45.5t-22 67.5q-5 35 -6.5 72t1.5 73.5t13 71.5t30 66q20 29 51.5 39t64.5 -3q30 -11 49 -30.5t32 -48.5
q14 -31 20.5 -65t8.5 -68q2 -18 2.5 -36t-0.5 -35q-1 -8 -3 -14t-4 -13q-2 -8 -2 -14.5t-5 -13.5zM146 378q-9 -9 -14 -21t-8 -23q-3 -14 -7 -27.5t-7 -26.5q-3 -15 -5 -32t0 -32q3 -14 2.5 -28.5t1.5 -28.5q2 -18 7.5 -43.5t20.5 -39.5q6 -5 15.5 -9t20 -5.5t21 0t16.5 7.5
q8 7 12.5 19t6 24.5t2 25.5t0.5 23q1 54 0 107q-2 14 -3 27.5t-5 26.5q-4 12 -3.5 22t-6.5 21q-5 10 -10.5 17t-18.5 9q-12 2 -20.5 -1.5t-17.5 -11.5zM165 591q7 0 11 -6.5t6 -15.5t2.5 -17.5t0.5 -12.5q1 -8 3 -17t0 -17q-3 -13 -13.5 -13t-17.5 9q-8 10 -13 21.5
t-11 22.5q-1 3 -4.5 7t-6.5 8.5t-4.5 9t0.5 7.5q8 8 22.5 10.5t24.5 3.5z" />
    <glyph glyph-name="oacute" unicode="&#xf3;" horiz-adv-x="352" 
d="M301 111q-5 -20 -12.5 -38.5t-20.5 -35.5q-5 -8 -11 -14t-15 -11q-4 -1 -13.5 -5.5t-9.5 0.5q-9 -7 -24.5 -7t-26.5 3l-23 4q-7 1 -11 4t-10 6q-36 15 -53 45.5t-22 67.5q-5 35 -6.5 72t1.5 73.5t13 71.5t30 66q20 29 51.5 39t64.5 -3q30 -11 49 -30.5t32 -48.5
q14 -31 20.5 -65t8.5 -68q2 -18 2.5 -36t-0.5 -35q-1 -8 -3 -14t-4 -13q-2 -8 -2 -14.5t-5 -13.5zM146 378q-9 -9 -14 -21t-8 -23q-3 -14 -7 -27.5t-7 -26.5q-3 -15 -5 -32t0 -32q3 -14 2.5 -28.5t1.5 -28.5q2 -18 7.5 -43.5t20.5 -39.5q6 -5 15.5 -9t20 -5.5t21 0t16.5 7.5
q8 7 12.5 19t6 24.5t2 25.5t0.5 23q1 54 0 107q-2 14 -3 27.5t-5 26.5q-4 12 -3.5 22t-6.5 21q-5 10 -10.5 17t-18.5 9q-12 2 -20.5 -1.5t-17.5 -11.5zM226 594q3 -3 -1.5 -19.5t-11.5 -35t-14 -33.5t-9 -15q-29 -3 -47 8q-1 8 2.5 22.5t8.5 29t10 26.5t8 17q11 2 25.5 2
t28.5 -2z" />
    <glyph glyph-name="ocircumflex" unicode="&#xf4;" horiz-adv-x="354" 
d="M301 111q-5 -20 -12.5 -38.5t-20.5 -35.5q-5 -8 -11 -14t-15 -11q-4 -1 -13.5 -5.5t-9.5 0.5q-9 -7 -24.5 -7t-26.5 3l-23 4q-7 1 -11 4t-10 6q-36 15 -53 45.5t-22 67.5q-5 35 -6.5 72t1.5 73.5t13 71.5t30 66q20 29 51.5 39t64.5 -3q30 -11 49 -30.5t32 -48.5
q14 -31 20.5 -65t8.5 -68q2 -18 2.5 -36t-0.5 -35q-1 -8 -3 -14t-4 -13q-2 -8 -2 -14.5t-5 -13.5zM146 378q-9 -9 -14 -21t-8 -23q-3 -14 -7 -27.5t-7 -26.5q-3 -15 -5 -32t0 -32q3 -14 2.5 -28.5t1.5 -28.5q2 -18 7.5 -43.5t20.5 -39.5q6 -5 15.5 -9t20 -5.5t21 0t16.5 7.5
q8 7 12.5 19t6 24.5t2 25.5t0.5 23q1 54 0 107q-2 14 -3 27.5t-5 26.5q-4 12 -3.5 22t-6.5 21q-5 10 -10.5 17t-18.5 9q-12 2 -20.5 -1.5t-17.5 -11.5zM177 523q-14 -10 -27 -19t-25 -20l-13 -13q-4 -4 -7 -6q-6 -5 -9 -4.5t-8 5.5l-13.5 13.5t-13.5 14.5q-8 9 0 19
l16.5 16.5t17.5 16.5l48 45q5 4 9.5 7t9.5 7l8 5q7 4 13 -3q25 -25 51 -48t54 -43q6 -3 10 -9q7 -7 0 -12q-9 -8 -18.5 -16.5t-18.5 -16.5q-7 -6 -13 0l-10 8l-47 44q-3 2 -6 4.5t-8 4.5z" />
    <glyph glyph-name="otilde" unicode="&#xf5;" horiz-adv-x="349" 
d="M301 111q-5 -20 -12.5 -38.5t-20.5 -35.5q-5 -8 -11 -14t-15 -11q-4 -1 -13.5 -5.5t-9.5 0.5q-9 -7 -24.5 -7t-26.5 3l-23 4q-7 1 -11 4t-10 6q-36 15 -53 45.5t-22 67.5q-5 35 -6.5 72t1.5 73.5t13 71.5t30 66q20 29 51.5 39t64.5 -3q30 -11 49 -30.5t32 -48.5
q14 -31 20.5 -65t8.5 -68q2 -18 2.5 -36t-0.5 -35q-1 -8 -3 -14t-4 -13q-2 -8 -2 -14.5t-5 -13.5zM146 378q-9 -9 -14 -21t-8 -23q-3 -14 -7 -27.5t-7 -26.5q-3 -15 -5 -32t0 -32q3 -14 2.5 -28.5t1.5 -28.5q2 -18 7.5 -43.5t20.5 -39.5q6 -5 15.5 -9t20 -5.5t21 0t16.5 7.5
q8 7 12.5 19t6 24.5t2 25.5t0.5 23q1 54 0 107q-2 14 -3 27.5t-5 26.5q-4 12 -3.5 22t-6.5 21q-5 10 -10.5 17t-18.5 9q-12 2 -20.5 -1.5t-17.5 -11.5zM308 506q-1 -5 -3 -8t-5 -7q-8 -7 -15.5 -11.5t-16.5 -9.5q-14 -6 -28 -6q-11 1 -21 2.5t-19 5.5q-8 3 -15 6.5l-15 7.5
q-4 2 -7.5 4.5t-7.5 5.5q-18 9 -42 3q-10 -3 -16 -10l-3 -3l-3 -3q-8 -8 -16 -1l-17 20q-2 4 -2 11.5t4 10.5q6 8 13 12q8 5 16.5 10.5t17.5 8.5q4 0 8 1t8 1q14 -1 27 -3.5t26 -10.5q18 -12 41 -18q4 -2 12 -4q8 -1 14.5 0.5t12.5 8.5l16 15q5 4 12 0q1 0 1 -1
q7 -7 13.5 -18.5t9.5 -19.5z" />
    <glyph glyph-name="odieresis" unicode="&#xf6;" horiz-adv-x="357" 
d="M301 111q-5 -20 -12.5 -38.5t-20.5 -35.5q-5 -8 -11 -14t-15 -11q-4 -1 -13.5 -5.5t-9.5 0.5q-9 -7 -24.5 -7t-26.5 3l-23 4q-7 1 -11 4t-10 6q-36 15 -53 45.5t-22 67.5q-5 35 -6.5 72t1.5 73.5t13 71.5t30 66q20 29 51.5 39t64.5 -3q30 -11 49 -30.5t32 -48.5
q14 -31 20.5 -65t8.5 -68q2 -18 2.5 -36t-0.5 -35q-1 -8 -3 -14t-4 -13q-2 -8 -2 -14.5t-5 -13.5zM146 378q-9 -9 -14 -21t-8 -23q-3 -14 -7 -27.5t-7 -26.5q-3 -15 -5 -32t0 -32q3 -14 2.5 -28.5t1.5 -28.5q2 -18 7.5 -43.5t20.5 -39.5q6 -5 15.5 -9t20 -5.5t21 0t16.5 7.5
q8 7 12.5 19t6 24.5t2 25.5t0.5 23q1 54 0 107q-2 14 -3 27.5t-5 26.5q-4 12 -3.5 22t-6.5 21q-5 10 -10.5 17t-18.5 9q-12 2 -20.5 -1.5t-17.5 -11.5zM235 479q-11 -6 -25 -4t-21 13q-6 12 -1 22.5t15.5 15t22.5 1t19 -18.5q7 -19 -10 -29zM127 529q14 5 28 -7
q5 -5 5.5 -12t-2.5 -14t-7.5 -13t-8.5 -9q-20 -5 -29 1.5t-9.5 17t6 21.5t17.5 15z" />
    <glyph glyph-name="divide" unicode="&#xf7;" horiz-adv-x="158" 
d="M115 138q0 -2 -1 -5.5t-2 -4.5q-5 -11 -20 -14.5t-26 2.5q-12 7 -16 23t4 28q7 11 20.5 15t24.5 -7q5 -5 10.5 -16t4.5 -22q1 1 1 2v-1zM76 443q8 1 16.5 -4.5t11.5 -12.5q5 -10 2.5 -20.5t-10.5 -17.5q-2 -3 -7.5 -7t-10.5 -5q-16 -1 -28 11t-7 29q4 11 12.5 17.5
t19.5 9.5q1 0 1 -1v1zM76 443h-2h2zM181 325q7 0 12.5 -1t11.5 -3q3 0 8 -3q2 -1 2 -9q1 -14 1.5 -27.5t0.5 -26.5q0 -16 -6 -16h-9t-9 1q-1 0 -20 1.5t-43.5 3t-47 2.5t-31.5 2q-5 0 -17 0.5t-25 0.5h-24.5h-16.5q-7 0 -11 -2q-3 -1 -6 0l-6 2q-4 0 -4 13q1 13 0.5 25
t-0.5 26q0 11 4 12q1 1 5 1l57 -2h174z" />
    <glyph glyph-name="oslash" unicode="&#xf8;" horiz-adv-x="357" 
d="M301 111q-5 -20 -12.5 -38.5t-20.5 -35.5q-5 -8 -11 -14t-15 -11q-4 -1 -13.5 -5.5t-9.5 0.5q-9 -7 -24.5 -7t-26.5 3l-23 4q-7 1 -11 4t-10 6q-36 15 -53 45.5t-22 67.5q-5 35 -6.5 72t1.5 73.5t13 71.5t30 66q20 29 51.5 39t64.5 -3q30 -11 49 -30.5t32 -48.5
q14 -31 20.5 -65t8.5 -68q2 -18 2.5 -36t-0.5 -35q-1 -8 -3 -14t-4 -13q-2 -8 -2 -14.5t-5 -13.5zM146 378q-9 -9 -14 -21t-8 -23q-3 -14 -7 -27.5t-7 -26.5q-3 -15 -5 -32t0 -32q3 -14 2.5 -28.5t1.5 -28.5q2 -18 7.5 -43.5t20.5 -39.5q6 -5 15.5 -9t20 -5.5t21 0t16.5 7.5
q8 7 12.5 19t6 24.5t2 25.5t0.5 23q1 54 0 107q-2 14 -3 27.5t-5 26.5q-4 12 -3.5 22t-6.5 21q-5 10 -10.5 17t-18.5 9q-12 2 -20.5 -1.5t-17.5 -11.5zM107 -125h-7.5t-12 -0.5t-13.5 -1.5t-10 -3q0 2 -5 7q0 5 7 37t18.5 81.5t27 110.5t31 124.5t31 124t28 107.5t21 76
t9.5 30q7 5 20 3q12 -2 22 -8.5t3 -29.5q0 -1 -1 -5t0 -5q-1 -4 -8 -33.5t-18.5 -75.5t-26.5 -104t-30 -117.5t-30 -116.5t-27 -101.5t-20 -71.5t-9 -28z" />
    <glyph glyph-name="ugrave" unicode="&#xf9;" horiz-adv-x="370" 
d="M331 246q-1 -56 4 -110.5t7 -111.5q-2 -1 -2 -2t-2 -4q-10 -7 -23 -6t-24 0q-14 -1 -17 6t-8 17q1 -2 -4.5 -7t-6.5 -6q-11 -9 -21 -13q-7 -3 -15.5 -4.5t-16.5 -2.5q-15 -5 -32 -3q-30 3 -60 19q-11 6 -20.5 16t-16.5 21q-8 12 -12 24.5t-9 25.5q-4 11 -6 37t-3.5 59
t-2 69.5t0 68t0.5 54v28.5q0 16 0.5 30.5t2.5 30.5q7 3 17 4.5t21 1.5t21.5 -1.5t18.5 -4.5q2 -1 2 -10v-11t-1 -20t-2.5 -44.5t-3 -57t-2.5 -58t-2 -48t-1 -25.5q1 -20 0 -41.5t8 -41.5q2 -5 4.5 -10.5t6.5 -9.5q3 -3 11.5 -7.5t20.5 -7.5t27 -2t32 9q8 4 13.5 11.5
t7.5 15.5q6 14 8.5 29.5t3.5 30.5q2 36 1 71.5t-2 70.5t-2.5 70t-6.5 70q-3 20 24 22q8 0 15 1t15 2h15t17 -1q2 -2 2 -17v-35t-0.5 -40.5t0.5 -33.5q1 -29 0 -58.5t-2 -59.5zM194 602q7 0 11 -6.5t6 -15.5t2.5 -17.5t0.5 -12.5q1 -8 3 -17t0 -17q-3 -13 -13.5 -13t-17.5 9
q-8 10 -13 21.5t-11 22.5q-1 3 -4.5 7t-6.5 8.5t-4.5 9t0.5 7.5q8 8 22.5 10.5t24.5 3.5z" />
    <glyph glyph-name="uacute" unicode="&#xfa;" horiz-adv-x="385" 
d="M331 246q-1 -56 4 -110.5t7 -111.5q-2 -1 -2 -2t-2 -4q-10 -7 -23 -6t-24 0q-14 -1 -17 6t-8 17q1 -2 -4.5 -7t-6.5 -6q-11 -9 -21 -13q-7 -3 -15.5 -4.5t-16.5 -2.5q-15 -5 -32 -3q-30 3 -60 19q-11 6 -20.5 16t-16.5 21q-8 12 -12 24.5t-9 25.5q-4 11 -6 37t-3.5 59
t-2 69.5t0 68t0.5 54v28.5q0 16 0.5 30.5t2.5 30.5q7 3 17 4.5t21 1.5t21.5 -1.5t18.5 -4.5q2 -1 2 -10v-11t-1 -20t-2.5 -44.5t-3 -57t-2.5 -58t-2 -48t-1 -25.5q1 -20 0 -41.5t8 -41.5q2 -5 4.5 -10.5t6.5 -9.5q3 -3 11.5 -7.5t20.5 -7.5t27 -2t32 9q8 4 13.5 11.5
t7.5 15.5q6 14 8.5 29.5t3.5 30.5q2 36 1 71.5t-2 70.5t-2.5 70t-6.5 70q-3 20 24 22q8 0 15 1t15 2h15t17 -1q2 -2 2 -17v-35t-0.5 -40.5t0.5 -33.5q1 -29 0 -58.5t-2 -59.5zM234 618q3 -3 -1.5 -19.5t-11.5 -35t-14 -33.5t-9 -15q-29 -3 -47 8q-1 8 2.5 22.5t8.5 29
t10 26.5t8 17q11 2 25.5 2t28.5 -2z" />
    <glyph glyph-name="ucircumflex" unicode="&#xfb;" horiz-adv-x="365" 
d="M331 246q-1 -56 4 -110.5t7 -111.5q-2 -1 -2 -2t-2 -4q-10 -7 -23 -6t-24 0q-14 -1 -17 6t-8 17q1 -2 -4.5 -7t-6.5 -6q-11 -9 -21 -13q-7 -3 -15.5 -4.5t-16.5 -2.5q-15 -5 -32 -3q-30 3 -60 19q-11 6 -20.5 16t-16.5 21q-8 12 -12 24.5t-9 25.5q-4 11 -6 37t-3.5 59
t-2 69.5t0 68t0.5 54v28.5q0 16 0.5 30.5t2.5 30.5q7 3 17 4.5t21 1.5t21.5 -1.5t18.5 -4.5q2 -1 2 -10v-11t-1 -20t-2.5 -44.5t-3 -57t-2.5 -58t-2 -48t-1 -25.5q1 -20 0 -41.5t8 -41.5q2 -5 4.5 -10.5t6.5 -9.5q3 -3 11.5 -7.5t20.5 -7.5t27 -2t32 9q8 4 13.5 11.5
t7.5 15.5q6 14 8.5 29.5t3.5 30.5q2 36 1 71.5t-2 70.5t-2.5 70t-6.5 70q-3 20 24 22q8 0 15 1t15 2h15t17 -1q2 -2 2 -17v-35t-0.5 -40.5t0.5 -33.5q1 -29 0 -58.5t-2 -59.5zM185 564q-14 -10 -27 -19t-25 -20l-13 -13q-4 -4 -7 -6q-6 -5 -9 -4.5t-8 5.5l-13.5 13.5
t-13.5 14.5q-8 9 0 19l16.5 16.5t17.5 16.5l48 45q5 4 9.5 7t9.5 7l8 5q7 4 13 -3q25 -25 51 -48t54 -43q6 -3 10 -9q7 -7 0 -12q-9 -8 -18.5 -16.5t-18.5 -16.5q-7 -6 -13 0l-10 8l-47 44q-3 2 -6 4.5t-8 4.5z" />
    <glyph glyph-name="udieresis" unicode="&#xfc;" horiz-adv-x="385" 
d="M331 246q-1 -56 4 -110.5t7 -111.5q-2 -1 -2 -2t-2 -4q-10 -7 -23 -6t-24 0q-14 -1 -17 6t-8 17q1 -2 -4.5 -7t-6.5 -6q-11 -9 -21 -13q-7 -3 -15.5 -4.5t-16.5 -2.5q-15 -5 -32 -3q-30 3 -60 19q-11 6 -20.5 16t-16.5 21q-8 12 -12 24.5t-9 25.5q-4 11 -6 37t-3.5 59
t-2 69.5t0 68t0.5 54v28.5q0 16 0.5 30.5t2.5 30.5q7 3 17 4.5t21 1.5t21.5 -1.5t18.5 -4.5q2 -1 2 -10v-11t-1 -20t-2.5 -44.5t-3 -57t-2.5 -58t-2 -48t-1 -25.5q1 -20 0 -41.5t8 -41.5q2 -5 4.5 -10.5t6.5 -9.5q3 -3 11.5 -7.5t20.5 -7.5t27 -2t32 9q8 4 13.5 11.5
t7.5 15.5q6 14 8.5 29.5t3.5 30.5q2 36 1 71.5t-2 70.5t-2.5 70t-6.5 70q-3 20 24 22q8 0 15 1t15 2h15t17 -1q2 -2 2 -17v-35t-0.5 -40.5t0.5 -33.5q1 -29 0 -58.5t-2 -59.5zM251 525q-11 -6 -25 -4t-21 13q-6 12 -1 22.5t15.5 15t22.5 1t19 -18.5q7 -19 -10 -29zM143 575
q14 5 28 -7q5 -5 5.5 -12t-2.5 -14t-7.5 -13t-8.5 -9q-20 -5 -29 1.5t-9.5 17t6 21.5t17.5 15z" />
    <glyph glyph-name="yacute" unicode="&#xfd;" horiz-adv-x="327" 
d="M158 -118q-3 0 -10 3t-14.5 6.5t-14.5 7t-10 6.5q-7 4 -10 6t-4 10q0 2 2 6.5t3 6.5q2 3 6.5 10l9 14t9 12.5t7.5 6.5q13 -8 25 -16t27 -4q10 2 16.5 10t10.5 18.5t6 21.5t2 20q-27 -17 -59.5 -11t-55.5 26q-29 26 -38.5 62.5t-14.5 73.5q-6 41 -6 82.5t1 83.5
q0 11 -1 34.5t-2 47.5t-1 43.5t3 21.5q10 -1 28.5 -1t29.5 1q9 -24 8 -50.5t-2 -51.5q0 -11 1 -36t2.5 -52.5t3.5 -52t4 -35.5q2 -17 3.5 -35t10.5 -34q5 -10 16 -20t22 -10q6 0 12 3t11.5 7t10 8.5l6.5 6.5q8 14 10 29t5 29q1 4 1 21.5v41.5t-0.5 52.5t-1 53.5t-1.5 44.5
t-2 26.5q-1 5 -1.5 11t0.5 13q1 5 -1 13t1 12q14 8 33.5 7.5t36.5 -2.5q6 -24 7.5 -49t1 -50t-1.5 -50t0 -50l1 -59q2 -32 -0.5 -63.5t-2.5 -63.5q0 -13 -0.5 -26t-1.5 -26q-1 -24 -7 -46.5t-15 -45.5q-12 -31 -30.5 -47t-36.5 -23.5t-31.5 -8.5t-16.5 -1zM234 614
q3 -3 -1.5 -19.5t-11.5 -35t-14 -33.5t-9 -15q-29 -3 -47 8q-1 8 2.5 22.5t8.5 29t10 26.5t8 17q11 2 25.5 2t28.5 -2z" />
    <glyph glyph-name="thorn" unicode="&#xfe;" horiz-adv-x="332" 
d="M122 27v-14.5v-30.5t0.5 -38.5t0 -38.5t-1 -30.5t-1.5 -13.5q-6 -1 -14.5 -2.5t-17.5 -2.5t-17 0t-14 4q-2 1 -3 13t-1.5 29.5t-1 38.5t-0.5 39v30.5v14.5l-1 54q-2 52 -4 103.5t-4 103.5q-1 48 -0.5 95.5t5.5 95.5q2 21 3.5 42.5t1.5 42.5q0 19 -2 38.5t3 38.5
q9 7 25 8.5t27 -2.5q9 -3 12.5 -13t3.5 -22t-1.5 -23.5t-2.5 -18.5q-1 -4 -1 -19v-32v-30.5t-1 -13.5q21 5 43 5.5t42 -4.5t37 -17t29 -33q19 -33 22 -72.5t1 -77.5q-2 -20 -4.5 -40.5t-4.5 -40.5q-4 -26 -6.5 -53t-10.5 -52q-8 -22 -21 -38q-5 -5 -10 -9.5t-11 -8.5
q-4 -2 -8 -2.5t-6 -5.5q-21 -2 -43 -4t-42 7zM113 384q-6 -11 -6.5 -23.5t0.5 -24.5q1 -16 1 -31.5v-31.5q1 -29 2 -56.5t3 -56.5q1 -11 2 -22.5t6 -21.5q8 -12 15.5 -16t21.5 -6q42 -6 50 40q8 49 8 99t2 100q2 21 -2 42.5t-25 32.5q-20 11 -43 3.5t-35 -27.5z" />
    <glyph glyph-name="ydieresis" unicode="&#xff;" horiz-adv-x="343" 
d="M158 -118q-3 0 -10 3t-14.5 6.5t-14.5 7t-10 6.5q-7 4 -10 6t-4 10q0 2 2 6.5t3 6.5q2 3 6.5 10l9 14t9 12.5t7.5 6.5q13 -8 25 -16t27 -4q10 2 16.5 10t10.5 18.5t6 21.5t2 20q-27 -17 -59.5 -11t-55.5 26q-29 26 -38.5 62.5t-14.5 73.5q-6 41 -6 82.5t1 83.5
q0 11 -1 34.5t-2 47.5t-1 43.5t3 21.5q10 -1 28.5 -1t29.5 1q9 -24 8 -50.5t-2 -51.5q0 -11 1 -36t2.5 -52.5t3.5 -52t4 -35.5q2 -17 3.5 -35t10.5 -34q5 -10 16 -20t22 -10q6 0 12 3t11.5 7t10 8.5l6.5 6.5q8 14 10 29t5 29q1 4 1 21.5v41.5t-0.5 52.5t-1 53.5t-1.5 44.5
t-2 26.5q-1 5 -1.5 11t0.5 13q1 5 -1 13t1 12q14 8 33.5 7.5t36.5 -2.5q6 -24 7.5 -49t1 -50t-1.5 -50t0 -50l1 -59q2 -32 -0.5 -63.5t-2.5 -63.5q0 -13 -0.5 -26t-1.5 -26q-1 -24 -7 -46.5t-15 -45.5q-12 -31 -30.5 -47t-36.5 -23.5t-31.5 -8.5t-16.5 -1zM233 547
q-11 -6 -25 -4t-21 13q-6 12 -1 22.5t15.5 15t22.5 1t19 -18.5q7 -19 -10 -29zM125 597q14 5 28 -7q5 -5 5.5 -12t-2.5 -14t-7.5 -13t-8.5 -9q-20 -5 -29 1.5t-9.5 17t6 21.5t17.5 15z" />
    <glyph glyph-name="Amacron" unicode="&#x100;" horiz-adv-x="379" 
d="M320 106q4 -20 8.5 -41.5t3.5 -42.5q0 -13 -7 -20q-13 1 -31.5 -0.5t-28.5 5.5q-2 9 -8 34.5t-12 54t-10.5 52t-5.5 28.5q-23 2 -51 3t-51 -3q-8 -17 -11.5 -38.5t-8.5 -39.5q-3 -11 -5.5 -22.5t-5.5 -22.5q-2 -13 -3.5 -27t-11.5 -24q-11 -2 -29.5 -1.5t-29.5 4.5
q-2 21 1.5 43t9.5 44t13 43.5t12 42.5q12 59 23.5 117t22.5 118q8 42 17.5 84t19.5 84q4 17 8 32.5t9 32.5q3 10 10 13t15.5 2.5t18 -2.5t17.5 -2q5 -7 9 -29.5t7.5 -48t5.5 -48.5t3 -30q5 -35 9.5 -69t12.5 -69q8 -39 15.5 -77.5t15.5 -77.5q6 -26 11.5 -51t11.5 -51z
M323 755q6 -1 12 -1t12 -2q2 0 3.5 -1t3.5 -2q3 0 3 -7q1 -11 1.5 -21t0.5 -21q0 -12 -6 -12h-19q-1 0 -20 1t-43 2.5t-46.5 2.5t-31.5 2h-83q-8 0 -11 -1t-6.5 0t-6.5 1t-3 10q1 11 0.5 20.5t-0.5 19.5q0 7 3 10q2 1 5 1l58 -2h174zM141 244q18 -2 37.5 0.5t38.5 1.5
q0 4 -2.5 20.5t-6 38t-8 46t-8.5 45t-8 33.5t-6 13v-2v-1q-1 -5 -5.5 -26.5t-10.5 -51t-11.5 -61.5t-9.5 -56z" />
    <glyph glyph-name="amacron" unicode="&#x101;" horiz-adv-x="332" 
d="M275 276q2 -24 0 -48t-3 -47v-105q0 -7 1 -18.5t0 -23t-5.5 -19.5t-14.5 -8q-9 0 -20 -5t-20 -2q-7 2 -8 8.5t-3 14.5q-12 -8 -23 -13q-10 -5 -21 -8t-22 -1q-17 3 -34.5 12t-29.5 23q-7 7 -12.5 14.5t-12.5 15.5q-6 8 -9 20t-6 22q-12 40 -10 86q2 41 19.5 77.5
t58.5 53.5q14 6 30.5 9.5t33.5 -0.5q1 0 6.5 -1.5t12.5 -3t12.5 -2.5l5.5 -1q5 10 6.5 23.5t-1 26t-9.5 23t-19 15.5q-16 6 -24 0.5t-12.5 -16t-7.5 -23t-10 -19.5q-14 -2 -30 -1t-24 9q-7 25 3 51t29.5 45t45.5 28.5t51 2.5q32 -8 48 -30t22 -53q6 -32 9 -67t-4 -66z
M159 76q27 12 37.5 41.5t10.5 57.5q0 12 -1 27t-4.5 29t-11.5 25.5t-21 16.5q-28 0 -45 -12l-1 -1h-1l-2 -2l-1 -2l-2 -1q-8 -10 -13 -30t-6.5 -42.5t1 -45t10 -39t20 -23.5t30.5 1zM276 590q6 -1 11.5 -1.5t12.5 -1.5q2 0 3.5 -1t3.5 -2q3 -2 3 -7q0 -11 0.5 -21t0.5 -21
q0 -8 -1 -10t-5 -2h-18q-1 0 -20 1t-43.5 2.5t-47 2.5t-31.5 1q-5 0 -17 0.5t-24.5 0.5h-24.5h-17q-7 0 -11 -1t-12 1q-3 0 -3 10q1 10 0.5 20t-0.5 20q0 7 3 10q2 1 5 1l57 -2h175zM124 261q-1 0 -1 -1h-1l-2 -2q0 -1 -1 -2l-2 -1q2 1 4 3z" />
    <glyph glyph-name="Abreve" unicode="&#x102;" horiz-adv-x="354" 
d="M320 106q4 -20 8.5 -41.5t3.5 -42.5q0 -13 -7 -20q-13 1 -31.5 -0.5t-28.5 5.5q-2 9 -8 34.5t-12 54t-10.5 52t-5.5 28.5q-23 2 -51 3t-51 -3q-8 -17 -11.5 -38.5t-8.5 -39.5q-3 -11 -5.5 -22.5t-5.5 -22.5q-2 -13 -3.5 -27t-11.5 -24q-11 -2 -29.5 -1.5t-29.5 4.5
q-2 21 1.5 43t9.5 44t13 43.5t12 42.5q12 59 23.5 117t22.5 118q8 42 17.5 84t19.5 84q4 17 8 32.5t9 32.5q3 10 10 13t15.5 2.5t18 -2.5t17.5 -2q5 -7 9 -29.5t7.5 -48t5.5 -48.5t3 -30q5 -35 9.5 -69t12.5 -69q8 -39 15.5 -77.5t15.5 -77.5q6 -26 11.5 -51t11.5 -51z
M247 811q14 2 30.5 1.5t27.5 -3.5q5 -23 -2 -42.5t-17 -35.5q-9 -14 -29 -23t-44 -11.5t-47.5 2t-40.5 16.5q-23 17 -30 41.5t-5 63.5q10 5 28 4t30 1q9 2 7.5 -6t-1.5 -15q-1 -12 3.5 -28t14.5 -24q11 -5 25 -4.5t25 4.5q10 3 14.5 11.5t6 18t2 18t2.5 11.5zM141 244
q18 -2 37.5 0.5t38.5 1.5q0 4 -2.5 20.5t-6 38t-8 46t-8.5 45t-8 33.5t-6 13v-2q0 -2 -4.5 -24t-10.5 -52t-12 -62.5t-10 -57.5z" />
    <glyph glyph-name="abreve" unicode="&#x103;" horiz-adv-x="300" 
d="M275 276q2 -24 0 -48t-3 -47v-105q0 -7 1 -18.5t0 -23t-5.5 -19.5t-14.5 -8q-9 0 -20 -5t-20 -2q-7 2 -8 8.5t-3 14.5q-12 -8 -23 -13q-10 -5 -21 -8t-22 -1q-17 3 -34.5 12t-29.5 23q-7 7 -12.5 14.5t-12.5 15.5q-6 8 -9 20t-6 22q-12 40 -10 86q2 41 19.5 77.5
t58.5 53.5q14 6 30.5 9.5t33.5 -0.5q1 0 6.5 -1.5t12.5 -3t12.5 -2.5l5.5 -1q5 10 6.5 23.5t-1 26t-9.5 23t-19 15.5q-16 6 -24 0.5t-12.5 -16t-7.5 -23t-10 -19.5q-14 -2 -30 -1t-24 9q-7 25 3 51t29.5 45t45.5 28.5t51 2.5q32 -8 48 -30t22 -53q6 -32 9 -67t-4 -66z
M159 76q27 12 37.5 41.5t10.5 57.5q0 12 -1 27t-4.5 29t-11.5 25.5t-21 16.5q-28 0 -45 -12l-1 -1h-1l-2 -2l-1 -2l-2 -1q-8 -10 -13 -30t-6.5 -42.5t1 -45t10 -39t20 -23.5t30.5 1zM200 664q14 2 30.5 1.5t28.5 -3.5q5 -23 -2.5 -42.5t-17.5 -35.5q-9 -14 -29 -23
t-43.5 -11.5t-47 2t-40.5 16.5q-24 17 -30.5 41.5t-4.5 63.5q9 5 27 4t30 1q10 2 8 -6t-2 -15q-1 -11 3.5 -27.5t14.5 -24.5q11 -5 25 -4.5t25 4.5q10 3 15 12t6.5 18.5t1.5 17.5t2 11zM124 261q-1 0 -1 -1h-1l-2 -2q0 -1 -1 -2l-2 -1q2 1 4 3z" />
    <glyph glyph-name="Aogonek" unicode="&#x104;" horiz-adv-x="380" 
d="M347 -57q6 1 9.5 -4.5t2.5 -12.5q-3 -8 -4.5 -16.5t-3.5 -17.5q0 -3 -0.5 -5.5t-1.5 -6.5t-8 -6h-7q-29 2 -56 11q-8 3 -14 7t-13 8q-7 5 -11.5 11t-8.5 13q-7 8 -7.5 18t4.5 19l4 8t5 7q4 5 7.5 9t6.5 6q8 5 9.5 10t2.5 12q-3 13 -8.5 38t-11 51.5t-9.5 47.5t-5 26
q-23 2 -51 3t-51 -3q-8 -17 -11.5 -38.5t-8.5 -39.5q-3 -11 -5.5 -22.5t-5.5 -22.5q-2 -13 -3.5 -27t-11.5 -24q-11 -2 -29.5 -1.5t-29.5 4.5q-2 21 1.5 43t9.5 44t13 43.5t12 42.5q12 59 23.5 117t22.5 118q8 42 17.5 84t19.5 84q4 17 8 32.5t9 32.5q3 10 10 13t15.5 2.5
t18 -2.5t17.5 -2q5 -7 9 -29.5t7.5 -48t5.5 -48.5t3 -30q5 -35 9.5 -69t12.5 -69q8 -39 15.5 -77.5t15.5 -77.5q6 -26 11.5 -51t11.5 -51q4 -20 8.5 -41.5t3.5 -42.5q2 -15 0.5 -25.5t-5.5 -22.5l-11 -4l-12 -6q-8 -4 -4 -12q1 -8 11 -11q5 -1 15 -1zM141 244
q18 -2 37.5 0.5t38.5 1.5q0 4 -2.5 20.5t-6 38t-8 46t-8.5 45t-8 33.5t-6 13v-2v-1q-1 -5 -5.5 -26.5t-10.5 -51t-11.5 -61.5t-9.5 -56z" />
    <glyph glyph-name="aogonek" unicode="&#x105;" horiz-adv-x="323" 
d="M290 -46q6 0 9.5 -5t1.5 -12q-2 -9 -4 -17t-3 -17q0 -6 -3 -12q-2 -6 -7 -6h-8q-14 0 -28 3t-27 8q-8 3 -14 6.5t-13 8.5q-13 9 -21 23q-12 19 -2 38q4 9 8 15q7 9 15 15q8 3 10 11l-2 10q-12 -8 -23 -13q-10 -5 -21 -8t-22 -1q-17 3 -34.5 12t-29.5 23q-7 7 -12.5 14.5
t-12.5 15.5q-6 8 -9 20t-6 22q-12 40 -10 86q2 41 19.5 77.5t58.5 53.5q14 6 30.5 9.5t33.5 -0.5q1 0 6.5 -1.5t12.5 -3t12.5 -2.5l5.5 -1q5 10 6.5 23.5t-1 26t-9.5 23t-19 15.5q-16 6 -24 0.5t-12.5 -16t-7.5 -23t-10 -19.5q-14 -2 -30 -1t-24 9q-7 25 3 51t29.5 45
t45.5 28.5t51 2.5q32 -8 48 -30t22 -53q6 -32 9 -67t-4 -66l1 1q2 -24 0 -48t-3 -47v-105q0 -7 1 -18t0 -22l2 -3q2 -16 0.5 -26t-5.5 -22l-11 -4l-12 -6q-8 -4 -5 -12q2 -8 12 -11q5 -1 15 -1zM159 76q27 12 37.5 41.5t10.5 57.5q0 12 -1 27t-4.5 29t-11.5 25.5t-21 16.5
q-28 0 -45 -12l-1 -1h-1l-2 -2q0 -1 -1 -2l-2 -1q-8 -10 -13 -30t-6.5 -42.5t1 -45t10 -39t20 -23.5t30.5 1zM124 261q-1 0 -1 -1h-1l-2 -2l-1 -2l-2 -1q2 1 4 3z" />
    <glyph glyph-name="Cacute" unicode="&#x106;" horiz-adv-x="338" 
d="M282 129q7 0 15.5 -1t13.5 -7q7 -6 1.5 -15.5t-9.5 -15.5q-10 -15 -20.5 -30t-23.5 -27.5t-29 -21t-35 -10.5q-33 -5 -65.5 7.5t-56.5 35.5q-23 21 -34 47t-14.5 54.5t-3 57.5t1.5 58q2 68 1 135.5t16 133.5q6 25 16.5 48.5t26 42.5t36.5 31.5t50 14.5q23 1 49 -7.5
t48 -25t36 -39t14 -47.5q-17 -6 -34.5 -14.5t-37.5 -6.5q-9 14 -12.5 29.5t-19.5 26.5q-15 11 -32 11t-31 -12q-16 -13 -25.5 -29.5t-14.5 -35t-6.5 -38t-2.5 -38.5q-2 -49 -3 -97t0 -97q0 -18 -0.5 -39t1.5 -41.5t8.5 -39.5t20.5 -33q11 -11 26.5 -17.5t30.5 -1.5
q16 5 25.5 18t16.5 27q4 9 10.5 11.5t14 2.5t15.5 -2t16 -3zM229 802q3 -3 -1.5 -19.5t-11.5 -35t-14 -33.5t-9 -15q-29 -3 -47 8q-1 8 2.5 22.5t8.5 29t10 26.5t8 17q11 1 25.5 1.5t28.5 -1.5z" />
    <glyph glyph-name="cacute" unicode="&#x107;" horiz-adv-x="273" 
d="M167 403q-21 10 -35.5 -2.5t-23.5 -34t-13.5 -45.5t-6.5 -36q-5 -37 -9.5 -75.5t4.5 -75.5q5 -19 15 -36t29 -26q20 -10 35 -2t26 25q10 15 21 8.5t20 -17.5q26 -29 -2 -56q-29 -26 -68 -29.5t-72 14.5q-19 10 -31 25t-19 32.5t-10 37t-4 39.5l-2 84t4 84q3 24 10.5 51.5
t21 51t33.5 40t49 19.5q31 3 61 -11l15 -7.5t17.5 -10.5t14 -13.5t4.5 -14.5q-2 -12 -17 -24t-23 -20q-4 -4 -10 -1t-12 8t-12 10.5t-10 7.5zM207 628q3 -3 -1.5 -19.5t-12 -35t-14.5 -33.5t-9 -15q-13 -1 -25.5 1t-20.5 8q-1 8 2 22t8 28.5t10.5 27t8.5 16.5q11 2 25.5 2.5
t28.5 -2.5z" />
    <glyph glyph-name="Ccircumflex" unicode="&#x108;" horiz-adv-x="338" 
d="M282 129q7 0 15.5 -1t13.5 -7q7 -6 1.5 -15.5t-9.5 -15.5q-10 -15 -20.5 -30t-23.5 -27.5t-29 -21t-35 -10.5q-33 -5 -65.5 7.5t-56.5 35.5q-23 21 -34 47t-14.5 54.5t-3 57.5t1.5 58q2 68 1 135.5t16 133.5q6 25 16.5 48.5t26 42.5t36.5 31.5t50 14.5q23 1 49 -7.5
t48 -25t36 -39t14 -47.5q-17 -6 -34.5 -14.5t-37.5 -6.5q-9 14 -12.5 29.5t-19.5 26.5q-15 11 -32 11t-31 -12q-16 -13 -25.5 -29.5t-14.5 -35t-6.5 -38t-2.5 -38.5q-2 -49 -3 -97t0 -97q0 -18 -0.5 -39t1.5 -41.5t8.5 -39.5t20.5 -33q11 -11 26.5 -17.5t30.5 -1.5
q16 5 25.5 18t16.5 27q4 9 10.5 11.5t14 2.5t15.5 -2t16 -3zM182 740q-14 -10 -27 -19t-25 -20l-13 -12l-3.5 -3.5l-3.5 -3.5q-6 -5 -9 -4.5t-8 5.5l-13.5 13.5t-13.5 14.5q-8 10 0 19q8 8 16.5 17t17.5 17l48 44q5 4 9.5 7.5t9.5 7.5l8 5q7 3 13 -4q25 -24 51 -47t54 -43
q4 -3 10 -9q6 -8 0 -13q-10 -8 -19 -16l-18 -16q-7 -6 -13 0l-10 7l-47 44q-3 3 -6 5.5t-8 3.5z" />
    <glyph glyph-name="ccircumflex" unicode="&#x109;" horiz-adv-x="303" 
d="M167 403q-21 10 -35.5 -2.5t-23.5 -34t-13.5 -45.5t-6.5 -36q-5 -37 -9.5 -75.5t4.5 -75.5q5 -19 15 -36t29 -26q20 -10 35 -2t26 25q10 15 21 8.5t20 -17.5q26 -29 -2 -56q-29 -26 -68 -29.5t-72 14.5q-19 10 -31 25t-19 32.5t-10 37t-4 39.5l-2 84t4 84q3 24 10.5 51.5
t21 51t33.5 40t49 19.5q31 3 61 -11l15 -7.5t17.5 -10.5t14 -13.5t4.5 -14.5q-2 -12 -17 -24t-23 -20q-4 -4 -10 -1t-12 8t-12 10.5t-10 7.5zM158 564q-14 -11 -27 -19.5t-25 -19.5l-13 -13l-7 -7q-6 -4 -9 -4t-8 5q-7 7 -13.5 14t-13.5 15q-8 9 0 19l16.5 16.5t17.5 16.5
l48 45q4 4 9 7t10 7l8 5q7 3 13 -4q25 -24 51 -47t54 -43q4 -3 10 -9q6 -7 0 -13q-10 -8 -19 -16l-18 -16q-8 -5 -13 0l-10 7l-47 44q-3 3 -6 5.5t-8 4.5z" />
    <glyph glyph-name="Cdotaccent" unicode="&#x10a;" horiz-adv-x="338" 
d="M282 129q7 0 15.5 -1t13.5 -7q7 -6 1.5 -15.5t-9.5 -15.5q-10 -15 -20.5 -30t-23.5 -27.5t-29 -21t-35 -10.5q-33 -5 -65.5 7.5t-56.5 35.5q-23 21 -34 47t-14.5 54.5t-3 57.5t1.5 58q2 68 1 135.5t16 133.5q6 25 16.5 48.5t26 42.5t36.5 31.5t50 14.5q23 1 49 -7.5
t48 -25t36 -39t14 -47.5q-17 -6 -34.5 -14.5t-37.5 -6.5q-9 14 -12.5 29.5t-19.5 26.5q-15 11 -32 11t-31 -12q-16 -13 -25.5 -29.5t-14.5 -35t-6.5 -38t-2.5 -38.5q-2 -49 -3 -97t0 -97q0 -18 -0.5 -39t1.5 -41.5t8.5 -39.5t20.5 -33q11 -11 26.5 -17.5t30.5 -1.5
q16 5 25.5 18t16.5 27q4 9 10.5 11.5t14 2.5t15.5 -2t16 -3zM200 720q-8 -5 -17 -6.5t-18 -1.5q-7 1 -10.5 2t-8.5 6q-3 4 -5 6t-4 7t0 13.5t4 13.5q5 11 15 14q9 4 20.5 2.5t19.5 -7.5q5 -4 9.5 -9.5t6.5 -13.5q1 -18 -12 -26z" />
    <glyph glyph-name="cdotaccent" unicode="&#x10b;" horiz-adv-x="273" 
d="M167 403q-21 10 -35.5 -2.5t-23.5 -34t-13.5 -45.5t-6.5 -36q-5 -37 -9.5 -75.5t4.5 -75.5q5 -19 15 -36t29 -26q20 -10 35 -2t26 25q10 15 21 8.5t20 -17.5q26 -29 -2 -56q-29 -26 -68 -29.5t-72 14.5q-19 10 -31 25t-19 32.5t-10 37t-4 39.5l-2 84t4 84q3 24 10.5 51.5
t21 51t33.5 40t49 19.5q31 3 61 -11l15 -7.5t17.5 -10.5t14 -13.5t4.5 -14.5q-2 -12 -17 -24t-23 -20q-4 -4 -10 -1t-12 8t-12 10.5t-10 7.5zM167 548q-8 -5 -17 -6.5t-18 -1.5q-7 1 -10.5 2.5t-8.5 6.5q-3 3 -5.5 5t-3.5 7q-2 6 0 14t4 13q4 10 15 15q9 3 20.5 1.5
t19.5 -6.5q5 -4 9.5 -10t5.5 -14q3 -17 -11 -26z" />
    <glyph glyph-name="Ccaron" unicode="&#x10c;" horiz-adv-x="338" 
d="M282 129q7 0 15.5 -1t13.5 -7q7 -6 1.5 -15.5t-9.5 -15.5q-10 -15 -20.5 -30t-23.5 -27.5t-29 -21t-35 -10.5q-33 -5 -65.5 7.5t-56.5 35.5q-23 21 -34 47t-14.5 54.5t-3 57.5t1.5 58q2 68 1 135.5t16 133.5q6 25 16.5 48.5t26 42.5t36.5 31.5t50 14.5q23 1 49 -7.5
t48 -25t36 -39t14 -47.5q-17 -6 -34.5 -14.5t-37.5 -6.5q-9 14 -12.5 29.5t-19.5 26.5q-15 11 -32 11t-31 -12q-16 -13 -25.5 -29.5t-14.5 -35t-6.5 -38t-2.5 -38.5q-2 -49 -3 -97t0 -97q0 -18 -0.5 -39t1.5 -41.5t8.5 -39.5t20.5 -33q11 -11 26.5 -17.5t30.5 -1.5
q16 5 25.5 18t16.5 27q4 9 10.5 11.5t14 2.5t15.5 -2t16 -3zM270 803q2 -1 7 -10.5t9 -21.5t6.5 -22.5t-0.5 -12.5q-3 0 -18 -5.5t-33.5 -12t-37 -12.5t-28.5 -8q-7 -3 -26.5 3.5t-41 15.5t-38 17.5t-17.5 8.5q4 21 9.5 37.5t19.5 27.5q2 1 15 -6t28.5 -15.5t29 -15.5
t16.5 -7t19 6t34 13.5t32.5 13.5z" />
    <glyph glyph-name="ccaron" unicode="&#x10d;" horiz-adv-x="299" 
d="M167 403q-21 10 -35.5 -2.5t-23.5 -34t-13.5 -45.5t-6.5 -36q-5 -37 -9.5 -75.5t4.5 -75.5q5 -19 15 -36t29 -26q20 -10 35 -2t26 25q10 15 21 8.5t20 -17.5q26 -29 -2 -56q-29 -26 -68 -29.5t-72 14.5q-19 10 -31 25t-19 32.5t-10 37t-4 39.5l-2 84t4 84q3 24 10.5 51.5
t21 51t33.5 40t49 19.5q31 3 61 -11l15 -7.5t17.5 -10.5t14 -13.5t4.5 -14.5q-2 -12 -17 -24t-23 -20q-4 -4 -10 -1t-12 8t-12 10.5t-10 7.5zM254 619q2 -1 7 -10.5t9 -21.5t6.5 -22.5t-0.5 -12.5l-18 -6t-33 -11.5t-36.5 -12.5t-29.5 -8q-7 -3 -26.5 3.5t-40.5 15.5
t-38 17.5l-17 8.5q3 21 8.5 37t20.5 27q2 1 15 -5.5t28 -15t28.5 -16t16.5 -7.5t19 6.5t34 14t32.5 13.5z" />
    <glyph glyph-name="Dcaron" unicode="&#x10e;" horiz-adv-x="326" 
d="M22 79q0 23 1 45t0 45q-1 43 1 84.5t0 83.5t1 84.5t2 84.5q-1 21 0.5 41t0.5 40t-1 40.5t5 40.5q15 6 32 7t33 1l38 -2t38 -3q26 -4 57 -13t47 -33q18 -28 21.5 -62.5t5.5 -66.5q2 -41 -1 -80.5t-3 -79.5q1 -38 2 -77t-2 -77q-1 -19 -1 -37.5t-5 -36.5q-6 -16 -15 -30.5
t-20 -27.5q-20 -26 -49 -34t-60 -11q-7 -1 -24 -2t-36.5 -2t-37.5 -1.5t-25 0.5q-7 21 -6 40t1 39zM95 408q-3 -45 -0.5 -89t1.5 -89q-1 -40 -3 -79.5t1 -79.5q21 -4 44 0.5t45 9.5t30 21t13 38q5 25 5.5 50.5t0.5 51.5q0 13 1 44t1.5 65t1.5 64.5t2 44.5q1 22 -1 45.5
t-8 44.5q-6 20 -20.5 30.5t-32.5 14.5t-37.5 2.5t-35.5 -4.5q-2 -44 -3.5 -91.5t-4.5 -93.5zM250 818q2 -1 7 -10.5t9 -21.5t6.5 -22.5t-0.5 -12.5l-18 -6t-33.5 -11.5t-37 -12.5t-28.5 -8q-7 -3 -26.5 3.5t-41 15.5t-38 17.5t-17.5 8.5q4 21 9.5 37.5t19.5 27.5q2 1 15 -6
t28.5 -15.5t29 -15.5t16.5 -7t19 6t34 13.5t32.5 13.5z" />
    <glyph glyph-name="dcaron" unicode="&#x10f;" horiz-adv-x="360" 
d="M199 652q5 0 7.5 2t7.5 3h9.5t8.5 1q11 2 20.5 2.5t20.5 -2.5q5 -7 3 -15t0 -16q1 -5 1.5 -21.5t0.5 -36v-39v-30.5q-2 -45 -2 -89t-2 -89t-3.5 -88t0.5 -88q2 -35 2.5 -70.5t-1.5 -70.5q-20 -3 -40 -3q-7 0 -17 -1.5t-16 2.5q0 2 -3 6.5t-2 11.5q-4 -1 -7 -4t-6 -5
q-5 -3 -10 -3.5t-10 -0.5q-11 0 -21 2t-20 5q-15 5 -28 11t-21 17q-26 35 -37.5 80t-11.5 87v51.5t2 51.5q2 24 6 51.5t17 48.5q11 18 26.5 32t36.5 21q23 7 45 1t44 -11q-1 50 0.5 94.5t-0.5 101.5zM183 378q-21 11 -37 14t-33 -17q-15 -17 -18 -42t-5 -47q-3 -25 -4 -49.5
t-1 -48.5q1 -22 6 -49t23 -42q15 -14 33 -18t35 12q4 3 7 6.5t6 7.5q4 4 3 9.5t-2 10.5q-2 13 -2 25.5t1 24.5q1 27 2.5 54t0.5 53q0 14 -0.5 28t-0.5 28q0 7 0.5 14t0.5 14q-3 5 -7 7.5t-8 4.5zM303 628q-1 8 2.5 13.5t7.5 10.5t7 10.5t2 13.5q-5 -4 -12.5 -8.5t-18.5 -2.5
q-17 3 -21 20t5 30q7 10 16.5 12.5t19.5 -1.5t17.5 -12.5t9.5 -18.5q2 -9 0.5 -20t-4.5 -19q-4 -11 -9 -18l-10 -10t-12 0z" />
    <glyph glyph-name="Dcroat" unicode="&#x110;" horiz-adv-x="373" 
d="M22 366q2 5 6 4.5t7 0.5q4 1 11 1q6 1 12.5 1h12.5q0 33 2 66.5t1 66.5q-1 21 0.5 41t1.5 40q-1 20 -1.5 40.5t5.5 40.5q15 6 31.5 7t32.5 1l38 -2t38 -3q13 -2 28 -5t29.5 -8t27 -13t20.5 -20q9 -14 14 -30t7.5 -32.5t3 -33.5t1.5 -33q2 -41 -0.5 -80.5t-2.5 -79.5
q1 -38 1.5 -77t-1.5 -77q-2 -19 -1.5 -37.5t-5.5 -36.5q-5 -16 -14.5 -30.5t-20.5 -27.5q-20 -26 -49 -34t-59 -11q-7 -1 -24.5 -2t-37 -2t-37 -1.5t-24.5 0.5q-7 21 -6.5 40t0.5 39q0 23 1 45t1 45q-2 36 0 72t1 72q-5 -1 -10.5 -1.5t-10.5 -0.5l-15 -1q-3 0 -6.5 -1.5
t-6.5 1.5q-2 2 -1.5 10.5t0.5 13.5q0 8 -1 16t1 16zM143 408q-1 -9 -1.5 -18t-0.5 -17q14 0 28.5 -1t29.5 -3h30q6 0 12 -1t11 1q2 -8 1.5 -19.5t-0.5 -20.5q0 -7 1 -19t-2 -17q-28 0 -55.5 6.5t-54.5 10.5q1 -20 1.5 -40t0.5 -40q-1 -40 -3 -79.5t0 -79.5q21 -4 44.5 0.5
t44.5 9.5q23 5 30.5 21t12.5 38q5 25 5.5 50.5t1.5 51.5q0 13 0.5 44t1.5 65t2 64.5t2 44.5q0 22 -2 45.5t-8 44.5q-6 20 -20 30.5t-32 14.5t-38 2.5t-36 -4.5q-1 -44 -3 -91.5t-4 -93.5z" />
    <glyph glyph-name="dcroat" unicode="&#x111;" horiz-adv-x="344" 
d="M296 579q8 -1 19 -5q3 0 6 -3q2 -2 2 -9q1 -14 1 -27.5v-27.5q0 -16 -4 -16h-15q-1 0 -8.5 1t-19.5 2q-1 -43 -1 -86t-2 -86q-2 -45 -3.5 -88t0.5 -88q2 -35 2.5 -70.5t-1.5 -70.5q-20 -3 -40 -3q-7 0 -17 -1.5t-16 2.5q0 2 -3 6.5t-2 11.5q-4 -1 -7 -4t-6 -5
q-5 -3 -10 -3.5t-10 -0.5q-11 0 -21 2t-20 5q-15 5 -28 11t-21 17q-26 35 -37.5 80t-11.5 87v51.5t2 51.5q2 24 6 51.5t17 48.5q11 18 26.5 32t36.5 21q23 7 45 1t44 -11q-1 11 -1 22v22q-1 0 -2.5 0.5t-2.5 0.5q-4 0 -13.5 0.5t-19.5 0.5h-19h-13q-6 0 -9 -2q-2 -1 -4.5 0
t-4.5 2q-2 0 -3 4t-1 9q1 13 0.5 25.5t-0.5 26.5q0 11 4 12q0 1 3 1l46 -1h41v35t-1 38q5 0 7.5 2t7.5 3h9.5t8.5 1q11 2 20.5 2.5t20.5 -2.5q5 -7 3 -15t0 -16q1 -5 1.5 -18t0.5 -30h18zM183 378q-21 11 -37 14t-33 -17q-15 -17 -18 -42t-5 -47q-3 -25 -4 -49.5t-1 -48.5
q1 -22 6 -49t23 -42q15 -14 33 -18t35 12q4 3 7 6.5t6 7.5q4 4 3 9.5t-2 10.5q-2 13 -2 25.5t1 24.5q1 27 2.5 54t0.5 53q0 14 -0.5 28t-0.5 28q0 7 0.5 14t0.5 14q-3 5 -7 7.5t-8 4.5z" />
    <glyph glyph-name="Emacron" unicode="&#x112;" horiz-adv-x="317" 
d="M284 82q8 -16 6.5 -39.5t0.5 -40.5q-10 -1 -31.5 -2t-47.5 -1t-54.5 0.5t-52.5 0.5t-40 0.5t-17 1.5q-6 16 -8 32t-3 32q-1 20 -2.5 40.5t-1.5 40.5q2 42 1.5 84.5t-2.5 84.5q-1 44 -2 87t-2 88q0 44 2 87.5t0 87.5q11 11 29 10.5t32 0.5l55 3q15 1 30 1h30q17 1 36 1
t34 -8q2 -14 2 -28.5t4 -28.5q2 -9 -0.5 -13.5t-8 -6t-12.5 -2t-14 -0.5q-35 -1 -70.5 -2t-71.5 -4q1 -29 -1 -59l-4 -60t-3 -60t2 -58q34 0 68.5 5.5t69.5 1.5q3 -11 4 -21.5t3 -20.5q1 -5 4.5 -16.5t-3.5 -15.5t-18 -4h-19q-26 -2 -53.5 -2.5t-54.5 -2.5q-2 -22 0 -43
t4 -43q1 -25 2 -49.5t6 -48.5q38 -7 81 -7q12 -1 24 -1h25q9 0 20.5 0.5t21.5 -2.5zM261 780q6 -1 11.5 -1t12.5 -2q2 0 3.5 -1t3.5 -2q3 0 3 -7q0 -11 0.5 -21t0.5 -21q0 -8 -1 -10t-5 -2h-18q-1 0 -20 1t-43 2.5t-47 2.5t-32 1q-5 0 -17 0.5t-24.5 0.5h-24.5h-17
q-7 0 -10 -1q-5 -1 -13 1q-3 0 -3 10q1 11 0.5 20.5t-0.5 19.5q0 7 3 10q2 1 5 1l57 -2h175z" />
    <glyph glyph-name="emacron" unicode="&#x113;" horiz-adv-x="318" 
d="M220 158q8 0 19 -3t21.5 -7.5t18 -11t7.5 -13.5q0 -29 -12.5 -51.5t-32 -38.5t-44 -24.5t-48.5 -8.5q-45 0 -70.5 28.5t-38 69.5t-16 86t-3.5 78q0 34 6.5 73t23 72t44.5 54.5t70 21.5q34 0 54 -14t30.5 -35t14.5 -46t6 -46q2 -19 3.5 -38t1.5 -38v-13t-1 -12
q-1 -5 -16.5 -6.5t-31.5 -1.5h-22q-23 -1 -45 -5t-44 -4h-9q-11 0 -11 -5q0 -6 -0.5 -29t4 -48.5t16.5 -45.5t38 -20q19 0 29.5 8.5t16 20.5t8 26.5t5.5 26.5h8zM261 583q11 0 25 -3q1 0 7 -2q2 -1 2 -8q1 -11 1.5 -21t0.5 -21q0 -12 -6 -12h-18q-1 0 -20 1t-43.5 2.5
t-47 2.5t-31.5 2q-5 0 -17 0.5t-25 0.5h-24.5h-16.5q-7 0 -11 -2q-3 -1 -6 0l-6 2q-3 0 -3 10v39q0 9 3 10q2 1 5 1l57 -2h174zM164 411q-20 0 -32.5 -12t-19.5 -29t-10.5 -35.5t-4.5 -32.5q21 -3 46 -3q38 0 68 6q1 3 1 6.5v6.5q0 9 -1.5 17t-3.5 16q-2 10 -5.5 20.5
t-8.5 19.5t-12.5 14.5t-16.5 5.5z" />
    <glyph glyph-name="Ebreve" unicode="&#x114;" horiz-adv-x="346" 
d="M297 82q9 -16 7.5 -39.5t0.5 -40.5q-10 -1 -31.5 -2t-48 -1t-55 0.5t-52.5 0.5t-40 0.5t-17 1.5q-6 16 -8 32t-2 32q-2 20 -3.5 40.5t-1.5 40.5q2 42 1.5 84.5t-1.5 84.5q-2 44 -3 87t-2 88q0 44 2 87.5t0 87.5q11 11 29 10.5t33 0.5l54 3q15 1 30 1h30q17 1 36 1t35 -8
q2 -14 1.5 -28.5t3.5 -28.5q2 -9 -0.5 -13.5t-8 -6t-12.5 -2t-13 -0.5q-36 -1 -71.5 -2t-70.5 -4q1 -29 -1 -59t-4.5 -60t-3.5 -60t2 -58q34 0 68.5 5.5t69.5 1.5q3 -11 4 -21.5t3 -20.5q1 -5 4.5 -16.5t-3.5 -15.5t-17.5 -4h-18.5q-27 -2 -54.5 -2.5t-53.5 -2.5
q-2 -22 -0.5 -43t3.5 -43q2 -25 3 -49.5t5 -48.5q38 -7 82 -7q11 -1 23 -1h25q9 0 21 0.5t21 -2.5zM219 864q14 2 31 1.5t28 -3.5q5 -23 -2 -42.5t-18 -35.5q-9 -14 -29 -23t-43.5 -11.5t-47 2t-40.5 16.5q-23 17 -30 41.5t-5 63.5q10 5 28 4t30 1q9 2 7 -6t-2 -15
q0 -11 4 -27.5t15 -24.5q11 -5 24.5 -4.5t24.5 4.5q10 3 15 12t6.5 18.5t1.5 17.5t2 11z" />
    <glyph glyph-name="ebreve" unicode="&#x115;" horiz-adv-x="349" 
d="M241 158q7 0 18.5 -3t21.5 -7.5t17.5 -11t7.5 -13.5q0 -29 -12 -51.5t-31.5 -38.5t-44 -24.5t-48.5 -8.5q-45 0 -70.5 28.5t-38.5 69.5t-16.5 86t-3.5 78q0 34 7 73t23.5 72t44.5 54.5t70 21.5q34 0 54 -14t30.5 -35t14 -46t5.5 -46q2 -19 3.5 -38t1.5 -38v-25
q-1 -5 -17 -6.5t-31 -1.5h-22q-23 -1 -45.5 -5t-44.5 -4h-8q-11 0 -11 -5q0 -6 -0.5 -29t4 -48.5t16.5 -45.5t37 -20q19 0 29.5 8.5t16.5 20.5t8 26.5t5 26.5h9zM184 411q-20 0 -32.5 -12t-19.5 -29t-10 -35.5t-4 -32.5q21 -3 46 -3q38 0 68 6q0 3 0.5 6.5t0.5 6.5
q0 9 -1.5 17t-3.5 16q-2 10 -5.5 20.5t-9 19.5t-12.5 14.5t-17 5.5zM221 664q14 2 31 1.5t28 -3.5q5 -23 -2 -42.5t-18 -35.5q-9 -14 -29 -23t-43.5 -11.5t-47 2t-40.5 16.5q-23 17 -30 41.5t-5 63.5q10 5 28 4t30 1q9 2 7 -6t-2 -15q0 -11 4 -27.5t15 -24.5
q11 -5 24.5 -4.5t24.5 4.5q10 3 15 12t6.5 18.5t1.5 17.5t2 11z" />
    <glyph glyph-name="Edotaccent" unicode="&#x116;" horiz-adv-x="305" 
d="M276 82q9 -16 7.5 -39.5t0.5 -40.5q-10 -1 -31.5 -2t-48 -1t-55 0.5t-52 0.5t-39.5 0.5t-17 1.5q-7 16 -8.5 32t-2.5 32q-2 20 -3 40.5t-1 40.5q1 42 1 84.5t-2 84.5q-2 44 -2.5 87t-1.5 88q0 44 1.5 87.5t-0.5 87.5q11 11 29.5 10.5t32.5 0.5l55 3q15 1 29.5 1h29.5
q17 1 36 1t35 -8q2 -14 2 -28.5t4 -28.5q2 -9 -0.5 -13.5t-8 -6t-13 -2t-13.5 -0.5q-35 -1 -71 -2t-71 -4q1 -29 -1 -59t-4.5 -60t-3.5 -60t2 -58q34 0 68.5 5.5t69.5 1.5q3 -11 4 -21.5t4 -20.5q0 -3 1.5 -7.5t2.5 -9.5t0.5 -9t-4.5 -6q-7 -4 -17.5 -4h-18.5
q-27 -2 -54 -2.5t-54 -2.5q-2 -22 0 -43t3 -43q2 -25 3 -49.5t6 -48.5q20 -4 40.5 -5.5t40.5 -1.5q12 -1 23.5 -1h24.5q10 0 21.5 0.5t20.5 -2.5zM171 723q-8 -5 -17 -6.5t-18 -1.5q-7 1 -10.5 2.5t-8.5 6.5l-5 5t-4 7q-2 6 0 14.5t4 13.5q5 10 15 14q9 3 20.5 1.5
t19.5 -6.5q5 -4 9.5 -10t6.5 -14q1 -18 -12 -26z" />
    <glyph glyph-name="edotaccent" unicode="&#x117;" horiz-adv-x="306" 
d="M220 158q8 0 19 -3t21.5 -7.5t18 -11t7.5 -13.5q0 -29 -12.5 -51.5t-32 -38.5t-44 -24.5t-48.5 -8.5q-45 0 -70.5 28.5t-38 69.5t-16 86t-3.5 78q0 34 6.5 73t23 72t44.5 54.5t70 21.5q34 0 54 -14t30.5 -35t14.5 -46t6 -46q2 -19 3.5 -38t1.5 -38v-13t-1 -12
q-1 -5 -16.5 -6.5t-31.5 -1.5h-22q-23 -1 -45 -5t-44 -4h-9q-11 0 -11 -5q0 -6 -0.5 -29t4 -48.5t16.5 -45.5t38 -20q19 0 29.5 8.5t16 20.5t8 26.5t5.5 26.5h8zM164 411q-20 0 -32.5 -12t-19.5 -29t-10.5 -35.5t-4.5 -32.5q21 -3 46 -3q38 0 68 6q1 3 1 6.5v6.5
q0 9 -1.5 17t-3.5 16q-2 10 -5.5 20.5t-8.5 19.5t-12.5 14.5t-16.5 5.5zM190 538q-8 -5 -17 -6.5t-18 -1.5q-7 1 -10.5 2.5t-8.5 6.5l-5 5t-4 7q-2 6 0 14.5t4 13.5q5 10 15 14q22 7 40 -5q5 -4 9.5 -10t6.5 -14q1 -18 -12 -26z" />
    <glyph glyph-name="Eogonek" unicode="&#x118;" horiz-adv-x="305" 
d="M216 -71q8 0 11.5 -5t1.5 -13t-4.5 -17t-3.5 -18q0 -5 -3 -11q-2 -6 -9 -8h-8q-35 2 -65 13q-8 2 -15.5 6t-15.5 9q-8 4 -13.5 10.5t-10.5 13.5q-14 18 -2 39q2 4 4.5 7.5t5.5 7.5l8 8t8 7q8 4 10.5 9.5t3.5 12.5q-32 0 -54 1t-24 1q-7 16 -8.5 32t-2.5 32q-2 20 -3 40.5
t-1 40.5q1 42 1 84.5t-2 84.5q-2 44 -2.5 87t-1.5 88q0 44 1.5 87.5t-0.5 87.5q11 11 29.5 10.5t32.5 0.5l55 3q15 1 29.5 1h29.5q17 1 36 1t35 -8q2 -14 2 -28.5t4 -28.5q2 -9 -0.5 -13.5t-8 -6t-13 -2t-13.5 -0.5q-35 -1 -71 -2t-71 -4q1 -29 -1 -59t-4.5 -60t-3.5 -60
t2 -58q34 0 68.5 5.5t69.5 1.5q3 -11 4 -21.5t4 -20.5q0 -3 1.5 -7.5t2.5 -9.5t0.5 -9t-4.5 -6q-7 -4 -17.5 -4h-18.5q-27 -2 -54 -2.5t-54 -2.5q-2 -22 0 -43t3 -43q2 -25 3 -49.5t6 -48.5q20 -4 40.5 -5.5t40.5 -1.5q12 -1 23.5 -1h24.5q10 0 21.5 0.5t20.5 -2.5
q9 -16 7.5 -39.5t0.5 -40.5q-10 -2 -33 -2.5t-51 -0.5q0 -20 -7 -38l-12 -4l-15 -6q-8 -4 -5 -13q2 -5 5.5 -7t8.5 -4q4 -1 8 -1h9l24 3v0z" />
    <glyph glyph-name="eogonek" unicode="&#x119;" horiz-adv-x="306" 
d="M215 -61q8 1 11.5 -4t1.5 -13q-2 -9 -4 -17.5t-4 -17.5q0 -5 -3 -12q0 -3 -3 -4.5t-6 -2.5h-8q-34 2 -65 12q-8 3 -15 7t-15 8q-16 10 -24 24q-14 18 -3 39q2 4 4.5 8t5.5 7q9 10 17 16q10 6 12 15q-33 11 -52.5 41.5t-29 68.5t-12 78t-2.5 70q0 34 6.5 73t23 72
t44.5 54.5t70 21.5q34 0 54 -14t30.5 -35t14.5 -46t6 -46q2 -19 3.5 -38t1.5 -38v-13t-1 -12q-1 -5 -16.5 -6.5t-31.5 -1.5h-22q-23 -1 -45 -5t-44 -4h-9q-11 0 -11 -5q0 -6 -0.5 -29t4 -48.5t16.5 -45.5t38 -20q19 0 29.5 8.5t16 20.5t8 26.5t5.5 26.5h8q8 0 19 -3
t21.5 -7.5t18 -11t7.5 -13.5q0 -43 -26 -72t-61 -42q0 -11 -2 -19t-4 -18l-13 -4l-15 -6q-8 -5 -5 -13q4 -9 14 -11q4 -1 8 -1h9zM164 411q-20 0 -32.5 -12t-19.5 -29t-10.5 -35.5t-4.5 -32.5q21 -3 46 -3q38 0 68 6q1 3 1 6.5v6.5q0 9 -1.5 17t-3.5 16q-2 10 -5.5 20.5
t-8.5 19.5t-12.5 14.5t-16.5 5.5z" />
    <glyph glyph-name="Ecaron" unicode="&#x11a;" horiz-adv-x="305" 
d="M276 82q9 -16 7.5 -39.5t0.5 -40.5q-10 -1 -31.5 -2t-48 -1t-55 0.5t-52 0.5t-39.5 0.5t-17 1.5q-7 16 -8.5 32t-2.5 32q-2 20 -3 40.5t-1 40.5q1 42 1 84.5t-2 84.5q-2 44 -2.5 87t-1.5 88q0 44 1.5 87.5t-0.5 87.5q11 11 29.5 10.5t32.5 0.5l55 3q15 1 29.5 1h29.5
q17 1 36 1t35 -8q2 -14 2 -28.5t4 -28.5q2 -9 -0.5 -13.5t-8 -6t-13 -2t-13.5 -0.5q-35 -1 -71 -2t-71 -4q1 -29 -1 -59t-4.5 -60t-3.5 -60t2 -58q34 0 68.5 5.5t69.5 1.5q3 -11 4 -21.5t4 -20.5q0 -3 1.5 -7.5t2.5 -9.5t0.5 -9t-4.5 -6q-7 -4 -17.5 -4h-18.5
q-27 -2 -54 -2.5t-54 -2.5q-2 -22 0 -43t3 -43q2 -25 3 -49.5t6 -48.5q20 -4 40.5 -5.5t40.5 -1.5q12 -1 23.5 -1h24.5q10 0 21.5 0.5t20.5 -2.5zM254 823q2 -1 7 -11t9 -22t6.5 -22.5t-0.5 -12.5q-3 0 -18 -5.5t-33 -12t-36.5 -12.5t-29.5 -8q-7 -3 -26.5 3.5t-40.5 15.5
t-38 17.5l-17 8.5q3 21 8.5 37.5t20.5 27.5q2 1 15 -6t28 -15.5t28.5 -15.5t16.5 -7q2 0 18.5 6t34.5 14q21 9 47 20z" />
    <glyph glyph-name="ecaron" unicode="&#x11b;" horiz-adv-x="316" 
d="M220 158q8 0 19 -3t21.5 -7.5t18 -11t7.5 -13.5q0 -29 -12.5 -51.5t-32 -38.5t-44 -24.5t-48.5 -8.5q-45 0 -70.5 28.5t-38 69.5t-16 86t-3.5 78q0 34 6.5 73t23 72t44.5 54.5t70 21.5q34 0 54 -14t30.5 -35t14.5 -46t6 -46q2 -19 3.5 -38t1.5 -38v-13t-1 -12
q-1 -5 -16.5 -6.5t-31.5 -1.5h-22q-23 -1 -45 -5t-44 -4h-9q-11 0 -11 -5q0 -6 -0.5 -29t4 -48.5t16.5 -45.5t38 -20q19 0 29.5 8.5t16 20.5t8 26.5t5.5 26.5h8zM164 411q-20 0 -32.5 -12t-19.5 -29t-10.5 -35.5t-4.5 -32.5q21 -3 46 -3q38 0 68 6q1 3 1 6.5v6.5
q0 9 -1.5 17t-3.5 16q-2 10 -5.5 20.5t-8.5 19.5t-12.5 14.5t-16.5 5.5zM271 615q2 -1 7 -10.5t9 -21.5t6.5 -22.5t0.5 -12.5l-18 -6t-33.5 -11.5t-37 -12.5t-28.5 -8q-7 -3 -26.5 3.5t-41 15.5t-38 17t-17.5 8q4 22 9.5 38t19.5 27q2 1 15 -6t28.5 -15.5t29 -15.5t16.5 -7
q2 0 18 6.5t34 14t32.5 13.5z" />
    <glyph glyph-name="Gcircumflex" unicode="&#x11c;" horiz-adv-x="346" 
d="M243 242q-18 5 -37 1t-37 -1q-8 1 -11.5 7t-4.5 14.5t-0.5 17t-0.5 14.5q-1 8 7.5 11.5t20.5 4t24 0.5h17h24t25 2q12 2 23.5 2t22.5 -5q7 -20 7 -40.5t1 -42.5t1 -44t-4 -45q-5 -36 -20 -71.5t-50 -53.5q-31 -14 -69.5 -13t-68.5 15q-18 8 -31 23t-22.5 33t-15.5 37
t-10 37q-9 45 -8 90.5t0 91.5q-2 45 -5 88t5 88q2 16 5.5 32.5t11.5 29.5q20 32 57 51q79 40 154 -2q13 -8 26 -17t23 -21q5 -5 8.5 -11.5t4.5 -13.5q2 -10 -4.5 -15t-12.5 -10t-12.5 -9.5t-12.5 -6.5q-5 -2 -10 2t-9 7q-17 9 -32 22t-35 18q-17 4 -34.5 0t-30.5 -15
q-17 -12 -21 -31t-3 -38q1 -44 -1.5 -86.5t-2.5 -84.5q0 -23 1.5 -46t3.5 -46q2 -22 2.5 -43t2.5 -41q2 -15 8 -29.5t20 -22.5q13 -8 30 -10.5t31 5.5q24 11 31.5 36t11.5 49q3 18 8 41.5t0 42.5q0 2 -2 2zM181 740q-13 -10 -26.5 -19t-25.5 -20l-13 -12q-1 -2 -2.5 -3.5
l-3.5 -3.5q-7 -5 -10 -4.5t-8 5.5l-13.5 13.5t-12.5 14.5q-9 10 0 19q8 8 16 17t17 17l48 44q5 4 9.5 7.5t9.5 7.5l8 5q7 3 14 -4q24 -24 50 -47t54 -43q8 -6 10 -9q6 -8 0 -13q-9 -8 -18.5 -16t-18.5 -16q-7 -7 -13 0l-10 7l-47 44q-3 3 -6 5.5t-8 3.5z" />
    <glyph glyph-name="gcircumflex" unicode="&#x11d;" horiz-adv-x="310" 
d="M270 466q-1 -11 -0.5 -22t-0.5 -22q-1 -21 -2 -41.5t-3 -41.5q-2 -42 -2 -83t2 -83q1 -29 4 -59.5t3 -61.5t-5 -60.5t-19 -55.5q-15 -27 -41.5 -45.5t-58.5 -19.5q-9 0 -26 1.5t-32 6t-23 13.5t2 23q7 9 14.5 17t15.5 17q5 6 10.5 5.5t11 -3.5t10.5 -7t10 -7
q15 -8 27.5 2t20.5 21q10 14 12.5 31t-0.5 35q1 -3 -6 -5t-15.5 -3.5t-16.5 -2.5t-10 -1q-52 -3 -83 32q-16 17 -25 37.5t-13.5 42.5t-6 44.5t-1.5 43.5q0 32 -1.5 63.5t3.5 61.5q5 26 12 53.5t24 49.5q14 17 33 27t42 12q13 0 23.5 -2.5t21.5 -7.5q7 -3 15.5 -9t16.5 -4
q2 3 1 7.5l-2 9t0 8.5t6 6q11 5 23 3t23 -1q6 -6 6 -12v-13zM147 413q-24 -3 -36 -24t-16 -41q-15 -68 -11 -135q1 -23 3.5 -47.5t12.5 -47.5q5 -11 14 -19.5t20 -13t22.5 -4t21.5 8.5q17 14 18.5 36t1.5 41q2 34 3.5 68t1.5 69v36t-4.5 37t-16 28t-35.5 8zM164 583
q-13 -10 -26 -19t-25 -20l-13 -12l-3.5 -3.5l-3.5 -3.5q-10 -6 -17 1q-16 15 -27 28q-9 10 0 20l16.5 16.5l16.5 16.5l48 45q5 4 9.5 7t9.5 7l9 5q7 3 13 -4q24 -24 50 -47t55 -43q4 -3 10 -9q6 -7 0 -13q-10 -8 -19 -16t-19 -16q-7 -5 -12 0l-10 7l-48 44l-5.5 5.5
t-8.5 3.5z" />
    <glyph glyph-name="Gbreve" unicode="&#x11e;" horiz-adv-x="346" 
d="M243 242q-18 5 -37 1t-37 -1q-8 1 -11.5 7t-4.5 14.5t-0.5 17t-0.5 14.5q-1 8 7.5 11.5t20.5 4t24 0.5h17h24t25 2q12 2 23.5 2t22.5 -5q7 -20 7 -40.5t1 -42.5t1 -44t-4 -45q-5 -36 -20 -71.5t-50 -53.5q-31 -14 -69.5 -13t-68.5 15q-18 8 -31 23t-22.5 33t-15.5 37
t-10 37q-9 45 -8 90.5t0 91.5q-2 45 -5 88t5 88q2 16 5.5 32.5t11.5 29.5q20 32 57 51q79 40 154 -2q13 -8 26 -17t23 -21q5 -5 8.5 -11.5t4.5 -13.5q2 -10 -4.5 -15t-12.5 -10t-12.5 -9.5t-12.5 -6.5q-5 -2 -10 2t-9 7q-17 9 -32 22t-35 18q-17 4 -34.5 0t-30.5 -15
q-17 -12 -21 -31t-3 -38q1 -44 -1.5 -86.5t-2.5 -84.5q0 -23 1.5 -46t3.5 -46q2 -22 2.5 -43t2.5 -41q2 -15 8 -29.5t20 -22.5q13 -8 30 -10.5t31 5.5q24 11 31.5 36t11.5 49q3 18 8 41.5t0 42.5q0 2 -2 2zM218 778q14 2 30.5 1.5t28.5 -3.5q5 -23 -2 -42.5t-18 -35.5
q-9 -14 -29 -23t-43.5 -11.5t-47 1.5t-40.5 16q-23 17 -30 42t-5 64q10 5 28 4t30 1q9 2 7 -6t-2 -15q-1 -12 3.5 -28t15.5 -24q11 -6 24.5 -5t24.5 5q10 3 15 11.5t6.5 18t1.5 18t2 11.5z" />
    <glyph glyph-name="gbreve" unicode="&#x11f;" horiz-adv-x="292" 
d="M270 466q-1 -11 -0.5 -22t-0.5 -22q-1 -21 -2 -41.5t-3 -41.5q-2 -42 -2 -83t2 -83q1 -29 4 -59.5t3 -61.5t-5 -60.5t-19 -55.5q-15 -27 -41.5 -45.5t-58.5 -19.5q-9 0 -26 1.5t-32 6t-23 13.5t2 23q7 9 14.5 17t15.5 17q5 6 10.5 5.5t11 -3.5t10.5 -7t10 -7
q15 -8 27.5 2t20.5 21q10 14 12.5 31t-0.5 35q1 -3 -6 -5t-15.5 -3.5t-16.5 -2.5t-10 -1q-52 -3 -83 32q-16 17 -25 37.5t-13.5 42.5t-6 44.5t-1.5 43.5q0 32 -1.5 63.5t3.5 61.5q5 26 12 53.5t24 49.5q14 17 33 27t42 12q13 0 23.5 -2.5t21.5 -7.5q7 -3 15.5 -9t16.5 -4
q2 3 1 7.5l-2 9t0 8.5t6 6q11 5 23 3t23 -1q6 -6 6 -12v-13zM147 413q-24 -3 -36 -24t-16 -41q-15 -68 -11 -135q1 -23 3.5 -47.5t12.5 -47.5q5 -11 14 -19.5t20 -13t22.5 -4t21.5 8.5q17 14 18.5 36t1.5 41q2 34 3.5 68t1.5 69v36t-4.5 37t-16 28t-35.5 8zM193 664
q14 2 30.5 1.5t27.5 -3.5q5 -23 -2 -42.5t-17 -35.5q-9 -14 -29 -23t-44 -11.5t-47.5 2t-40.5 16.5q-23 17 -29.5 41.5t-4.5 63.5q9 5 27 4t30 1q9 2 7.5 -6t-1.5 -15q-1 -11 3.5 -27.5t14.5 -24.5q11 -5 25 -4.5t25 4.5q10 3 14.5 12t6 18.5t2 17.5t2.5 11z" />
    <glyph glyph-name="Gdotaccent" unicode="&#x120;" horiz-adv-x="346" 
d="M243 242q-18 5 -37 1t-37 -1q-8 1 -11.5 7t-4.5 14.5t-0.5 17t-0.5 14.5q-1 8 7.5 11.5t20.5 4t24 0.5h17h24t25 2q12 2 23.5 2t22.5 -5q7 -20 7 -40.5t1 -42.5t1 -44t-4 -45q-5 -36 -20 -71.5t-50 -53.5q-31 -14 -69.5 -13t-68.5 15q-18 8 -31 23t-22.5 33t-15.5 37
t-10 37q-9 45 -8 90.5t0 91.5q-2 45 -5 88t5 88q2 16 5.5 32.5t11.5 29.5q20 32 57 51q79 40 154 -2q13 -8 26 -17t23 -21q5 -5 8.5 -11.5t4.5 -13.5q2 -10 -4.5 -15t-12.5 -10t-12.5 -9.5t-12.5 -6.5q-5 -2 -10 2t-9 7q-17 9 -32 22t-35 18q-17 4 -34.5 0t-30.5 -15
q-17 -12 -21 -31t-3 -38q1 -44 -1.5 -86.5t-2.5 -84.5q0 -23 1.5 -46t3.5 -46q2 -22 2.5 -43t2.5 -41q2 -15 8 -29.5t20 -22.5q13 -8 30 -10.5t31 5.5q24 11 31.5 36t11.5 49q3 18 8 41.5t0 42.5q0 2 -2 2zM199 688q-8 -5 -17 -6t-18 -1q-7 0 -10.5 1.5t-8.5 6.5q-7 7 -9 12
q-2 6 0 14.5t4 13.5q6 10 15 14q22 7 40 -5q13 -8 16 -23q1 -19 -12 -27z" />
    <glyph glyph-name="gdotaccent" unicode="&#x121;" horiz-adv-x="292" 
d="M270 466q-1 -11 -0.5 -22t-0.5 -22q-1 -21 -2 -41.5t-3 -41.5q-2 -42 -2 -83t2 -83q1 -29 4 -59.5t3 -61.5t-5 -60.5t-19 -55.5q-15 -27 -41.5 -45.5t-58.5 -19.5q-9 0 -26 1.5t-32 6t-23 13.5t2 23q7 9 14.5 17t15.5 17q5 6 10.5 5.5t11 -3.5t10.5 -7t10 -7
q15 -8 27.5 2t20.5 21q10 14 12.5 31t-0.5 35q1 -3 -6 -5t-15.5 -3.5t-16.5 -2.5t-10 -1q-52 -3 -83 32q-16 17 -25 37.5t-13.5 42.5t-6 44.5t-1.5 43.5q0 32 -1.5 63.5t3.5 61.5q5 26 12 53.5t24 49.5q14 17 33 27t42 12q13 0 23.5 -2.5t21.5 -7.5q7 -3 15.5 -9t16.5 -4
q2 3 1 7.5l-2 9t0 8.5t6 6q11 5 23 3t23 -1q6 -6 6 -12v-13zM147 413q-24 -3 -36 -24t-16 -41q-15 -68 -11 -135q1 -23 3.5 -47.5t12.5 -47.5q5 -11 14 -19.5t20 -13t22.5 -4t21.5 8.5q17 14 18.5 36t1.5 41q2 34 3.5 68t1.5 69v36t-4.5 37t-16 28t-35.5 8zM168 525
q-8 -4 -17.5 -5.5t-17.5 -1.5q-12 1 -19 8l-5.5 5.5t-3.5 7.5q-2 5 -0.5 13.5t4.5 13.5q5 11 15 14q9 3 20.5 2t19.5 -7q5 -4 9.5 -9.5t5.5 -13.5q3 -18 -11 -27z" />
    <glyph glyph-name="uni0122" unicode="&#x122;" horiz-adv-x="346" 
d="M243 242q-18 5 -37 1t-37 -1q-8 1 -11.5 7t-4.5 14.5t-0.5 17t-0.5 14.5q-1 8 7.5 11.5t20.5 4t24 0.5h17h24t25 2q12 2 23.5 2t22.5 -5q7 -20 7 -40.5t1 -42.5t1 -44t-4 -45q-5 -36 -20 -71.5t-50 -53.5q-31 -14 -69.5 -13t-68.5 15q-18 8 -31 23t-22.5 33t-15.5 37
t-10 37q-9 45 -8 90.5t0 91.5q-2 45 -5 88t5 88q2 16 5.5 32.5t11.5 29.5q20 32 57 51q79 40 154 -2q13 -8 26 -17t23 -21q5 -5 8.5 -11.5t4.5 -13.5q2 -10 -4.5 -15t-12.5 -10t-12.5 -9.5t-12.5 -6.5q-5 -2 -10 2t-9 7q-17 9 -32 22t-35 18q-17 4 -34.5 0t-30.5 -15
q-17 -12 -21 -31t-3 -38q1 -44 -1.5 -86.5t-2.5 -84.5q0 -23 1.5 -46t3.5 -46q2 -22 2.5 -43t2.5 -41q2 -15 8 -29.5t20 -22.5q13 -8 30 -10.5t31 5.5q24 11 31.5 36t11.5 49q3 18 8 41.5t0 42.5q0 2 -2 2zM173 -121q4 2 6.5 2.5t8.5 3.5q11 4 13 20q-9 -6 -18.5 -5.5
t-17.5 5.5t-13 13t-4 17t6 15.5t13 10.5t17 4t18 -5q7 -5 13.5 -14t8.5 -24q1 -13 -3 -26t-16 -21q-3 -2 -11.5 -7t-15.5 -3q-2 3 -3.5 7t-1.5 7z" />
    <glyph glyph-name="uni0123" unicode="&#x123;" horiz-adv-x="292" 
d="M270 466q-1 -11 -0.5 -22t-0.5 -22q-1 -21 -2 -41.5t-3 -41.5q-2 -42 -2 -83t2 -83q1 -29 4 -59.5t3 -61.5t-5 -60.5t-19 -55.5q-15 -27 -41.5 -45.5t-58.5 -19.5q-9 0 -26 1.5t-32 6t-23 13.5t2 23q7 9 14.5 17t15.5 17q5 6 10.5 5.5t11 -3.5t10.5 -7t10 -7
q15 -8 27.5 2t20.5 21q10 14 12.5 31t-0.5 35q1 -3 -6 -5t-15.5 -3.5t-16.5 -2.5t-10 -1q-52 -3 -83 32q-16 17 -25 37.5t-13.5 42.5t-6 44.5t-1.5 43.5q0 32 -1.5 63.5t3.5 61.5q5 26 12 53.5t24 49.5q14 17 33 27t42 12q13 0 23.5 -2.5t21.5 -7.5q7 -3 15.5 -9t16.5 -4
q2 3 1 7.5l-2 9t0 8.5t6 6q11 5 23 3t23 -1q6 -6 6 -12v-13zM147 413q-24 -3 -36 -24t-16 -41q-15 -68 -11 -135q1 -23 3.5 -47.5t12.5 -47.5q5 -11 14 -19.5t20 -13t22.5 -4t21.5 8.5q17 14 18.5 36t1.5 41q2 34 3.5 68t1.5 69v36t-4.5 37t-16 28t-35.5 8zM131 560q7 3 8 9
t6 9q4 2 9.5 3t9.5 0q11 0 17.5 -7t8.5 -16t0 -18.5t-8 -16.5q-13 -16 -26.5 -16t-23.5 9t-15.5 24.5t-1.5 30.5q4 5 4.5 12t8.5 13q1 5 7 10.5t14 1.5q5 -9 0 -12t-10 -8t-6 -11t-2 -17z" />
    <glyph glyph-name="Hcircumflex" unicode="&#x124;" horiz-adv-x="344" 
d="M237 324q1 44 3.5 88t6.5 88q2 20 3 39.5t2 39.5q0 5 -0.5 15t0 20t2.5 17.5t8 8.5q10 1 21 0t20 -5.5t14.5 -12.5t5.5 -20q0 -14 -0.5 -29t-1.5 -30q-3 -87 -7.5 -172.5t-8.5 -172.5q-3 -48 -4.5 -96t-4.5 -96q-14 -3 -29 -5t-29 0q-11 28 -9.5 60.5t2.5 61.5q1 34 1 67
t2 66q-34 0 -67.5 4t-66.5 0l-5 -148q-1 -11 -1 -23t-2 -23q0 -4 -0.5 -13t-2 -19t-3.5 -18.5t-5 -9.5q-5 -1 -15 -2t-19.5 -1.5t-17.5 0.5t-8 4q9 70 6.5 139.5t0.5 139.5q2 38 4 75.5t1 75.5q0 35 1.5 70t1.5 70q0 7 -1 17t-0.5 20t3.5 17.5t11 9.5q9 2 18 2h18
q10 -1 15 -3t6 -13q2 -14 0.5 -29.5t-1.5 -30.5l-2 -80q-1 -41 -1.5 -80.5t1.5 -79.5q32 -2 64.5 -3.5t69.5 0.5zM181 740q-13 -10 -26.5 -19t-25.5 -20l-13 -12q-1 -2 -2.5 -3.5l-3.5 -3.5q-7 -5 -10 -4.5t-8 5.5l-13.5 13.5t-12.5 14.5q-9 10 0 19q8 8 16 17t17 17l48 44
q5 4 9.5 7.5t9.5 7.5l8 5q7 3 14 -4q24 -24 50 -47t54 -43q8 -6 10 -9q6 -8 0 -13q-9 -8 -18.5 -16t-18.5 -16q-7 -7 -13 0l-10 7l-47 44q-3 3 -6 5.5t-8 3.5z" />
    <glyph glyph-name="hcircumflex" unicode="&#x125;" horiz-adv-x="294" 
d="M97 650q1 -3 1.5 -25t0.5 -51v-60.5t2 -52.5q29 1 56.5 -1.5t49.5 -21.5q13 -11 21.5 -24.5t14.5 -27.5q14 -35 17 -75t4 -78q3 -81 -3 -162q0 -22 -3 -43q0 -8 -6 -17q-2 -5 -9.5 -7.5t-16 -3t-16.5 1t-12 4.5q-4 7 -5 16.5t-1 19.5t1 19.5t1 17.5q-1 32 -0.5 64t0.5 64
q0 26 0.5 51.5t-2.5 51.5q-2 18 -9.5 37t-19.5 33q-11 13 -31 17t-33 -9q1 -66 -1.5 -131t-3.5 -131q0 -23 -0.5 -46t-1.5 -46v-10.5t-2 -9.5q-5 -8 -12.5 -10t-16 -1t-17.5 3.5t-17 2.5q-4 81 -5.5 161.5t0.5 161.5q1 31 1.5 62t2.5 62q1 48 1 96t4 96q16 3 33 5.5t33 -3.5
zM149 751q-14 -10 -27 -19t-25 -20l-13 -12l-3.5 -3.5l-3.5 -3.5q-6 -5 -9 -4.5t-8 5.5q-7 7 -14 13.5t-13 14.5q-8 10 0 19l16.5 16.5l16.5 16.5l49 45q4 4 9 7t10 7l8 5q7 4 13 -3q25 -24 50.5 -47t54.5 -43q6 -4 10 -10q7 -7 0 -12q-10 -8 -19 -16t-19 -16q-7 -7 -12 0
l-10 7l-47 44q-3 2 -6 4.5t-8 4.5z" />
    <glyph glyph-name="Hbar" unicode="&#x126;" horiz-adv-x="339" 
d="M281 443q6 -1 12 -1t13 -2q2 0 4 -1t5 -2q2 -2 2 -9q1 -12 1.5 -25t0.5 -25q0 -14 -7 -14h-19q-1 0 -6.5 0.5t-14.5 1.5q1 -46 2.5 -92t1.5 -91q1 -28 1.5 -55.5t2.5 -55.5v-18t1 -17q0 -5 2 -14t-2 -14q-5 -5 -14.5 -4t-15.5 1q-9 0 -18.5 -1.5t-19.5 1.5
q-10 23 -10.5 48t-2.5 50t-4 49.5t0 49.5q-28 6 -68 3q-2 -22 -1 -44t1 -45l1 -49q2 -16 6 -33t-1 -32q-20 -2 -39.5 -3t-32.5 2q-3 3 -4.5 8.5t-1.5 12v12.5v9q-1 20 -1 39v39q0 23 0.5 44.5t0.5 44.5v150v12h-6h-6.5t-5.5 -1q-4 -1 -7 0t-7 1q-2 0 -2.5 4t-0.5 9
q1 12 0.5 23.5t-0.5 22.5q0 6 0.5 8t2.5 4q3 1 6 1q6 -1 12 -1h13q1 20 2.5 41t-3.5 41q6 5 15 7t19.5 2t20.5 -1.5t16 -3.5q2 -18 2.5 -41t0.5 -46h74v13.5t1 13.5v20.5t-1 20.5t6 13.5t15 4.5q4 0 11.5 2t15.5 3t15 0.5t10 -4.5q7 -8 4 -24.5t-3 -25.5q-1 -10 -1.5 -19
t-0.5 -18h7zM201 302q0 17 0.5 33.5t1.5 33.5l-64 4h-12q0 -27 0.5 -54.5t0.5 -53.5q14 -2 29.5 -1.5t29.5 2.5q13 1 13.5 13t0.5 23z" />
    <glyph glyph-name="hbar" unicode="&#x127;" horiz-adv-x="364" 
d="M144 666q1 -4 1.5 -11.5t0.5 -16t-0.5 -15.5t-0.5 -9q11 0 18 -0.5t14 -0.5q19 2 34 2t34 -2q2 -3 4.5 -12.5t3.5 -20t-1 -20t-9 -10.5q-2 0 -14 -0.5t-27 -1.5t-31 -1.5t-25 -0.5q2 -21 1 -43t3 -40q0 1 11 4.5t25.5 6.5t27.5 5.5t16 2.5q14 2 27.5 -1.5t25.5 -14.5
q21 -18 31.5 -49t15.5 -58q14 -65 12 -133q0 -21 -0.5 -41t-1.5 -38q0 -14 -0.5 -37l-1 -46t-1.5 -40.5t-3 -18.5q-14 -2 -30 -2.5t-31 -1.5q-2 5 -2.5 23.5t0 41.5t1.5 45.5t2 35.5q1 16 0 31t0 32q0 19 3 51t1 63.5t-13 55.5t-39 28q-7 1 -17.5 0.5t-21.5 -3t-20.5 -6.5
t-14.5 -10q-2 -42 -1 -83t4 -80q0 -8 1 -15t2 -15q0 -7 2 -34.5t4.5 -59t3.5 -57t0 -27.5q-6 -2 -23.5 -2t-28.5 -1q-8 -1 -16.5 -1t-12.5 5q-3 5 -1.5 19.5t3.5 22.5q4 21 3.5 36.5t-1.5 38.5q-1 53 -6.5 105t-8.5 104q-4 49 -2 97.5t2 96.5q-6 0 -14 -0.5t-15.5 -1
t-13.5 -0.5t-8 2q0 4 -1 14t-1.5 21t-1 20t-0.5 11q0 3 6 4t15.5 1.5t20 0.5t19.5 1q1 2 1 10.5t-0.5 17.5t-1 17t0.5 10q23 2 37 4.5t25 -5.5z" />
    <glyph glyph-name="Itilde" unicode="&#x128;" horiz-adv-x="294" 
d="M183 644q-1 -20 -3 -38.5t-2 -37.5q-1 -21 -0.5 -41t0.5 -40q-1 -42 -4 -82t-3 -82t2.5 -83.5t0.5 -83.5q-1 -17 -1 -33.5v-32.5q1 -18 2.5 -38t-3.5 -37q-11 -8 -30.5 -10t-35.5 -3q-7 6 -10 15t-3 19.5t1 21t1 18.5q5 48 6 94.5t2 94.5q2 74 -1 146.5t-7 146.5v23.5
t1 23.5q0 4 -1 12t-1 16t1.5 14t6.5 8q10 4 21.5 4.5t21.5 0.5h12.5t12 -1t9.5 -4.5t4 -10.5zM273 744q-1 -7 -8 -14q-7 -8 -15 -12.5t-17 -9.5q-14 -6 -28 -6q-11 1 -20.5 2.5t-19.5 5.5q-8 3 -15 7t-15 8q-8 3 -15 9q-18 9 -42 3q-10 -3 -16 -10q-2 -3 -6 -6q-8 -8 -16 -1
l-17 20q-2 4 -2 11.5t4 10.5q6 8 13 12q8 5 16.5 10.5t17.5 8.5q4 0 8 1t8 1q14 -1 27 -3.5t26 -10.5q19 -12 41 -18q4 -2 12 -4q8 -1 14.5 0.5t12.5 8.5l16 15q6 3 12 1l2 -2q6 -7 12.5 -18.5t9.5 -19.5z" />
    <glyph glyph-name="itilde" unicode="&#x129;" horiz-adv-x="294" 
d="M178 473q2 -14 1 -28.5t-1 -28.5q-2 -35 -4.5 -70t-4.5 -70q-2 -48 -1.5 -95.5t-0.5 -95.5q-1 -14 -1 -26.5t2 -26.5q1 -6 2 -17.5t-9 -13.5q-9 -2 -17.5 -1.5t-17.5 1.5q-5 0 -12.5 2.5t-9.5 2.5t-2.5 -0.5t-1.5 -0.5q-6 19 -4 42t2 43v76t1 76q1 29 1.5 59t-0.5 60
l-2 62q0 12 -1 26t2 25q4 0 16.5 2t26 3t24 0t12.5 -6zM273 547q-1 -7 -8 -14q-12 -12 -32 -22q-14 -6 -28 -6q-11 1 -20.5 2.5t-19.5 5.5q-8 3 -15 7t-15 8q-4 2 -7.5 4.5t-7.5 4.5q-18 9 -42 3q-9 -1 -16 -10l-2.5 -2.5t-3.5 -2.5q-8 -8 -16 -1l-17 20q-2 4 -2 11t4 10
q6 7 13 13q8 5 16.5 10.5t17.5 7.5q10 2 16 2q14 0 27 -3t26 -11q19 -12 41 -18q3 -2 6 -2t6 -1q16 -3 27 8l16 15q6 3 12 1l2 -2q6 -7 12.5 -18t9.5 -20z" />
    <glyph glyph-name="Imacron" unicode="&#x12a;" horiz-adv-x="317" 
d="M193 644q0 -20 -2 -38.5t-3 -37.5v-81q0 -42 -3 -82t-3 -82t2.5 -83.5t0.5 -83.5q-2 -17 -2 -33.5t1 -32.5q1 -18 2 -38t-3 -37q-11 -8 -30.5 -10t-35.5 -3q-7 6 -10 15t-3 19.5t1 21t1 18.5q5 48 6 94.5t2 94.5q1 74 -2 146.5t-6 146.5v23.5t1 23.5q0 4 -1 12t-1 16
t1.5 14t6.5 8q10 4 21.5 4.5t21.5 0.5q11 0 24 -1t13 -15zM261 755q6 -1 11.5 -1t12.5 -2q2 0 3.5 -1t3.5 -2q3 0 3 -7q0 -11 0.5 -21t0.5 -21q0 -12 -6 -12h-18q-1 0 -20 1t-43 2.5t-47 2.5t-32 2h-83q-7 0 -10 -1q-4 -1 -7 0t-6 1t-3 10q1 11 0.5 20.5t-0.5 19.5q0 7 3 10
q2 1 5 1l57 -2h175z" />
    <glyph glyph-name="imacron" unicode="&#x12b;" horiz-adv-x="219" 
d="M142 473q2 -14 1.5 -28.5t-1.5 -28.5l-4 -70l-4 -70q-3 -48 -2.5 -95.5t-0.5 -95.5q-1 -14 -0.5 -26.5t2.5 -26.5q1 -6 2 -17.5t-10 -13.5q-8 -2 -17 -1.5t-18 1.5q-5 0 -12.5 2.5t-9.5 2.5t-2 -0.5t-1 -0.5q-7 19 -5 42t2 43v76t1 76q1 29 2 59t0 60l-3 62q0 12 -1 26
t2 25q4 0 16.5 2t26 3t24.5 0t12 -6zM176 560q5 0 15 -2q1 0 5 -2q2 -2 2 -6v-35q0 -10 -3 -10h-12q-1 0 -13 1t-28 2t-30.5 2t-20.5 1q-3 0 -11 0.5t-16 0.5h-15.5h-10.5q-5 0 -7 -1q-3 -1 -8 1q-2 0 -2 8q1 8 0.5 16.5t-0.5 16.5q0 6 2 8q1 1 4 1l36 -2h113z" />
    <glyph glyph-name="Iogonek" unicode="&#x12e;" horiz-adv-x="198" 
d="M164 -51q7 1 11 -4t2 -13q-6 -19 -9 -35q0 -7 -2 -12q-1 -5 -9 -7h-8q-33 1 -65 12q-8 3 -15.5 7t-15.5 8q-8 5 -13.5 11t-10.5 13q-14 20 -2 39q4 10 10 15q6 10 16 16q9 5 11.5 11.5t1.5 14.5v9q-1 11 0 22.5t2 19.5q5 48 6 94.5t2 94.5q1 74 -2 146.5t-6 146.5v23.5
t1 23.5q0 4 -1 12t-1 16t1.5 14t6.5 8q10 4 21.5 4.5t21.5 0.5q11 0 24 -1t13 -15q-1 -20 -2.5 -38.5t-2.5 -37.5q-1 -21 -0.5 -41t0.5 -40q-1 -42 -3.5 -82t-2.5 -82t2.5 -83.5t0.5 -83.5q-2 -17 -2 -33.5t1 -32.5q1 -14 2 -29.5t-1 -29.5q2 -17 0 -27t-6 -22l-12 -4
l-15 -6q-9 -5 -5 -14q3 -8 14 -10q4 -1 8 -1h8l25 2v0z" />
    <glyph glyph-name="iogonek" unicode="&#x12f;" horiz-adv-x="198" 
d="M164 -62q7 1 11 -4.5t2 -13.5q-6 -16 -9 -35q0 -7 -2 -11q-2 -6 -9 -8h-8q-35 2 -65 13q-8 2 -15.5 6t-15.5 9t-13.5 11t-10.5 13q-14 19 -2 39q4 10 10 15q3 5 7 8.5t9 7.5q9 4 11.5 10.5t1.5 14.5v9q0 5 5 10q-1 14 0.5 30.5t1.5 30.5v76t1 76q1 30 1.5 60t0.5 59
l-3 63q0 11 -1 25t2 25q4 0 16.5 2t26 3.5t24 0.5t12.5 -7q2 -14 1.5 -28.5t-1.5 -28.5q-2 -35 -4.5 -70t-4.5 -70q-2 -48 -1.5 -95.5t-0.5 -95.5q-1 -13 -0.5 -26t2.5 -26q0 -8 1 -12l2 -4q2 -17 0 -27t-6 -23l-12 -4l-15 -6q-9 -4 -5 -13q2 -8 14 -11q4 -1 8 -1h8z
M151 573q6 -14 6 -16t-2 1q1 -15 -5 -27t-16.5 -18.5t-23.5 -7.5t-25 7q-18 18 -15.5 36.5t15 30t31 12.5t33.5 -16v-1z" />
    <glyph glyph-name="Idotaccent" unicode="&#x130;" horiz-adv-x="132" 
d="M110 644q0 -20 -2 -38.5t-3 -37.5v-81q0 -42 -3 -82t-3 -82t2.5 -83.5t0.5 -83.5q-2 -17 -2 -33.5t1 -32.5q1 -18 2 -38t-3 -37q-11 -8 -30.5 -10t-35.5 -3q-7 6 -10 15t-3 19.5t1 21t1 18.5q5 48 6 94.5t2 94.5q1 74 -2 146.5t-6 146.5v23.5t1 23.5q0 4 -1 12t-1 16
t1.5 14t6.5 8q10 4 21.5 4.5t21.5 0.5q11 0 24 -1t13 -15zM99 698q-8 -5 -17 -6t-18 -1q-7 0 -10.5 1.5t-8.5 6.5q-3 3 -5.5 5t-3.5 7q-2 6 0 14.5t4 13.5q5 10 15 14q9 3 20.5 1.5t19.5 -6.5q5 -4 9.5 -9.5t5.5 -13.5q2 -11 -1.5 -17t-9.5 -10z" />
    <glyph glyph-name="dotlessi" unicode="&#x131;" horiz-adv-x="168" 
d="M124 473q2 -14 1 -28.5t-1 -28.5q-2 -35 -4.5 -70t-4.5 -70q-2 -48 -1.5 -95.5t-0.5 -95.5q-1 -14 -0.5 -26.5t2.5 -26.5q0 -6 1 -17.5t-9 -13.5q-9 -2 -17.5 -1.5t-17.5 1.5q-5 0 -12.5 2.5t-9.5 2.5t-2.5 -0.5t-1.5 -0.5q-6 19 -4 42t2 43v76t1 76q1 29 1.5 59t-0.5 60
l-2 62q0 12 -1 26t2 25q4 0 16.5 2t26 3t24 0t12.5 -6z" />
    <glyph glyph-name="Jcircumflex" unicode="&#x134;" horiz-adv-x="416" 
d="M330 653q0 -26 -1.5 -51.5t-3.5 -51.5q-1 -12 -1.5 -25t-1.5 -25l-2 -59q0 -24 -0.5 -47.5t-2.5 -47.5q-2 -20 -3 -40.5t-2 -40.5q-1 -17 -1.5 -32.5t-1.5 -32.5q0 -5 -0.5 -11t-1.5 -11q-2 -30 -5.5 -61.5t-17.5 -56.5q-14 -26 -44.5 -43t-61.5 -17q-15 0 -32 4
t-33 11.5t-29.5 18.5t-22.5 25q-16 27 -20.5 56t-8.5 60v7l-1 10.5t-2 25.5t-2.5 33t-2.5 33t-1.5 25.5l-0.5 10.5h30h36h2v-3q3 -18 3.5 -36t0.5 -36q0 -40 4 -79t29 -72q14 -17 33 -17q29 0 51 25q9 10 14 23t7 24q2 4 2.5 7t1.5 5q3 13 5.5 25t4.5 25q2 30 1 61.5
t-3 61.5q0 5 -0.5 10t-0.5 10l-1 10q-1 33 -2.5 67t0.5 68q1 14 0.5 28t-0.5 28q-2 21 -2 43t4 44q1 9 3.5 13.5t12.5 8.5q5 2 11 3t13 1h5q10 0 21 -2t20 -10l1 -1zM271 744q-14 -11 -27 -19.5t-25 -19.5l-13 -13q-4 -4 -7 -6q-10 -7 -17 0q-7 8 -13.5 14.5t-13.5 14.5
q-8 9 0 19l33 33l49 45q4 4 9 7t10 7l8 5q7 3 13 -3q25 -25 50.5 -48t54.5 -43q3 -2 5.5 -4.5l4.5 -4.5q6 -7 0 -13q-10 -8 -19 -16t-19 -16q-7 -5 -12 0l-10 8l-47 44q-3 2 -6 4.5t-8 4.5z" />
    <glyph glyph-name="jcircumflex" unicode="&#x135;" horiz-adv-x="341" 
d="M81 -120q-15 2 -32 10.5t-26 23.5q-5 6 0.5 12t9.5 11q6 6 9 14.5t12 11.5q8 0 13.5 -4t13.5 -5q22 -4 35.5 9t21 35t10.5 49.5t3.5 54t0 49t0.5 33.5q-1 84 0 158.5t4 153.5q13 2 27.5 3t28.5 1q8 0 11.5 -5t5 -12t1 -14t-0.5 -13q-2 -65 -1 -138.5t-0.5 -142t-7 -126
t-18.5 -91.5q-8 -15 -21.5 -30t-30 -26.5t-34.5 -17.5t-35 -4zM193 530q-12 -9 -25 -18t-24 -19l-13 -12q-3 -4 -7 -7q-6 -5 -9 -4.5t-8 5.5l-13.5 13.5t-12.5 14.5q-10 9 0 19q15 16 33 33l48 45q5 4 9.5 7t9.5 7l8 5q7 4 14 -3q24 -25 50 -48t54 -43q7 -4 10 -9
q7 -7 0 -12q-9 -8 -18.5 -16.5t-18.5 -16.5q-7 -6 -13 0l-10 8l-47 44q-3 2 -5.5 4.5t-6.5 3.5zM196 532q2 0 2 -1q-1 0 -2 -0.5t-3 -0.5q1 0 3 2z" />
    <glyph glyph-name="uni0136" unicode="&#x136;" horiz-adv-x="341" 
d="M92 436q4 3 17 17.5t29 35t34 43.5t33 43l25.5 34t11.5 16q7 8 12.5 17.5t16.5 10.5q4 1 12.5 2t16.5 0.5t14 -3.5t6 -10q0 -8 -4.5 -17t-9.5 -16q-14 -21 -38 -52t-47 -61t-41 -53.5t-21 -27.5q7 -11 11.5 -23t9.5 -23q4 -11 17.5 -42t28.5 -68t29.5 -72t21.5 -53
q7 -16 12.5 -31t10.5 -31q6 -14 13 -30t7 -31q-2 -3 -13 -5t-24 -2.5t-24.5 0.5t-14.5 4t-12.5 25.5t-21.5 55t-26 71.5t-27 76t-23.5 68t-15.5 48q-6 -5 -10.5 -11.5t-12.5 -11.5v-51l-4 -89q-2 -46 -3 -92t-1 -92q-13 -5 -29.5 -5h-30.5q-4 10 -4 22t-1 23q0 11 -0.5 42
t-0.5 67v71t1 53v198q0 23 0.5 45.5t1.5 45.5q0 20 -1.5 45t8.5 42q16 -1 32.5 2t30.5 -4q1 -25 1 -60t-1 -68.5t-2 -58.5t0 -29zM144 -115q4 2 6.5 3t8.5 3q12 6 13 20q-9 -6 -18.5 -5.5t-17.5 5.5t-13 13t-4 18q1 8 6 14.5t13 10.5t17 4t18 -4q7 -6 13.5 -14.5t8.5 -23.5
q1 -13 -3 -26.5t-16 -21.5q-3 -2 -11.5 -7t-15.5 -3q-2 3 -3.5 7.5t-1.5 6.5z" />
    <glyph glyph-name="uni0137" unicode="&#x137;" horiz-adv-x="320" 
d="M95 295q16 11 25.5 28t20.5 32q11 17 22.5 32.5t23.5 29.5l16 22t17 21q5 5 13 4.5t14 0.5q12 1 25 1t25 -2q6 -18 -5.5 -33t-22.5 -27q-12 -13 -23.5 -26.5t-22.5 -27.5q-10 -12 -20 -23.5t-20 -24.5q-2 -4 -4 -6t0 -7l10 -24l48 -118q11 -31 27 -64l20 -46
q3 -8 7.5 -18t-5.5 -17q-8 0 -16.5 0.5t-16.5 -0.5q-8 0 -15.5 -2t-12.5 6q-9 15 -15.5 31.5t-11.5 32.5q-15 40 -32.5 78t-37.5 76q-9 -6 -18 -15.5t-15 -19.5q-4 -8 -2 -21t2 -21q4 -35 3.5 -68.5t-0.5 -68.5q-5 -7 -12.5 -8.5t-17.5 -1.5t-20.5 1t-20.5 0q-7 11 -6 30.5
t1 32.5v54t1 54q2 42 2 84t1 84q0 50 0.5 99t-0.5 99v41t-1 41l-2 20q-1 6 7.5 8t19 2t20 -1.5t12.5 -1.5q4 0 7.5 -0.5t7.5 -0.5q-1 -25 -1.5 -59t-1.5 -71.5t-1 -74.5v-67.5t0.5 -52t1.5 -26.5zM130 -119q3 2 6 3l9 3q11 4 13 20q-9 -6 -19 -5.5t-18 5.5t-12.5 13t-3.5 18
q1 8 6 14.5t13 10.5t17 4t18 -4q7 -6 13.5 -15t8.5 -24q1 -12 -3 -25.5t-16 -21.5q-3 -2 -11.5 -7t-15.5 -3q-2 3 -4 7.5t-1 6.5z" />
    <glyph glyph-name="kgreenlandic" unicode="&#x138;" horiz-adv-x="334" 
d="M194 416q10 12 18 23t19 22q5 8 12 8.5t16 -0.5q12 -1 27.5 -0.5t25.5 -5.5q2 -6 -5 -13.5t-11 -12.5q-6 -8 -12.5 -16.5t-12.5 -17.5q-11 -17 -24.5 -33t-25.5 -32q-6 -7 -11.5 -14t-10.5 -15q-2 -5 -7 -10t-4 -10q0 -8 3 -16l6 -16q15 -48 36 -97q8 -20 17 -38t17 -37
q8 -16 18.5 -31.5t14.5 -32.5q-5 -3 -15 -6.5t-20.5 -5t-20 0t-12.5 7.5q-9 15 -16 31.5t-13 32.5q-16 37 -30 74.5t-30 75.5q-8 -8 -14.5 -16t-13.5 -16q-6 -9 -15 -18v-23l5 -53q0 -26 3 -53q1 -11 2.5 -25.5t-5.5 -24.5q-15 -2 -36 -2.5t-35 2.5q-4 7 -3 16t1 15
q0 11 -0.5 21t-0.5 21q-1 26 -1.5 51.5t-0.5 51.5q-1 27 -2 53.5t-4 53.5q-5 43 -2 86t1 87q0 6 7 8t17 2.5t21 0t18 0.5q8 -5 7.5 -17.5t0.5 -20.5q0 -13 -0.5 -25t-0.5 -26q-2 -25 0 -49q1 -14 0 -27t3 -26q9 10 20.5 26.5t24.5 35.5t27 39t27 37z" />
    <glyph glyph-name="Lacute" unicode="&#x139;" horiz-adv-x="274" 
d="M95 627q4 -14 4.5 -29.5t-0.5 -31t-2.5 -31t-1.5 -30.5q2 -37 3 -73t-1 -72q-2 -37 -2 -73v-72q0 -19 1 -37t3 -36q1 -17 0 -34.5t4 -33.5q14 -5 32 -7t37.5 -2.5t38.5 -2t36 -6.5q3 -8 4.5 -19.5t0.5 -20.5q-1 -11 -11.5 -11.5t-18.5 -1.5q-13 0 -25.5 -1t-26.5 -1
q-15 0 -30 0.5t-30 -0.5q-11 -1 -20.5 -0.5t-19.5 -0.5q-14 -1 -22.5 2t-12.5 17q-4 13 -4 24.5t-1 24.5q-1 7 -1.5 13.5t-0.5 13.5q-1 4 -0.5 9t-0.5 8q-4 36 -4 74v76q-1 44 -0.5 87t-0.5 88q0 19 -1 39t4 39q4 17 5 34.5t-1 34.5q-1 11 -0.5 24t6.5 24q2 4 10 4
t17.5 -1.5t18.5 -4t14 -3.5zM130 774q3 -3 -1.5 -19.5t-11.5 -35t-14 -33.5t-9 -15q-14 -1 -26.5 1t-20.5 8q-1 8 2.5 22t8.5 28.5t10 27t8 16.5q11 2 25.5 2.5t28.5 -2.5z" />
    <glyph glyph-name="lacute" unicode="&#x13a;" horiz-adv-x="152" 
d="M34 653q14 4 30.5 4.5t30.5 4.5q3 -4 5 -13t3.5 -20t1.5 -22.5v-19.5q-1 -22 -4 -43t-5 -44q-2 -22 -1 -43.5t1 -43.5q-1 -19 -1 -37.5v-38.5q1 -21 0.5 -42.5t1.5 -43.5q1 -21 -2 -42t-2 -42q1 -11 -0.5 -21t-0.5 -21q0 -10 1.5 -20t1.5 -21v-45q0 -8 -0.5 -16.5
t-4.5 -15.5l-28 -3.5t-31 -3.5q-10 7 -9.5 24t0.5 27q2 23 3 47t2 47q1 46 -0.5 91.5t0.5 91.5l4 45q0 10 -1 19t1 18t0 19t-2 19v21.5t1 21.5q0 20 0.5 39.5t1.5 38.5q0 10 0.5 19t-1.5 19q-2 11 0.5 23t2.5 23zM129 805q3 -3 -1.5 -19.5t-11.5 -35t-14 -33.5t-9 -15
q-13 -1 -26 1t-21 7q-1 8 2.5 22.5t8.5 29t10.5 26.5t8.5 17q11 2 25 2t28 -2z" />
    <glyph glyph-name="uni013B" unicode="&#x13b;" horiz-adv-x="274" 
d="M95 627q4 -14 4.5 -29.5t-0.5 -31t-2.5 -31t-1.5 -30.5q2 -37 3 -73t-1 -72q-2 -37 -2 -73v-72q0 -19 1 -37t3 -36q1 -17 0 -34.5t4 -33.5q14 -5 32 -7t37.5 -2.5t38.5 -2t36 -6.5q3 -8 4.5 -19.5t0.5 -20.5q-1 -11 -11.5 -11.5t-18.5 -1.5q-13 0 -25.5 -1t-26.5 -1
q-15 0 -30 0.5t-30 -0.5q-11 -1 -20.5 -0.5t-19.5 -0.5q-14 -1 -22.5 2t-12.5 17q-4 13 -4 24.5t-1 24.5q-1 7 -1.5 13.5t-0.5 13.5q-1 4 -0.5 9t-0.5 8q-4 36 -4 74v76q-1 44 -0.5 87t-0.5 88q0 19 -1 39t4 39q4 17 5 34.5t-1 34.5q-1 11 -0.5 24t6.5 24q2 4 10 4
t17.5 -1.5t18.5 -4t14 -3.5zM119 -115q3 2 5.5 3t9.5 3q11 6 12 20q-9 -6 -18.5 -5.5t-17.5 5.5t-13 13t-4 18q1 8 6 14.5t13 10.5t17 4t18 -4q7 -6 14 -14.5t8 -23.5q1 -13 -3 -26.5t-16 -21.5q-3 -2 -11.5 -7t-14.5 -3q-2 3 -4 7.5t-1 6.5z" />
    <glyph glyph-name="uni013C" unicode="&#x13c;" horiz-adv-x="129" 
d="M34 653q14 4 30.5 4.5t30.5 4.5q3 -4 5 -13t3.5 -20t1.5 -22.5v-19.5q-1 -22 -4 -43t-5 -44q-2 -22 -1 -43.5t1 -43.5q-1 -19 -1 -37.5v-38.5q1 -21 0.5 -42.5t1.5 -43.5q1 -21 -2 -42t-2 -42q1 -11 -0.5 -21t-0.5 -21q0 -10 1.5 -20t1.5 -21v-45q0 -8 -0.5 -16.5
t-4.5 -15.5l-28 -3.5t-31 -3.5q-10 7 -9.5 24t0.5 27q2 23 3 47t2 47q1 46 -0.5 91.5t0.5 91.5l4 45q0 10 -1 19t1 18t0 19t-2 19v21.5t1 21.5q0 20 0.5 39.5t1.5 38.5q0 10 0.5 19t-1.5 19q-2 11 0.5 23t2.5 23zM57 -115q3 2 6 3l9 3q12 6 13 20q-9 -6 -19 -5.5t-18 5.5
t-12.5 13t-3.5 18q2 17 19 25.5t34 -0.5q8 -6 14.5 -14.5t8.5 -23.5q1 -13 -3 -26.5t-16 -21.5q-3 -2 -11.5 -7t-15.5 -3q-2 3 -4 7.5t-1 6.5z" />
    <glyph glyph-name="Lcaron" unicode="&#x13d;" horiz-adv-x="306" 
d="M127 627q4 -14 4.5 -29.5t-0.5 -31t-2.5 -31t-0.5 -30.5q2 -37 2.5 -73t-1.5 -72q-1 -37 -1.5 -73t0.5 -72q0 -37 3 -73q2 -17 0.5 -34.5t3.5 -33.5q14 -5 32 -7t37.5 -2.5t38.5 -2t36 -6.5q3 -8 5 -19.5t1 -20.5q-1 -11 -11.5 -11.5t-18.5 -1.5q-14 0 -26.5 -1t-25.5 -1
q-15 0 -30 0.5t-30 -0.5q-11 -1 -21 -0.5t-20 -0.5q-14 -1 -22.5 2t-12.5 17q-4 13 -4 24.5t-1 24.5q-1 7 -1 13.5v13.5q-1 4 -0.5 9t-0.5 8q-5 36 -4.5 74t0.5 76q-1 44 -0.5 87t-0.5 88q0 19 -1.5 39t3.5 39q4 17 5 34.5t-1 34.5v24t6 24q3 4 11 4t17.5 -1.5t18 -4
t13.5 -3.5zM238 764q2 -1 7 -11t9 -22t6.5 -22.5t0.5 -12.5q-4 0 -18.5 -5.5t-33 -12t-37 -12.5t-28.5 -8q-7 -3 -27 3.5t-41 15.5t-38 17.5l-17 8.5q4 21 9.5 37.5t19.5 27.5q2 1 15 -6t28.5 -15.5t29 -15.5t16.5 -7q2 0 18 6t34 14q21 9 47 20z" />
    <glyph glyph-name="lcaron" unicode="&#x13e;" horiz-adv-x="193" 
d="M34 653q14 4 30.5 4.5t30.5 4.5q3 -4 5 -13t3.5 -20t1.5 -22.5v-19.5q-1 -22 -4 -43t-5 -44q-2 -22 -1 -43.5t1 -43.5q-1 -19 -1 -37.5v-38.5q1 -21 0.5 -42.5t1.5 -43.5q1 -21 -2 -42t-2 -42q1 -11 -0.5 -21t-0.5 -21q0 -10 1.5 -20t1.5 -21v-45q0 -8 -0.5 -16.5
t-4.5 -15.5l-28 -3.5t-31 -3.5q-10 7 -9.5 24t0.5 27q2 23 3 47t2 47q1 46 -0.5 91.5t0.5 91.5l4 45q0 10 -1 19t1 18t0 19t-2 19v21.5t1 21.5q0 20 0.5 39.5t1.5 38.5q0 10 0.5 19t-1.5 19q-2 11 0.5 23t2.5 23zM135 621q-1 8 2.5 13.5t8 10.5t7.5 10.5t1 13.5
q-5 -5 -12 -9.5t-18 -2.5q-17 4 -21.5 21t4.5 29q7 10 16.5 12.5t19.5 -1.5t17.5 -12.5t9.5 -18.5q2 -8 0.5 -19.5t-4.5 -19.5q-3 -9 -9 -17l-10 -10t-12 0z" />
    <glyph glyph-name="Ldot" unicode="&#x13f;" horiz-adv-x="315" 
d="M115 627q4 -14 5 -29.5t0 -31t-2.5 -31t-1.5 -30.5q2 -37 3 -73t-1 -72q-2 -37 -2.5 -73t0.5 -72q0 -19 1 -37t3 -36q1 -17 0 -34.5t4 -33.5q14 -5 32 -7t37 -2.5t38 -2t36 -6.5q3 -8 5 -19.5t1 -20.5q-1 -11 -11.5 -11.5t-18.5 -1.5q-13 0 -26 -1t-26 -1q-15 0 -30 0.5
t-30 -0.5q-11 -1 -20.5 -0.5t-20.5 -0.5q-14 -1 -22 2t-12 17q-4 13 -4.5 24.5t-0.5 24.5q-1 7 -1.5 13.5t-0.5 13.5q-1 4 -0.5 9t-0.5 8q-5 36 -4.5 74t0.5 76q-1 44 -0.5 87t-0.5 88q0 19 -1 39t4 39q4 17 4.5 34.5t-0.5 34.5q-1 11 -1 24t7 24q2 4 10 4t17.5 -1.5
t18.5 -4t13 -3.5zM246 382q-8 -5 -17 -6t-18 -1q-7 1 -10.5 2t-8.5 6q-7 7 -9 12q-2 6 0 14.5t4 13.5q6 10 15 14q22 7 40 -5q13 -8 16 -23q3 -19 -12 -27z" />
    <glyph glyph-name="ldot" unicode="&#x140;" horiz-adv-x="236" 
d="M54 653q14 4 30 4.5t31 4.5q3 -4 5 -13t3 -20t1.5 -22.5t-0.5 -19.5q0 -22 -3 -43t-5 -44q-2 -22 -1 -43.5t1 -43.5q-1 -19 -1 -37.5v-38.5q1 -21 0.5 -42.5t1.5 -43.5q1 -21 -2 -42t-2 -42q1 -11 -0.5 -21t-0.5 -21q0 -10 1.5 -20t1.5 -21v-45q0 -8 -0.5 -16.5
t-4.5 -15.5l-28 -3.5t-31 -3.5q-10 7 -10 24t1 27q2 23 3 47t1 47q2 46 0.5 91.5t0.5 91.5l4 45q0 10 -1 19t1 18t0 19t-2 19v21.5t1 21.5q0 20 0.5 39.5t0.5 38.5q1 10 1.5 19t-1.5 19q-2 11 0.5 23t2.5 23zM204 511q-8 -5 -17 -6t-18 -1q-7 1 -10.5 2t-8.5 6q-7 7 -9 12
q-2 6 0 14.5t4 13.5q6 10 15 14q22 7 40 -5q13 -8 16 -23q3 -19 -12 -27z" />
    <glyph glyph-name="Lslash" unicode="&#x141;" horiz-adv-x="315" 
d="M-12 164h-11.5h-19.5t-21 -0.5t-16 -1.5q0 1 -2.5 1.5t-3.5 0.5q0 2 11 16.5t29 36.5t41.5 49.5t47.5 55.5v115q0 19 -1 39t4 39q4 17 4.5 34.5t-0.5 34.5q-1 11 -1 24t7 24q2 4 10 4t17.5 -1.5t18.5 -4t13 -3.5q4 -14 5 -29.5t0 -31t-2.5 -31t-1.5 -30.5q3 -51 3 -99
q24 27 42 45.5t20 19.5q6 2 14 2t16 -1q10 0 19.5 -1t15.5 -2.5t8 -4.5t-3 -8l-2 -2q-2 -2 -1 -2q-1 -2 -12.5 -16t-30 -35t-42 -47.5t-47.5 -53.5q-1 -43 0 -85q0 -19 1 -37t3 -36q1 -17 0 -34.5t4 -33.5q14 -5 32 -7t37 -2.5t38 -2t36 -6.5q3 -8 5 -19.5t1 -20.5
q-1 -11 -11.5 -11.5t-18.5 -1.5q-13 0 -26 -1t-26 -1q-15 0 -30 0.5t-30 -0.5q-11 -1 -20.5 -0.5t-20.5 -0.5q-14 -1 -22 2t-12 17q-4 13 -4.5 24.5t-0.5 24.5q-1 7 -1.5 13.5t-0.5 13.5q-1 4 -0.5 9t-0.5 8q-3 26 -4 53t-1 55q-23 -24 -38 -40t-17 -16z" />
    <glyph glyph-name="lslash" unicode="&#x142;" horiz-adv-x="295" 
d="M66 212h-11h-19.5t-20.5 -0.5t-16 -1.5q0 1 -2.5 1.5t-3.5 0.5q0 3 11.5 18.5t31 39.5t44.5 53t51 58q0 8 -0.5 14.5t1.5 14.5q2 9 0 19t-2 19v21.5t1 21.5q0 20 0.5 39.5t1.5 38.5q2 21 -1 38q-2 11 0.5 23t2.5 23q14 4 30.5 4.5t30.5 4.5q3 -4 5 -13t3.5 -20t1.5 -22.5
v-19.5q-1 -22 -4 -43t-4 -44q-2 -11 -2 -23t1 -24q25 28 42.5 46.5t20.5 19.5q6 2 14 2t16 -1q9 0 18.5 -0.5t16 -2.5t8.5 -5t-3 -8l-2 -2q-2 -2 -1 -2q-1 -2 -12.5 -15.5t-30 -34.5t-41.5 -47.5t-47 -53.5q0 -3 0.5 -6t0.5 -6q1 -21 0.5 -42.5t0.5 -43.5q1 -21 -2 -42
t-2 -42q1 -11 0 -21t-1 -21q0 -10 2 -20t2 -21v-22.5t-1 -22.5v-16.5t-5 -15.5q-16 -2 -27.5 -3.5t-31.5 -3.5q-9 7 -9 24t1 27q1 23 2 47t2 47q1 32 0.5 64.5t-0.5 64.5q-25 -27 -42 -44.5t-20 -17.5z" />
    <glyph glyph-name="Nacute" unicode="&#x143;" horiz-adv-x="381" 
d="M258 2q-2 5 -3.5 10t-3.5 10q-8 19 -21.5 58t-28 81.5t-27 81.5t-19.5 60q-8 27 -15 58.5t-23 55.5q2 -3 0.5 -6.5t-1.5 -5.5q-2 -14 0 -27q1 -24 0 -48q-1 -26 -3.5 -51.5t-3.5 -51.5l-5 -105q-2 -28 -4 -56.5t3 -54.5q-2 -5 -7 -6.5t-12 -2.5t-13.5 -1h-9.5
q-11 -1 -23 0t-17 12q4 7 4 15v16q0 13 1 24.5t1 23.5q2 24 3 48t0 48q-1 49 1.5 98t3.5 98q1 50 3.5 98.5t2.5 98.5v37q1 7 1 17t5 15q11 11 30.5 10t32.5 0q8 -8 10 -20t6 -23l18 -56q8 -29 16 -58.5t20 -57.5q11 -24 19.5 -49.5t19.5 -50.5q5 -11 10 -23t11 -24
q2 -13 7.5 -25t13.5 -23q3 27 1.5 53t-1.5 53q-1 27 1 53.5t4 52.5q4 50 6 105q1 12 1.5 25t0.5 26q0 12 -3 28t2 27q7 -1 17.5 -1t21 -0.5t20.5 -1.5t17 -4q8 -3 9.5 -8.5t0.5 -14.5q-2 -14 -2 -29t-1 -29q-5 -59 -6.5 -116.5t-5.5 -115.5q-3 -61 -4 -129t-6 -128
q-1 -20 0 -40t-1 -40q-2 -10 -11.5 -14.5t-22 -5.5t-24 1t-17.5 5zM235 801q3 -3 -1.5 -19.5t-12 -35t-14.5 -33.5t-9 -15q-28 -3 -46 8q-1 8 2 22.5t8 29t10.5 26.5t8.5 17q11 2 25.5 2t28.5 -2z" />
    <glyph glyph-name="nacute" unicode="&#x144;" horiz-adv-x="293" 
d="M110 447q27 17 58 18t57 -19q13 -11 18.5 -22.5t7.5 -26.5q4 -19 7.5 -37t5.5 -38q3 -40 4 -80t3 -80q1 -20 1 -40t-2 -40q-2 -18 -1 -37t-3 -37q-6 -2 -13.5 -1.5t-14.5 1.5q-6 2 -13 1t-13 1q-8 5 -7.5 14.5t1.5 16.5q1 14 1 27.5t2 27.5q2 27 2.5 53.5t1.5 53.5v54.5
t-5 53.5q-2 10 -2.5 23t-3 25t-9 22t-18.5 13q-12 4 -21.5 1t-17.5 -9.5t-14.5 -15t-12.5 -16.5q-8 -9 -9.5 -23t-2.5 -26l-4 -59q-2 -29 -4 -58.5t-3 -58.5q0 -33 1 -65t-3 -64q-15 2 -32 0.5t-28 5.5q-5 29 -3 57t4 57q2 26 2 52.5t1 53.5q1 60 5 119t4 119q7 9 22 10.5
t24 4.5q17 5 22 -6.5t5 -25.5zM185 650q3 -3 -1.5 -19.5t-11.5 -35t-14 -33.5t-9 -15q-29 -3 -47 8q-1 8 2.5 22.5t8.5 29t10 26.5t8 17q11 2 25.5 2t28.5 -2z" />
    <glyph glyph-name="uni0145" unicode="&#x145;" horiz-adv-x="381" 
d="M258 2q-2 5 -3.5 10t-3.5 10q-8 19 -21.5 58t-28 81.5t-27 81.5t-19.5 60q-8 27 -15 58.5t-23 55.5q2 -3 0.5 -6.5t-1.5 -5.5q-2 -14 0 -27q1 -24 0 -48q-1 -26 -3.5 -51.5t-3.5 -51.5l-5 -105q-2 -28 -4 -56.5t3 -54.5q-2 -5 -7 -6.5t-12 -2.5t-13.5 -1h-9.5
q-11 -1 -23 0t-17 12q4 7 4 15v16q0 13 1 24.5t1 23.5q2 24 3 48t0 48q-1 49 1.5 98t3.5 98q1 50 3.5 98.5t2.5 98.5v37q1 7 1 17t5 15q11 11 30.5 10t32.5 0q8 -8 10 -20t6 -23l18 -56q8 -29 16 -58.5t20 -57.5q11 -24 19.5 -49.5t19.5 -50.5q5 -11 10 -23t11 -24
q2 -13 7.5 -25t13.5 -23q3 27 1.5 53t-1.5 53q-1 27 1 53.5t4 52.5q4 50 6 105q1 12 1.5 25t0.5 26q0 12 -3 28t2 27q7 -1 17.5 -1t21 -0.5t20.5 -1.5t17 -4q8 -3 9.5 -8.5t0.5 -14.5q-2 -14 -2 -29t-1 -29q-5 -59 -6.5 -116.5t-5.5 -115.5q-3 -61 -4 -129t-6 -128
q-1 -20 0 -40t-1 -40q-2 -10 -11.5 -14.5t-22 -5.5t-24 1t-17.5 5zM165 -106q3 2 6 2.5t9 3.5q11 4 13 19q-9 -5 -19 -4.5t-18 5t-13 12.5t-4 18q1 9 6.5 15.5t13.5 10.5t17 4t17 -5t14.5 -14t8.5 -24q1 -13 -3.5 -26t-15.5 -21q-3 -2 -12 -7t-15 -3q-2 3 -4 7t-1 7z" />
    <glyph glyph-name="uni0146" unicode="&#x146;" horiz-adv-x="293" 
d="M110 447q27 17 58 18t57 -19q13 -11 18.5 -22.5t7.5 -26.5q4 -19 7.5 -37t5.5 -38q3 -40 4 -80t3 -80q1 -20 1 -40t-2 -40q-2 -18 -1 -37t-3 -37q-6 -2 -13.5 -1.5t-14.5 1.5q-6 2 -13 1t-13 1q-8 5 -7.5 14.5t1.5 16.5q1 14 1 27.5t2 27.5q2 27 2.5 53.5t1.5 53.5v54.5
t-5 53.5q-2 10 -2.5 23t-3 25t-9 22t-18.5 13q-12 4 -21.5 1t-17.5 -9.5t-14.5 -15t-12.5 -16.5q-8 -9 -9.5 -23t-2.5 -26l-4 -59q-2 -29 -4 -58.5t-3 -58.5q0 -33 1 -65t-3 -64q-15 2 -32 0.5t-28 5.5q-5 29 -3 57t4 57q2 26 2 52.5t1 53.5q1 60 5 119t4 119q7 9 22 10.5
t24 4.5q17 5 22 -6.5t5 -25.5zM144 -115q4 2 6.5 3t8.5 3q12 6 13 20q-9 -6 -18.5 -5.5t-17.5 5.5t-13 13t-4 18q1 8 6 14.5t13 10.5t17 4t18 -4q7 -6 13.5 -14.5t8.5 -23.5q1 -13 -3 -26.5t-16 -21.5q-3 -2 -11.5 -7t-15.5 -3q-2 3 -3.5 7.5t-1.5 6.5z" />
    </font>
</defs>
</svg>
