<?xml version="1.0" encoding="UTF-8"?>
<svg width="115px" height="40px" viewBox="0 0 115 40" version="1.1" xmlns="http://www.w3.org/2000/svg" xmlns:xlink="http://www.w3.org/1999/xlink">
    <!-- Generator: Sketch 52.6 (67491) - http://www.bohemiancoding.com/sketch -->
    <title>article-heading-bg</title>
    <desc>Created with Sketch.</desc>
    <g id="Page-1" stroke="none" stroke-width="1" fill="none" fill-rule="evenodd">
        <g id="Group">
            <g id="article-heading-bg">
                <path d="M114.626376,2.15235808 C114.337886,2.28775575 114.01758,2.34076344 113.700852,2.30552402 C112.91845,2.34218341 112.134039,2.34218341 111.349127,2.33163755 C107.516965,2.26886463 107.231223,2.53251092 102.85821,2.215131 C99.8256158,1.90274895 96.7702568,1.87819981 93.7330349,2.14181223 C89.1400655,2.39641921 85.8572926,2.844869 81.2643231,2.72334061 C76.6713537,2.60181223 67.1529694,2.84286026 65.1834061,2.7569869 C63.2133406,2.66106987 54.7882096,2.7780786 49.8668122,2.84286026 C44.9454148,2.90764192 24.8314629,2.76753275 13.5961135,3.19137555 C9.90037846,3.32529112 6.21770015,3.57270015 2.5480786,3.93360262 C2.34720524,3.95419214 1.89524017,4.08978166 1.75563319,3.93912664 C1.70304802,3.71264105 1.70304802,3.47711878 1.75563319,3.25063319 C1.73253275,3.02515284 1.69085153,2.80168122 1.68482533,2.57620087 C1.62229951,2.1789916 1.86470838,1.797203 2.25078603,1.68482533 C3.14417031,1.44076419 7.89633188,1.68482533 8.81582969,1.68482533 C13.1848253,1.68482533 18.5541703,1.2589738 22.4546288,1.30316594 C23.4253493,1.31320961 24.3985808,1.32375546 25.3818559,1.34484716 L31.8650437,1.34484716 C32.7187555,1.45080786 33.5845197,1.52412664 34.4527948,1.56831878 C35.3210699,1.61251092 36.1983843,1.64364629 37.0917686,1.65368996 C37.9956987,1.61 38.9428166,1.57836245 39.899476,1.54772926 C40.8706987,1.5160917 41.8554803,1.49248908 42.8543231,1.46135371 C44.7151672,1.2378398 46.5866291,1.11395854 48.4606987,1.09024017 C49.3937555,1.07969432 50.3258079,1.07969432 51.2568559,1.10078603 C60.1173799,1.33480349 68.0729694,1.86360262 77.8133188,0.539847162 C78.7067031,0.550393013 79.5327948,0.633253275 80.4382314,0.622707424 C83.1429913,0.581528384 85.754345,0.327423581 88.3024236,0.189323144 C88.6642647,0.176182669 89.0264615,0.202450778 89.3826201,0.267663755 C89.7577511,0.327423581 90.1213319,0.317882096 90.4944541,0.358558952 C91.6595761,0.454373659 92.8290756,0.486226425 93.9976856,0.453973799 C99.0792795,0.92150655 108.045262,0.38919214 113.401048,0.887860262 C113.779943,0.916530709 114.130977,1.09775627 114.373777,1.39004367 C114.491895,1.53875484 114.585788,1.70518603 114.651987,1.88318777 C114.702115,1.96915994 114.692661,2.07738471 114.628384,2.15336245 M113.106769,29.9125546 C113.175675,30.5552325 113.158787,31.2042208 113.05655,31.8424454 C113.021184,32.0760294 113.00857,32.3124944 113.018886,32.5485153 C113.084188,32.8607508 113.102804,33.1809469 113.074127,33.4986463 C112.836092,33.8833188 111.442031,33.5925546 111.042795,33.599083 C105.317904,33.6794323 98.9336463,34.0610917 91.5620961,34.3523581 C84.2025983,34.6431223 79.0753057,34.6692358 72.806048,34.4176419 C66.5367904,34.166048 54.5682533,34.2358515 43.85869,34.31369 C33.1511354,34.404083 32.9050655,33.8255677 26.6217467,34.2067249 C20.3384279,34.6004367 20.7010044,35.0252838 14.9650655,34.9841048 C13.1501747,34.971048 11.3393013,34.9293668 9.52591703,34.8279258 C6.71368996,34.6722489 3.8979476,34.5241048 1.08220524,34.4020742 C0.874552064,34.4756769 0.643132778,34.4255036 0.484606987,34.2725109 C0.264148472,33.8336026 0.563951965,33.0466812 0.530305677,32.5530349 C-0.0291266376,24.481441 0.502183406,16.5946507 1.47591703,8.00882096 C1.50956332,7.4689738 1.52613537,6.92812227 1.58137555,6.39078603 C1.63661572,5.85344978 2.46672489,6.03222707 2.83683406,6.01967249 C3.64467977,5.99054585 4.45336245,5.95924309 5.2628821,5.92576419 C7.1631441,5.83989083 9.0639083,5.73342795 10.9641703,5.62445415 C14.3739956,5.42358079 17.783821,5.20914847 21.1931441,5.0268559 C28.5405895,4.62812227 33.6678821,4.53471616 39.9491921,4.69240175 C46.2184498,4.8510917 58.1869869,4.62812227 68.8945415,4.3910917 C79.6020961,4.15406114 79.8617249,4.73408297 86.1314847,4.25851528 C92.4012445,3.7829476 92.0371616,3.36010917 97.7761135,3.32093886 C103.501004,3.29482533 101.928166,3.44045852 112.312314,3.71816594 C112.670305,3.67888564 113.030932,3.66931146 113.390502,3.68954148 C113.914782,3.78997817 113.803799,4.44532751 113.771659,4.82748908 C113.740806,5.59426405 113.765477,6.36226655 113.84548,7.12548035 C114.065437,10.6523144 113.702358,13.3480349 113.831419,16.5057642 C114.011703,21.0088428 112.715568,25.4632096 113.10476,29.9140611 M113.087686,35.2246507 C113.470852,35.5098908 112.845633,36.5494105 112.625175,36.7437555 C112.156638,37.1540393 111.586659,37.1801528 110.897162,37.5100873 C110.208166,37.8525764 108.599672,37.459869 107.692227,37.7360699 C106.593644,38.0759077 105.45229,38.2576789 104.302489,38.275917 C97.6319869,38.6058515 91.0769869,39.2802838 84.5355459,39.1612664 C83.6145415,39.135655 82.6774672,39.1225983 81.7735371,39.1225983 C72.4263974,39.1612664 64.6400437,39.1612664 56.2023581,39.280786 C55.320524,39.1999345 54.4366812,39.1225983 53.5668996,39.0678603 C45.1668777,40.4759825 37.3785153,37.8375109 30.124476,38.536048 C29.3320306,38.6294541 28.5536463,38.7228603 27.7612009,38.8032096 C22.1575069,39.3646672 16.5152168,39.430877 10.8998908,39.0010699 C9.96683406,38.9202183 9.03126638,38.8293231 8.09620087,38.7098035 C6.27729258,38.2995197 1.54270742,39.4500218 0.658864629,37.6135371 C0.500214347,37.2368822 0.425004899,36.83034 0.438406114,36.4218559 C0.430371179,36.0165939 0.739716157,35.9493013 1.06965066,35.9774236 C1.5858952,36.0241266 2.09812227,36.0276419 2.61888646,36.0447162 C6.409869,36.1747817 6.69561135,35.8438428 11.0053493,36.3073581 C15.3241266,36.75631 15.48131,36.7693668 20.0250655,36.5202838 C24.5823799,36.2691921 27.8274891,35.7670087 32.3687336,35.9774236 C36.9099782,36.1878384 46.3229039,36.0186026 48.2693668,36.1617249 C50.2173362,36.2943013 58.5500655,36.2681878 63.4172271,36.255131 C68.2843886,36.255131 88.1703493,36.7045852 99.280655,36.3329694 C102.950611,36.2084279 106.612533,35.9588428 110.262402,35.5385153 C110.909716,35.4626856 111.559039,35.3979039 112.204345,35.3095197 C112.459604,35.2150468 112.730781,35.1710445 113.002817,35.1799563 C113.03375,35.1893094 113.062692,35.204291 113.088188,35.2241485" id="Artikel" fill="#F2F2F2"></path>
                <text id="article-text" font-family="LunchBox" font-size="24" font-weight="normal" letter-spacing="3.75" fill="#FFFFFF">
                    <tspan x="19.419" y="28">ARTIKEL</tspan>
                </text>
            </g>
        </g>
    </g>
</svg>