<?xml version="1.0" encoding="UTF-8"?>
<svg width="872px" height="152px" viewBox="0 0 872 152" version="1.1" xmlns="http://www.w3.org/2000/svg" xmlns:xlink="http://www.w3.org/1999/xlink">
    <!-- Generator: Sketch 52.6 (67491) - http://www.bohemiancoding.com/sketch -->
    <title>figure-heading-main-banner-dancow</title>
    <desc>Created with Sketch.</desc>
    <g id="Page-1" stroke="none" stroke-width="1" fill="none" fill-rule="evenodd">
        <g id="figure-heading-main-banner-dancow" transform="translate(1.000000, 1.000000)">
            <g id="Group-5">
                <path d="M148.611824,137.385704 C148.990506,134.680922 149.575113,130.633378 146.298274,129.710229 C145.522944,133.303078 145.200236,135.698999 148.611824,137.385704 M139.359005,132.781658 C142.448576,128.890265 144.739322,124.432051 146.298274,119.732387 C145.869839,118.224533 137.431046,128.059294 139.359005,132.781658 C142.308989,129.065677 136.955621,126.895384 139.359005,132.781658 M760.257067,111.015447 C764.083961,110.757488 771.111681,105.74002 765.653969,103.339284 C764.213183,106.253874 762.484239,108.881613 760.257067,111.015447 M100.807432,115.12834 C101.582762,110.514663 106.923691,106.392827 106.204334,102.846755 C104.800172,106.842019 95.7774639,111.963359 100.807432,115.12834 M98.4945727,103.61444 C101.517805,103.041428 102.641411,100.57947 103.891475,98.2420205 C100.98157,98.9264709 97.7655417,99.3075619 98.4945727,103.61444 M723.24717,114.852497 C729.213477,109.793067 730.887138,101.658081 735.583342,95.6651851 C728.890768,97.589213 724.317567,108.88918 723.24717,114.852497 C728.937067,110.027637 724.728036,106.604009 723.24717,114.852497 M143.985415,95.9389653 C136.286709,105.748962 109.545438,124.344689 133.962102,129.710229 C136.00408,120.833699 144.8796,115.869198 146.298274,106.684493 C138.245073,111.091803 137.258981,121.461054 130.87806,127.407862 C128.453254,114.732804 141.95933,105.945699 147.069458,95.9389653 L143.985415,95.9389653 C136.659172,105.275006 145.013659,95.9389653 143.985415,95.9389653 M131.649243,95.9389653 C126.585415,104.787292 117.685708,110.811832 113.915478,120.500072 C121.714382,122.638722 131.218735,102.987085 137.046145,95.9389653 L131.649243,95.9389653 C126.518385,104.903546 133.44798,95.9389653 131.649243,95.9389653 M119.31238,95.9389653 C114.151118,103.570415 105.996336,108.327861 104.662658,118.197017 C111.493437,117.143858 107.452325,122.234243 112.605295,113.823413 C116.458449,107.534037 122.172531,102.593612 125.480466,95.9389653 L119.31238,95.9389653 C114.348751,103.278062 121.368179,95.9389653 119.31238,95.9389653 M749.462571,109.480765 C746.758592,112.925717 742.134946,118.501752 742.523302,123.296345 C749.95389,122.051264 752.494096,115.076061 755.254048,109.105865 C756.446757,106.523526 771.696979,92.4823188 764.111602,92.5944448 C761.543755,99.7959637 753.989473,103.710745 749.462571,109.480765 C746.325319,113.478781 754.082071,103.59174 749.462571,109.480765 M753.317797,94.1291271 C747.867686,99.7780785 724.023882,123.873484 728.644072,132.506502 C728.620577,132.309077 737.601824,120.374876 738.63076,118.762463 C744.305454,109.869423 751.260617,101.833493 756.40184,92.5944448 C755.098568,92.6350303 752.78018,91.0535716 753.317797,94.1291271 C746.25829,101.445524 753.100816,92.8895496 753.317797,94.1291271 M744.836161,91.0590747 C742.591713,97.7040906 737.080101,102.047427 733.280156,107.698442 C732.281626,109.183596 724.415002,122.774236 724.789537,123.296345 C735.001499,114.112327 739.03501,100.053922 749.462571,91.0590747 L744.836161,91.0590747 C741.278766,101.58998 746.377837,91.0590747 744.836161,91.0590747 M722.475986,91.8274477 C722.205105,94.7214003 722.975597,97.2789747 724.789537,99.5029226 C726.948989,96.5628814 729.261848,93.7480361 731.728806,91.0590747 C728.584644,90.6717927 725.500601,90.9276877 722.475986,91.8274477 C723.012222,94.6189047 724.33968,90.3553634 722.475986,91.8274477 M312.842809,6.13632139 C262.72072,3.37306787 213.109299,4.40971787 163.05493,7.70952547 C150.302762,8.55012687 96.5348268,7.71502859 95.6772653,21.1694661 C94.154938,45.0605684 97.6715624,68.9805621 96.1810222,92.8689129 C133.740284,88.5751045 172.049998,90.8155617 209.722587,92.1369981 C250.328576,93.5602422 291.135653,91.4745602 331.347067,94.404283 C375.188433,97.595404 435.118925,91.9657135 479.021793,92.3213526 C519.965002,92.6536034 726.278695,84.1182661 767.196336,87.9890223 C766.125939,61.0897777 769.160228,34.284774 768.738012,7.39722348 C739.954072,6.39359219 529.73609,6.73065822 500.939712,7.03470553 C438.25134,7.69507979 375.486264,9.59021632 312.842809,6.13632139 C277.304795,4.1772111 405.037932,11.2191395 312.842809,6.13632139 M141.672555,140.455757 C131.081221,132.117156 94.7851525,125.5994 94.0899817,113.679644 C92.9567014,94.2625777 90.7046521,75.5994383 90.1483773,55.9705014 C89.8222137,44.4717347 78.1694654,48.5454184 68.2000532,48.2750777 C55.7498626,47.9373238 72.5908237,50.3002254 60.1551446,49.5745016 C49.6460421,48.9615918 39.1604345,47.8107521 28.6299102,47.5933789 C21.3050492,47.4420431 5.87792454,53.1928022 0.595732327,46.1027216 C7.21920334,37.0686642 44.3804345,45.0701989 54.4790683,45.4946269 C76.0708237,46.4005779 68.4108157,44.6505861 90.0129365,43.7460109 C89.1878531,34.4292308 88.9321739,24.9679939 89.5430397,15.6292013 C90.2299182,5.12718698 105.766225,7.22731469 113.915478,7.57745062 C135.925303,8.52329916 158.295153,4.98616956 180.210307,3.1742677 C230.82717,-1.01085413 281.259529,0.497688305 331.985573,1.15462311 C382.61211,1.81087003 433.24072,2.37150025 483.868639,2.86334149 C509.36883,3.11166973 716.274041,3.06695689 741.772849,3.28226641 C750.970387,3.35999796 776.29713,-1.30114365 775.76435,9.41824386 C775.25161,19.7297127 771.959569,30.02536 773.364422,40.4014905 C796.021046,36.0175685 781.846749,37.669192 804.85856,36.8347816 C816.259775,36.4213598 827.666519,36.1283188 839.065661,35.6591779 C853.274509,35.0737836 839.024199,42.5876044 849.271403,44.5845487 C838.624787,57.4109428 803.598822,73.0398001 826.256828,90.6621623 C832.444954,95.4753275 872.504342,126.303111 865.463492,132.851822 C867.819886,132.601431 869.105883,133.625011 869.318719,135.921875 C839.751157,138.113492 847.518274,136.009925 817.912015,137.47857 C790.248917,138.849534 758.196431,138.11418 731.665923,146.791222 C729.008242,147.661403 719.373977,144.987575 725.689251,141.830161 C728.866582,140.241823 736.444358,140.420674 739.673516,139.931585 C756.806781,137.335488 773.950411,136.1647 791.23501,135.178266 C827.607782,133.10359 826.660387,130.460029 863.149942,132.851822 C848.885812,117.310327 834.994144,100.908282 817.06551,89.3682415 C799.959195,78.3578766 832.430442,50.1660869 843.103318,43.8175515 C835.998203,34.1107378 816.469156,41.0027062 806.864604,41.5144963 C791.861078,42.3138243 814.237837,39.2602812 799.266789,40.6890285 C793.416574,41.247595 787.540792,42.0689355 781.870244,43.6476427 C770.232698,46.8896676 772.369346,51.4744534 772.687218,62.6650454 C772.960172,72.2879365 773.540633,81.9053245 773.512301,91.5357824 C773.459092,109.435364 776.438099,92.7547232 779.532508,101.036917 C777.685399,113.418934 744.190053,128.702471 734.418965,134.78892 C717.331308,145.430576 717.059736,109.45944 716.405335,98.0748633 C715.845605,88.3198973 537.186026,96.0270152 528.530252,95.8577943 C515.679267,95.6080903 502.821372,95.840597 489.97937,96.3434445 C463.7308,97.3704641 421.549275,95.5393013 395.353913,97.4358136 C345.778425,101.026599 294.930069,100.434325 245.244017,99.2277667 C220.312539,98.6217357 195.434271,96.6949562 170.502102,96.1026831 C165.005002,95.9671688 159.507901,95.9121376 154.009418,95.9389653 C152.283929,101.863761 151.035248,107.963968 150.794771,114.143282 C150.367027,125.124756 156.393453,133.131794 157.863953,143.525809 C101.602801,150.014674 74.0164075,146.972825 17.5590048,148.95326 C19.7585361,144.490919 18.3046203,145.387239 15.180498,144.140095 C7.33805957,141.009508 22.7181946,134.762093 24.498274,133.60231 C39.9958832,123.51303 52.3617689,110.403225 64.5922137,96.7603058 C52.6513082,87.6443895 39.2640882,80.665747 26.4725314,72.853382 C19.9029603,68.8416084 0.299973789,60.46311 0.595732327,50.7081441 C6.45285703,50.5437384 10.1208157,55.4992969 13.6063439,59.28957 C19.4040405,65.5940804 27.7039373,69.2474634 35.1144853,73.2695553 C48.2308237,80.3899032 60.2560342,89.8449491 74.6155258,94.4586263 C71.7173685,103.441092 53.7334527,114.000201 46.8197514,120.448481 C38.6373288,128.081994 24.4934369,132.860077 19.8718642,143.580153 C70.158417,144.759196 91.4475036,144.016275 141.672555,140.455757 C129.04408,130.512997 97.634938,143.576713 141.672555,140.455757" id="Fill-1" fill="#000000"></path>
                <path d="M148.611824,137.385704 C148.990506,134.680922 149.575113,130.633378 146.298274,129.710229 C145.522944,133.303078 145.200236,135.698999 148.611824,137.385704 Z M139.359005,132.781658 C142.448576,128.890265 144.739322,124.432051 146.298274,119.732387 C145.869839,118.224533 137.431046,128.059294 139.359005,132.781658 C142.308989,129.065677 136.955621,126.895384 139.359005,132.781658 Z M760.257067,111.015447 C764.083961,110.757488 771.111681,105.74002 765.653969,103.339284 C764.213183,106.253874 762.484239,108.881613 760.257067,111.015447 Z M100.807432,115.12834 C101.582762,110.514663 106.923691,106.392827 106.204334,102.846755 C104.800172,106.842019 95.7774639,111.963359 100.807432,115.12834 Z M98.4945727,103.61444 C101.517805,103.041428 102.641411,100.57947 103.891475,98.2420205 C100.98157,98.9264709 97.7655417,99.3075619 98.4945727,103.61444 Z M723.24717,114.852497 C729.213477,109.793067 730.887138,101.658081 735.583342,95.6651851 C728.890768,97.589213 724.317567,108.88918 723.24717,114.852497 C728.937067,110.027637 724.728036,106.604009 723.24717,114.852497 Z M143.985415,95.9389653 C136.286709,105.748962 109.545438,124.344689 133.962102,129.710229 C136.00408,120.833699 144.8796,115.869198 146.298274,106.684493 C138.245073,111.091803 137.258981,121.461054 130.87806,127.407862 C128.453254,114.732804 141.95933,105.945699 147.069458,95.9389653 L143.985415,95.9389653 C136.659172,105.275006 145.013659,95.9389653 143.985415,95.9389653 Z M131.649243,95.9389653 C126.585415,104.787292 117.685708,110.811832 113.915478,120.500072 C121.714382,122.638722 131.218735,102.987085 137.046145,95.9389653 L131.649243,95.9389653 C126.518385,104.903546 133.44798,95.9389653 131.649243,95.9389653 Z M119.31238,95.9389653 C114.151118,103.570415 105.996336,108.327861 104.662658,118.197017 C111.493437,117.143858 107.452325,122.234243 112.605295,113.823413 C116.458449,107.534037 122.172531,102.593612 125.480466,95.9389653 L119.31238,95.9389653 C114.348751,103.278062 121.368179,95.9389653 119.31238,95.9389653 Z M749.462571,109.480765 C746.758592,112.925717 742.134946,118.501752 742.523302,123.296345 C749.95389,122.051264 752.494096,115.076061 755.254048,109.105865 C756.446757,106.523526 771.696979,92.4823188 764.111602,92.5944448 C761.543755,99.7959637 753.989473,103.710745 749.462571,109.480765 C746.325319,113.478781 754.082071,103.59174 749.462571,109.480765 Z M753.317797,94.1291271 C747.867686,99.7780785 724.023882,123.873484 728.644072,132.506502 C728.620577,132.309077 737.601824,120.374876 738.63076,118.762463 C744.305454,109.869423 751.260617,101.833493 756.40184,92.5944448 C755.098568,92.6350303 752.78018,91.0535716 753.317797,94.1291271 C746.25829,101.445524 753.100816,92.8895496 753.317797,94.1291271 Z M744.836161,91.0590747 C742.591713,97.7040906 737.080101,102.047427 733.280156,107.698442 C732.281626,109.183596 724.415002,122.774236 724.789537,123.296345 C735.001499,114.112327 739.03501,100.053922 749.462571,91.0590747 L744.836161,91.0590747 C741.278766,101.58998 746.377837,91.0590747 744.836161,91.0590747 Z M722.475986,91.8274477 C722.205105,94.7214003 722.975597,97.2789747 724.789537,99.5029226 C726.948989,96.5628814 729.261848,93.7480361 731.728806,91.0590747 C728.584644,90.6717927 725.500601,90.9276877 722.475986,91.8274477 C723.012222,94.6189047 724.33968,90.3553634 722.475986,91.8274477 Z M312.842809,6.13632139 C262.72072,3.37306787 213.109299,4.40971787 163.05493,7.70952547 C150.302762,8.55012687 96.5348268,7.71502859 95.6772653,21.1694661 C94.154938,45.0605684 97.6715624,68.9805621 96.1810222,92.8689129 C133.740284,88.5751045 172.049998,90.8155617 209.722587,92.1369981 C250.328576,93.5602422 291.135653,91.4745602 331.347067,94.404283 C375.188433,97.595404 435.118925,91.9657135 479.021793,92.3213526 C519.965002,92.6536034 726.278695,84.1182661 767.196336,87.9890223 C766.125939,61.0897777 769.160228,34.284774 768.738012,7.39722348 C739.954072,6.39359219 529.73609,6.73065822 500.939712,7.03470553 C438.25134,7.69507979 375.486264,9.59021632 312.842809,6.13632139 C277.304795,4.1772111 405.037932,11.2191395 312.842809,6.13632139 Z M141.672555,140.455757 C131.081221,132.117156 94.7851525,125.5994 94.0899817,113.679644 C92.9567014,94.2625777 90.7046521,75.5994383 90.1483773,55.9705014 C89.8222137,44.4717347 78.1694654,48.5454184 68.2000532,48.2750777 C55.7498626,47.9373238 72.5908237,50.3002254 60.1551446,49.5745016 C49.6460421,48.9615918 39.1604345,47.8107521 28.6299102,47.5933789 C21.3050492,47.4420431 5.87792454,53.1928022 0.595732327,46.1027216 C7.21920334,37.0686642 44.3804345,45.0701989 54.4790683,45.4946269 C76.0708237,46.4005779 68.4108157,44.6505861 90.0129365,43.7460109 C89.1878531,34.4292308 88.9321739,24.9679939 89.5430397,15.6292013 C90.2299182,5.12718698 105.766225,7.22731469 113.915478,7.57745062 C135.925303,8.52329916 158.295153,4.98616956 180.210307,3.1742677 C230.82717,-1.01085413 281.259529,0.497688305 331.985573,1.15462311 C382.61211,1.81087003 433.24072,2.37150025 483.868639,2.86334149 C509.36883,3.11166973 716.274041,3.06695689 741.772849,3.28226641 C750.970387,3.35999796 776.29713,-1.30114365 775.76435,9.41824386 C775.25161,19.7297127 771.959569,30.02536 773.364422,40.4014905 C796.021046,36.0175685 781.846749,37.669192 804.85856,36.8347816 C816.259775,36.4213598 827.666519,36.1283188 839.065661,35.6591779 C853.274509,35.0737836 839.024199,42.5876044 849.271403,44.5845487 C838.624787,57.4109428 803.598822,73.0398001 826.256828,90.6621623 C832.444954,95.4753275 872.504342,126.303111 865.463492,132.851822 C867.819886,132.601431 869.105883,133.625011 869.318719,135.921875 C839.751157,138.113492 847.518274,136.009925 817.912015,137.47857 C790.248917,138.849534 758.196431,138.11418 731.665923,146.791222 C729.008242,147.661403 719.373977,144.987575 725.689251,141.830161 C728.866582,140.241823 736.444358,140.420674 739.673516,139.931585 C756.806781,137.335488 773.950411,136.1647 791.23501,135.178266 C827.607782,133.10359 826.660387,130.460029 863.149942,132.851822 C848.885812,117.310327 834.994144,100.908282 817.06551,89.3682415 C799.959195,78.3578766 832.430442,50.1660869 843.103318,43.8175515 C835.998203,34.1107378 816.469156,41.0027062 806.864604,41.5144963 C791.861078,42.3138243 814.237837,39.2602812 799.266789,40.6890285 C793.416574,41.247595 787.540792,42.0689355 781.870244,43.6476427 C770.232698,46.8896676 772.369346,51.4744534 772.687218,62.6650454 C772.960172,72.2879365 773.540633,81.9053245 773.512301,91.5357824 C773.459092,109.435364 776.438099,92.7547232 779.532508,101.036917 C777.685399,113.418934 744.190053,128.702471 734.418965,134.78892 C717.331308,145.430576 717.059736,109.45944 716.405335,98.0748633 C715.845605,88.3198973 537.186026,96.0270152 528.530252,95.8577943 C515.679267,95.6080903 502.821372,95.840597 489.97937,96.3434445 C463.7308,97.3704641 421.549275,95.5393013 395.353913,97.4358136 C345.778425,101.026599 294.930069,100.434325 245.244017,99.2277667 C220.312539,98.6217357 195.434271,96.6949562 170.502102,96.1026831 C165.005002,95.9671688 159.507901,95.9121376 154.009418,95.9389653 C152.283929,101.863761 151.035248,107.963968 150.794771,114.143282 C150.367027,125.124756 156.393453,133.131794 157.863953,143.525809 C101.602801,150.014674 74.0164075,146.972825 17.5590048,148.95326 C19.7585361,144.490919 18.3046203,145.387239 15.180498,144.140095 C7.33805957,141.009508 22.7181946,134.762093 24.498274,133.60231 C39.9958832,123.51303 52.3617689,110.403225 64.5922137,96.7603058 C52.6513082,87.6443895 39.2640882,80.665747 26.4725314,72.853382 C19.9029603,68.8416084 0.299973789,60.46311 0.595732327,50.7081441 C6.45285703,50.5437384 10.1208157,55.4992969 13.6063439,59.28957 C19.4040405,65.5940804 27.7039373,69.2474634 35.1144853,73.2695553 C48.2308237,80.3899032 60.2560342,89.8449491 74.6155258,94.4586263 C71.7173685,103.441092 53.7334527,114.000201 46.8197514,120.448481 C38.6373288,128.081994 24.4934369,132.860077 19.8718642,143.580153 C70.158417,144.759196 91.4475036,144.016275 141.672555,140.455757 C129.04408,130.512997 97.634938,143.576713 141.672555,140.455757 Z" id="Stroke-3" stroke="#000000" stroke-width="2.07307387"></path>
            </g>
            <text id="Gizi-Seimbang-untuk" font-family="LunchBox" font-size="72.3743501" font-weight="normal" fill="#000000">
                <tspan x="128.349879" y="70.6013865">Gizi Seimbang untuk Si Kecil</tspan>
            </text>
        </g>
    </g>
</svg>