<?xml version="1.0" encoding="UTF-8"?>
<svg width="127px" height="59px" viewBox="0 0 127 59" version="1.1" xmlns="http://www.w3.org/2000/svg" xmlns:xlink="http://www.w3.org/1999/xlink">
    <!-- Generator: Sketch 52.6 (67491) - http://www.bohemiancoding.com/sketch -->
    <title>figure-button-subscribe</title>
    <desc>Created with Sketch.</desc>
    <g id="Page-1" stroke="none" stroke-width="1" fill="none" fill-rule="evenodd">
        <g id="figure-button-subscribe">
            <path d="M125.562212,2.65587703 C117.298254,1.93830946 109.039565,1.29568784 100.762959,0.987931081 C92.5722498,0.684160811 84.3799593,0.558187838 76.1866149,0.448958108 C67.9716647,0.34212027 59.7556606,0.238471622 51.5407104,0.131633784 C43.5028224,0.0295797297 35.4622996,-0.146622973 27.4259925,0.230498649 C18.4711751,0.649877027 9.51108797,1.79240405 0.717523651,4.47291757 C0.0698763485,4.66985 -0.175692116,5.92479595 0.13153195,6.71172838 C2.94871867,13.9551743 5.76168963,21.1994176 8.57729544,28.4412689 C8.55990539,29.6762824 8.29220415,30.9447824 8.1225195,32.1088365 C7.65720415,35.2772959 7.19294274,38.4449581 6.7292083,41.611823 C6.19275187,45.2658365 4.78942822,52.4152014 4.25297178,56.0708095 C4.14915851,56.7851878 4.49485145,57.6845392 5.04237427,57.6064041 C12.4879469,56.5436068 20.469449,57.5952419 27.9102788,57.6247419 C37.3398971,57.6638095 43.2456606,58.8733095 50.840366,58.5248905 C54.6329759,58.3510797 58.4182083,57.9061878 62.2055485,57.5521878 C65.9949967,57.1949986 69.7886606,56.981323 73.5849593,56.847377 C81.1506813,56.5834716 88.7195651,56.6065932 96.2821253,56.1728635 C104.696798,55.6904986 115.000661,55.5214716 123.25408,52.9135122 C123.781051,52.7484716 124.102503,51.7877284 123.924914,51.0869041 C121.553017,41.7792554 119.897802,37.5798905 118.82647,31.2812419 C118.581955,29.8437149 118.176188,28.2674581 118.226777,26.7597689 C118.274204,25.3365932 118.846495,24.0680932 119.31181,22.8785257 C120.427407,20.0242014 121.544059,17.169877 122.659656,14.3131608 C123.902254,11.1359311 125.155918,7.96747162 126.385341,4.77828243 C126.762125,3.79840405 126.253071,2.71567432 125.562212,2.65587703" id="button-shape" fill="#F2F2F2"></path>
            <text id="text-shape" font-family="LunchBox" font-size="23" font-weight="normal" letter-spacing="1.91666663" fill="#FFFFFF">
                <tspan x="18.3280002" y="25">SUBSCRIBE</tspan>
                <tspan x="20.6663335" y="48">SEKARANG</tspan>
            </text>
        </g>
    </g>
</svg>