<?xml version="1.0" encoding="UTF-8"?>
<svg width="111px" height="28px" viewBox="0 0 111 28" version="1.1" xmlns="http://www.w3.org/2000/svg" xmlns:xlink="http://www.w3.org/1999/xlink">
    <!-- Generator: Sketch 52.6 (67491) - http://www.bohemiancoding.com/sketch -->
    <title>figure-button-arrow</title>
    <desc>Created with Sketch.</desc>
    <g id="Page-1" stroke="none" stroke-width="1" fill="none" fill-rule="evenodd">
        <g id="figure-button-arrow">
            <path d="M110.138878,12.3327475 C110.051378,12.2492475 109.951378,12.1552475 109.842878,12.0467475 C109.389878,11.5822475 108.909378,11.0612475 108.374878,10.4502475 C107.936378,9.94374751 107.516878,9.47074751 107.124878,9.02174751 L106.912378,8.78374751 C106.515378,8.33374751 106.136878,7.85424751 105.770378,7.39074751 L105.699378,7.30124751 C105.268378,6.75874751 104.823878,6.20124751 104.329878,5.66524751 L102.488878,3.66524751 L102.147378,3.28724751 C100.899378,1.91224751 99.3493781,0.201247509 97.1583781,0.179747509 C96.2518781,0.173247509 95.3463781,0.179747509 94.4373781,0.187247509 C93.8043781,0.193247509 93.1708781,0.197747509 92.5373781,0.197747509 C92.4983781,0.197747509 91.8093781,0.189747509 90.7238781,0.174747509 C86.2433781,0.118747509 42.9053781,-0.0142524912 42.0123781,0.00124750879 C41.6378781,0.0122475088 40.5068781,0.0192475088 39.1853781,0.0302475088 L37.4993781,0.0407475088 C35.3958781,0.0562475088 33.2318781,0.0717475088 32.4993781,0.0907475088 C31.0718781,0.131747509 29.5623781,0.172247509 27.9803781,0.210747509 C27.7178781,0.229747509 26.9203781,0.200247509 25.8093781,0.169747509 C23.6293781,0.117247509 20.3333781,0.0512475088 17.0683781,0.0427475088 C11.4493781,0.0672475088 6.74937807,0.0837475088 6.07387807,0.101247509 C5.79237807,0.109747509 5.50687807,0.130247509 5.22087807,0.151247509 C4.66520695,0.203144065 4.1063101,0.211168908 3.54937807,0.175247509 C2.66502682,0.0697990256 1.77327618,0.040191098 0.883878065,0.0867475088 L0.295378065,0.132247509 L0.0953780654,0.686747509 C-0.341121935,1.88274751 0.834378065,3.57724751 1.32537807,4.12274751 C1.48490304,4.31960312 1.6239545,4.53220107 1.74037807,4.75724751 C1.88843851,5.03227164 2.05761278,5.29539447 2.24637807,5.54424751 C2.36587807,5.69724751 2.65587807,6.10024751 3.35737807,7.15324751 L5.19337807,9.91074751 C5.85887807,10.9187475 6.42287807,11.7972475 6.92037807,12.5987475 C7.49487807,13.5227475 7.61237807,13.8037475 7.62037807,13.8062475 C7.62037807,13.9152475 7.52037807,14.2752475 6.80887807,15.4562475 C6.67137807,15.6812475 6.54887807,15.8852475 6.46737807,16.0407475 C5.63337807,17.6282475 4.85287807,19.2612475 4.14937807,20.8907475 C3.77887807,21.7512475 3.41687807,22.6377475 3.07337807,23.5322475 C3.05737807,23.5757475 3.01737807,23.6537475 2.96787807,23.7577475 L2.92737807,23.8427475 C2.19537807,25.3962475 1.95837807,26.0362475 2.37737807,26.5972475 L2.68937807,27.0167475 L3.21087807,26.9617475 C4.04374903,26.9127795 4.87897248,26.9199625 5.71087807,26.9832475 C6.34137807,27.0127475 6.99137807,27.0297475 7.52787807,27.0332475 C10.5868781,26.9802475 13.7078781,26.9952475 16.7243781,27.0112475 L22.5808781,27.0287475 C28.9748781,27.0367475 35.5808781,27.0487475 42.0758781,26.9747475 C44.1258781,26.9557475 79.0363781,27.0287475 81.0178781,27.1072475 C82.6333781,27.1662475 84.3138781,27.1957475 86.0128781,27.1957475 C89.7448781,27.1957475 93.3538781,27.0597475 96.6993781,26.9142475 C97.9363781,26.8547475 99.1493781,26.8142475 100.299378,26.7957475 C100.470203,26.7876855 100.641362,26.7901902 100.811878,26.8032475 C101.646378,26.8237475 102.785878,26.8532475 103.592378,25.8437475 C104.27433,24.9506521 104.896998,24.0138099 105.456378,23.0392475 L105.553878,22.8807475 C105.765878,22.5307475 105.976378,22.1842475 106.193878,21.8462475 C107.159878,20.3327475 108.117878,18.8097475 109.040378,17.3157475 C109.522878,16.5347475 110.003378,15.7482475 110.479378,14.9632475 C111.303378,13.6057475 110.816878,12.9752475 110.136378,12.3317475" id="Path" fill="#F2F2F2"></path>
            <text id="button-text" font-family="LunchBox" font-size="16" font-weight="normal" fill="#B9B9B9">
                <tspan x="23.226" y="17.5">Selengkapnya</tspan>
            </text>
        </g>
    </g>
</svg>